<?xml version="1.0" encoding="utf-8"?>
<!-- Generator: Adobe Illustrator 24.1.3, SVG Export Plug-In . SVG Version: 6.00 Build 0)  -->
<svg version="1.1" id="Layer_1" xmlns="http://www.w3.org/2000/svg" xmlns:xlink="http://www.w3.org/1999/xlink" x="0px" y="0px"
	 viewBox="0 0 512 512" style="enable-background:new 0 0 512 512;" xml:space="preserve">
<style type="text/css">
	.st0{fill:none;stroke:#003087;stroke-width:8;stroke-miterlimit:10;}
	.st1{fill:none;stroke:#003087;stroke-width:8;stroke-linecap:round;stroke-linejoin:round;stroke-miterlimit:10;}
	.st2{fill:none;stroke:#231F20;stroke-width:2;stroke-miterlimit:10;}
	.st3{fill:#003087;stroke:#003087;stroke-width:7;stroke-miterlimit:10;}
	.st4{fill:none;stroke:#003087;stroke-width:7;stroke-miterlimit:10;}
	.st5{fill:#003087;stroke:#003087;stroke-width:5.9816;stroke-linecap:round;stroke-linejoin:round;stroke-miterlimit:10;}
	.st6{fill:none;stroke:#003087;stroke-width:1.5924;stroke-miterlimit:10;}
	.st7{fill:none;stroke:#003087;stroke-width:4.7773;stroke-miterlimit:10;}
	.st8{fill:none;stroke:#003087;stroke-width:1.2617;stroke-miterlimit:10;}
	.st9{fill:none;stroke:#000000;stroke-width:2.9998;stroke-miterlimit:10;}
	.st10{fill:none;stroke:#003087;stroke-width:6.2158;stroke-miterlimit:10;}
	.st11{fill:none;stroke:#003087;stroke-width:3.5741;stroke-miterlimit:10;}
	.st12{fill:#003087;}
	.st13{fill:none;stroke:#003087;stroke-width:3.2417;stroke-miterlimit:10;}
	.st14{fill:none;stroke:#003087;stroke-width:5.6729;stroke-miterlimit:10;}
	.st15{fill:#003087;stroke:#003087;stroke-width:6.9881;stroke-linecap:round;stroke-linejoin:round;stroke-miterlimit:10;}
	.st16{fill:#003087;stroke:#003087;stroke-width:6.9881;stroke-miterlimit:10;}
	.st17{fill:none;stroke:#003087;stroke-width:7;stroke-linecap:round;stroke-linejoin:round;stroke-miterlimit:10;}
	.st18{fill:none;stroke:#003087;stroke-width:4.1218;stroke-miterlimit:10;}
	.st19{fill:none;stroke:#000000;stroke-width:5.884;stroke-miterlimit:10;}
	.st20{fill:none;stroke:#000000;stroke-width:4.2322;stroke-miterlimit:10;}
	.st21{fill:none;stroke:#000000;stroke-width:4.5849;stroke-miterlimit:10;}
	.st22{fill:none;stroke:#231F20;stroke-width:8;stroke-miterlimit:10;}
	.st23{fill:#FFFFFF;}
	.st24{fill:none;stroke:#003087;stroke-width:19.9736;stroke-linecap:round;stroke-linejoin:round;}
	.st25{fill:#003087;stroke:#003087;stroke-miterlimit:10;}
	.st26{fill:#FFFFFF;stroke:#003087;stroke-miterlimit:10;}
	.st27{fill:none;stroke:#003087;stroke-width:8.5308;stroke-linecap:round;stroke-linejoin:round;}
	.st28{fill:none;stroke:#003087;stroke-width:6.9514;stroke-miterlimit:10;}
	.st29{fill:none;stroke:#003087;stroke-width:5.1161;stroke-miterlimit:10;}
	.st30{fill:none;stroke:#003087;stroke-width:5.5424;stroke-miterlimit:10;}
</style>
<g>
	<g>
		<path class="st3" d="M213.01,115.28c24.92,0,49.62,0,74.26,0c0-4.19,0-8.14,0-12.06c-24.85,0-49.5,0-74.26,0
			C213.01,107.28,213.01,111.15,213.01,115.28z M213,139.82c24.94,0,49.64,0,74.26,0c0-4.2,0-8.14,0-12.04c-24.86,0-49.5,0-74.26,0
			C213,131.84,213,135.71,213,139.82z M231.85,90.82c12.32,0,24.4,0,36.57,0c0-4.16,0-8.16,0-12.12c-12.3,0-24.38,0-36.57,0
			C231.85,82.77,231.85,86.63,231.85,90.82z"/>
		<path class="st3" d="M243.06,370.76c-4.28-0.77-8.58-1.39-12.82-2.33c-35.19-7.8-62.81-37.46-68.17-73.23
			c-3.57-23.84,1.54-45.67,15.32-65.45c10.76-15.45,21.04-31.18,28.29-48.68c3.65-8.8,6.87-17.73,6.01-27.88c25.72,0,51.2,0,76.84,0
			c0.05,0.21,0.23,0.57,0.19,0.91c-1.52,13.84,3.23,26.14,10.08,37.59c8.09,13.52,16.8,26.68,25.45,39.85
			c8.02,12.21,13.1,25.42,14.61,39.98c0.08,0.74,0.36,1.46,0.55,2.19c0,5.14,0,10.28,0,15.41c-0.37,2.03-0.79,4.06-1.1,6.1
			c-5.41,35.74-33.08,65.48-68.19,73.2c-4.24,0.93-8.54,1.56-12.82,2.33C252.56,370.76,247.81,370.76,243.06,370.76z M224.56,165.44
			c-3.22,8.66-5.87,16.99-9.36,24.95c-7.47,17.04-17.84,32.41-28.36,47.67c-11.28,16.37-15.44,34.61-12.64,54.2
			c6.11,42.7,45.68,71.63,88.39,64.91c52.44-8.25,80.93-67.65,54.3-113.63c-5.51-9.52-12.14-18.38-18.15-27.62
			c-7.67-11.8-14.93-23.84-19.4-37.29c-1.42-4.29-2.32-8.75-3.47-13.19C258.57,165.44,241.3,165.44,224.56,165.44z"/>
		<path class="st3" d="M213.01,115.28c0-4.13,0-8,0-12.06c24.76,0,49.4,0,74.26,0c0,3.92,0,7.87,0,12.06
			C262.64,115.28,237.93,115.28,213.01,115.28z"/>
		<path class="st3" d="M213,139.82c0-4.1,0-7.98,0-12.04c24.75,0,49.39,0,74.26,0c0,3.9,0,7.84,0,12.04
			C262.65,139.82,237.94,139.82,213,139.82z"/>
		<path class="st3" d="M231.85,90.82c0-4.19,0-8.06,0-12.12c12.19,0,24.27,0,36.57,0c0,3.95,0,7.96,0,12.12
			C256.24,90.82,244.17,90.82,231.85,90.82z"/>
		<path class="st4" d="M224.56,165.44c16.74,0,34.01,0,51.3,0c1.15,4.44,2.05,8.9,3.47,13.19c4.46,13.46,11.72,25.5,19.4,37.29
			c6.01,9.24,12.64,18.1,18.15,27.62c26.63,45.98-1.86,105.39-54.3,113.63c-42.71,6.72-82.28-22.21-88.39-64.91
			c-2.8-19.6,1.37-37.83,12.64-54.2c10.52-15.27,20.89-30.63,28.36-47.67C218.69,182.43,221.34,174.1,224.56,165.44z M216.33,259.55
			c-1.47,0.91-3.26,1.53-4.32,2.79c-1.5,1.78-2.79,3.9-3.59,6.08c-5.2,14.1-4.83,28.12,1.5,41.78c3.26,7.04,8.51,12.28,15.8,15.28
			c3.4,1.4,6.77,0.24,8.2-2.79c1.45-3.07,0.23-6.41-3.3-7.93c-6.04-2.61-9.71-7.27-11.52-13.33c-3.31-11.07-3.77-22.01,2.5-32.42
			C224.04,264.93,221.25,260.05,216.33,259.55z"/>
		<path class="st3" d="M216.33,259.55c4.92,0.5,7.71,5.38,5.26,9.45c-6.27,10.41-5.81,21.35-2.5,32.42
			c1.81,6.06,5.48,10.72,11.52,13.33c3.53,1.53,4.75,4.86,3.3,7.93c-1.43,3.04-4.8,4.19-8.2,2.79c-7.28-3-12.53-8.24-15.8-15.28
			c-6.33-13.66-6.69-27.68-1.5-41.78c0.81-2.19,2.09-4.3,3.59-6.08C213.07,261.09,214.86,260.46,216.33,259.55z"/>
	</g>
	<line class="st5" x1="254.43" y1="377.24" x2="260.21" y2="433.3"/>
	<line class="st5" x1="184.98" y1="380.74" x2="145.13" y2="420.59"/>
	<line class="st5" x1="327.02" y1="380.74" x2="366.87" y2="420.59"/>
</g>
<rect x="28.22" y="47.88" class="st0" width="455.56" height="416.24"/>
</svg>
