<?xml version="1.0" encoding="utf-8"?>
<!-- Generator: Adobe Illustrator 24.1.3, SVG Export Plug-In . SVG Version: 6.00 Build 0)  -->
<svg version="1.1" id="Layer_1" xmlns="http://www.w3.org/2000/svg" xmlns:xlink="http://www.w3.org/1999/xlink" x="0px" y="0px"
	 viewBox="0 0 512 512" style="enable-background:new 0 0 512 512;" xml:space="preserve">
<style type="text/css">
	.st0{fill:none;stroke:#003087;stroke-width:8;stroke-miterlimit:10;}
	.st1{fill:none;stroke:#003087;stroke-width:8;stroke-linecap:round;stroke-linejoin:round;stroke-miterlimit:10;}
	.st2{fill:none;stroke:#231F20;stroke-width:2;stroke-miterlimit:10;}
	.st3{fill:#003087;stroke:#003087;stroke-width:7;stroke-miterlimit:10;}
	.st4{fill:none;stroke:#003087;stroke-width:7;stroke-miterlimit:10;}
	.st5{fill:#003087;stroke:#003087;stroke-width:5.9816;stroke-linecap:round;stroke-linejoin:round;stroke-miterlimit:10;}
	.st6{fill:none;stroke:#003087;stroke-width:1.5924;stroke-miterlimit:10;}
	.st7{fill:none;stroke:#003087;stroke-width:4.7773;stroke-miterlimit:10;}
	.st8{fill:none;stroke:#003087;stroke-width:1.2617;stroke-miterlimit:10;}
	.st9{fill:none;stroke:#000000;stroke-width:2.9998;stroke-miterlimit:10;}
	.st10{fill:none;stroke:#003087;stroke-width:6.2158;stroke-miterlimit:10;}
	.st11{fill:none;stroke:#003087;stroke-width:3.5741;stroke-miterlimit:10;}
	.st12{fill:#003087;}
	.st13{fill:none;stroke:#003087;stroke-width:3.2417;stroke-miterlimit:10;}
	.st14{fill:none;stroke:#003087;stroke-width:5.6729;stroke-miterlimit:10;}
	.st15{fill:#003087;stroke:#003087;stroke-width:6.9881;stroke-linecap:round;stroke-linejoin:round;stroke-miterlimit:10;}
	.st16{fill:#003087;stroke:#003087;stroke-width:6.9881;stroke-miterlimit:10;}
	.st17{fill:none;stroke:#003087;stroke-width:7;stroke-linecap:round;stroke-linejoin:round;stroke-miterlimit:10;}
	.st18{fill:none;stroke:#003087;stroke-width:4.1218;stroke-miterlimit:10;}
	.st19{fill:none;stroke:#000000;stroke-width:5.884;stroke-miterlimit:10;}
	.st20{fill:none;stroke:#000000;stroke-width:4.2322;stroke-miterlimit:10;}
	.st21{fill:none;stroke:#000000;stroke-width:4.5849;stroke-miterlimit:10;}
	.st22{fill:none;stroke:#231F20;stroke-width:8;stroke-miterlimit:10;}
	.st23{fill:#FFFFFF;}
	.st24{fill:none;stroke:#003087;stroke-width:19.9736;stroke-linecap:round;stroke-linejoin:round;}
	.st25{fill:#003087;stroke:#003087;stroke-miterlimit:10;}
	.st26{fill:#FFFFFF;stroke:#003087;stroke-miterlimit:10;}
	.st27{fill:none;stroke:#003087;stroke-width:8.5308;stroke-linecap:round;stroke-linejoin:round;}
	.st28{fill:none;stroke:#003087;stroke-width:6.9514;stroke-miterlimit:10;}
	.st29{fill:none;stroke:#003087;stroke-width:5.1161;stroke-miterlimit:10;}
	.st30{fill:none;stroke:#003087;stroke-width:5.5424;stroke-miterlimit:10;}
</style>
<g>
	<g>
		<path class="st25" d="M400.51,268.94c1.48,2.45,3.09,4.82,4.43,7.35c9.77,18.53,5.42,41.61-10.38,55.36
			c-15.42,13.42-38.99,14.71-55.67,2.84c-7.5-5.33-13.07-11.58-15.72-20.64c-12.77,0.01-25.47,0.02-37.96,0.04
			c0,12.24,0,24.92,0,37.89c6.41,1.68,11.77,5.63,16.57,10.57c14.94,15.37,16.15,41.39,3.17,58.42
			c-14.48,18.99-41.58,23.38-61.46,10.32c-20.93-13.76-26.55-44.02-11.57-64.14c5.05-6.79,11.06-12.35,19.37-14.96
			c0.58-0.18,1.07-1.05,1.32-1.71c0.22-0.6,0.05-1.34,0.05-2.02c-0.03-69.14-0.06-138.28-0.12-207.41c0-1.07-0.41-2.15-0.62-3.22
			c0.35-0.05,0.7-0.11,1.06-0.16c0.6,0.54,1.22,1.05,1.79,1.62c9.43,9.41,18.82,18.86,28.29,28.23c1.26,1.24,1.71,2.49,1.7,4.22
			c-0.03,35.54,0,71.09-0.01,106.63c0,0.92-0.19,1.85-0.39,3.78c1.73-0.32,2.89-0.7,4.04-0.71c10.86-0.04,21.72,0.01,32.57-0.07
			c0.84-0.01,2.18-0.65,2.43-1.32c5.19-13.91,15.49-22.24,29.35-26.13c14.03-3.94,27.18-1.36,39.08,7.21
			c0.32,0.23,0.75,0.3,1.12,0.44C395.47,263.9,397.99,266.42,400.51,268.94z M348.85,313.19c8.8,8.85,22.94,8.97,31.74,0.26
			c8.99-8.89,9.12-22.99,0.31-31.92c-8.83-8.94-23-9.08-31.97-0.3C340.06,289.92,340.02,304.31,348.85,313.19z M284.61,377.42
			c-8.87-8.82-23.28-8.77-31.95,0.1c-8.71,8.91-8.66,22.95,0.12,31.76c8.87,8.91,23.04,8.94,31.91,0.06
			C293.56,400.46,293.53,386.28,284.61,377.42z M272.68,301.12c2.37-2.41,2.34-5.41-0.08-7.81c-2.36-2.34-5.55-2.38-7.89-0.08
			c-2.39,2.36-2.33,5.67,0.16,8.06C267.32,303.64,270.28,303.58,272.68,301.12z"/>
		<path class="st25" d="M236.33,282.01c0,9.93-0.01,20.51-0.01,31.24c-0.7,0.02-1.61,0.06-2.52,0.06
			c-30.29-0.01-60.57-0.03-90.86,0.01c-1.74,0-2.98-0.48-4.21-1.73c-9.37-9.47-18.81-18.87-28.23-28.29
			c-0.53-0.53-1.06-1.06-1.23-1.23C151.51,282.05,194,282.03,236.33,282.01z"/>
		<path class="st26" d="M348.85,313.19c-8.83-8.88-8.79-23.27,0.08-31.96c8.96-8.78,23.14-8.65,31.97,0.3
			c8.81,8.93,8.68,23.03-0.31,31.92C371.79,322.16,357.65,322.04,348.85,313.19z"/>
		<path class="st26" d="M284.61,377.42c8.91,8.86,8.95,23.04,0.08,31.92c-8.87,8.88-23.04,8.86-31.91-0.06
			c-8.78-8.81-8.83-22.85-0.12-31.76C261.33,368.65,275.74,368.6,284.61,377.42z"/>
		<path class="st26" d="M272.68,301.12c-2.41,2.45-5.37,2.52-7.81,0.18c-2.49-2.39-2.55-5.7-0.16-8.06c2.33-2.3,5.52-2.27,7.89,0.08
			C275.02,295.72,275.06,298.71,272.68,301.12z"/>
		<g>
			<line class="st23" x1="101.88" y1="92.32" x2="236.33" y2="261.83"/>
			<g>
				<line class="st27" x1="117.09" y1="111.51" x2="236.33" y2="261.83"/>
				<g>
					<polygon class="st12" points="106.86,125.98 101.88,92.32 133.52,104.83 					"/>
				</g>
			</g>
		</g>
	</g>
	<rect x="28.22" y="57.33" class="st0" width="455.56" height="416.24"/>
</g>
</svg>
