<?xml version="1.0" encoding="utf-8"?>
<!-- Generator: Adobe Illustrator 24.1.3, SVG Export Plug-In . SVG Version: 6.00 Build 0)  -->
<svg version="1.1" id="Layer_1" xmlns="http://www.w3.org/2000/svg" xmlns:xlink="http://www.w3.org/1999/xlink" x="0px" y="0px"
	 viewBox="0 0 512 512" style="enable-background:new 0 0 512 512;" xml:space="preserve">
<style type="text/css">
	.st0{fill:#003087;stroke:#003087;stroke-miterlimit:10;}
	.st1{fill:none;stroke:#003087;stroke-miterlimit:10;}
	.st2{fill:#FFFFFF;stroke:#003087;stroke-miterlimit:10;}
	.st3{fill:none;}
	.st4{fill:none;stroke:#003087;stroke-width:8.5308;stroke-linecap:round;stroke-linejoin:round;}
	.st5{fill:#003087;}
	.st6{fill:none;stroke:#003087;stroke-width:8;stroke-miterlimit:10;}
</style>
<g>
	<g>
		<path class="st0" d="M400.5,268.9c1.5,2.5,3.1,4.8,4.4,7.4c9.8,18.5,5.4,41.6-10.4,55.4c-15.4,13.4-39,14.7-55.7,2.8
			c-7.5-5.3-13.1-11.6-15.7-20.6c-12.8,0-25.5,0-38,0c0,12.2,0,24.9,0,37.9c6.4,1.7,11.8,5.6,16.6,10.6
			c14.9,15.4,16.1,41.4,3.2,58.4c-14.5,19-41.6,23.4-61.5,10.3c-20.9-13.8-26.6-44-11.6-64.1c5.1-6.8,11.1-12.4,19.4-15
			c0.6-0.2,1.1-1,1.3-1.7c0.2-0.6,0.1-1.3,0.1-2c0-69.1-0.1-138.3-0.1-207.4c0-1.1-0.4-2.1-0.6-3.2c0.4-0.1,0.7-0.1,1.1-0.2
			c0.6,0.5,1.2,1.1,1.8,1.6c9.4,9.4,18.8,18.9,28.3,28.2c1.3,1.2,1.7,2.5,1.7,4.2c0,35.5,0,71.1,0,106.6c0,0.9-0.2,1.9-0.4,3.8
			c1.7-0.3,2.9-0.7,4-0.7c10.9,0,21.7,0,32.6-0.1c0.8,0,2.2-0.6,2.4-1.3c5.2-13.9,15.5-22.2,29.4-26.1c14-3.9,27.2-1.4,39.1,7.2
			c0.3,0.2,0.8,0.3,1.1,0.4C395.5,263.9,398,266.4,400.5,268.9z M348.9,313.2c8.8,8.9,22.9,9,31.7,0.3c9-8.9,9.1-23,0.3-31.9
			c-8.8-8.9-23-9.1-32-0.3C340.1,289.9,340,304.3,348.9,313.2z M284.6,377.4c-8.9-8.8-23.3-8.8-31.9,0.1c-8.7,8.9-8.7,23,0.1,31.8
			c8.9,8.9,23,8.9,31.9,0.1C293.6,400.5,293.5,386.3,284.6,377.4z M272.7,301.1c2.4-2.4,2.3-5.4-0.1-7.8c-2.4-2.3-5.5-2.4-7.9-0.1
			c-2.4,2.4-2.3,5.7,0.2,8.1C267.3,303.6,270.3,303.6,272.7,301.1z"/>
		<path class="st0" d="M236.3,282c0,9.9,0,20.5,0,31.2c-0.7,0-1.6,0.1-2.5,0.1c-30.3,0-60.6,0-90.9,0c-1.7,0-3-0.5-4.2-1.7
			c-9.4-9.5-18.8-18.9-28.2-28.3c-0.5-0.5-1.1-1.1-1.2-1.2C151.5,282,194,282,236.3,282z"/>
		<path class="st1" d="M348.9,313.2c-8.8-8.9-8.8-23.3,0.1-32c9-8.8,23.1-8.6,32,0.3c8.8,8.9,8.7,23-0.3,31.9
			C371.8,322.2,357.6,322,348.9,313.2z"/>
		<path class="st1" d="M284.6,377.4c8.9,8.9,9,23,0.1,31.9c-8.9,8.9-23,8.9-31.9-0.1c-8.8-8.8-8.8-22.9-0.1-31.8
			C261.3,368.6,275.7,368.6,284.6,377.4z"/>
		<path class="st2" d="M272.7,301.1c-2.4,2.5-5.4,2.5-7.8,0.2c-2.5-2.4-2.5-5.7-0.2-8.1c2.3-2.3,5.5-2.3,7.9,0.1
			C275,295.7,275.1,298.7,272.7,301.1z"/>
		<g>
			<line class="st3" x1="101.9" y1="92.3" x2="236.3" y2="261.8"/>
			<g>
				<line class="st4" x1="117.1" y1="111.5" x2="236.3" y2="261.8"/>
				<g>
					<polygon class="st5" points="106.9,126 101.9,92.3 133.5,104.8 					"/>
				</g>
			</g>
		</g>
	</g>
	<rect x="28.2" y="57.3" class="st6" width="455.6" height="416.2"/>
</g>
</svg>
