<?xml version="1.0" encoding="utf-8"?>
<!-- Generator: Adobe Illustrator 24.1.3, SVG Export Plug-In . SVG Version: 6.00 Build 0)  -->
<svg version="1.1" id="Layer_1" xmlns="http://www.w3.org/2000/svg" xmlns:xlink="http://www.w3.org/1999/xlink" x="0px" y="0px"
	 viewBox="0 0 512 512" style="enable-background:new 0 0 512 512;" xml:space="preserve">
<style type="text/css">
	.st0{fill:none;stroke:#003087;stroke-width:8;stroke-miterlimit:10;}
	.st1{fill:none;stroke:#003087;stroke-width:8;stroke-linecap:round;stroke-linejoin:round;stroke-miterlimit:10;}
	.st2{fill:none;stroke:#231F20;stroke-width:2;stroke-miterlimit:10;}
	.st3{fill:#003087;stroke:#003087;stroke-width:7;stroke-miterlimit:10;}
	.st4{fill:none;stroke:#003087;stroke-width:7;stroke-miterlimit:10;}
	.st5{fill:#003087;stroke:#003087;stroke-width:5.9816;stroke-linecap:round;stroke-linejoin:round;stroke-miterlimit:10;}
	.st6{fill:none;stroke:#003087;stroke-width:1.5924;stroke-miterlimit:10;}
	.st7{fill:none;stroke:#003087;stroke-width:4.7773;stroke-miterlimit:10;}
	.st8{fill:none;stroke:#003087;stroke-width:1.2617;stroke-miterlimit:10;}
	.st9{fill:none;stroke:#000000;stroke-width:2.9998;stroke-miterlimit:10;}
	.st10{fill:none;stroke:#003087;stroke-width:6.2158;stroke-miterlimit:10;}
	.st11{fill:none;stroke:#003087;stroke-width:3.5741;stroke-miterlimit:10;}
	.st12{fill:#003087;}
	.st13{fill:none;stroke:#003087;stroke-width:3.2417;stroke-miterlimit:10;}
	.st14{fill:none;stroke:#003087;stroke-width:5.6729;stroke-miterlimit:10;}
	.st15{fill:#003087;stroke:#003087;stroke-width:6.9881;stroke-linecap:round;stroke-linejoin:round;stroke-miterlimit:10;}
	.st16{fill:#003087;stroke:#003087;stroke-width:6.9881;stroke-miterlimit:10;}
	.st17{fill:none;stroke:#003087;stroke-width:7;stroke-linecap:round;stroke-linejoin:round;stroke-miterlimit:10;}
	.st18{fill:none;stroke:#003087;stroke-width:4.1218;stroke-miterlimit:10;}
	.st19{fill:none;stroke:#000000;stroke-width:5.884;stroke-miterlimit:10;}
	.st20{fill:none;stroke:#000000;stroke-width:4.2322;stroke-miterlimit:10;}
	.st21{fill:none;stroke:#000000;stroke-width:4.5849;stroke-miterlimit:10;}
	.st22{fill:none;stroke:#231F20;stroke-width:8;stroke-miterlimit:10;}
	.st23{fill:#FFFFFF;}
	.st24{fill:none;stroke:#003087;stroke-width:19.9736;stroke-linecap:round;stroke-linejoin:round;}
	.st25{fill:#003087;stroke:#003087;stroke-miterlimit:10;}
	.st26{fill:#FFFFFF;stroke:#003087;stroke-miterlimit:10;}
	.st27{fill:none;stroke:#003087;stroke-width:8.5308;stroke-linecap:round;stroke-linejoin:round;}
	.st28{fill:none;stroke:#003087;stroke-width:6.9514;stroke-miterlimit:10;}
	.st29{fill:none;stroke:#003087;stroke-width:5.1161;stroke-miterlimit:10;}
	.st30{fill:none;stroke:#003087;stroke-width:5.5424;stroke-miterlimit:10;}
</style>
<g>
	<g>
		<g>
			<g>
				<path class="st10" d="M115.68,210.79c0,91.57,65.22,171.77,150.97,180.66c87.97,9.12,165.7-43.88,165.7-135.46
					c0-97.4-78.96-176.36-176.36-176.36c-48.85,0-93.05,19.86-124.99,51.94C114.95,149.71,115.68,210.79,115.68,210.79z"/>
				<path class="st10" d="M266.66,391.46c-85.76-8.89-150.97-89.09-150.97-180.66c0,0-0.73-61.08,15.33-79.21
					C99.27,163.47,79.64,207.44,79.64,256c0,97.4,78.96,176.36,176.36,176.36S432.36,353.4,432.36,256
					C432.36,347.57,354.62,400.58,266.66,391.46z"/>
			</g>
			<path class="st11" d="M219.81,166.99h-77.53c-6.13,0-11.09-4.97-11.09-11.09v0c0-6.13,4.97-11.09,11.09-11.09h77.53
				c6.13,0,11.09,4.97,11.09,11.09v0C230.9,162.02,225.93,166.99,219.81,166.99z"/>
			<path class="st12" d="M219.81,166.99h-18.6c-6.13,0-11.09-4.97-11.09-11.09v0c0-6.13,4.97-11.09,11.09-11.09h18.6
				c6.13,0,11.09,4.97,11.09,11.09v0C230.9,162.02,225.93,166.99,219.81,166.99z"/>
		</g>
		<path class="st11" d="M381.37,166.99h-77.53c-6.13,0-11.09-4.97-11.09-11.09v0c0-6.13,4.97-11.09,11.09-11.09h77.53
			c6.13,0,11.09,4.97,11.09,11.09v0C392.46,162.02,387.5,166.99,381.37,166.99z"/>
		<path class="st12" d="M381.37,166.99h-18.6c-6.13,0-11.09-4.97-11.09-11.09v0c0-6.13,4.97-11.09,11.09-11.09h18.6
			c6.13,0,11.09,4.97,11.09,11.09v0C392.46,162.02,387.5,166.99,381.37,166.99z"/>
		<path class="st12" d="M268.18,324.88c-4.89,18.51,8.54,33.26,24.57,38.45c22.3,7.21,42.6-1.97,47.14-44.49
			c4.04-37.77,0.36-54.2-15.98-59.18C311.88,255.99,284.53,262.94,268.18,324.88z"/>
	</g>
	<rect x="28.22" y="47.88" class="st0" width="455.56" height="416.24"/>
</g>
</svg>
