<?xml version="1.0" encoding="utf-8"?>
<!-- Generator: Adobe Illustrator 24.1.3, SVG Export Plug-In . SVG Version: 6.00 Build 0)  -->
<svg version="1.1" id="Layer_1" xmlns="http://www.w3.org/2000/svg" xmlns:xlink="http://www.w3.org/1999/xlink" x="0px" y="0px"
	 viewBox="0 0 512 512" style="enable-background:new 0 0 512 512;" xml:space="preserve">
<style type="text/css">
	.st0{fill:none;stroke:#003087;stroke-width:8;stroke-miterlimit:10;}
	.st1{fill:none;stroke:#003087;stroke-width:8;stroke-linecap:round;stroke-linejoin:round;stroke-miterlimit:10;}
	.st2{fill:none;stroke:#231F20;stroke-width:2;stroke-miterlimit:10;}
	.st3{fill:#003087;stroke:#003087;stroke-width:7;stroke-miterlimit:10;}
	.st4{fill:none;stroke:#003087;stroke-width:7;stroke-miterlimit:10;}
	.st5{fill:#003087;stroke:#003087;stroke-width:5.9816;stroke-linecap:round;stroke-linejoin:round;stroke-miterlimit:10;}
	.st6{fill:none;stroke:#003087;stroke-width:1.5924;stroke-miterlimit:10;}
	.st7{fill:none;stroke:#003087;stroke-width:4.7773;stroke-miterlimit:10;}
	.st8{fill:none;stroke:#003087;stroke-width:1.2617;stroke-miterlimit:10;}
	.st9{fill:none;stroke:#000000;stroke-width:2.9998;stroke-miterlimit:10;}
	.st10{fill:none;stroke:#003087;stroke-width:6.2158;stroke-miterlimit:10;}
	.st11{fill:none;stroke:#003087;stroke-width:3.5741;stroke-miterlimit:10;}
	.st12{fill:#003087;}
	.st13{fill:none;stroke:#003087;stroke-width:3.2417;stroke-miterlimit:10;}
	.st14{fill:none;stroke:#003087;stroke-width:5.6729;stroke-miterlimit:10;}
	.st15{fill:#003087;stroke:#003087;stroke-width:6.9881;stroke-linecap:round;stroke-linejoin:round;stroke-miterlimit:10;}
	.st16{fill:#003087;stroke:#003087;stroke-width:6.9881;stroke-miterlimit:10;}
	.st17{fill:none;stroke:#003087;stroke-width:7;stroke-linecap:round;stroke-linejoin:round;stroke-miterlimit:10;}
	.st18{fill:none;stroke:#003087;stroke-width:4.1218;stroke-miterlimit:10;}
	.st19{fill:none;stroke:#000000;stroke-width:5.884;stroke-miterlimit:10;}
	.st20{fill:none;stroke:#000000;stroke-width:4.2322;stroke-miterlimit:10;}
	.st21{fill:none;stroke:#000000;stroke-width:4.5849;stroke-miterlimit:10;}
	.st22{fill:none;stroke:#231F20;stroke-width:8;stroke-miterlimit:10;}
	.st23{fill:#FFFFFF;}
	.st24{fill:none;stroke:#003087;stroke-width:19.9736;stroke-linecap:round;stroke-linejoin:round;}
	.st25{fill:#003087;stroke:#003087;stroke-miterlimit:10;}
	.st26{fill:#FFFFFF;stroke:#003087;stroke-miterlimit:10;}
	.st27{fill:none;stroke:#003087;stroke-width:8.5308;stroke-linecap:round;stroke-linejoin:round;}
	.st28{fill:none;stroke:#003087;stroke-width:6.9514;stroke-miterlimit:10;}
	.st29{fill:none;stroke:#003087;stroke-width:5.1161;stroke-miterlimit:10;}
	.st30{fill:none;stroke:#003087;stroke-width:5.5424;stroke-miterlimit:10;}
</style>
<g>
	<g>
		<path class="st17" d="M183.49,198.4c-20.93-17.57-23.84-49.65-18.58-62.85c0.7,2.96,1.54,5.89,2.08,8.88
			c2.8,15.42,8.73,29.12,21.24,39.29c4.14,3.37,7.98,4.07,13.67,2.53c14.77-4.01,29.86-6.96,44.96-9.56
			c10.67-1.84,21.56-2.43,32.36-3.58c0.75-7.82,1.51-15.38,2.13-22.96c0.08-0.94-0.53-2.01-1.01-2.92
			c-1.44-2.74-2.97-5.42-4.56-8.29c-0.28,0.26-0.88,0.83-1.52,1.36c-3.07,2.56-6.2,1.77-6.4-2.12c-0.41-7.72-0.7-15.56,0.15-23.21
			c0.71-6.41,6.04-9.87,11.77-11.86c4.7-1.63,9.68-2.48,14.52-3.69c0.91-0.23,1.91-0.35,2.67-0.84c10.5-6.71,22.05-6.93,33.89-5.76
			c7.98,0.79,16.02,1.01,23.96,2.02c4.26,0.54,8.43,2.05,12.55,3.41c5.09,1.68,10.19,3.42,15.08,5.59c2.64,1.17,5.57,2.8,7.15,5.08
			c5.54,7.98,8.84,16.85,8.08,26.79c-0.15,1.94-0.9,3.84-1.66,6.94c-2.09-2.46-3.41-4.01-4.54-5.33c-2.12,3.28-4.75,6.6-6.5,10.33
			c-1.03,2.2-0.76,5.05-0.93,7.62c-0.63,9.24-3.28,17.89-7.58,26.03c-1.59,3.01-1.35,5.77-0.57,8.99
			c4.18,17.41,8.74,34.78,11.9,52.38c2.83,15.77-2.94,29.96-11.33,43.15c-0.81,1.27-1.55,2.9-1.51,4.35
			c0.2,7.58-2.01,14.49-5.38,21.11c-7.17,14.07-11.63,28.95-13.44,44.63c-0.65,5.62,0.03,10.72,4.31,15.09
			c2.23,2.28,4,5.21,5.29,8.15c0.68,1.55,0.48,4.12-0.4,5.58c-2.91,4.84-10.8,7.6-16.54,6.29c-7.59-1.74-11.34-5.97-12.65-13.09
			c-1.74-9.47,1.41-18.28,2.75-27.39c2.21-15.04,3.96-30.17,5.29-45.32c0.48-5.44-0.82-11.05-1.24-15.76
			c-13.6,2.07-26.7,4.06-40.23,6.12c-1.9,7.42-3.36,15.93-6.25,23.91c-7.09,19.51-4.83,39.45-3.71,59.37
			c0.24,4.32,1.18,8.62,1.88,12.91c0.68,4.13,1.53,7.97,4.65,11.39c4.51,4.96,3.16,10.63-2.69,13.97
			c-4.56,2.61-9.42,3.41-14.53,1.68c-6.86-2.32-10.05-6.83-9.93-14.12c0.18-11.04,0.32-22.08,0.57-33.11
			c0.41-18.11-2.42-35.71-7.16-53.17c-2.12-7.81-2.54-16.08-3.98-24.1c-0.25-1.4-1.48-3.11-2.72-3.69c-0.86-0.4-2.85,0.55-3.75,1.47
			c-4.29,4.38-8.28,9.05-12.59,13.41c-1.78,1.8-2.4,3.5-1.41,5.8c0.16,0.37,0.25,0.78,0.3,1.18c1,7.87,3.29,14.62,12.05,17.34
			c2.34,0.73,4.37,3.24,6,5.34c2.28,2.94,1.32,5.95-2.24,7.07c-6.57,2.07-12.93,0.78-18.96-2.13c-1.03-0.5-1.78-2.06-2.19-3.28
			c-3.97-11.7-7.95-23.4-11.63-35.19c-0.58-1.86,0.1-4.28,0.68-6.31c1.33-4.69,3.19-9.24,4.4-13.96c1.34-5.2,0.36-10.01-3.77-13.83
			c-1.4-1.3-2.72-2.69-4.22-3.86c-8.29-6.47-13.4-6.84-21.6-0.22c-11.12,8.98-21.8,18.5-32.62,27.86c-1.1,0.95-1.96,2.29-2.66,3.59
			c-6.98,12.91-14.05,25.77-20.74,38.83c-2.14,4.19-3.06,8.98-4.84,13.38c-2.53,6.27-6.2,11.55-13.33,13.23
			c-3.94,0.93-7.87,0.79-10.37-2.76c-2.55-3.61-0.59-7.06,1.71-10.07c1.4-1.83,2.9-3.77,4.79-4.99c5.04-3.26,7.32-8.31,10.24-13.24
			c7.67-12.92,10.51-27.17,13.59-41.53c3.02-14.06,6.57-28.05,10.76-41.8C161.86,228.28,169.57,211.68,183.49,198.4z"/>
	</g>
	<rect x="28.22" y="47.88" class="st0" width="455.56" height="416.24"/>
</g>
</svg>
