<?xml version="1.0" encoding="utf-8"?>
<!-- Generator: Adobe Illustrator 24.1.3, SVG Export Plug-In . SVG Version: 6.00 Build 0)  -->
<svg version="1.1" id="Layer_1" xmlns="http://www.w3.org/2000/svg" xmlns:xlink="http://www.w3.org/1999/xlink" x="0px" y="0px"
	 viewBox="0 0 512 512" style="enable-background:new 0 0 512 512;" xml:space="preserve">
<style type="text/css">
	.st0{fill:none;stroke:#003087;stroke-width:8;stroke-miterlimit:10;}
	.st1{fill:none;stroke:#003087;stroke-width:8;stroke-linecap:round;stroke-linejoin:round;stroke-miterlimit:10;}
	.st2{fill:none;stroke:#231F20;stroke-width:2;stroke-miterlimit:10;}
	.st3{fill:#003087;stroke:#003087;stroke-width:7;stroke-miterlimit:10;}
	.st4{fill:none;stroke:#003087;stroke-width:7;stroke-miterlimit:10;}
	.st5{fill:#003087;stroke:#003087;stroke-width:5.9816;stroke-linecap:round;stroke-linejoin:round;stroke-miterlimit:10;}
	.st6{fill:none;stroke:#003087;stroke-width:1.5924;stroke-miterlimit:10;}
	.st7{fill:none;stroke:#003087;stroke-width:4.7773;stroke-miterlimit:10;}
	.st8{fill:none;stroke:#003087;stroke-width:1.2617;stroke-miterlimit:10;}
	.st9{fill:none;stroke:#000000;stroke-width:2.9998;stroke-miterlimit:10;}
	.st10{fill:none;stroke:#003087;stroke-width:6.2158;stroke-miterlimit:10;}
	.st11{fill:none;stroke:#003087;stroke-width:3.5741;stroke-miterlimit:10;}
	.st12{fill:#003087;}
	.st13{fill:none;stroke:#003087;stroke-width:3.2417;stroke-miterlimit:10;}
	.st14{fill:none;stroke:#003087;stroke-width:5.6729;stroke-miterlimit:10;}
	.st15{fill:#003087;stroke:#003087;stroke-width:6.9881;stroke-linecap:round;stroke-linejoin:round;stroke-miterlimit:10;}
	.st16{fill:#003087;stroke:#003087;stroke-width:6.9881;stroke-miterlimit:10;}
	.st17{fill:none;stroke:#003087;stroke-width:7;stroke-linecap:round;stroke-linejoin:round;stroke-miterlimit:10;}
	.st18{fill:none;stroke:#003087;stroke-width:4.1218;stroke-miterlimit:10;}
	.st19{fill:none;stroke:#000000;stroke-width:5.884;stroke-miterlimit:10;}
	.st20{fill:none;stroke:#000000;stroke-width:4.2322;stroke-miterlimit:10;}
	.st21{fill:none;stroke:#000000;stroke-width:4.5849;stroke-miterlimit:10;}
	.st22{fill:none;stroke:#231F20;stroke-width:8;stroke-miterlimit:10;}
	.st23{fill:#FFFFFF;}
	.st24{fill:none;stroke:#003087;stroke-width:19.9736;stroke-linecap:round;stroke-linejoin:round;}
	.st25{fill:#003087;stroke:#003087;stroke-miterlimit:10;}
	.st26{fill:#FFFFFF;stroke:#003087;stroke-miterlimit:10;}
	.st27{fill:none;stroke:#003087;stroke-width:8.5308;stroke-linecap:round;stroke-linejoin:round;}
	.st28{fill:none;stroke:#003087;stroke-width:6.9514;stroke-miterlimit:10;}
	.st29{fill:none;stroke:#003087;stroke-width:5.1161;stroke-miterlimit:10;}
	.st30{fill:none;stroke:#003087;stroke-width:5.5424;stroke-miterlimit:10;}
</style>
<g>
	<g>
		<g>
			<path class="st13" d="M212.84,220.22c-0.07-1.57,0.95-2.22,2.07-2.77c0.23-0.11,0.53-0.13,0.79-0.13
				c1.34-0.01,2.67-0.01,4.01-0.01c1.74,0,2.88,0.93,3.26,2.65c0.01,0.06,0.04,0.11,0.09,0.21c1.46,0,2.93,0,4.52,0
				c0.23-0.9,0.49-1.82,0.71-2.76c0.6-2.47,1.24-4.93,1.75-7.42c0.51-2.53,2.29-3.81,4.44-4.76c0.26-0.12,0.59-0.12,0.89-0.12
				c13.73-0.01,27.46-0.01,41.19,0.01c0.41,0,0.84,0.1,1.23,0.24c1.11,0.4,2.02,1.13,2.82,1.96c0.82,0.85,1.1,2.01,1.38,3.13
				c0.76,2.99,1.47,6,2.2,9c0.06,0.23,0.13,0.46,0.23,0.79c0.36,0,0.72,0,1.08,0c5.8,0,11.6,0.02,17.4-0.02
				c1.26-0.01,2.37,0.48,3.51,0.84c0.67,0.22,1.12,0.86,1.38,1.6c0.52,1.48,0.67,2.98,0.67,4.55c-0.03,19.94-0.02,39.88,0,59.82
				c0,1.2-0.37,2.27-0.79,3.33c-0.19,0.47-0.64,0.91-1.08,1.19c-0.84,0.53-1.75,0.92-2.8,0.92c-31.86-0.01-63.73-0.01-95.59,0
				c-1.22,0-2.23-0.49-3.18-1.16c-0.24-0.17-0.47-0.42-0.58-0.69c-0.39-0.94-0.86-1.87-0.89-2.93c-0.01-0.27,0-0.55,0-0.82
				c0-19.94,0-39.88,0-59.82c0-1.3-0.03-2.57,0.48-3.84c0.29-0.73,0.54-1.39,1.15-1.89c0.09-0.08,0.18-0.18,0.29-0.21
				c1.08-0.28,2.07-0.87,3.23-0.86C210.02,220.24,211.36,220.22,212.84,220.22z M213.02,220.5c-0.57,0-1.05,0-1.53,0
				c-1.75,0.01-3.53-0.16-5.18,0.66c-0.05,0.03-0.12,0.03-0.18,0.04c-0.75,0.09-1.3,0.6-1.49,1.2c-0.36,1.14-0.85,2.24-0.84,3.51
				c0.02,20.03,0.02,40.07,0.01,60.1c0,1.29,0.14,2.52,0.58,3.74c0.26,0.7,0.65,1.27,1.27,1.6c0.85,0.45,1.72,0.83,2.75,0.83
				c11.76-0.02,23.51-0.01,35.27-0.01c19.93,0,39.86-0.01,59.78,0.01c1.09,0,2.01-0.4,2.91-0.89c0.4-0.22,0.83-0.62,0.98-1.04
				c0.42-1.16,0.83-2.31,0.83-3.6c-0.02-19.76-0.02-39.52-0.01-59.28c0-1.43,0.04-2.85-0.6-4.18c-0.05-0.11-0.07-0.23-0.1-0.35
				c-0.21-0.88-0.76-1.42-1.63-1.64c-0.32-0.08-0.64-0.18-0.95-0.3c-0.68-0.27-1.38-0.4-2.13-0.4c-5.83,0.01-11.67,0.01-17.5,0.01
				c-0.36,0-0.72,0-1.11,0c-0.09-0.3-0.18-0.52-0.24-0.75c-0.78-3.21-1.58-6.41-2.33-9.62c-0.52-2.23-1.91-3.66-3.98-4.49
				c-0.41-0.16-0.88-0.24-1.32-0.24c-13.52-0.01-27.04-0.01-40.55-0.01c-0.33,0-0.68,0-0.99,0.09c-1.29,0.38-2.32,1.19-3.22,2.13
				c-0.5,0.53-0.85,1.17-1.02,1.9c-0.81,3.45-1.64,6.89-2.46,10.34c-0.05,0.2-0.15,0.39-0.23,0.6c-1.69,0-3.35,0-5.03,0
				c-0.04-0.16-0.07-0.27-0.1-0.39c-0.38-1.59-1.48-2.47-3.1-2.47c-1.18,0-2.37,0-3.55,0c-1.37,0-2.52,0.88-2.86,2.19
				C213.11,219.97,213.08,220.18,213.02,220.5z"/>
			<path class="st13" d="M213.02,220.5c0.06-0.32,0.08-0.53,0.14-0.73c0.34-1.3,1.5-2.18,2.86-2.19c1.18,0,2.37,0,3.55,0
				c1.62,0,2.72,0.88,3.1,2.47c0.03,0.11,0.06,0.23,0.1,0.39c1.68,0,3.33,0,5.03,0c0.08-0.21,0.18-0.4,0.23-0.6
				c0.83-3.44,1.65-6.89,2.46-10.34c0.17-0.73,0.52-1.37,1.02-1.9c0.91-0.95,1.94-1.75,3.22-2.13c0.31-0.09,0.66-0.09,0.99-0.09
				c13.52,0,27.04-0.01,40.55,0.01c0.44,0,0.91,0.08,1.32,0.24c2.07,0.83,3.46,2.26,3.98,4.49c0.75,3.21,1.55,6.41,2.33,9.62
				c0.06,0.23,0.14,0.45,0.24,0.75c0.39,0,0.75,0,1.11,0c5.83,0,11.67,0.01,17.5-0.01c0.74,0,1.44,0.13,2.13,0.4
				c0.31,0.12,0.63,0.22,0.95,0.3c0.87,0.23,1.42,0.77,1.63,1.64c0.03,0.12,0.05,0.24,0.1,0.35c0.64,1.33,0.6,2.75,0.6,4.18
				c-0.01,19.76-0.01,39.52,0.01,59.28c0,1.29-0.41,2.44-0.83,3.6c-0.15,0.42-0.58,0.82-0.98,1.04c-0.9,0.49-1.82,0.89-2.91,0.89
				c-19.93-0.02-39.86-0.01-59.78-0.01c-11.76,0-23.51-0.01-35.27,0.01c-1.03,0-1.9-0.38-2.75-0.83c-0.62-0.33-1.01-0.9-1.27-1.6
				c-0.45-1.22-0.58-2.45-0.58-3.74c0.02-20.03,0.02-40.07-0.01-60.1c0-1.26,0.49-2.37,0.84-3.51c0.19-0.6,0.74-1.11,1.49-1.2
				c0.06-0.01,0.12-0.01,0.18-0.04c1.65-0.82,3.43-0.65,5.18-0.66C211.97,220.5,212.45,220.5,213.02,220.5z M232.52,258.55
				c-0.15,1.75,0.11,3.45,0.58,5.13c0.07,0.23,0.12,0.47,0.18,0.7c0.88,3.87,2.71,7.26,5.38,10.17c0.94,1.02,2.1,1.82,3.1,2.79
				c1.54,1.49,3.45,2.38,5.37,3.18c3.28,1.37,6.76,1.61,10.27,1.49c0.6-0.02,1.21-0.12,1.81-0.15c2.18-0.11,4.27-0.68,6.21-1.61
				c1.94-0.92,3.75-2.04,5.45-3.41c2.63-2.14,4.6-4.73,6.14-7.69c0.93-1.78,1.47-3.71,1.89-5.67c0.19-0.86,0.51-1.71,0.53-2.57
				c0.03-2.32,0.1-4.63-0.47-6.95c-0.81-3.24-1.88-6.29-3.91-9c-1.64-2.19-3.48-4.16-5.74-5.66c-2.09-1.39-4.33-2.58-6.79-3.22
				c-0.61-0.16-1.21-0.45-1.83-0.53c-1.29-0.17-2.59-0.31-3.89-0.35c-1.03-0.03-2.06,0.16-3.08,0.13c-2.54-0.06-4.83,0.86-7.09,1.78
				c-3.22,1.32-5.98,3.36-8.22,6.02c-1.19,1.41-2.37,2.89-3.2,4.52C233.47,251.05,232.51,254.7,232.52,258.55z M291.9,242.35
				c1.7,0,3.4,0.02,5.1-0.01c0.93-0.02,1.76-0.32,2.33-1.12c0.38-0.53,0.55-1.13,0.55-1.79c0-1.58,0.01-3.15,0-4.73
				c-0.01-1.74-1.29-3.01-3.05-3.01c-3.13,0-6.25,0.01-9.38-0.01c-0.65,0-1.23,0.12-1.82,0.41c-1.14,0.56-1.63,1.51-1.68,2.69
				c-0.07,1.39,0.03,2.79-0.03,4.18c-0.05,1.13,0.49,1.96,1.14,2.77c0.09,0.11,0.23,0.19,0.37,0.24c0.71,0.27,1.43,0.42,2.2,0.39
				C289.04,242.32,290.47,242.35,291.9,242.35z M272.71,220.44c0-0.04,0.01-0.09,0.01-0.13c-0.08-0.03-0.17-0.08-0.25-0.08
				c-10.92-0.01-21.85-0.01-32.77-0.01c-0.12,0-0.24,0.02-0.36,0.04c-0.02,0-0.05,0.04-0.06,0.06c-0.01,0.02,0,0.04,0,0.12
				C250.42,220.44,261.57,220.44,272.71,220.44z"/>
			<path class="st13" d="M232.52,258.55c-0.01-3.85,0.95-7.5,2.68-10.91c0.83-1.63,2.01-3.11,3.2-4.52c2.24-2.66,5-4.71,8.22-6.02
				c2.26-0.92,4.55-1.85,7.09-1.78c1.03,0.03,2.06-0.16,3.08-0.13c1.3,0.04,2.6,0.17,3.89,0.35c0.62,0.08,1.21,0.37,1.83,0.53
				c2.47,0.65,4.7,1.84,6.79,3.22c2.26,1.5,4.1,3.47,5.74,5.66c2.03,2.71,3.11,5.76,3.91,9c0.58,2.32,0.51,4.63,0.47,6.95
				c-0.01,0.86-0.34,1.71-0.53,2.57c-0.43,1.96-0.97,3.89-1.89,5.67c-1.54,2.96-3.51,5.55-6.14,7.69c-1.7,1.38-3.51,2.5-5.45,3.41
				c-1.95,0.92-4.03,1.5-6.21,1.61c-0.6,0.03-1.21,0.13-1.81,0.15c-3.51,0.12-6.99-0.12-10.27-1.49c-1.92-0.8-3.83-1.69-5.37-3.18
				c-1-0.97-2.17-1.77-3.1-2.79c-2.67-2.91-4.5-6.3-5.38-10.17c-0.05-0.24-0.11-0.47-0.18-0.7
				C232.63,262,232.37,260.31,232.52,258.55z M232.8,258.58c0,0.76-0.07,1.53,0.02,2.27c0.1,0.81,0.33,1.6,0.52,2.39
				c0.6,2.57,1.42,5.05,2.76,7.37c1.71,2.96,4.13,5.24,6.79,7.26c2.04,1.55,4.4,2.55,6.9,3.17c0.62,0.15,1.24,0.3,1.87,0.37
				c1.29,0.14,2.59,0.24,3.89,0.34c0.3,0.02,0.61,0.02,0.91,0c1.12-0.1,2.23-0.22,3.35-0.31c1.93-0.14,3.77-0.67,5.5-1.48
				c2.05-0.97,3.94-2.21,5.72-3.67c2.29-1.88,3.97-4.18,5.4-6.68c1.28-2.22,1.84-4.73,2.4-7.22c0.13-0.59,0.34-1.18,0.35-1.78
				c0.04-2.18,0.12-4.35-0.52-6.49c-0.56-1.88-0.94-3.81-1.78-5.61c-0.69-1.47-1.69-2.74-2.62-4.04c-1.5-2.09-3.38-3.83-5.56-5.19
				c-2.06-1.28-4.22-2.4-6.6-3c-0.38-0.1-0.75-0.25-1.12-0.37c-0.17-0.05-0.35-0.12-0.53-0.12c-2.08-0.07-4.15-0.44-6.25-0.2
				c-1.62,0.18-3.27,0.15-4.8,0.86c-0.33,0.15-0.69,0.24-1.03,0.35c-2.32,0.72-4.4,1.88-6.31,3.35c-3.11,2.39-5.59,5.33-7.15,8.92
				C233.59,252.08,232.78,255.25,232.8,258.58z"/>
			<path class="st13" d="M291.9,242.35c-1.43,0-2.85-0.03-4.28,0.01c-0.78,0.03-1.49-0.12-2.2-0.39c-0.13-0.05-0.28-0.13-0.37-0.24
				c-0.66-0.81-1.19-1.64-1.14-2.77c0.06-1.39-0.04-2.79,0.03-4.18c0.06-1.17,0.55-2.13,1.68-2.69c0.59-0.29,1.17-0.41,1.82-0.41
				c3.13,0.02,6.25,0.01,9.38,0.01c1.76,0,3.04,1.26,3.05,3.01c0.01,1.58,0,3.15,0,4.73c0,0.66-0.17,1.26-0.55,1.79
				c-0.57,0.8-1.4,1.1-2.33,1.12C295.3,242.37,293.6,242.35,291.9,242.35z M291.96,242.08c1.67,0,3.34,0.01,5.01,0
				c1.2-0.01,2.07-0.65,2.44-1.77c0.12-0.37,0.18-0.77,0.19-1.15c0.02-1.39-0.05-2.79,0.02-4.18c0.09-1.78-1.41-3.01-3.03-3
				c-3,0.03-6.01,0.03-9.01-0.01c-0.7-0.01-1.3,0.15-1.89,0.49c-0.94,0.55-1.43,1.38-1.47,2.44c-0.05,1.33,0.02,2.67-0.02,4
				c-0.03,0.98,0.42,1.73,0.98,2.45c0.11,0.14,0.25,0.28,0.41,0.34c0.68,0.24,1.35,0.44,2.1,0.41
				C289.1,242.03,290.53,242.08,291.96,242.08z"/>
			<path class="st13" d="M272.71,220.44c-11.15,0-22.29,0-33.44,0c0-0.07-0.01-0.1,0-0.12c0.02-0.02,0.04-0.06,0.06-0.06
				c0.12-0.02,0.24-0.04,0.36-0.04c10.92,0,21.85,0,32.77,0.01c0.08,0,0.17,0.05,0.25,0.08
				C272.72,220.35,272.71,220.4,272.71,220.44z"/>
			<path class="st13" d="M232.8,258.58c-0.03-3.33,0.79-6.5,2.09-9.5c1.55-3.59,4.04-6.53,7.15-8.92c1.91-1.47,4-2.63,6.31-3.35
				c0.35-0.11,0.71-0.19,1.03-0.35c1.53-0.71,3.18-0.67,4.8-0.86c2.1-0.24,4.17,0.14,6.25,0.2c0.18,0.01,0.35,0.07,0.53,0.12
				c0.38,0.12,0.74,0.27,1.12,0.37c2.38,0.6,4.54,1.72,6.6,3c2.18,1.35,4.06,3.1,5.56,5.19c0.93,1.3,1.93,2.56,2.62,4.04
				c0.84,1.8,1.22,3.73,1.78,5.61c0.64,2.14,0.55,4.31,0.52,6.49c-0.01,0.59-0.22,1.19-0.35,1.78c-0.56,2.49-1.12,4.99-2.4,7.22
				c-1.44,2.5-3.11,4.8-5.4,6.68c-1.78,1.46-3.66,2.7-5.72,3.67c-1.72,0.81-3.57,1.34-5.5,1.48c-1.12,0.08-2.23,0.21-3.35,0.31
				c-0.3,0.03-0.61,0.03-0.91,0c-1.3-0.1-2.6-0.2-3.89-0.34c-0.63-0.07-1.25-0.22-1.87-0.37c-2.5-0.61-4.87-1.62-6.9-3.17
				c-2.66-2.02-5.08-4.3-6.79-7.26c-1.34-2.32-2.16-4.79-2.76-7.37c-0.19-0.8-0.42-1.59-0.52-2.39
				C232.73,260.11,232.8,259.34,232.8,258.58z M256.09,242.88c-1.26,0.12-2.4,0.04-3.41,0.38c-2.05,0.7-4.13,1.34-5.93,2.69
				c-1.58,1.19-2.96,2.53-4.03,4.16c-2.29,3.48-2.91,7.32-2.27,11.39c0.71,4.48,3.22,7.81,6.89,10.26c2.66,1.77,5.63,2.75,8.92,2.68
				c2.14-0.05,4.11-0.6,6.06-1.41c1.94-0.81,3.57-2.07,5.05-3.52c1.28-1.26,2.31-2.71,3.06-4.37c0.55-1.21,0.71-2.49,1-3.76
				c0.4-1.78,0.48-3.52,0-5.3c-0.23-0.87-0.3-1.79-0.57-2.65c-0.6-1.98-1.69-3.68-3.08-5.2c-1.51-1.65-3.26-2.98-5.35-3.83
				c-0.95-0.39-1.9-0.83-2.9-1.06C258.36,243.07,257.14,243.01,256.09,242.88z"/>
			<path class="st13" d="M291.96,242.08c-1.43,0-2.85-0.04-4.28,0.02c-0.75,0.03-1.42-0.17-2.1-0.41c-0.16-0.06-0.3-0.2-0.41-0.34
				c-0.56-0.72-1.01-1.47-0.98-2.45c0.04-1.33-0.03-2.67,0.02-4c0.04-1.05,0.52-1.89,1.47-2.44c0.59-0.35,1.19-0.5,1.89-0.49
				c3,0.03,6.01,0.03,9.01,0.01c1.62-0.01,3.12,1.22,3.03,3c-0.07,1.39,0,2.79-0.02,4.18c-0.01,0.39-0.07,0.79-0.19,1.15
				c-0.37,1.13-1.24,1.76-2.44,1.77C295.29,242.09,293.62,242.08,291.96,242.08z"/>
			<path class="st13" d="M256.09,242.88c1.05,0.13,2.27,0.19,3.44,0.46c1,0.23,1.95,0.67,2.9,1.06c2.08,0.85,3.83,2.18,5.35,3.83
				c1.39,1.52,2.48,3.22,3.08,5.2c0.26,0.86,0.33,1.78,0.57,2.65c0.47,1.77,0.4,3.52,0,5.3c-0.29,1.27-0.45,2.55-1,3.76
				c-0.75,1.66-1.78,3.11-3.06,4.37c-1.48,1.45-3.11,2.7-5.05,3.52c-1.94,0.82-3.92,1.36-6.06,1.41c-3.29,0.08-6.25-0.91-8.92-2.68
				c-3.68-2.44-6.18-5.78-6.89-10.26c-0.64-4.07-0.02-7.92,2.27-11.39c1.07-1.63,2.45-2.97,4.03-4.16c1.8-1.35,3.88-2,5.93-2.69
				C253.69,242.91,254.84,243,256.09,242.88z M255.93,243.18c-1.02,0.1-2.11,0.03-3.05,0.35c-2.14,0.73-4.32,1.39-6.16,2.84
				c-2.09,1.64-3.81,3.55-4.86,6.01c-0.56,1.32-0.91,2.68-1.14,4.09c-0.33,1.98-0.15,3.92,0.24,5.84c0.43,2.11,1.38,3.99,2.72,5.69
				c1.12,1.43,2.5,2.56,3.98,3.57c1.77,1.21,3.79,1.87,5.87,2.36c1.35,0.32,2.75,0.35,4.07,0.14c3.71-0.6,7-2.12,9.63-4.9
				c1.17-1.24,2.21-2.57,2.89-4.15c0.41-0.95,0.66-1.93,0.85-2.95c0.33-1.85,0.71-3.67,0.22-5.56c-0.24-0.93-0.32-1.91-0.59-2.83
				c-0.55-1.82-1.5-3.42-2.75-4.87c-1.58-1.82-3.42-3.25-5.66-4.14C260.17,243.86,258.18,243.01,255.93,243.18z"/>
			<path class="st13" d="M255.93,243.18c2.25-0.17,4.24,0.67,6.24,1.47c2.24,0.9,4.08,2.32,5.66,4.14c1.25,1.45,2.2,3.05,2.75,4.87
				c0.28,0.92,0.35,1.9,0.59,2.83c0.49,1.88,0.11,3.71-0.22,5.56c-0.18,1.02-0.44,2-0.85,2.95c-0.68,1.58-1.72,2.91-2.89,4.15
				c-2.62,2.78-5.92,4.31-9.63,4.9c-1.32,0.21-2.72,0.18-4.07-0.14c-2.08-0.49-4.1-1.15-5.87-2.36c-1.47-1.01-2.86-2.14-3.98-3.57
				c-1.33-1.7-2.29-3.58-2.72-5.69c-0.39-1.93-0.57-3.86-0.24-5.84c0.23-1.42,0.58-2.78,1.14-4.09c1.05-2.46,2.76-4.37,4.86-6.01
				c1.84-1.44,4.02-2.1,6.16-2.84C253.82,243.21,254.91,243.29,255.93,243.18z"/>
		</g>
		<g>
			<path class="st14" d="M154.26,255.8c0-51.55,0.15-103.1-0.13-154.65c-0.06-10.76,10.77-21.55,21.43-21.51
				c53.72,0.22,107.43,0.1,161.15,0.11c11.08,0,21.15,9.99,21.15,21.01c0.01,103.57,0.01,207.14,0,310.71
				c0,10.85-10.03,20.8-20.93,20.8c-53.95,0.01-107.9-0.1-161.85,0.09c-10.28,0.04-20.95-10.64-20.91-20.86
				C154.36,359.6,154.26,307.7,154.26,255.8z M155.37,256.06c0,51.43,0.12,102.87-0.1,154.3c-0.05,10.85,10.03,20.94,20.93,20.9
				c53.25-0.22,106.5-0.1,159.74-0.1c11.32,0,20.81-9.4,20.81-20.64c0-102.98,0-205.97,0-308.95c0-11.21-9.55-20.7-20.82-20.7
				c-53.25,0-106.5,0.11-159.74-0.09c-10.65-0.04-20.99,10.26-20.94,21C155.51,153.19,155.37,204.62,155.37,256.06z"/>
			<path class="st14" d="M155.37,256.06c0-51.43,0.14-102.87-0.11-154.3c-0.05-10.73,10.28-21.04,20.94-21
				c53.25,0.2,106.5,0.09,159.74,0.09c11.27,0,20.82,9.49,20.82,20.7c0,102.98,0,205.97,0,308.95c0,11.24-9.48,20.64-20.81,20.64
				c-53.25,0-106.5-0.12-159.74,0.1c-10.9,0.05-20.98-10.05-20.93-20.9C155.49,358.92,155.37,307.49,155.37,256.06z M335.94,123.53
				c-53.5,0-106.54,0-159.7,0c0,80.99,0,161.67,0,242.44c53.39,0,106.52,0,159.7,0C335.94,285.02,335.94,204.41,335.94,123.53z
				 M241.14,398.94c-0.94,8.64,5.96,15.04,14.8,15.17c8.34,0.12,15.37-6.86,15.03-15.36c-0.39-9.63-6.26-14.98-15-15.01
				C248.42,383.71,240.75,387.5,241.14,398.94z M255.6,106.81c1.98,0,3.95,0,5.93,0c0.12,0,0.23,0,0.35,0
				c3.52-0.07,5.65-2.04,5.59-5.17c-0.05-2.87-2.29-5-5.44-5.04c-4.18-0.05-8.37,0.14-12.54-0.07c-2.84-0.14-3.78,1.84-4.95,3.65
				c-1.19,1.85-0.01,3.21,1.03,4.69c1.06,1.52,2.32,2.07,4.12,1.97C251.65,106.72,253.63,106.81,255.6,106.81z"/>
			<path class="st14" d="M335.94,123.53c0,80.88,0,161.48,0,242.44c-53.18,0-106.31,0-159.7,0c0-80.77,0-161.45,0-242.44
				C229.4,123.53,282.45,123.53,335.94,123.53z M334.83,124.57c-52.61,0-104.97,0-157.51,0c0,80.23,0,160.24,0,240.42
				c52.59,0,104.95,0,157.51,0C334.83,284.85,334.83,204.93,334.83,124.57z"/>
			<path class="st14" d="M241.14,398.94c-0.39-11.45,7.28-15.23,14.83-15.2c8.74,0.03,14.61,5.38,15,15.01
				c0.35,8.49-6.69,15.48-15.03,15.36C247.1,413.98,240.2,407.58,241.14,398.94z M255.91,412.92c7.59,0.28,14.12-6.23,13.88-13.94
				c-0.29-8.97-5.54-13.73-14.12-14.05c-8.2-0.3-13.23,5.46-13.45,13.81C241.99,407.25,247.57,412.71,255.91,412.92z"/>
			<path class="st14" d="M255.6,106.81c-1.98,0-3.96-0.09-5.92,0.03c-1.8,0.11-3.06-0.45-4.12-1.97c-1.04-1.48-2.22-2.84-1.03-4.69
				c1.17-1.81,2.11-3.8,4.95-3.65c4.17,0.21,8.36,0.01,12.54,0.07c3.15,0.04,5.39,2.17,5.44,5.04c0.06,3.13-2.08,5.1-5.59,5.17
				c-0.12,0-0.23,0-0.35,0C259.55,106.81,257.58,106.81,255.6,106.81z M255.73,105.69c1.86,0,3.73,0.03,5.59-0.01
				c3.08-0.05,5.11-1.71,5.02-4.07c-0.08-2.18-2.13-3.87-4.88-3.91c-3.73-0.05-7.45-0.03-11.18,0c-2.37,0.02-5.1,2.43-4.98,4.32
				c0.1,1.63,2.71,3.63,4.83,3.66C252,105.72,253.86,105.69,255.73,105.69z"/>
			<path class="st14" d="M334.83,124.57c0,80.35,0,160.27,0,240.42c-52.56,0-104.93,0-157.51,0c0-80.18,0-160.19,0-240.42
				C229.86,124.57,282.22,124.57,334.83,124.57z"/>
			<path class="st14" d="M255.91,412.92c-8.34-0.21-13.92-5.67-13.7-14.17c0.22-8.35,5.25-14.11,13.45-13.81
				c8.58,0.32,13.84,5.08,14.12,14.05C270.03,406.69,263.5,413.19,255.91,412.92z"/>
			<path class="st14" d="M255.73,105.69c-1.86,0-3.73,0.02-5.59-0.01c-2.12-0.03-4.73-2.03-4.83-3.66
				c-0.12-1.89,2.61-4.31,4.98-4.32c3.73-0.03,7.45-0.04,11.18,0c2.75,0.03,4.8,1.73,4.88,3.91c0.08,2.36-1.94,4.02-5.02,4.07
				C259.45,105.72,257.59,105.69,255.73,105.69z"/>
		</g>
	</g>
	<rect x="27.92" y="47.88" class="st0" width="455.56" height="416.24"/>
</g>
</svg>
