<?xml version="1.0" encoding="utf-8"?>
<!-- Generator: Adobe Illustrator 24.1.3, SVG Export Plug-In . SVG Version: 6.00 Build 0)  -->
<svg version="1.1" id="Layer_1" xmlns="http://www.w3.org/2000/svg" xmlns:xlink="http://www.w3.org/1999/xlink" x="0px" y="0px"
	 viewBox="0 0 512 512" style="enable-background:new 0 0 512 512;" xml:space="preserve">
<style type="text/css">
	.st0{fill:none;stroke:#003087;stroke-width:8;stroke-miterlimit:10;}
	.st1{fill:none;stroke:#003087;stroke-width:8;stroke-linecap:round;stroke-linejoin:round;stroke-miterlimit:10;}
	.st2{fill:none;stroke:#231F20;stroke-width:2;stroke-miterlimit:10;}
	.st3{fill:#003087;stroke:#003087;stroke-width:7;stroke-miterlimit:10;}
	.st4{fill:none;stroke:#003087;stroke-width:7;stroke-miterlimit:10;}
	.st5{fill:#003087;stroke:#003087;stroke-width:5.9816;stroke-linecap:round;stroke-linejoin:round;stroke-miterlimit:10;}
	.st6{fill:none;stroke:#003087;stroke-width:1.5924;stroke-miterlimit:10;}
	.st7{fill:none;stroke:#003087;stroke-width:4.7773;stroke-miterlimit:10;}
	.st8{fill:none;stroke:#003087;stroke-width:1.2617;stroke-miterlimit:10;}
	.st9{fill:none;stroke:#000000;stroke-width:2.9998;stroke-miterlimit:10;}
	.st10{fill:none;stroke:#003087;stroke-width:6.2158;stroke-miterlimit:10;}
	.st11{fill:none;stroke:#003087;stroke-width:3.5741;stroke-miterlimit:10;}
	.st12{fill:#003087;}
	.st13{fill:none;stroke:#003087;stroke-width:3.2417;stroke-miterlimit:10;}
	.st14{fill:none;stroke:#003087;stroke-width:5.6729;stroke-miterlimit:10;}
	.st15{fill:#003087;stroke:#003087;stroke-width:6.9881;stroke-linecap:round;stroke-linejoin:round;stroke-miterlimit:10;}
	.st16{fill:#003087;stroke:#003087;stroke-width:6.9881;stroke-miterlimit:10;}
	.st17{fill:none;stroke:#003087;stroke-width:7;stroke-linecap:round;stroke-linejoin:round;stroke-miterlimit:10;}
	.st18{fill:none;stroke:#003087;stroke-width:4.1218;stroke-miterlimit:10;}
	.st19{fill:none;stroke:#000000;stroke-width:5.884;stroke-miterlimit:10;}
	.st20{fill:none;stroke:#000000;stroke-width:4.2322;stroke-miterlimit:10;}
	.st21{fill:none;stroke:#000000;stroke-width:4.5849;stroke-miterlimit:10;}
	.st22{fill:none;stroke:#231F20;stroke-width:8;stroke-miterlimit:10;}
	.st23{fill:#FFFFFF;}
	.st24{fill:none;stroke:#003087;stroke-width:19.9736;stroke-linecap:round;stroke-linejoin:round;}
	.st25{fill:#003087;stroke:#003087;stroke-miterlimit:10;}
	.st26{fill:#FFFFFF;stroke:#003087;stroke-miterlimit:10;}
	.st27{fill:none;stroke:#003087;stroke-width:8.5308;stroke-linecap:round;stroke-linejoin:round;}
	.st28{fill:none;stroke:#003087;stroke-width:6.9514;stroke-miterlimit:10;}
	.st29{fill:none;stroke:#003087;stroke-width:5.1161;stroke-miterlimit:10;}
	.st30{fill:none;stroke:#003087;stroke-width:5.5424;stroke-miterlimit:10;}
</style>
<g>
	<rect x="28.22" y="55.49" class="st0" width="455.56" height="416.24"/>
	<g>
		<path class="st12" d="M154.93,326.07c24.59-0.28,44.84-8.24,62.68-22.4c5.94-4.71,11.23-10.26,16.74-15.5
			c1.54-1.47,3.13-2.14,4.83-0.66c1.6,1.39,1.29,3.1,0.02,4.64c-16.79,20.37-37.25,35.25-63.14,41.8c-23.13,5.85-45.37,4-66.01-8.77
			c-20.79-12.86-34.19-30.94-37.23-55.6c-2.53-20.5,3.06-38.97,16.07-54.97c14.1-17.35,32.33-28.05,54.44-31.58
			c16.51-2.64,32.58,0.07,48.09,5.93c27.3,10.31,49.44,27.81,67.87,50.1c7.23,8.75,13.43,18.36,20.44,27.31
			c11.54,14.74,24.49,28.09,40.25,38.42c11.71,7.68,24.41,12.86,38.56,13.2c23.95,0.59,47.61-13.08,56.86-34.95
			c9.43-22.31,3.7-47.35-14.67-64.07c-16.49-15.01-35.83-20.75-57.93-17.84c-26.35,3.47-47.52,16.39-65.53,35.25
			c-0.89,0.93-1.62,2.21-2.71,2.68c-1.06,0.46-2.89,0.58-3.62-0.04c-0.72-0.62-0.73-2.38-0.58-3.58c0.1-0.78,1.01-1.48,1.59-2.19
			c16.6-20.26,36.78-35.17,62.47-41.84c29.42-7.63,56.14-2.48,79.25,17.62c32.56,28.32,35.12,77.43,5.25,108.6
			c-23.34,24.36-52.28,32.13-85.11,25.09c-23-4.93-42.51-16.71-60.1-31.94c-13.91-12.05-25.18-26.3-35.54-41.46
			c-13.02-19.05-28.17-36.22-47.4-49.38c-9.81-6.71-20.52-11.37-32.39-13.01c-14.15-1.96-27.17,1.48-39.22,8.76
			c-14.43,8.72-24.62,20.9-28.27,37.64c-3.8,17.43,0.6,33.08,11.64,46.93C114.3,315.05,135.34,326.89,154.93,326.07z"/>
	</g>
</g>
</svg>
