<?xml version="1.0" encoding="utf-8"?>
<!-- Generator: Adobe Illustrator 24.1.3, SVG Export Plug-In . SVG Version: 6.00 Build 0)  -->
<svg version="1.1" id="Layer_1" xmlns="http://www.w3.org/2000/svg" xmlns:xlink="http://www.w3.org/1999/xlink" x="0px" y="0px"
	 viewBox="0 0 512 512" style="enable-background:new 0 0 512 512;" xml:space="preserve">
<style type="text/css">
	.st0{fill:none;stroke:#003087;stroke-width:8;stroke-miterlimit:10;}
	.st1{fill:none;stroke:#003087;stroke-width:8;stroke-linecap:round;stroke-linejoin:round;stroke-miterlimit:10;}
	.st2{fill:none;stroke:#231F20;stroke-width:2;stroke-miterlimit:10;}
	.st3{fill:#003087;stroke:#003087;stroke-width:7;stroke-miterlimit:10;}
	.st4{fill:none;stroke:#003087;stroke-width:7;stroke-miterlimit:10;}
	.st5{fill:#003087;stroke:#003087;stroke-width:5.9816;stroke-linecap:round;stroke-linejoin:round;stroke-miterlimit:10;}
	.st6{fill:none;stroke:#003087;stroke-width:1.5924;stroke-miterlimit:10;}
	.st7{fill:none;stroke:#003087;stroke-width:4.7773;stroke-miterlimit:10;}
	.st8{fill:none;stroke:#003087;stroke-width:1.2617;stroke-miterlimit:10;}
	.st9{fill:none;stroke:#000000;stroke-width:2.9998;stroke-miterlimit:10;}
	.st10{fill:none;stroke:#003087;stroke-width:6.2158;stroke-miterlimit:10;}
	.st11{fill:none;stroke:#003087;stroke-width:3.5741;stroke-miterlimit:10;}
	.st12{fill:#003087;}
	.st13{fill:none;stroke:#003087;stroke-width:3.2417;stroke-miterlimit:10;}
	.st14{fill:none;stroke:#003087;stroke-width:5.6729;stroke-miterlimit:10;}
	.st15{fill:#003087;stroke:#003087;stroke-width:6.9881;stroke-linecap:round;stroke-linejoin:round;stroke-miterlimit:10;}
	.st16{fill:#003087;stroke:#003087;stroke-width:6.9881;stroke-miterlimit:10;}
	.st17{fill:none;stroke:#003087;stroke-width:7;stroke-linecap:round;stroke-linejoin:round;stroke-miterlimit:10;}
	.st18{fill:none;stroke:#003087;stroke-width:4.1218;stroke-miterlimit:10;}
	.st19{fill:none;stroke:#000000;stroke-width:5.884;stroke-miterlimit:10;}
	.st20{fill:none;stroke:#000000;stroke-width:4.2322;stroke-miterlimit:10;}
	.st21{fill:none;stroke:#000000;stroke-width:4.5849;stroke-miterlimit:10;}
	.st22{fill:none;stroke:#231F20;stroke-width:8;stroke-miterlimit:10;}
	.st23{fill:#FFFFFF;}
	.st24{fill:none;stroke:#003087;stroke-width:19.9736;stroke-linecap:round;stroke-linejoin:round;}
	.st25{fill:#003087;stroke:#003087;stroke-miterlimit:10;}
	.st26{fill:#FFFFFF;stroke:#003087;stroke-miterlimit:10;}
	.st27{fill:none;stroke:#003087;stroke-width:8.5308;stroke-linecap:round;stroke-linejoin:round;}
	.st28{fill:none;stroke:#003087;stroke-width:6.9514;stroke-miterlimit:10;}
	.st29{fill:none;stroke:#003087;stroke-width:5.1161;stroke-miterlimit:10;}
	.st30{fill:none;stroke:#003087;stroke-width:5.5424;stroke-miterlimit:10;}
</style>
<rect x="28.22" y="47.88" class="st0" width="455.56" height="416.24"/>
<g>
	<path class="st0" d="M255.99,153.22c9.61-10.9,20.66-19.98,33.05-27.08c9.62-5.51,20.16-9.08,31.31-10.94
		c20.42-3.4,40.31-0.9,60.04,4.26c10.85,2.84,21.02,7.37,30.43,13.4c3.26,2.09,5.92,5.17,8.7,7.95c1.91,1.92,2.37,4.51,2.46,7.14
		c0.02,0.55,0.01,1.1,0.01,1.66c0,64.32,0.02,128.65-0.06,192.97c0,2.39-0.71,4.87-1.52,7.16c-2.16,6.09-8,7.23-12.59,6.35
		c-2.7-0.52-5.33-1.41-7.98-2.17c-11.78-3.35-23.72-5.93-35.93-7c-8.33-0.73-16.71-1.6-25.05-1.45c-15.11,0.28-30.13,1.95-44.4,7.37
		c-11.18,4.24-21.54,9.95-30.27,18.3c-2,1.91-4.15,3.64-6.15,5.55c-1.24,1.18-2.24,1.19-3.54,0.05c-3.81-3.33-7.62-6.67-11.59-9.8
		c-11.23-8.85-23.87-14.68-37.85-17.81c-8.29-1.86-16.65-2.94-25.11-3.28c-24.85-0.99-49.15,2.19-72.9,9.56
		c-1.22,0.38-2.49,0.69-3.76,0.87c-8.03,1.14-12.68-5.74-13.17-11.7c-0.05-0.55-0.01-1.1-0.01-1.66c0-64.6,0.02-129.2-0.04-193.8
		c-0.01-5.27,2.22-8.92,6.23-12.17c14.2-11.52,30.87-17.05,48.45-20.56c11.89-2.38,23.91-3.11,35.97-2.67
		c5.29,0.19,10.57,1.37,15.79,2.43c7.2,1.46,13.99,4,20.7,7.17c13.73,6.49,25.01,16.03,35.7,26.49
		C253.93,150.83,254.86,151.97,255.99,153.22z M255.87,376.52c0-1.63,0-2.54,0-3.45c0-71.21-0.02-142.41,0.04-213.62
		c0-3.69-1.25-6.53-3.81-9.07c-8.32-8.27-17.26-15.77-27.28-21.89c-4.14-2.53-8.39-5.1-12.93-6.67c-5.51-1.91-10.94-4.3-16.88-4.91
		c-6.38-0.66-12.74-2.26-19.11-2.25c-11.01,0.02-22.03,0.77-32.88,3.13c-16.49,3.58-32.15,8.85-45.62,19.59
		c-4.46,3.56-6.48,7.54-6.48,13.14c0.07,63.66,0.04,127.32,0.04,190.99c0,0.83-0.02,1.66,0.01,2.48
		c0.23,5.89,4.45,10.75,10.26,11.23c2.19,0.18,4.55-0.5,6.71-1.17c13.39-4.17,27.08-6.98,41-8.33c12.35-1.2,24.77-1.75,37.2-0.66
		c9.48,0.83,18.8,2.51,27.82,5.39c13.77,4.4,26.01,11.54,36.45,21.65C251.94,373.54,253.68,374.75,255.87,376.52z M256.77,376.34
		c1.1-0.96,1.7-1.52,2.33-2.04c5.26-4.31,10.21-9.1,15.86-12.82c13.75-9.05,29.16-13.86,45.43-15.87
		c11.91-1.47,23.87-1.37,35.82-0.46c5.68,0.43,11.37,0.95,16.98,1.85c11.08,1.78,21.99,4.27,32.74,7.56
		c7.13,2.18,11.75-0.06,14.17-6.53c0.72-1.92,0.95-4.12,0.95-6.2c0.05-51.52,0.04-103.04,0.04-154.57c0-12.6,0-25.21,0-37.81
		c0-3.21-0.52-6.33-2.88-8.66c-2.67-2.63-5.28-5.56-8.48-7.36c-6.56-3.67-13.38-6.93-20.3-9.89c-9.1-3.88-18.82-5.76-28.53-7.23
		c-7.7-1.17-15.57-1.29-23.36-1.79c-2.01-0.13-4.09-0.22-6.07,0.09c-9.6,1.54-19.36,2.47-28.44,6.3c-4.73,2-9.65,3.73-14.01,6.36
		c-10.35,6.24-19.7,13.84-28.37,22.29c-2.8,2.73-3.94,5.65-3.93,9.51c0.07,71.21,0.05,142.42,0.05,213.63
		C256.77,373.72,256.77,374.73,256.77,376.34z"/>
	<path class="st0" d="M421.87,354.54c-0.01,5.28,1.06,10.67-1.76,15.69c-2.37,4.22-7.1,6.27-12.34,5.18c-2.87-0.6-5.64-1.7-8.5-2.34
		c-9.41-2.12-18.79-4.39-28.28-6.08c-5.4-0.96-10.99-0.89-16.49-1.28c-4.95-0.34-9.9-0.79-14.86-0.97c-2.74-0.1-5.5,0.31-8.26,0.41
		c-11.27,0.42-22.33,2.23-33.05,5.68c-14.7,4.73-27.6,12.52-38.38,23.64c-1.08,1.12-1.89,2.5-2.94,3.91
		c-1.51-1.21-2.3-1.79-3.04-2.43c-3.74-3.27-7.34-6.72-11.22-9.81c-11.81-9.4-25.28-15.17-40.02-18.25
		c-7.69-1.6-15.44-2.23-23.24-2.79c-10.43-0.75-20.73,0.75-31.08,1.43c-14.32,0.94-28.14,4.21-41.8,8.36
		c-0.53,0.16-1.07,0.27-1.61,0.38c-7.12,1.56-12.52-1.57-14.31-8.56c-0.99-3.88-0.54-8.13-0.73-12.21c0.35-0.01,0.7-0.02,1.05-0.03
		c0,1.39-0.06,2.79,0.01,4.18c0.13,2.56-0.02,5.2,0.58,7.66c1.4,5.71,6.1,9.42,12.37,7.99c5.91-1.35,11.69-3.22,17.6-4.56
		c9.68-2.21,19.39-4.25,29.4-4.43c4.31-0.08,8.6-0.73,12.91-1.08c16.6-1.36,32.94,0.43,48.84,5.12
		c13.67,4.03,25.87,10.97,36.34,20.78c2.27,2.13,4.63,4.16,7.13,6.4c1.88-1.76,3.63-3.36,5.33-5
		c13.28-12.83,29.18-20.59,47.12-24.46c13.03-2.81,26.17-3.87,39.48-2.84c7.98,0.62,16.05,0.62,23.91,1.94
		c10.31,1.74,20.43,4.56,30.65,6.8c3.09,0.68,6.29,1.45,9.4,1.33c4.92-0.18,7.5-3.63,8.43-8.12c0.55-2.66,0.45-5.47,0.6-8.21
		c0.06-1.15,0.01-2.31,0.01-3.47C421.35,354.51,421.61,354.52,421.87,354.54z"/>
	<path class="st0" d="M255.87,376.52c-2.19-1.77-3.93-2.98-5.44-4.43c-10.44-10.11-22.68-17.25-36.45-21.65
		c-9.02-2.88-18.34-4.56-27.82-5.39c-12.44-1.09-24.85-0.54-37.2,0.66c-13.92,1.35-27.61,4.16-41,8.33
		c-2.16,0.67-4.51,1.35-6.71,1.17c-5.81-0.48-10.03-5.33-10.26-11.23c-0.03-0.83-0.01-1.66-0.01-2.48
		c0-63.66,0.03-127.33-0.04-190.99c-0.01-5.6,2.01-9.58,6.48-13.14c13.47-10.74,29.13-16.01,45.62-19.59
		c10.85-2.36,21.86-3.11,32.88-3.13c6.37-0.01,12.72,1.59,19.11,2.25c5.94,0.61,11.37,3,16.88,4.91c4.54,1.57,8.79,4.14,12.93,6.67
		c10.02,6.12,18.96,13.62,27.28,21.89c2.55,2.54,3.81,5.38,3.81,9.07c-0.06,71.21-0.04,142.41-0.04,213.62
		C255.87,373.98,255.87,374.89,255.87,376.52z"/>
	<path class="st0" d="M256.77,376.34c0-1.61,0-2.61,0-3.61c0-71.21,0.02-142.42-0.05-213.63c0-3.86,1.13-6.78,3.93-9.51
		c8.67-8.45,18.02-16.05,28.37-22.29c4.36-2.63,9.28-4.37,14.01-6.36c9.08-3.84,18.84-4.77,28.44-6.3c1.98-0.32,4.05-0.23,6.07-0.09
		c7.8,0.51,15.66,0.63,23.36,1.79c9.71,1.47,19.43,3.34,28.53,7.23c6.92,2.95,13.74,6.21,20.3,9.89c3.2,1.79,5.81,4.73,8.48,7.36
		c2.36,2.32,2.89,5.45,2.88,8.66c0,12.6,0,25.21,0,37.81c0,51.52,0.01,103.04-0.04,154.57c0,2.07-0.23,4.28-0.95,6.2
		c-2.42,6.47-7.04,8.71-14.17,6.53c-10.75-3.29-21.67-5.78-32.74-7.56c-5.62-0.9-11.31-1.42-16.98-1.85
		c-11.95-0.91-23.91-1.01-35.82,0.46c-16.27,2.01-31.67,6.82-45.43,15.87c-5.65,3.72-10.6,8.51-15.86,12.82
		C258.46,374.81,257.86,375.37,256.77,376.34z"/>
</g>
</svg>
