<?xml version="1.0" encoding="utf-8"?>
<!-- Generator: Adobe Illustrator 24.1.3, SVG Export Plug-In . SVG Version: 6.00 Build 0)  -->
<svg version="1.1" id="Layer_1" xmlns="http://www.w3.org/2000/svg" xmlns:xlink="http://www.w3.org/1999/xlink" x="0px" y="0px"
	 viewBox="0 0 512 512" style="enable-background:new 0 0 512 512;" xml:space="preserve">
<style type="text/css">
	.st0{fill:none;stroke:#003087;stroke-width:8;stroke-miterlimit:10;}
	.st1{fill:none;stroke:#003087;stroke-width:8;stroke-linecap:round;stroke-linejoin:round;stroke-miterlimit:10;}
	.st2{fill:none;stroke:#231F20;stroke-width:2;stroke-miterlimit:10;}
	.st3{fill:#003087;stroke:#003087;stroke-width:7;stroke-miterlimit:10;}
	.st4{fill:none;stroke:#003087;stroke-width:7;stroke-miterlimit:10;}
	.st5{fill:#003087;stroke:#003087;stroke-width:5.9816;stroke-linecap:round;stroke-linejoin:round;stroke-miterlimit:10;}
	.st6{fill:none;stroke:#003087;stroke-width:1.5924;stroke-miterlimit:10;}
	.st7{fill:none;stroke:#003087;stroke-width:4.7773;stroke-miterlimit:10;}
	.st8{fill:none;stroke:#003087;stroke-width:1.2617;stroke-miterlimit:10;}
	.st9{fill:none;stroke:#000000;stroke-width:2.9998;stroke-miterlimit:10;}
	.st10{fill:none;stroke:#003087;stroke-width:6.2158;stroke-miterlimit:10;}
	.st11{fill:none;stroke:#003087;stroke-width:3.5741;stroke-miterlimit:10;}
	.st12{fill:#003087;}
	.st13{fill:none;stroke:#003087;stroke-width:3.2417;stroke-miterlimit:10;}
	.st14{fill:none;stroke:#003087;stroke-width:5.6729;stroke-miterlimit:10;}
	.st15{fill:#003087;stroke:#003087;stroke-width:6.9881;stroke-linecap:round;stroke-linejoin:round;stroke-miterlimit:10;}
	.st16{fill:#003087;stroke:#003087;stroke-width:6.9881;stroke-miterlimit:10;}
	.st17{fill:none;stroke:#003087;stroke-width:7;stroke-linecap:round;stroke-linejoin:round;stroke-miterlimit:10;}
	.st18{fill:none;stroke:#003087;stroke-width:4.1218;stroke-miterlimit:10;}
	.st19{fill:none;stroke:#000000;stroke-width:5.884;stroke-miterlimit:10;}
	.st20{fill:none;stroke:#000000;stroke-width:4.2322;stroke-miterlimit:10;}
	.st21{fill:none;stroke:#000000;stroke-width:4.5849;stroke-miterlimit:10;}
	.st22{fill:none;stroke:#231F20;stroke-width:8;stroke-miterlimit:10;}
	.st23{fill:#FFFFFF;}
	.st24{fill:none;stroke:#003087;stroke-width:19.9736;stroke-linecap:round;stroke-linejoin:round;}
	.st25{fill:#003087;stroke:#003087;stroke-miterlimit:10;}
	.st26{fill:#FFFFFF;stroke:#003087;stroke-miterlimit:10;}
	.st27{fill:none;stroke:#003087;stroke-width:8.5308;stroke-linecap:round;stroke-linejoin:round;}
	.st28{fill:none;stroke:#003087;stroke-width:6.9514;stroke-miterlimit:10;}
	.st29{fill:none;stroke:#003087;stroke-width:5.1161;stroke-miterlimit:10;}
	.st30{fill:none;stroke:#003087;stroke-width:5.5424;stroke-miterlimit:10;}
</style>
<g>
	<g>
		<rect x="28.22" y="47.88" class="st0" width="455.56" height="416.24"/>
	</g>
</g>
<g>
	<path class="st1" d="M119.32,219.93c0,57.94,0,115.24,0,173.37c27.05-19.56,53.66-38.8,80.26-58.04
		c-1.16,3.08-77.36,58.32-81.27,59.59c-0.09-1.41-0.24-2.71-0.24-4.02c-0.01-56.32,0.01-112.64-0.07-168.96
		c0-2.95,0.93-4.83,3.28-6.54c33.93-24.55,67.81-49.16,101.7-73.76c13.41-9.74,26.8-19.52,40.22-29.24
		c3.63-2.63,3.67-2.54,7.39,0.17c39.83,28.94,79.66,57.86,119.49,86.8c7.36,5.35,14.61,10.85,22.08,16.04
		c2.56,1.78,3.44,3.74,3.44,6.79c-0.08,44.98-0.06,89.96-0.06,134.94c0,11.09,0.01,22.18-0.01,33.27c0,1.46-0.12,2.91-0.19,4.42
		c-3.06-0.63-79.22-55.49-81.7-59.06c9.27,5.61,17.78,12.31,26.58,18.6c9.02,6.45,17.99,12.98,26.98,19.48
		c8.85,6.4,17.69,12.8,26.99,19.53c0-58.07,0-115.44,0-173.21c-1.23,0.8-2.27,1.41-3.23,2.12c-33.61,24.99-67.2,49.99-100.81,74.98
		c-12.8,9.52-25.63,18.99-38.46,28.48c-4.33,3.21-5.68,3.22-9.93,0.06c-17.9-13.32-35.78-26.66-53.68-39.98
		c-28.6-21.27-57.22-42.53-85.83-63.79C121.48,221.39,120.66,220.85,119.32,219.93z M178.68,192.18c-0.15,1.13-0.33,1.85-0.33,2.58
		c-0.02,21.42,0.01,42.85-0.06,64.27c-0.01,2.16,0.9,3.41,2.53,4.6c7.94,5.81,15.82,11.71,23.72,17.58
		c19.6,14.57,39.2,29.14,58.8,43.7c3.26,2.42,3.58,2.45,6.52,0.27c27.51-20.42,54.99-40.88,82.54-61.26
		c2.14-1.58,2.93-3.29,2.92-5.92c-0.09-20.55-0.05-41.1-0.06-61.66c0-1.32-0.16-2.64-0.25-4.16
		C296.11,192.18,237.57,192.18,178.68,192.18z M119.91,218.37c19.05,14.15,37.76,28.04,56.46,41.94c0.27-0.18,0.54-0.36,0.8-0.55
		c0-1.47,0-2.94,0-4.4c0-19.56,0-39.12,0-58.68c0-1.12,0.03-2.24,0.03-3.36c-0.01-1.71,0.87-2.49,2.54-2.47
		c0.87,0.01,1.75-0.03,2.62-0.03c56.24,0,112.47,0,168.71,0c1,0,1.99,0.03,2.99,0.04c1.52,0.02,2.29,0.79,2.31,2.31
		c0.02,1.12,0.04,2.24,0.04,3.36c0,19.69,0,39.37,0,59.06c0,1.43,0,2.86,0,4.3c0.29,0.11,0.57,0.22,0.86,0.33
		c18.64-13.84,37.29-27.68,56.22-41.73c-1.4-1.1-2.43-1.97-3.52-2.76c-21.27-15.46-42.56-30.9-63.83-46.35
		c-25.61-18.61-51.22-37.21-76.77-55.89c-1.95-1.43-3.23-1.43-5.19,0c-20.62,15.08-41.33,30.05-62,45.06
		c-21.38,15.52-42.75,31.05-64.12,46.59C132.15,209.41,126.24,213.75,119.91,218.37z"/>
	<path class="st1" d="M224.88,229.12c27.95,0,55.9,0,84.24,0C306.56,230.29,229.21,230.56,224.88,229.12z"/>
	<path class="st1" d="M308.87,251.46c-28,0-56,0-84.17,0C227.12,250.42,304.76,250.19,308.87,251.46z"/>
	<ellipse class="st1" cx="251.48" cy="272.91" rx="37.76" ry="0.39"/>
	<path class="st1" d="M356.23,260.92c-0.12-1.25-0.36-2.49-0.36-3.74c-0.02-21.81-0.02-43.62-0.02-65.61c-59.24,0-118.48,0-178.1,0
		c0,1.18,0,2.55,0,3.93c0,20.56,0.01,41.12-0.02,61.69c0,1.25-0.23,2.49-0.36,3.74"/>
	<path class="st1" d="M333.78,336.06c16.96,12.21,33.94,24.4,50.88,36.65c8.89,6.43,17.72,12.95,26.57,19.43
		c1.09,0.8,2.19,1.57,3.74,2.67c0-1.8,0-3.17,0-4.54c0-55.83-0.01-111.66,0.04-167.49c0-2.97-0.67-4.91-3.34-6.82
		c-21.7-15.53-43.22-31.3-64.8-47.01c-15.22-11.08-30.42-22.19-45.65-33.27c-11.42-8.3-22.86-16.58-34.48-25.01
		c-8.79,6.4-17.44,12.73-26.13,19.02c-17.58,12.72-35.19,25.4-52.75,38.15c-12.63,9.17-25.18,18.46-37.8,27.65
		c-9.32,6.78-18.67,13.52-28.08,20.16c-2.45,1.73-3.42,3.68-3.42,6.76c0.1,56.08,0.07,112.16,0.07,168.23c0,1.24,0,2.48,0,4.08
		c27.33-19.75,54.26-39.2,81.19-58.66"/>
	<path class="st1" d="M119.39,218.67c11.47,8.6,22.93,17.22,34.42,25.79c25.06,18.7,50.12,37.4,75.21,56.07
		c10.94,8.14,21.95,16.2,32.92,24.31c3.76,2.78,4.53,3.75,9.42,0.09c35.04-26.22,70.29-52.16,105.44-78.24
		c12.52-9.29,24.95-18.68,37.42-28.03"/>
	<path class="st1" d="M118.64,394.72l-0.07,6.76c2.62,0.25,10.55-0.03,13.17-0.03c90.3,0.04,180.59,0.04,270.89,0
		c2.62,0,9.77,0.13,12.39-0.12l-0.04-6.52"/>
	<path class="st1" d="M309.46,229.51c-28.44,0-56.87,0-85.31,0"/>
	<path class="st1" d="M309.46,251.2c-28.44,0-56.87,0-85.31,0"/>
	<path class="st1" d="M278.78,272.88c-18.21,0-36.42,0-54.63,0"/>
</g>
</svg>
