<?xml version="1.0" encoding="utf-8"?>
<!-- Generator: Adobe Illustrator 24.1.3, SVG Export Plug-In . SVG Version: 6.00 Build 0)  -->
<svg version="1.1" id="Layer_1" xmlns="http://www.w3.org/2000/svg" xmlns:xlink="http://www.w3.org/1999/xlink" x="0px" y="0px"
	 viewBox="0 0 336 232" style="enable-background:new 0 0 336 232;" xml:space="preserve">
<style type="text/css">
	.st0{fill:#253B80;stroke:#253B80;stroke-width:0.3563;stroke-miterlimit:10;}
	.st1{fill:#253B80;stroke:#253B80;stroke-width:0.2355;stroke-miterlimit:10;}
	.st2{fill:#253B80;stroke:#253B80;stroke-width:0.2668;stroke-miterlimit:10;}
	.st3{fill:#253B80;}
	.st4{font-family:'Helvetica-Condensed-Light';}
	.st5{font-size:21.3416px;}
</style>
<g>
	<path class="st0" d="M74.3,20.83c0.38-0.14,0.78-0.19,1.2-0.16c1.01,0.1,1.79,0.64,2.34,1.61c0.55,0.97,0.95,2.48,1.2,4.53
		c0.14,1.49,0.38,3.17,0.73,5.05c0.55,3.3,0.88,6.11,0.99,8.43c0.07,2.81,0.42,4.22,1.04,4.22c0.42,0,0.99-0.47,1.72-1.41
		c1.46-1.87,3.14-2.81,5.05-2.81c1.11,0,2.08,0.43,2.91,1.3c0.55,0.62,0.83,1.25,0.83,1.87c0,1.18-0.95,2.48-2.86,3.9
		c-1.22,0.9-2.08,1.67-2.6,2.29c-0.52,0.62-1.13,1.63-1.82,3.02c-1.6,3.19-3.09,5.24-4.48,6.14c-0.49,0.28-0.73,0.55-0.73,0.83
		c0,0.17,0.16,0.57,0.47,1.2c0.24,0.45,0.26,0.69,0.05,0.73h-0.1c-0.24,0-0.47-0.18-0.68-0.55c-0.21-0.36-0.31-0.74-0.31-1.12
		c0-0.17-0.04-0.28-0.13-0.31c-0.09-0.04-0.34-0.04-0.75,0H77.9c-0.52,0-0.78-0.09-0.78-0.26c0-0.21,0.36-0.42,1.09-0.62
		c1.25-0.31,2.25-0.88,2.99-1.72c0.75-0.83,1.55-2.06,2.42-3.7c1.18-2.15,2.06-3.59,2.63-4.32c0.57-0.73,1.47-1.49,2.68-2.29
		c1.67-1.11,2.5-2.12,2.5-3.02c0-0.14-0.03-0.35-0.1-0.62c-0.42-1.28-1.49-1.93-3.23-1.93c-0.73,0-1.33,0.14-1.8,0.42
		c-0.47,0.28-1.05,0.85-1.74,1.72c-1.15,1.46-2.06,2.19-2.76,2.19c-0.38,0-0.71-0.16-0.99-0.47c-0.42-0.55-0.69-1.87-0.83-3.96
		c-0.1-1.35-0.59-5.27-1.46-11.76c-0.49-4.06-1.13-6.52-1.93-7.39c-0.35-0.35-0.73-0.52-1.15-0.52c-0.66,0-1.19,0.25-1.59,0.75
		c-0.4,0.5-0.6,1.17-0.6,2c0,0.49,0.09,1.04,0.26,1.67c0.38,1.42,0.69,3.28,0.94,5.57c0.14,0.94,0.26,1.64,0.36,2.11
		s0.26,1.04,0.47,1.72c0.21,0.68,0.42,1.38,0.62,2.11c0.42,1.74,0.62,3.17,0.62,4.32v0.88c0,0.69-0.12,1.28-0.36,1.77
		c-0.45,0.97-1.15,1.46-2.08,1.46c-0.31,0-0.64-0.09-0.99-0.26c-0.38-0.21-0.58-0.31-0.6-0.31c-0.02,0-0.04,0.07-0.08,0.21
		c0,0.17-0.19,0.44-0.57,0.81c-0.38,0.36-0.73,0.63-1.04,0.81c-0.45,0.17-0.83,0.26-1.15,0.26c-0.38,0-0.73-0.1-1.04-0.31
		l-0.52-0.36l-0.42,0.42c-0.28,0.28-0.61,0.42-0.99,0.42c-1.01,0-2.19-0.85-3.54-2.55L62.7,44.3l0.1,1.72
		c0.14,2.53,0.42,4.54,0.83,6.01c0.42,1.48,1.15,3.01,2.19,4.61c0.94,1.39,1.41,2.17,1.41,2.34c0,0.03-0.05,0.09-0.16,0.16
		c-0.21,0.07-0.4,0.02-0.57-0.16c-0.1-0.14-0.18-0.18-0.23-0.13s-0.11,0.22-0.18,0.49v0.05c-0.28,0.97-0.56,1.46-0.83,1.46H65.2
		c-0.1,0-0.16-0.04-0.16-0.1c0-0.14,0.12-0.57,0.36-1.3l0.36-1.25l-0.68-0.99c-1.01-1.46-1.73-2.97-2.16-4.55
		c-0.43-1.58-0.69-3.63-0.75-6.17l-0.05-3.23l-0.57-1.35c-0.45-1.15-0.68-2.13-0.68-2.97c0-1.18,0.43-1.91,1.3-2.19
		c0.28-0.14,0.52-0.21,0.73-0.21c0.17,0,0.47,0.05,0.88,0.16c0.59,0.17,0.92,0.26,0.99,0.26c0.03,0,0.05-0.12,0.05-0.36
		c0-0.45,0.16-0.95,0.47-1.48c0.31-0.54,0.66-0.91,1.04-1.12c0.24-0.14,0.61-0.21,1.09-0.21c0.59,0,1.08,0.1,1.46,0.31l0.47,0.31
		l0.26-0.57c0.49-1.25,1.39-1.87,2.71-1.87c0.42,0,0.78,0.07,1.09,0.21c0.38,0.1,0.57,0.1,0.57,0c0-0.35-0.12-1.21-0.36-2.6
		c-0.24-1.39-0.43-2.32-0.57-2.81c-0.38-1.32-0.57-2.26-0.57-2.81c0-0.35,0.05-0.68,0.16-0.99C72.92,21.92,73.47,21.21,74.3,20.83z
		 M64.68,37.59c-0.35-0.21-0.76-0.31-1.25-0.31c-0.8,0-1.34,0.24-1.61,0.73c-0.14,0.28-0.21,0.56-0.21,0.83
		c0,0.9,0.47,2.17,1.41,3.8c1.53,2.78,2.78,4.16,3.75,4.16c0.21,0,0.4-0.09,0.57-0.26c0.14-0.14,0.21-0.38,0.21-0.73
		c0-0.59-0.17-1.65-0.52-3.17C66.46,39.9,65.68,38.21,64.68,37.59z M68.74,34.99c-0.35-0.28-0.82-0.42-1.41-0.42
		c-0.17,0-0.36,0.03-0.57,0.1c-0.35,0.17-0.68,0.5-0.99,0.99c-0.31,0.49-0.47,0.92-0.47,1.3c0,0.21,0.19,0.54,0.57,0.99
		c0.45,0.52,1.02,1.96,1.72,4.32c0.24,0.9,0.38,1.63,0.42,2.19c0.03,0.66,0.24,1.2,0.62,1.61c0.38,0.38,0.75,0.57,1.09,0.57
		c1.42,0,2.13-0.92,2.13-2.76c0-0.59-0.12-1.41-0.36-2.45C70.66,38.14,69.74,35.99,68.74,34.99z M75.09,48.21
		c0.52-0.1,0.78-0.1,0.78,0c-0.03,0.07-0.45,0.3-1.25,0.7c-0.8,0.4-1.46,0.69-1.98,0.86c-0.87,0.31-1.91,0.47-3.12,0.47
		c-1.01,0-1.51-0.12-1.51-0.36c0-0.14,0.35-0.21,1.04-0.21c1.53,0,2.98-0.28,4.37-0.83c0.17-0.07,0.47-0.18,0.88-0.34
		C74.72,48.34,74.98,48.24,75.09,48.21z M72.95,32.8c-0.38-0.17-0.78-0.21-1.2-0.1c-0.56,0.21-1.15,0.73-1.77,1.56l-0.31,0.47
		l0.47,0.83c0.28,0.56,0.67,1.58,1.17,3.07c0.5,1.49,0.84,2.62,1.02,3.38c0.17,1.04,0.26,1.65,0.26,1.82c0,0.35,0.03,0.56,0.1,0.62
		c0.07,0.07,0.28,0.19,0.62,0.36c0.31,0.14,0.61,0.21,0.88,0.21c0.38,0,0.69-0.16,0.94-0.47c0.45-0.62,0.68-1.61,0.68-2.97
		c0-0.97-0.14-2.12-0.42-3.44c-0.45-1.87-0.84-3.18-1.17-3.93C73.9,33.49,73.47,33.01,72.95,32.8z M77.48,48.57
		c0.66-0.31,0.99-0.35,0.99-0.1c0,0.07-0.21,0.23-0.62,0.47c-0.69,0.42-1.37,1.08-2.03,2c-0.66,0.92-1.11,1.83-1.35,2.73
		c-0.17,0.66-0.35,0.99-0.52,0.99c-0.1,0-0.14-0.28-0.1-0.83c0.07-0.9,0.48-1.89,1.22-2.97C75.8,49.79,76.61,49.02,77.48,48.57z"/>
	<path class="st0" d="M98.97,21.3c0.45-0.38,0.85-0.57,1.2-0.57c0.69,0,1.3,0.56,1.82,1.67c0.52,1.11,0.88,2.64,1.09,4.58l0.16,1.72
		l0.36-0.73c0.62-1.32,1.37-1.98,2.24-1.98c0.14,0,0.35,0.03,0.62,0.1c1.21,0.28,2.05,0.8,2.5,1.56l0.42,0.68l0.42-0.47
		c0.55-0.62,1.3-0.94,2.24-0.94c1.08,0,1.93,0.45,2.55,1.35c0.24,0.35,0.42,0.55,0.52,0.6c0.1,0.05,0.23-0.01,0.36-0.18
		c0.28-0.35,0.81-0.52,1.61-0.52c0.07,0,0.14,0.01,0.21,0.03c0.07,0.02,0.14,0.03,0.21,0.03c0.97,0.17,1.72,0.71,2.24,1.61
		c0.45,0.83,0.68,1.72,0.68,2.65c0,0.07-0.01,0.15-0.03,0.23c-0.02,0.09-0.03,0.15-0.03,0.18c-0.03,0.38,0.16,0.69,0.57,0.94
		c2.01,1.18,3.02,3.45,3.02,6.82c0,2.33-0.61,4.25-1.82,5.78c-0.42,0.52-1.14,1.27-2.16,2.24c-1.02,0.97-1.8,1.65-2.32,2.03
		c-0.56,0.42-0.83,0.83-0.83,1.25c0,0.1,0.07,0.47,0.21,1.09c0.1,0.42,0.16,0.75,0.16,0.99c0,0.21-0.05,0.31-0.16,0.31
		c-0.1,0-0.17-0.02-0.21-0.05c-0.14-0.07-0.3-0.31-0.47-0.73c-0.17-0.42-0.26-0.73-0.26-0.94c0-0.38-0.06-0.61-0.18-0.68
		c-0.12-0.07-0.39-0.02-0.81,0.16c-0.31,0.14-0.61,0.21-0.88,0.21c-0.17,0-0.26-0.05-0.26-0.16c0-0.24,0.42-0.57,1.25-0.99
		c1.49-0.76,2.98-1.94,4.48-3.54c1.39-1.46,2.3-2.65,2.73-3.57c0.43-0.92,0.65-2.13,0.65-3.62c0-2.57-0.69-4.39-2.08-5.47
		c-0.59-0.45-1.37-0.9-2.34-1.35c-1.28-0.62-2.1-1.04-2.45-1.25c-0.56-0.38-1.01-0.57-1.35-0.57c-0.28,0-0.56,0.14-0.83,0.42
		c-0.24,0.24-0.35,0.69-0.31,1.35c0.17,1.42,0.73,2.53,1.67,3.33c0.55,0.49,1.06,0.8,1.51,0.94c0.76,0.31,0.83,0.59,0.21,0.83
		c-0.1,0.04-0.32,0.13-0.65,0.29c-0.33,0.16-0.56,0.27-0.7,0.34c-0.76,0.35-1.49,0.92-2.19,1.72c-0.69,0.8-1.13,1.58-1.3,2.34
		c-0.07,0.28-0.16,0.42-0.26,0.42c-0.14,0-0.17-0.33-0.1-0.99c0.03-0.62,0.23-1.21,0.57-1.77c0.31-0.66,0.35-1.01,0.1-1.04
		c-0.38,0-0.85-0.23-1.41-0.7c-0.56-0.47-0.94-0.93-1.15-1.38c-0.17-0.42-0.45-0.42-0.83,0c-0.59,0.59-1.27,0.88-2.03,0.88
		c-0.24,0-0.54-0.07-0.88-0.21c-0.73-0.38-1.4-1.26-2-2.63c-0.61-1.37-0.98-2.91-1.12-4.61c-0.07-0.62-0.2-1.32-0.39-2.08
		c-0.19-0.76-0.34-1.46-0.44-2.08c-0.42-2.57-0.83-4.16-1.25-4.79c-0.35-0.52-0.75-0.78-1.2-0.78c-0.45,0-0.78,0.3-0.99,0.88
		c-0.1,0.28-0.16,0.76-0.16,1.46c0,0.97,0.1,2.13,0.31,3.49c0.55,3.54,0.92,6.49,1.09,8.85c0.31,3.96,0.9,7.22,1.77,9.79
		c0.83,2.64,2.05,4.32,3.64,5.05c0.55,0.21,0.83,0.42,0.83,0.62c0,0.14-0.19,0.21-0.57,0.21h-0.57l-0.16,1.35
		c-0.14,1.11-0.33,1.67-0.57,1.67h-0.05c-0.03-0.03-0.07-0.05-0.1-0.05c-0.14-0.07-0.21-0.19-0.21-0.36c0-0.38,0.09-1.09,0.26-2.13
		c0-0.07,0.01-0.15,0.03-0.23c0.02-0.09,0.03-0.15,0.03-0.18c0-0.21-0.31-0.62-0.94-1.25c-2.19-2.19-3.63-7.42-4.32-15.72
		c-0.28-3.09-0.52-5.19-0.73-6.3c-0.35-2.32-0.52-3.87-0.52-4.63C97.93,22.89,98.28,21.96,98.97,21.3z M107.09,39.93
		c0.17-0.03,0.45-0.05,0.83-0.05c1.46,0,2.24,0.17,2.34,0.52c0.03,0.07-0.03,0.12-0.21,0.16c-0.17,0.03-0.5,0.03-0.99,0
		c-0.1,0-0.26-0.01-0.47-0.03c-0.21-0.02-0.36-0.03-0.47-0.03c-1.32,0-2.53,0.17-3.64,0.52c-0.66,0.24-0.99,0.31-0.99,0.21
		c0-0.14,0.45-0.37,1.35-0.7C105.76,40.2,106.5,40,107.09,39.93z M107.46,27.18c-0.49-0.24-0.92-0.36-1.3-0.36
		c-0.56,0-1.02,0.21-1.41,0.62c-0.59,0.66-0.88,1.84-0.88,3.54c0,1.98,0.36,3.68,1.09,5.1c0.66,1.35,1.35,2.03,2.08,2.03
		c0.52,0,1.15-0.31,1.87-0.94l0.52-0.42l-0.26-1.3c-0.17-0.97-0.26-2.22-0.26-3.75c0-0.9,0.02-1.56,0.05-1.98v-0.62
		c0-0.35-0.14-0.68-0.42-0.99C108.14,27.63,107.77,27.32,107.46,27.18z M113.34,28.01c-0.45-0.24-0.92-0.36-1.41-0.36
		c-0.49,0-0.9,0.14-1.25,0.42c-0.56,0.45-0.87,1.37-0.94,2.76v0.47c0,1.94,0.17,3.71,0.52,5.31c0.45,1.77,1.42,2.71,2.91,2.81
		l0.62,0.05l0.1-1.35v-0.62c0-0.52-0.14-1.08-0.42-1.67c-0.49-0.97-0.73-1.99-0.73-3.07c0-0.24,0.02-0.42,0.05-0.52
		c0.07-0.38,0.27-0.75,0.6-1.09c0.33-0.35,0.65-0.52,0.96-0.52h0.47l-0.21-0.78C114.4,28.97,113.96,28.36,113.34,28.01z
		 M115.58,38.01c-0.07-0.14-0.24-0.29-0.52-0.47l-0.52-0.31v0.68c0,0.49,0.03,0.73,0.1,0.73c0.14,0,0.34-0.09,0.6-0.26
		C115.5,38.2,115.61,38.08,115.58,38.01z M119.38,31.76c-0.07-1.73-0.85-2.67-2.34-2.81h-0.36c-0.31,0-0.55,0.05-0.7,0.16
		c-0.16,0.1-0.32,0.33-0.49,0.68c-0.1,0.21-0.16,0.42-0.16,0.62c0,0.35,0.31,0.71,0.94,1.09c1.42,0.9,2.41,1.35,2.97,1.35
		C119.36,32.85,119.41,32.49,119.38,31.76z"/>
	<path class="st0" d="M146.39,58.46l-0.78,0.83c-0.52,0.55-0.87,0.83-1.04,0.83c-0.1,0-0.16-0.07-0.16-0.21
		c0-0.17,0.64-1.08,1.93-2.71c0.49-0.59,1.04-1.63,1.67-3.12c0.97-2.32,1.56-3.79,1.77-4.4c0.21-0.61,0.31-1.19,0.31-1.74
		c0-0.8-0.17-1.43-0.52-1.9c-0.35-0.47-1.11-1.1-2.29-1.9c-1.74-1.18-2.93-2.17-3.59-2.97c-0.9-1.04-1.67-1.56-2.29-1.56
		c-0.35,0-0.6,0.08-0.75,0.23c-0.16,0.16-0.29,0.46-0.39,0.91c-0.03,0.1-0.05,0.28-0.05,0.52c0,1.56,0.9,3.47,2.71,5.73
		c0.17,0.21,0.38,0.26,0.62,0.16c0.24-0.1,0.42-0.1,0.52,0c0.07,0.07-0.19,0.43-0.78,1.09c-1.42,1.49-2.13,3.17-2.13,5.05v0.57
		c0.03,0.59,0,0.9-0.1,0.94c-0.07,0.04-0.19-0.12-0.36-0.47c-0.17-0.42-0.26-0.95-0.26-1.61c0-0.52,0.05-1.02,0.16-1.51
		c0.28-1.14,0.76-2.12,1.46-2.91c0.42-0.49,0.62-0.76,0.62-0.83c0-0.03-0.19-0.24-0.57-0.62c-0.62-0.59-1.25-1.41-1.87-2.45
		c-0.62-1.04-0.94-2.03-0.94-2.97c0-0.52,0.09-0.95,0.26-1.3c0.35-0.76,1.01-1.21,1.98-1.35h0.26c0.66,0,1.42,0.52,2.29,1.56
		c0.62,0.76,1.42,1.49,2.39,2.19c0.97,0.66,1.51,0.99,1.61,0.99c0.03,0,0.09-2.88,0.16-8.64c0-1.32,0.01-2.71,0.03-4.16
		c0.02-1.46,0.03-2.32,0.03-2.6c0-1.35-0.05-2.13-0.16-2.34c-0.28-0.49-0.61-0.73-0.99-0.73c-0.38,0-0.82,0.21-1.3,0.62l-0.57,0.47
		l-0.16,3.38c-0.14,2.26-0.3,4.16-0.47,5.73c-0.07,0.56-0.1,1.18-0.1,1.87c0,0.35,0.02,0.52,0.05,0.52l0.16,0.05
		c0.1,0.07,0.23,0.15,0.39,0.23c0.16,0.09,0.3,0.18,0.44,0.29c0.55,0.38,0.83,0.68,0.83,0.88c0,0.24-0.09,0.36-0.26,0.36
		c-0.17,0-0.9-0.24-2.19-0.73c-1.91-0.69-3.52-1.04-4.84-1.04c-1.6,0-3.45,0.5-5.57,1.51c-0.45,0.24-0.75,0.36-0.88,0.36
		c-0.07,0-0.1-0.02-0.1-0.05c0-0.14,0.19-0.38,0.57-0.73c0.38-0.35,0.75-0.62,1.09-0.83c0.49-0.28,0.71-0.61,0.68-0.99
		c-0.28-1.67-0.43-3.52-0.47-5.57c-0.03-1.42-0.11-2.27-0.23-2.55c-0.12-0.28-0.43-0.42-0.91-0.42c-0.59,0-1.09,0.4-1.51,1.2
		c-0.52,1.08-0.95,3.92-1.3,8.54c-0.14,2.5-0.26,4.25-0.36,5.26c-0.07,0.97-0.1,1.68-0.1,2.13c0,4.2,1.46,8.31,4.37,12.34
		c0.55,0.73,0.78,1.16,0.68,1.3c-0.07,0.1-0.38-0.05-0.94-0.47l-0.1,0.99c-0.1,1.08-0.28,1.61-0.52,1.61
		c-0.14,0-0.21-0.19-0.21-0.57c0-0.38,0.02-0.73,0.05-1.04l0.1-1.67l-0.78-0.99c-1.39-1.8-2.43-4.27-3.12-7.39
		c-0.21-0.83-0.31-2.17-0.31-4.01c0-1.7,0.12-3.89,0.36-6.56c0.07-0.66,0.16-1.67,0.29-3.02c0.12-1.35,0.2-2.19,0.23-2.5
		c0.14-1.56,0.28-2.57,0.42-3.02c0.42-1.21,0.95-2.08,1.61-2.6c0.31-0.24,0.69-0.36,1.15-0.36c0.28,0,0.49,0.07,0.62,0.21
		c0.14,0.14,0.24,0.21,0.31,0.21c0.17,0,0.28-0.47,0.31-1.41c0.1-1.53,0.42-2.73,0.96-3.62c0.54-0.88,1.21-1.33,2-1.33
		c0.62,0,1.15,0.43,1.56,1.3l0.36,0.73l0.42-0.78c0.59-1.21,1.46-1.82,2.6-1.82c0.1,0,0.33,0.03,0.68,0.1
		c1.11,0.28,1.79,1.3,2.03,3.07c0.07,0.49,0.12,0.73,0.16,0.73l0.1-0.05c0.03-0.03,0.1-0.09,0.18-0.16
		c0.09-0.07,0.16-0.12,0.23-0.16c0.21-0.17,0.62-0.29,1.25-0.36c0.59-0.03,1.01,0.09,1.25,0.36c0.31,0.31,0.55,0.76,0.73,1.35
		c0.21,0.59,0.31,2.01,0.31,4.27c0,0.38-0.03,3.28-0.1,8.69l-0.05,5.41l0.57,0.57c0.87,0.87,1.3,1.84,1.3,2.91
		c0,1.01-0.45,2.58-1.35,4.71c-0.9,2.13-1.61,3.6-2.13,4.4c-0.21,0.28-0.31,1.13-0.31,2.55c0,1.39-0.05,2.13-0.16,2.24
		c-0.03,0.03-0.08,0.02-0.13-0.05c-0.05-0.07-0.13-0.17-0.23-0.31c-0.17-0.24-0.26-0.78-0.26-1.61
		C146.49,58.89,146.46,58.46,146.39,58.46z M133.38,46.54c0.07-0.1,0.38-0.05,0.94,0.16c0.45,0.17,1.23,0.26,2.34,0.26
		c0.42,0,0.97-0.01,1.67-0.03c0.69-0.02,1.15-0.03,1.35-0.03c0.45,0,0.68,0.03,0.68,0.1c0,0.35-1.34,0.52-4.01,0.52
		c-0.9,0-1.54-0.05-1.93-0.16c-0.35-0.14-0.62-0.29-0.81-0.44C133.42,46.78,133.34,46.65,133.38,46.54z M135.46,37.17
		c1.84-0.38,2.81-0.57,2.91-0.57h0.57v-5.93c0-3.23-0.04-5.23-0.13-6.01c-0.09-0.78-0.32-1.38-0.7-1.8
		c-0.28-0.28-0.54-0.42-0.78-0.42c-0.38,0-0.8,0.38-1.25,1.14c-0.59,1.18-0.88,3.25-0.88,6.19c0,1.39,0.02,2.5,0.05,3.33
		c0.03,0.62,0.07,1.27,0.1,1.95c0.03,0.68,0.05,1.21,0.05,1.59L135.46,37.17z M144.26,23.54c-0.28-1.04-0.82-1.56-1.61-1.56
		c-0.8,0-1.49,0.38-2.08,1.14c-0.38,0.56-0.62,1.08-0.7,1.59c-0.09,0.5-0.15,2-0.18,4.5v2.29c0,1.67,0.03,2.91,0.1,3.75l0.16,1.35
		h0.57c0.31,0,1.3,0.19,2.97,0.57h0.1c0.17,0,0.26-0.54,0.26-1.61c0-0.87,0.1-2.31,0.31-4.32c0.17-1.84,0.26-3.56,0.26-5.15
		C144.41,24.87,144.36,24.02,144.26,23.54z"/>
	<path class="st0" d="M166.12,22.76c0.14-0.42,0.4-0.78,0.78-1.09c0.38-0.31,0.8-0.47,1.25-0.47c0.42,0,0.76,0.12,1.04,0.36
		c0.83,0.62,1.25,1.49,1.25,2.6c0,0.21-0.03,0.66-0.1,1.35c-0.07,0.83-0.1,1.27-0.1,1.3c0,0.38,0.1,0.8,0.31,1.25
		c0.24,0.59,0.83,2.71,1.77,6.35c0.94,3.64,1.46,5.6,1.56,5.88c0.35,1.21,0.69,1.93,1.04,2.13c0.28,0.17,0.75,0.59,1.41,1.25
		c1.53,1.53,2.29,3.31,2.29,5.36c0,0.24-0.04,0.64-0.1,1.2c-0.17,1.01-0.56,2.22-1.15,3.64c-0.59,1.42-1.21,2.57-1.87,3.44
		c-0.35,0.49-0.52,0.88-0.52,1.2v0.42c0,0.66,0.1,1.15,0.31,1.46c0.38,0.62,0.42,0.94,0.1,0.94c-0.28,0-0.54-0.23-0.78-0.68
		c-0.24-0.45-0.36-0.9-0.36-1.35c0-0.28-0.01-0.43-0.03-0.44c-0.02-0.02-0.11,0.03-0.29,0.13c-0.31,0.24-0.75,0.49-1.33,0.73
		c-0.57,0.24-0.95,0.36-1.12,0.36h-0.05c-0.52-0.1-0.35-0.42,0.52-0.94c1.42-0.9,2.78-2.32,4.06-4.27c1.28-1.94,1.93-3.87,1.93-5.78
		c0-1.08-0.23-2.06-0.68-2.97c-0.24-0.52-0.75-1.18-1.51-1.98c-0.76-0.8-1.27-1.2-1.51-1.2c-0.21,0-0.35-0.07-0.42-0.21
		c-0.21-0.31-0.9-0.57-2.08-0.78c-1.21-0.24-1.93-0.4-2.13-0.47c-0.42-0.14-0.82-0.21-1.2-0.21c-0.38,0-0.66,0.09-0.83,0.26
		c-0.24,0.31-0.36,0.64-0.36,0.99c0,0.62,0.29,1.23,0.88,1.82c0.97,0.9,1.84,1.35,2.6,1.35h0.1c0.17-0.07,0.31-0.03,0.42,0.13
		c0.1,0.16,0.16,0.44,0.16,0.86c0,0.31,0.05,0.61,0.16,0.88c0.07,0.24,0.15,0.38,0.23,0.42c0.09,0.03,0.29,0.02,0.6-0.05
		c0.07,0,0.14-0.01,0.21-0.03c0.07-0.02,0.12-0.03,0.16-0.03c0.21,0,0.31,0.05,0.31,0.16c0,0.17-0.43,0.47-1.3,0.88
		c-1.35,0.69-2.12,1.41-2.29,2.13c-0.07,0.31-0.17,0.47-0.31,0.47c-0.14,0-0.19-0.19-0.16-0.57c0.17-0.83,0.69-1.54,1.56-2.13
		c0.42-0.28,0.62-0.5,0.62-0.68c0-0.03-0.1-0.36-0.31-0.99c-0.1-0.42-0.35-0.69-0.73-0.83l-1.82-0.83l-0.05,0.1
		c-0.07,0.07-0.13,0.16-0.18,0.26c-0.05,0.1-0.11,0.21-0.18,0.31c-0.45,0.87-1.09,1.3-1.93,1.3c-0.14,0-0.5-0.09-1.09-0.26
		c-0.31-0.1-0.52-0.15-0.62-0.13c-0.1,0.02-0.28,0.13-0.52,0.34c-0.59,0.49-1.2,0.73-1.82,0.73c-0.9,0-1.79-0.43-2.65-1.3
		c-0.31-0.31-0.5-0.47-0.57-0.47c-0.07,0-0.1,0.71-0.1,2.13c0,2.32,0.07,3.75,0.21,4.27c0.49,1.74,1.04,3.05,1.67,3.96
		c0.8,1.11,1.2,1.75,1.2,1.93c0,0.07-0.03,0.1-0.1,0.1c-0.14,0-0.26-0.05-0.36-0.16h-0.05c-0.07,0-0.19,0.23-0.36,0.7
		c-0.17,0.47-0.36,0.98-0.57,1.54c-0.21,0.55-0.4,0.88-0.57,0.99c-0.03,0.03-0.07,0.05-0.1,0.05c-0.07,0-0.1-0.07-0.1-0.21
		c0-0.24,0.09-0.64,0.26-1.2c0.17-0.56,0.36-1.06,0.57-1.51l0.26-0.68c0.14-0.24-0.03-0.66-0.52-1.25
		c-1.63-2.15-2.45-4.75-2.45-7.81c0-0.97,0.07-1.82,0.21-2.55l0.26-1.3l-0.42-0.73c-0.62-1.18-0.94-2.67-0.94-4.48
		c0-1.53,0.31-2.53,0.94-3.02c0.17-0.17,0.49-0.26,0.94-0.26c0.38,0,0.66,0.07,0.83,0.21c0.38,0.28,0.57,0.12,0.57-0.47
		c0-0.9,0.36-1.58,1.09-2.03c0.31-0.21,0.66-0.31,1.04-0.31c0.66,0,1.34,0.28,2.03,0.83c0.17,0.14,0.28,0.1,0.31-0.1
		c0.03-0.1,0.07-0.4,0.1-0.88c0.07-0.87,0.23-1.79,0.47-2.76c0.17-0.8,0.26-1.27,0.26-1.41c0-0.21-0.05-0.38-0.16-0.52
		c-0.8-1.49-1.2-2.97-1.2-4.42c0-1.25,0.49-1.87,1.46-1.87C165.75,23.17,166.01,23.03,166.12,22.76z M159.4,37.69
		c-0.49-0.14-0.78-0.21-0.88-0.21c-0.62,0-0.95,0.82-0.99,2.45v0.68c0,1.46,0.26,2.71,0.78,3.75c0.45,0.94,1.01,1.68,1.69,2.24
		c0.68,0.56,1.33,0.83,1.95,0.83c0.42,0,0.81-0.14,1.2-0.42c0.42-0.31,0.43-0.64,0.05-0.99c-0.45-0.42-0.95-1.47-1.51-3.17
		c-0.24-0.76-0.57-1.65-0.99-2.65c-0.38-0.87-0.59-1.46-0.62-1.77C160.01,38.08,159.78,37.83,159.4,37.69z M162.84,35.25
		c-0.21-0.1-0.54-0.16-0.99-0.16c-0.35,0-0.66,0.16-0.94,0.47c-0.28,0.35-0.42,0.78-0.42,1.3c0,0.87,0.4,2.22,1.2,4.06
		c0.1,0.24,0.36,0.91,0.78,2c0.42,1.09,0.81,1.89,1.17,2.39c0.36,0.5,0.82,0.88,1.38,1.12c0.28,0.14,0.57,0.21,0.88,0.21
		c0.38,0,0.78-0.21,1.2-0.62c0.52-0.55,0.59-0.99,0.21-1.3c-0.07-0.03-0.3-0.33-0.68-0.88c-0.28-0.38-0.42-0.87-0.42-1.46
		c0-0.45,0.09-0.83,0.26-1.15c0.17-0.42,0.17-0.87,0-1.35c-0.28-0.87-0.82-1.8-1.61-2.81C164.07,36.06,163.39,35.46,162.84,35.25z
		 M164.71,49.09c0.87-0.14,1.3-0.1,1.3,0.1c0,0.07-0.45,0.21-1.35,0.42c-0.97,0.17-1.68,0.42-2.13,0.73
		c-0.35,0.21-0.59,0.31-0.73,0.31c-0.07,0-0.1-0.02-0.1-0.05c0-0.1,0.28-0.33,0.83-0.68C163.11,49.54,163.84,49.27,164.71,49.09z
		 M167.42,24.63c-0.66-0.49-1.3-0.73-1.93-0.73c-0.17,0-0.33,0.03-0.47,0.1c-0.24,0.14-0.38,0.42-0.42,0.83v0.26
		c0,1.32,0.78,3.52,2.34,6.61c1.15,2.22,1.79,3.96,1.93,5.2c0.07,0.56,0.29,0.99,0.68,1.3c0.35,0.31,0.47,0.52,0.36,0.62
		c-0.14,0.14-0.35,0.1-0.62-0.1c-0.62-0.42-1.34-0.62-2.13-0.62c-0.42,0-0.62,0.03-0.62,0.1l0.05,0.21c0,0.07,0.04,0.23,0.13,0.49
		c0.09,0.26,0.15,0.46,0.18,0.6l0.21,0.78l0.57-0.05c0.28-0.03,0.75,0.05,1.41,0.26c0.42,0.17,1.17,0.4,2.26,0.68
		c1.09,0.28,1.73,0.42,1.9,0.42c0.03,0,0.05-0.05,0.05-0.16c0-0.28-0.12-0.8-0.36-1.56c-0.1-0.31-0.5-1.89-1.2-4.74
		c-0.97-4.27-1.67-6.84-2.08-7.7C169.1,26.29,168.35,25.36,167.42,24.63z M166.9,33.11c-0.76-1.49-1.16-2.24-1.2-2.24
		c-0.07,0-0.21,0.85-0.42,2.55c-0.1,0.94-0.16,1.58-0.16,1.93c0,0.45,0.17,0.95,0.52,1.51l0.47,0.78l1.15-0.1
		c0.8-0.07,1.2-0.14,1.2-0.21C168.46,36.67,167.94,35.27,166.9,33.11z M169.71,23.33c-0.07-0.35-0.27-0.66-0.6-0.94
		c-0.33-0.28-0.7-0.42-1.12-0.42c-0.31,0-0.64,0.14-0.99,0.42c-0.31,0.31-0.47,0.56-0.47,0.73c0,0.24,0.16,0.42,0.47,0.52
		c0.28,0.1,0.76,0.5,1.46,1.2c0.62,0.62,0.97,0.9,1.04,0.83c0.17-0.17,0.26-0.78,0.26-1.82c0-0.07-0.01-0.16-0.03-0.29
		C169.72,23.44,169.71,23.36,169.71,23.33z"/>
	<path class="st0" d="M207.29,31.08c0.31-0.14,0.69-0.21,1.15-0.21c0.8,0,1.42,0.28,1.87,0.83c0.24,0.31,0.36,0.61,0.36,0.88
		c0,0.49-0.33,1.21-0.99,2.19c-2.01,3.09-3.11,7.29-3.28,12.6c-0.07,1.74-0.12,2.78-0.16,3.15c-0.03,0.36-0.16,0.75-0.36,1.17
		c-0.28,0.59-0.78,1.32-1.51,2.19c-1.08,1.32-1.8,2.36-2.16,3.12s-0.65,1.79-0.86,3.07c-0.17,1.11-0.36,1.67-0.57,1.67l-0.21-0.1
		c-0.1-0.07-0.16-0.36-0.16-0.88c0-1.18,0.1-2.08,0.31-2.71c0.17-0.45,0.24-0.7,0.21-0.75c-0.03-0.05-0.23,0.01-0.57,0.18
		c-0.42,0.24-0.66,0.29-0.73,0.16c-0.03-0.07,0.09-0.21,0.36-0.42c0.73-0.52,1.65-1.46,2.76-2.81c1.28-1.6,2.05-2.7,2.29-3.31
		c0.24-0.61,0.36-1.81,0.36-3.62c0-5.2,1.15-9.58,3.44-13.12c0.42-0.62,0.59-1.09,0.52-1.41c-0.17-0.8-0.5-1.2-0.99-1.2
		c-0.21,0-0.59,0.12-1.15,0.36c-1.01,0.52-1.87,1.32-2.6,2.39c-0.59,0.87-0.88,1.65-0.88,2.34c0,0.14,0.03,0.52,0.1,1.15
		c0.07,0.69,0.1,1.21,0.1,1.56c0,2.29-0.45,3.83-1.35,4.63c-0.49,0.42-1.06,0.62-1.72,0.62c-0.49,0-0.97-0.14-1.46-0.42l-0.47-0.36
		l-0.62,0.36c-0.52,0.31-1.01,0.47-1.46,0.47c-0.28,0-0.59-0.09-0.94-0.26l-0.57-0.31l-0.52,0.42c-0.52,0.49-1.21,0.73-2.08,0.73
		h-0.52c-0.66-0.03-1.15,0.03-1.46,0.21c-0.42,0.21-0.8,0.31-1.15,0.31c-0.45,0-0.83-0.16-1.15-0.47c-0.49-0.49-0.9-1.72-1.25-3.7
		c-0.17-0.94-0.26-1.56-0.26-1.87c0-0.1,0.03-0.16,0.1-0.16c0.17,0,0.45,0.87,0.83,2.6c0.28,1.14,0.53,1.9,0.75,2.26
		c0.23,0.36,0.56,0.55,1.02,0.55c0.9,0,1.35-1.3,1.35-3.9c0-3.5-0.64-5.26-1.93-5.26c-0.49,0-1.04,0.31-1.67,0.94
		c-0.97,0.94-1.68,2.34-2.13,4.22c-0.17,0.69-0.26,1.75-0.26,3.17c0,3.57,0.4,6.28,1.2,8.12c0.38,0.76,0.81,1.51,1.3,2.24
		c0.14,0.21,0.31,0.47,0.52,0.78c0.21,0.31,0.39,0.58,0.55,0.81c0.16,0.23,0.27,0.39,0.34,0.49c0.31,0.55,0.61,0.92,0.88,1.09
		c0.52,0.38,0.66,0.59,0.42,0.62l-0.47-0.1c-0.1-0.04-0.16,0.02-0.16,0.16c-0.03,0.14-0.05,0.54-0.05,1.2
		c0,0.87-0.07,1.41-0.21,1.61c-0.07,0.07-0.14,0.1-0.21,0.1c-0.17,0-0.31-0.59-0.42-1.77c-0.07-0.83-0.19-1.47-0.36-1.9
		c-0.17-0.43-0.61-1.12-1.3-2.06c-0.87-1.18-1.45-2.16-1.74-2.94c-0.3-0.78-0.58-2.06-0.86-3.83c-0.24-1.87-0.36-3.35-0.36-4.42
		c0-3.5,0.81-6.16,2.45-7.96c0.87-0.97,1.75-1.46,2.65-1.46h0.26h0.31c0.31,0,0.71-0.28,1.2-0.83c0.66-0.76,1.32-1.15,1.98-1.15
		c0.38,0,0.81,0.16,1.3,0.47c0.24,0.17,0.55,0.09,0.94-0.26c0.8-0.69,1.51-1.04,2.13-1.04c0.31,0,0.64,0.1,0.99,0.31
		c0.21,0.17,0.36,0.26,0.44,0.26c0.09,0,0.23-0.09,0.44-0.26c0.28-0.21,0.69-0.35,1.25-0.42h0.16c0.9,0,1.63,0.66,2.19,1.98
		l0.52,0.99l0.47-0.94C204.63,32.73,205.79,31.67,207.29,31.08z M196.46,47.06c0.8-0.42,1.2-0.54,1.2-0.36
		c0,0.21-0.44,0.53-1.33,0.96c-0.88,0.43-1.71,0.74-2.47,0.91c-1.15,0.24-2.15,0.36-3.02,0.36c-0.38,0-0.59-0.03-0.62-0.1v-0.05
		c-0.03-0.03-0.05-0.07-0.05-0.1c0-0.14,0.52-0.26,1.56-0.36C193.49,48.21,195.07,47.79,196.46,47.06z M194.07,34.57
		c-0.35-0.28-0.68-0.42-0.99-0.42c-0.52,0-1.15,0.33-1.87,0.99l-0.62,0.57l0.36,0.57c0.45,0.69,0.74,1.32,0.86,1.87
		c0.12,0.56,0.18,1.54,0.18,2.97c0,1.7-0.02,2.65-0.05,2.86l-0.1,0.52l0.73-0.05c0.97-0.07,1.66-0.44,2.06-1.12
		c0.4-0.68,0.6-1.86,0.6-3.57v-1.09c-0.03-1.32-0.12-2.25-0.26-2.78C194.81,35.36,194.52,34.92,194.07,34.57z M198.07,33.63
		c-0.28-0.21-0.54-0.31-0.78-0.31c-0.28,0-0.75,0.14-1.41,0.42l-0.94,0.42l0.47,0.88c0.21,0.38,0.4,0.95,0.57,1.72
		c0.14,0.9,0.21,2.15,0.21,3.75c0,0.94-0.03,1.65-0.1,2.13c0,0.03-0.01,0.1-0.03,0.18c-0.02,0.09-0.03,0.15-0.03,0.18
		c0,0.66,0.31,0.99,0.94,0.99c0.62,0,1.13-0.29,1.51-0.88c0.52-0.73,0.78-2.08,0.78-4.06v-0.88
		C199.24,35.8,198.84,34.29,198.07,33.63z M196.46,53.26c0-1.49,0.23-2.86,0.7-4.11c0.47-1.25,1.12-2.08,1.95-2.5
		c0.35-0.17,0.57-0.26,0.68-0.26c0.07,0,0.1,0.03,0.1,0.1c0,0.14-0.23,0.43-0.68,0.88c-1.21,1.32-1.93,3.26-2.13,5.83
		c-0.07,0.94-0.19,1.42-0.36,1.46c-0.14,0.04-0.22-0.02-0.23-0.16C196.47,54.37,196.46,53.95,196.46,53.26z M199.17,33.43l0.36,0.78
		c0.24,0.52,0.43,1.13,0.57,1.82c0.07,0.35,0.1,1.04,0.1,2.08c0,2.15-0.12,3.57-0.36,4.27c-0.17,0.56-0.19,0.92-0.05,1.09
		c0.24,0.28,0.57,0.42,0.99,0.42c0.52,0,0.97-0.19,1.35-0.57c0.55-0.55,0.83-1.86,0.83-3.9c0-1.25-0.09-2.27-0.26-3.07
		c-0.45-2.12-1.25-3.17-2.39-3.17C199.89,33.17,199.51,33.25,199.17,33.43z"/>
	<path class="st0" d="M230.24,32.02c0.45-0.45,1.08-0.68,1.87-0.68c1.18,0,2.22,0.4,3.12,1.2c1.15,1.08,1.72,2.46,1.72,4.16
		c0,0.07-0.01,0.17-0.03,0.29c-0.02,0.12-0.03,0.22-0.03,0.29c0,0.07-0.01,0.14-0.03,0.21c-0.02,0.07-0.03,0.12-0.03,0.16
		c0,0.21,0.29,0.61,0.88,1.2c1.08,1.01,1.82,2.32,2.24,3.96c0.38,1.46,0.57,3.47,0.57,6.04v0.83c-0.1,1.94-0.73,3.87-1.87,5.78
		c-0.35,0.62-0.56,1.05-0.62,1.27c-0.07,0.23-0.1,0.63-0.1,1.22c0,1.04,0.07,1.93,0.21,2.65c0.1,0.62,0.16,1.09,0.16,1.41
		c0,0.14-0.02,0.23-0.05,0.26c-0.03,0.03-0.07,0.05-0.1,0.05c-0.17,0-0.36-0.36-0.55-1.09c-0.19-0.73-0.29-1.49-0.29-2.29
		c0-0.56-0.03-0.83-0.1-0.83l-0.1,0.05c-0.35,0.28-0.52,0.16-0.52-0.36c0-0.35,0.59-1.65,1.77-3.9c0.42-0.9,0.62-1.44,0.62-1.61
		c0-0.14,0.07-0.55,0.21-1.25c0.17-0.59,0.26-1.53,0.26-2.81c0-4.34-0.75-7.2-2.24-8.59c-0.66-0.66-1.84-1.18-3.54-1.56
		c-1.08-0.24-2.01-0.5-2.81-0.78c-0.73-0.24-1.3-0.36-1.72-0.36c-0.42,0-0.64,0.12-0.68,0.36c-0.03,0.07-0.05,0.19-0.05,0.36
		c0,0.49,0.16,1.03,0.47,1.64c0.31,0.61,0.69,1.08,1.15,1.43c0.9,0.69,1.58,1.04,2.03,1.04h0.1c0.31-0.03,0.52,0.14,0.62,0.52
		c0.07,0.35,0.1,0.59,0.1,0.73c0,0.56-0.31,1.46-0.94,2.71c-0.66,1.49-0.99,2.57-0.99,3.23c0,0.42,0.09,1.02,0.26,1.82
		c0.24,0.87,0.36,1.37,0.36,1.51c0,0.1-0.05,0.16-0.16,0.16c-0.35,0-0.73-0.57-1.15-1.72c-0.1-0.31-0.16-0.99-0.16-2.03
		c0-0.87,0.05-1.46,0.16-1.77c0.03-0.14-0.02-0.25-0.16-0.34c-0.14-0.09-0.45-0.25-0.94-0.49l-1.15-0.57
		c-0.28,0.45-0.61,0.87-0.99,1.25l-0.52,0.62l0.73-0.1c0.17-0.03,0.42-0.05,0.73-0.05c0.69,0,1.04,0.14,1.04,0.42
		c0,0.14-0.1,0.23-0.29,0.29c-0.19,0.05-0.82,0.13-1.9,0.23c-2.43,0.24-4.18,0.97-5.26,2.19c-0.49,0.52-0.76,0.69-0.83,0.52
		c-0.17-0.38-0.03-0.85,0.42-1.41c0.66-0.8,1.86-1.42,3.59-1.87l0.68-0.16l-0.68-0.36c-0.1-0.07-0.22-0.15-0.34-0.23
		c-0.12-0.09-0.24-0.17-0.36-0.26c-0.12-0.09-0.2-0.13-0.23-0.13c-0.17-0.14-0.27-0.19-0.29-0.16c-0.02,0.03-0.1,0.19-0.23,0.47
		c-0.31,0.59-0.78,0.88-1.41,0.88c-0.9,0-1.98-0.45-3.23-1.35l-1.04-0.73c-0.03,0.07-0.05,0.14-0.05,0.21
		c0,1.28,0.26,2.88,0.78,4.79c0.59,2.29,1.72,4.55,3.38,6.77c0.69,0.94,1.04,1.53,1.04,1.77c0,0.1-0.09,0.16-0.26,0.16
		c-0.21,0-0.33,0.16-0.36,0.47c-0.42,1.7-0.75,2.55-0.99,2.55c-0.21,0-0.31-0.05-0.31-0.16l0.05-0.26c0.03-0.14,0.09-0.36,0.16-0.65
		c0.07-0.3,0.14-0.58,0.21-0.86l0.42-1.72l-0.73-0.73c-2.29-2.46-3.56-6.19-3.8-11.19c-0.03-1.39-0.16-2.32-0.36-2.81
		c-0.28-0.83-0.42-1.61-0.42-2.34c0-0.97,0.19-1.79,0.57-2.45c0.38-0.66,0.88-0.99,1.51-0.99h0.26l0.47,0.1v-0.78
		c0-0.97,0.37-1.83,1.12-2.58c0.75-0.75,1.62-1.14,2.63-1.17c0.52,0,0.94-0.23,1.25-0.68c0.73-1.01,1.8-1.51,3.23-1.51
		c0.69,0,1.27,0.16,1.72,0.47l0.68,0.42L230.24,32.02z M219.31,38.73l-0.68,0.26c-0.45,0.17-0.76,0.43-0.94,0.78
		c-0.17,0.35-0.26,0.9-0.26,1.67c0,1.46,0.42,2.65,1.25,3.59c0.42,0.45,0.94,0.87,1.56,1.25c0.62,0.38,1.09,0.57,1.41,0.57
		c0.21,0,0.47-0.08,0.78-0.23c0.31-0.16,0.5-0.32,0.57-0.49c0.03-0.03,0.05-0.1,0.05-0.21c0-0.17-0.28-0.68-0.83-1.51
		C221.11,42.85,220.14,40.96,219.31,38.73z M223.89,38.16c-0.1-0.42-0.19-1.2-0.26-2.34l-0.1-1.61l-0.62,0.21
		c-0.83,0.24-1.53,0.66-2.08,1.25c-0.49,0.56-0.73,1.13-0.73,1.72c0,0.8,0.43,2.06,1.3,3.8c0.97,1.94,1.73,3.25,2.29,3.93
		c0.55,0.68,1.16,1.02,1.82,1.02c0.45,0,1.13-0.38,2.03-1.15l-0.52-0.52c-0.52-0.59-1.11-1.54-1.77-2.84
		C224.58,40.32,224.13,39.17,223.89,38.16z M228.88,32.64c-0.52-0.17-0.97-0.26-1.35-0.26c-0.45,0-0.99,0.12-1.61,0.36
		c-1.01,0.52-1.51,1.39-1.51,2.6c0,0.21,0.03,0.59,0.1,1.15c0.24,1.6,0.76,3.21,1.56,4.84c0.59,1.11,1.14,1.94,1.64,2.5
		c0.5,0.56,1.31,1.16,2.42,1.82l0.52,0.31l0.47-0.88c0.45-0.83,0.68-1.41,0.68-1.72c0-0.49-0.56-1.01-1.67-1.56
		c-0.62-0.31-1.09-0.62-1.41-0.94c-0.31-0.31-0.61-0.76-0.88-1.35c-0.28-0.59-0.42-1.2-0.42-1.82c0-0.62,0.17-1.09,0.52-1.41
		c0.35-0.31,0.76-0.47,1.25-0.47c0.35,0,0.55-0.01,0.62-0.03c0.07-0.02,0.09-0.1,0.05-0.23c-0.07-0.24-0.14-0.73-0.21-1.46l-0.1-1.2
		L228.88,32.64z M236.12,36.55c0-1.35-0.35-2.41-1.04-3.17c-0.69-0.76-1.7-1.14-3.02-1.14c-1.22,0-1.82,0.52-1.82,1.56
		c0,0.35,0.05,0.78,0.16,1.3c0.1,0.45,0.28,0.75,0.52,0.88c0.24,0.14,1.11,0.43,2.6,0.88c0.31,0.1,0.65,0.21,1.01,0.31
		c0.36,0.1,0.65,0.19,0.86,0.26c0.21,0.07,0.35,0.1,0.42,0.1c0.17,0.07,0.28,0.02,0.31-0.16V36.55z"/>
</g>
<path class="st0" d="M280.03,32.8c0.49-0.28,1.06-0.42,1.72-0.42c0.69,0,1.2,0.14,1.51,0.42c1.04,0.87,1.56,3.19,1.56,6.97
	c0,1.39-0.07,2.69-0.21,3.9c-0.07,0.52-0.1,1.06-0.1,1.61c0,0.28,0.07,0.47,0.21,0.57c0.31,0.17,0.67,0.48,1.07,0.91
	c0.4,0.43,0.68,0.84,0.86,1.22c0.35,0.73,0.52,1.51,0.52,2.34c0,2.6-1.68,5.2-5.05,7.81c-0.28,0.24-0.45,0.42-0.52,0.55
	c-0.07,0.12-0.1,0.39-0.1,0.81c0,0.55,0.03,1.01,0.1,1.35c0.07,0.35,0.03,0.54-0.1,0.57h-0.05c-0.03,0.03-0.07,0.05-0.1,0.05
	c-0.28,0-0.47-0.43-0.57-1.3c-0.07-0.52-0.14-0.78-0.21-0.78c-0.03,0-0.16,0.07-0.36,0.21c-0.66,0.45-0.99,0.49-0.99,0.1
	c0-0.35,0.92-1.28,2.76-2.81c1.46-1.18,2.47-2.17,3.04-2.97c0.57-0.8,0.93-1.68,1.07-2.65c0.03-0.17,0.05-0.47,0.05-0.88
	c0-0.9-0.14-1.63-0.42-2.19c-0.38-0.76-1.04-1.38-1.98-1.85c-0.94-0.47-1.96-0.7-3.07-0.7h-0.47c-0.45,0.03-1.66,0.3-3.62,0.81
	c-1.96,0.5-3.13,0.84-3.51,1.02c-0.24,0.14-0.36,0.4-0.36,0.78c0,1.18,1.21,1.77,3.64,1.77c1.35,0,2.34,0.43,2.97,1.3
	c0.03,0.07,0.22,0.29,0.55,0.65c0.33,0.36,0.64,0.73,0.94,1.09c0.29,0.36,0.44,0.58,0.44,0.65c0,0.03-0.03,0.05-0.1,0.05
	c-0.28,0-0.7-0.25-1.28-0.75c-0.57-0.5-0.98-1-1.22-1.48c-0.14-0.28-0.41-0.48-0.81-0.6c-0.4-0.12-1.22-0.25-2.47-0.39
	c-1.39-0.14-2.29-0.33-2.71-0.57c-0.76-0.42-1.15-0.97-1.15-1.67c0-0.28,0.07-0.54,0.21-0.78c0.31-0.42,1.37-0.87,3.18-1.35
	c0.35-0.1,0.91-0.26,1.69-0.47c0.78-0.21,1.29-0.35,1.54-0.42c0.94-0.28,1.91-0.42,2.91-0.42c0.69,0,1.27,0.07,1.72,0.21l0.83,0.21
	v-0.42c0-0.21-0.03-0.33-0.1-0.36c-0.07-0.03-0.31-0.02-0.73,0.05c-0.07,0-0.18,0.01-0.34,0.03c-0.16,0.02-0.25,0.03-0.29,0.03
	c-0.52,0-0.99-0.19-1.41-0.57l-0.47-0.36l-0.57,0.47c-0.59,0.52-1.11,0.78-1.56,0.78c-0.31,0-0.66-0.1-1.04-0.31l-0.62-0.31
	l-0.73,0.73c-0.52,0.52-0.99,0.78-1.41,0.78s-0.9-0.21-1.46-0.62l-0.36,0.57c-0.45,0.73-1.15,1.09-2.08,1.09
	c-0.83,0-1.53-0.33-2.08-0.99c-0.66-0.87-1.09-2.2-1.3-4.01c-0.07-0.69-0.03-1.04,0.1-1.04c0.17,0,0.35,0.36,0.52,1.09
	c0.17,0.73,0.42,1.52,0.73,2.37c0.31,0.85,0.73,1.38,1.25,1.59c0.31,0.14,0.62,0.21,0.94,0.21c0.76,0,1.21-0.49,1.35-1.46
	c0.03-0.21,0.05-0.5,0.05-0.88c0-0.9-0.31-1.99-0.94-3.28c-0.8-1.63-1.48-2.62-2.03-2.97c-0.28-0.17-0.59-0.26-0.94-0.26
	c-1.14,0-1.94,0.95-2.39,2.86c-0.24,1.14-0.36,3.04-0.36,5.67c0,0.8,0.03,1.65,0.1,2.55c0.24,2.33,0.73,4.33,1.46,6.01
	c0.73,1.68,1.6,2.82,2.6,3.41c0.9,0.49,0.97,0.73,0.21,0.73c-0.17,0-0.3,0.03-0.36,0.1c-0.07,0.07-0.14,0.24-0.21,0.52
	c-0.45,1.6-0.76,2.39-0.94,2.39c-0.07,0-0.1-0.16-0.1-0.47c0-0.49,0.07-1.06,0.21-1.72l0.21-1.14l-0.57-0.68
	c-0.56-0.62-1.13-1.63-1.72-3.02c-0.59-1.39-1.01-2.71-1.25-3.96c-0.31-1.63-0.47-4.06-0.47-7.29c0-0.97,0.02-1.6,0.05-1.87
	c0.38-3.26,1.61-4.89,3.7-4.89c0.59,0,0.9-0.1,0.94-0.31c0.07-0.24,0.31-0.55,0.73-0.91c0.42-0.36,0.81-0.63,1.2-0.81
	c0.49-0.24,0.97-0.36,1.46-0.36c0.28,0,0.57,0.05,0.88,0.16c0.24,0.07,0.42,0.09,0.52,0.05c0.1-0.03,0.31-0.21,0.62-0.52
	c0.9-0.8,1.8-1.2,2.71-1.2c0.55,0,1.01,0.12,1.35,0.36c0.35,0.24,0.55,0.36,0.62,0.36C279.28,33.27,279.55,33.11,280.03,32.8z
	 M273.37,35.25c-0.42-0.21-0.8-0.31-1.14-0.31c-0.73,0-1.46,0.36-2.19,1.09l-0.68,0.62l0.68,0.73c0.52,0.62,1.12,1.62,1.8,2.99
	c0.68,1.37,1.02,2.32,1.02,2.84c0,1.22,0.47,1.82,1.41,1.82c0.21,0,0.45-0.15,0.73-0.44c0.28-0.29,0.45-0.58,0.52-0.86
	c0.03-0.14,0.05-0.43,0.05-0.88c0-1.63-0.17-3.05-0.52-4.27C274.51,36.7,273.96,35.59,273.37,35.25z M278.37,33.79
	c-0.28-0.24-0.68-0.36-1.2-0.36c-0.9,0-1.67,0.3-2.29,0.88l-0.52,0.47l0.36,0.57c0.76,1.22,1.37,2.88,1.82,5
	c0.1,0.56,0.16,1.13,0.16,1.72v0.52c-0.03,0.59,0.09,1.01,0.36,1.25c0.24,0.17,0.5,0.26,0.78,0.26c0.38,0,0.75-0.14,1.09-0.42
	c0.45-0.42,0.68-1.68,0.68-3.8C279.61,36.51,279.2,34.48,278.37,33.79z M277.43,52.27c0.14-0.07,0.29-0.13,0.44-0.18
	c0.16-0.05,0.29-0.08,0.39-0.08s0.16,0.02,0.16,0.05c0,0.07-0.23,0.3-0.68,0.68c-0.42,0.35-0.87,1.02-1.35,2.03
	c-0.45,0.97-0.76,1.46-0.94,1.46c-0.03,0-0.05-0.03-0.05-0.1c0-0.21,0.16-0.73,0.47-1.56C276.35,53.34,276.87,52.58,277.43,52.27z
	 M283.21,34.21c-0.42-0.69-1.01-1.04-1.77-1.04c-0.35,0-0.74,0.07-1.17,0.21c-0.43,0.14-0.65,0.26-0.65,0.36
	c0,0.04,0.1,0.3,0.31,0.78c0.42,0.94,0.62,2.91,0.62,5.93c0,1.74,0.1,2.71,0.31,2.91c0.38,0.38,0.81,0.57,1.3,0.57
	c0.45,0,0.8-0.16,1.04-0.47c0.52-0.52,0.78-1.73,0.78-3.64c0-0.69-0.1-1.73-0.29-3.12C283.51,35.32,283.34,34.48,283.21,34.21z"/>
<g>
	<path class="st0" d="M76.09,109.8c0.45-0.38,0.85-0.57,1.2-0.57c0.69,0,1.3,0.56,1.82,1.67c0.52,1.11,0.88,2.64,1.09,4.58
		l0.16,1.72l0.36-0.73c0.62-1.32,1.37-1.98,2.24-1.98c0.14,0,0.35,0.03,0.62,0.1c1.21,0.28,2.05,0.8,2.5,1.56l0.42,0.68l0.42-0.47
		c0.55-0.62,1.3-0.94,2.24-0.94c1.07,0,1.93,0.45,2.55,1.35c0.24,0.35,0.42,0.55,0.52,0.6c0.1,0.05,0.23-0.01,0.36-0.18
		c0.28-0.35,0.81-0.52,1.61-0.52c0.07,0,0.14,0.01,0.21,0.03c0.07,0.02,0.14,0.03,0.21,0.03c0.97,0.17,1.72,0.71,2.24,1.61
		c0.45,0.83,0.68,1.72,0.68,2.65c0,0.07-0.01,0.15-0.03,0.23c-0.02,0.09-0.03,0.15-0.03,0.18c-0.04,0.38,0.16,0.69,0.57,0.94
		c2.01,1.18,3.02,3.45,3.02,6.82c0,2.33-0.61,4.25-1.82,5.78c-0.42,0.52-1.14,1.27-2.16,2.24c-1.02,0.97-1.8,1.65-2.32,2.03
		c-0.56,0.42-0.83,0.83-0.83,1.25c0,0.1,0.07,0.47,0.21,1.09c0.1,0.42,0.16,0.75,0.16,0.99c0,0.21-0.05,0.31-0.16,0.31
		s-0.17-0.02-0.21-0.05c-0.14-0.07-0.3-0.31-0.47-0.73c-0.17-0.42-0.26-0.73-0.26-0.94c0-0.38-0.06-0.61-0.18-0.68
		c-0.12-0.07-0.39-0.02-0.81,0.16c-0.31,0.14-0.61,0.21-0.88,0.21c-0.17,0-0.26-0.05-0.26-0.16c0-0.24,0.42-0.57,1.25-0.99
		c1.49-0.76,2.98-1.94,4.48-3.54c1.39-1.46,2.3-2.65,2.73-3.57c0.43-0.92,0.65-2.13,0.65-3.62c0-2.57-0.69-4.39-2.08-5.47
		c-0.59-0.45-1.37-0.9-2.34-1.35c-1.28-0.62-2.1-1.04-2.45-1.25c-0.56-0.38-1.01-0.57-1.35-0.57c-0.28,0-0.56,0.14-0.83,0.42
		c-0.24,0.24-0.35,0.69-0.31,1.35c0.17,1.42,0.73,2.53,1.67,3.33c0.55,0.49,1.06,0.8,1.51,0.94c0.76,0.31,0.83,0.59,0.21,0.83
		c-0.1,0.04-0.32,0.13-0.65,0.29c-0.33,0.16-0.56,0.27-0.7,0.34c-0.76,0.35-1.49,0.92-2.19,1.72c-0.69,0.8-1.13,1.58-1.3,2.34
		c-0.07,0.28-0.16,0.42-0.26,0.42c-0.14,0-0.17-0.33-0.1-0.99c0.03-0.62,0.23-1.21,0.57-1.77c0.31-0.66,0.35-1.01,0.1-1.04
		c-0.38,0-0.85-0.23-1.41-0.7c-0.56-0.47-0.94-0.93-1.15-1.38c-0.17-0.42-0.45-0.42-0.83,0c-0.59,0.59-1.27,0.88-2.03,0.88
		c-0.24,0-0.54-0.07-0.88-0.21c-0.73-0.38-1.4-1.26-2-2.63c-0.61-1.37-0.98-2.91-1.12-4.61c-0.07-0.62-0.2-1.32-0.39-2.08
		c-0.19-0.76-0.34-1.46-0.44-2.08c-0.42-2.57-0.83-4.16-1.25-4.79c-0.35-0.52-0.75-0.78-1.2-0.78c-0.45,0-0.78,0.3-0.99,0.88
		c-0.1,0.28-0.16,0.76-0.16,1.46c0,0.97,0.1,2.13,0.31,3.49c0.55,3.54,0.92,6.49,1.09,8.85c0.31,3.96,0.9,7.22,1.77,9.79
		c0.83,2.64,2.05,4.32,3.64,5.05c0.55,0.21,0.83,0.42,0.83,0.62c0,0.14-0.19,0.21-0.57,0.21h-0.57l-0.16,1.35
		c-0.14,1.11-0.33,1.67-0.57,1.67h-0.05c-0.04-0.03-0.07-0.05-0.1-0.05c-0.14-0.07-0.21-0.19-0.21-0.36c0-0.38,0.09-1.09,0.26-2.13
		c0-0.07,0.01-0.15,0.03-0.23c0.02-0.09,0.03-0.15,0.03-0.18c0-0.21-0.31-0.62-0.94-1.25c-2.19-2.19-3.63-7.42-4.32-15.72
		c-0.28-3.09-0.52-5.19-0.73-6.3c-0.35-2.32-0.52-3.87-0.52-4.63C75.05,111.4,75.39,110.46,76.09,109.8z M84.21,128.44
		c0.17-0.03,0.45-0.05,0.83-0.05c1.46,0,2.24,0.17,2.34,0.52c0.03,0.07-0.03,0.12-0.21,0.16c-0.17,0.03-0.5,0.03-0.99,0
		c-0.1,0-0.26-0.01-0.47-0.03c-0.21-0.02-0.36-0.03-0.47-0.03c-1.32,0-2.53,0.17-3.64,0.52c-0.66,0.24-0.99,0.31-0.99,0.21
		c0-0.14,0.45-0.37,1.35-0.7C82.87,128.71,83.62,128.51,84.21,128.44z M84.57,115.69c-0.49-0.24-0.92-0.36-1.3-0.36
		c-0.56,0-1.02,0.21-1.41,0.62c-0.59,0.66-0.88,1.84-0.88,3.54c0,1.98,0.36,3.68,1.09,5.1c0.66,1.35,1.35,2.03,2.08,2.03
		c0.52,0,1.14-0.31,1.87-0.94l0.52-0.42l-0.26-1.3c-0.17-0.97-0.26-2.22-0.26-3.75c0-0.9,0.02-1.56,0.05-1.98v-0.62
		c0-0.35-0.14-0.68-0.42-0.99C85.25,116.14,84.88,115.82,84.57,115.69z M90.45,116.52c-0.45-0.24-0.92-0.36-1.41-0.36
		c-0.49,0-0.9,0.14-1.25,0.42c-0.56,0.45-0.87,1.37-0.94,2.76v0.47c0,1.94,0.17,3.71,0.52,5.31c0.45,1.77,1.42,2.71,2.91,2.81
		l0.62,0.05l0.1-1.35v-0.62c0-0.52-0.14-1.08-0.42-1.67c-0.49-0.97-0.73-1.99-0.73-3.07c0-0.24,0.02-0.42,0.05-0.52
		c0.07-0.38,0.27-0.75,0.6-1.09c0.33-0.35,0.65-0.52,0.96-0.52h0.47l-0.21-0.78C91.51,117.47,91.08,116.87,90.45,116.52z
		 M92.69,126.51c-0.07-0.14-0.24-0.29-0.52-0.47l-0.52-0.31v0.68c0,0.49,0.03,0.73,0.1,0.73c0.14,0,0.34-0.09,0.6-0.26
		C92.61,126.7,92.72,126.58,92.69,126.51z M96.49,120.27c-0.07-1.73-0.85-2.67-2.34-2.81h-0.36c-0.31,0-0.55,0.05-0.7,0.16
		c-0.16,0.1-0.32,0.33-0.49,0.68c-0.1,0.21-0.16,0.42-0.16,0.62c0,0.35,0.31,0.71,0.94,1.09c1.42,0.9,2.41,1.35,2.97,1.35
		C96.47,121.36,96.52,120.99,96.49,120.27z"/>
	<path class="st0" d="M110.7,111.21c-0.17-0.59-0.26-1.04-0.26-1.35c0-0.35,0.07-0.52,0.21-0.52c0.07,0,0.16,0.05,0.26,0.16
		c0.07,0.1,0.17,0.51,0.31,1.22c0.14,0.71,0.21,1.24,0.21,1.59c0,0.38,0.19,0.49,0.57,0.31c0.1-0.07,0.21-0.1,0.31-0.1
		c0.03,0,0.05,0.02,0.05,0.05c0,0.14-0.4,0.61-1.2,1.41c-0.76,0.76-1.34,1.46-1.72,2.08c-0.38,0.62-0.71,1.48-0.99,2.55
		c-0.28,1.01-0.42,2.34-0.42,4.01c0,1.7,0.09,2.97,0.26,3.8l0.26,1.3l-0.68,1.46c-0.45,0.9-0.68,1.46-0.68,1.67
		c0,0.04,0.01,0.09,0.03,0.16c0.02,0.07,0.03,0.12,0.03,0.16c0.17,0.76,0.57,1.14,1.2,1.14c0.55,0,0.83-0.28,0.83-0.83
		c0-1.04,0.16-1.56,0.47-1.56c0.07,0,0.16,0.05,0.26,0.16c0.07,0.14,0.1,2.55,0.1,7.23c0,4.62,0.12,7.18,0.36,7.7
		c0.31,0.66,0.64,0.99,0.99,0.99c0.31,0,0.66-0.19,1.04-0.57c0.8-0.8,1.2-1.7,1.2-2.71c0-0.49,0.1-2.13,0.31-4.94
		c0.21-2.81,0.33-4.29,0.36-4.42c0.07-0.14,0.16-0.16,0.26-0.05c0.14,0.14,0.21,1.04,0.21,2.71c0,1.39-0.03,2.34-0.1,2.86
		c-0.17,1.39-0.26,3.28-0.26,5.67c0,1.46,0.03,2.34,0.1,2.65c0.31,1.63,0.87,2.45,1.67,2.45c0.07,0,0.24-0.03,0.52-0.1
		c0.69-0.21,1.14-0.93,1.35-2.16c0.21-1.23,0.35-3.95,0.42-8.15c0.03-3.05,0.1-4.98,0.21-5.78c0.1-0.8,0.31-1.23,0.62-1.3
		c0.14-0.03,0.21,0.02,0.21,0.16c0,0.07-0.02,0.23-0.05,0.47c-0.07,0.56-0.14,2.43-0.21,5.62c-0.04,1.01-0.05,2.17-0.05,3.49
		c0,1.74,0.28,3.14,0.83,4.22c0.52,0.97,1.01,1.46,1.46,1.46c0.52,0,0.9-0.59,1.14-1.77c0.1-0.69,0.16-2.13,0.16-4.32v-3.44
		l-0.1-6.61l1.09-0.88c1.28-1.04,2.19-2.26,2.71-3.64c0.28-0.76,0.42-1.89,0.42-3.38c0-0.83-0.03-1.42-0.1-1.77
		c-0.56-3.16-2.1-6.16-4.63-9c-0.62-0.76-0.92-1.2-0.88-1.3c0.07-0.1,0.16-0.16,0.26-0.16c0.17,0,0.46,0.14,0.86,0.42
		c0.4,0.28,0.63,0.42,0.7,0.42h0.05c0.07-0.07,0.14-0.33,0.21-0.78c0.14-0.83,0.38-1.25,0.73-1.25c0.03,0,0.09,0.04,0.16,0.1
		c0.14,0.14,0.14,0.49,0,1.04c-0.07,0.24-0.1,0.59-0.1,1.04c0,0.69,0.17,1.28,0.52,1.77c0.73,1.04,1.42,2.56,2.08,4.55
		c0.66,2,0.99,3.81,0.99,5.44c0,0.45-0.02,0.78-0.05,0.99c-0.14,1.28-0.52,2.5-1.15,3.64c-0.62,1.15-1.39,2.03-2.29,2.65l-0.83,0.57
		l0.1,1.04c0.07,0.9,0.1,2.46,0.1,4.68c0,3.82-0.05,6.19-0.16,7.13c-0.24,2.29-0.92,3.43-2.03,3.43c-0.76,0-1.44-0.56-2.03-1.67
		l-0.47-0.88l-0.05,0.21c-0.04,0.14-0.07,0.32-0.1,0.55c-0.04,0.23-0.07,0.44-0.1,0.65c-0.42,2.19-1.28,3.28-2.6,3.28
		c-0.45,0-0.87-0.19-1.25-0.57c-0.62-0.62-1.01-1.72-1.15-3.28l-0.1-1.04l-0.47,0.47c-0.59,0.52-1.11,0.78-1.56,0.78
		c-0.38,0-0.76-0.16-1.15-0.47c-0.52-0.45-0.87-1.33-1.04-2.63c-0.17-1.3-0.26-3.65-0.26-7.05v-3.59l-0.62,0.05
		c-0.42,0.03-0.78-0.03-1.09-0.21c-0.59-0.38-0.88-0.94-0.88-1.67c0-0.55,0.19-1.32,0.57-2.29l0.52-1.41l-0.26-0.99
		c-0.24-0.83-0.36-1.84-0.36-3.02c0-0.94,0.07-1.8,0.21-2.6c0.28-1.77,0.62-3.15,1.01-4.14c0.4-0.99,0.98-1.86,1.74-2.63
		c0.62-0.62,0.94-1.13,0.94-1.51C110.96,112.27,110.87,111.83,110.7,111.21z"/>
	<path class="st0" d="M156.66,119.59c0.31-0.14,0.69-0.21,1.15-0.21c0.8,0,1.42,0.28,1.87,0.83c0.24,0.31,0.36,0.61,0.36,0.88
		c0,0.49-0.33,1.21-0.99,2.19c-2.01,3.09-3.11,7.29-3.28,12.6c-0.07,1.74-0.12,2.78-0.16,3.15c-0.03,0.36-0.16,0.75-0.36,1.17
		c-0.28,0.59-0.78,1.32-1.51,2.19c-1.08,1.32-1.8,2.36-2.16,3.12c-0.36,0.76-0.65,1.79-0.86,3.07c-0.17,1.11-0.36,1.67-0.57,1.67
		l-0.21-0.1c-0.1-0.07-0.16-0.36-0.16-0.88c0-1.18,0.1-2.08,0.31-2.71c0.17-0.45,0.24-0.7,0.21-0.75c-0.04-0.05-0.23,0.01-0.57,0.18
		c-0.42,0.24-0.66,0.29-0.73,0.16c-0.04-0.07,0.09-0.21,0.36-0.42c0.73-0.52,1.65-1.46,2.76-2.81c1.28-1.6,2.05-2.7,2.29-3.31
		c0.24-0.61,0.36-1.81,0.36-3.62c0-5.2,1.15-9.58,3.44-13.12c0.42-0.62,0.59-1.09,0.52-1.41c-0.17-0.8-0.5-1.2-0.99-1.2
		c-0.21,0-0.59,0.12-1.15,0.36c-1.01,0.52-1.87,1.32-2.6,2.39c-0.59,0.87-0.88,1.65-0.88,2.34c0,0.14,0.03,0.52,0.1,1.15
		c0.07,0.69,0.1,1.21,0.1,1.56c0,2.29-0.45,3.83-1.35,4.63c-0.49,0.42-1.06,0.62-1.72,0.62c-0.49,0-0.97-0.14-1.46-0.42l-0.47-0.36
		l-0.62,0.36c-0.52,0.31-1.01,0.47-1.46,0.47c-0.28,0-0.59-0.09-0.94-0.26l-0.57-0.31l-0.52,0.42c-0.52,0.49-1.22,0.73-2.08,0.73
		h-0.52c-0.66-0.03-1.15,0.03-1.46,0.21c-0.42,0.21-0.8,0.31-1.15,0.31c-0.45,0-0.83-0.16-1.14-0.47c-0.49-0.49-0.9-1.72-1.25-3.7
		c-0.17-0.94-0.26-1.56-0.26-1.87c0-0.1,0.03-0.16,0.1-0.16c0.17,0,0.45,0.87,0.83,2.6c0.28,1.14,0.53,1.9,0.75,2.26
		c0.23,0.36,0.56,0.55,1.02,0.55c0.9,0,1.35-1.3,1.35-3.9c0-3.5-0.64-5.26-1.93-5.26c-0.49,0-1.04,0.31-1.67,0.94
		c-0.97,0.94-1.68,2.34-2.13,4.22c-0.17,0.69-0.26,1.75-0.26,3.17c0,3.57,0.4,6.28,1.2,8.12c0.38,0.76,0.81,1.51,1.3,2.24
		c0.14,0.21,0.31,0.47,0.52,0.78c0.21,0.31,0.39,0.58,0.55,0.81c0.16,0.23,0.27,0.39,0.34,0.49c0.31,0.55,0.61,0.92,0.88,1.09
		c0.52,0.38,0.66,0.59,0.42,0.62l-0.47-0.1c-0.1-0.04-0.16,0.02-0.16,0.16c-0.03,0.14-0.05,0.54-0.05,1.2
		c0,0.87-0.07,1.41-0.21,1.61c-0.07,0.07-0.14,0.1-0.21,0.1c-0.17,0-0.31-0.59-0.42-1.77c-0.07-0.83-0.19-1.47-0.36-1.9
		c-0.17-0.43-0.61-1.12-1.3-2.06c-0.87-1.18-1.45-2.16-1.74-2.94c-0.3-0.78-0.58-2.06-0.86-3.83c-0.24-1.87-0.36-3.35-0.36-4.42
		c0-3.5,0.81-6.16,2.45-7.96c0.87-0.97,1.75-1.46,2.65-1.46h0.26h0.31c0.31,0,0.71-0.28,1.2-0.83c0.66-0.76,1.32-1.15,1.98-1.15
		c0.38,0,0.81,0.16,1.3,0.47c0.24,0.17,0.55,0.09,0.94-0.26c0.8-0.69,1.51-1.04,2.13-1.04c0.31,0,0.64,0.1,0.99,0.31
		c0.21,0.17,0.36,0.26,0.44,0.26c0.09,0,0.23-0.09,0.44-0.26c0.28-0.21,0.69-0.35,1.25-0.42h0.16c0.9,0,1.63,0.66,2.19,1.98
		l0.52,0.99l0.47-0.94C154,121.24,155.16,120.18,156.66,119.59z M145.83,135.57c0.8-0.42,1.2-0.54,1.2-0.36
		c0,0.21-0.44,0.53-1.33,0.96c-0.88,0.43-1.71,0.74-2.47,0.91c-1.15,0.24-2.15,0.36-3.02,0.36c-0.38,0-0.59-0.03-0.62-0.1v-0.05
		c-0.04-0.03-0.05-0.07-0.05-0.1c0-0.14,0.52-0.26,1.56-0.36C142.86,136.71,144.44,136.3,145.83,135.57z M143.44,123.08
		c-0.35-0.28-0.68-0.42-0.99-0.42c-0.52,0-1.14,0.33-1.87,0.99l-0.62,0.57l0.36,0.57c0.45,0.69,0.74,1.32,0.86,1.87
		c0.12,0.56,0.18,1.54,0.18,2.97c0,1.7-0.02,2.65-0.05,2.86l-0.1,0.52l0.73-0.05c0.97-0.07,1.66-0.44,2.06-1.12
		c0.4-0.68,0.6-1.86,0.6-3.57v-1.09c-0.04-1.32-0.12-2.25-0.26-2.78C144.18,123.87,143.89,123.42,143.44,123.08z M147.44,122.14
		c-0.28-0.21-0.54-0.31-0.78-0.31c-0.28,0-0.75,0.14-1.41,0.42l-0.94,0.42l0.47,0.88c0.21,0.38,0.4,0.95,0.57,1.72
		c0.14,0.9,0.21,2.15,0.21,3.75c0,0.94-0.04,1.65-0.1,2.13c0,0.03-0.01,0.1-0.03,0.18c-0.02,0.09-0.03,0.15-0.03,0.18
		c0,0.66,0.31,0.99,0.94,0.99s1.13-0.29,1.51-0.88c0.52-0.73,0.78-2.08,0.78-4.06v-0.88C148.6,124.31,148.21,122.8,147.44,122.14z
		 M145.83,141.76c0-1.49,0.23-2.86,0.7-4.11c0.47-1.25,1.12-2.08,1.95-2.5c0.35-0.17,0.57-0.26,0.68-0.26c0.07,0,0.1,0.03,0.1,0.1
		c0,0.14-0.23,0.43-0.68,0.88c-1.22,1.32-1.93,3.26-2.13,5.83c-0.07,0.94-0.19,1.42-0.36,1.46c-0.14,0.04-0.22-0.02-0.23-0.16
		C145.84,142.87,145.83,142.46,145.83,141.76z M148.54,121.93l0.36,0.78c0.24,0.52,0.43,1.13,0.57,1.82c0.07,0.35,0.1,1.04,0.1,2.08
		c0,2.15-0.12,3.57-0.36,4.27c-0.17,0.56-0.19,0.92-0.05,1.09c0.24,0.28,0.57,0.42,0.99,0.42c0.52,0,0.97-0.19,1.35-0.57
		c0.55-0.55,0.83-1.86,0.83-3.9c0-1.25-0.09-2.27-0.26-3.07c-0.45-2.12-1.25-3.17-2.39-3.17
		C149.26,121.67,148.88,121.76,148.54,121.93z"/>
	<path class="st0" d="M175.7,134.47c-0.8,0.94-1.65,1.41-2.55,1.41c-0.49,0-0.9-0.16-1.25-0.47l-0.42-0.36l-0.36,0.62
		c-0.62,0.94-1.35,1.41-2.19,1.41c-0.38,0-0.76-0.1-1.15-0.31l-0.57-0.31v0.47c0,0.49,0.09,1.41,0.26,2.76
		c0.17,1.35,0.33,2.24,0.47,2.65c0.55,2.01,1.54,3.38,2.97,4.11c0.55,0.31,0.83,0.55,0.83,0.73c0,0.17-0.16,0.24-0.47,0.21
		c-0.07,0-0.17-0.02-0.29-0.05c-0.12-0.03-0.23-0.06-0.34-0.08c-0.1-0.02-0.17-0.03-0.21-0.03c-0.17-0.07-0.27-0.06-0.29,0.03
		c-0.02,0.09-0.04,0.42-0.08,1.02c-0.07,1.28-0.28,1.93-0.62,1.93c-0.07,0-0.14-0.04-0.21-0.1c-0.14-0.14-0.16-0.43-0.05-0.88
		c0.1-0.35,0.16-0.87,0.16-1.56c0-0.45-0.03-0.76-0.08-0.94c-0.05-0.17-0.23-0.42-0.55-0.73c-1.39-1.56-2.1-4.2-2.13-7.91
		c0-1.08-0.03-1.82-0.1-2.24c-0.07-0.42-0.16-0.81-0.29-1.17c-0.12-0.36-0.23-0.84-0.34-1.43c-0.07-0.55-0.1-1.01-0.1-1.35
		c0-1.6,0.19-2.88,0.57-3.85c0.42-1.07,1.02-1.82,1.82-2.24c0.24-0.14,0.55-0.21,0.94-0.21c0.38,0,0.64,0.07,0.78,0.21
		c0.35,0.24,0.52,0.14,0.52-0.31c0-0.42,0.14-0.94,0.42-1.56c0.28-0.62,0.57-1.11,0.88-1.46c0.31-0.35,0.53-0.55,0.65-0.6
		c0.12-0.05,0.42-0.08,0.91-0.08c0.87,0,1.56,0.26,2.08,0.78l0.47,0.47l0.47-0.68c0.76-1.04,1.63-1.56,2.6-1.56l0.88,0.05
		l-0.05-1.04v-0.78c0-2.5,0.14-4.44,0.42-5.83c0.31-1.49,0.78-2.5,1.41-3.02c0.38-0.31,0.75-0.47,1.09-0.47
		c0.49,0,0.95,0.24,1.38,0.73c0.43,0.49,0.75,1.02,0.96,1.61c0.17,0.49,0.29,2.45,0.36,5.88c0.07,3.96,0.15,6.45,0.23,7.49
		c0.09,1.04,0.23,1.7,0.44,1.98c0.21,0.24,0.5,1.06,0.88,2.45c0.1,0.56,0.45,1.39,1.04,2.5c0.87,1.6,1.3,3.21,1.3,4.84v0.73
		c-0.14,2.85-1.16,5.19-3.07,7.03c-1.22,1.21-2.5,1.96-3.85,2.24l-0.99,0.21l-0.05,1.46c-0.03,0.97-0.1,1.46-0.21,1.46
		c-0.42,0-0.62-0.52-0.62-1.56c0-0.56,0.1-1.05,0.29-1.48c0.19-0.43,0.46-0.65,0.81-0.65c0.59-0.03,1.39-0.39,2.39-1.07
		c1.01-0.68,1.8-1.4,2.39-2.16c1.46-1.84,2.19-3.83,2.19-5.99c0-1.35-0.45-2.93-1.35-4.74c-0.52-1.01-0.9-1.98-1.15-2.91
		c-0.28-1.25-0.62-1.93-1.04-2.03h-0.16c-0.45,0-0.89,0.3-1.33,0.91c-0.43,0.61-0.67,1.28-0.7,2v0.36c0,0.62,0.09,1.36,0.26,2.21
		c0.17,0.85,0.33,1.31,0.47,1.38c0.1,0.03,0.16,0.09,0.16,0.16c0,0.1-0.42,0.42-1.25,0.94c-1.32,0.9-2.57,2.06-3.75,3.49
		c-0.66,0.87-1.13,1.3-1.41,1.3c-0.07,0-0.1-0.09-0.1-0.26c0-0.62,0.56-1.5,1.69-2.63c1.13-1.13,2.35-2.09,3.67-2.89
		c0.17-0.1,0.16-0.59-0.05-1.46c-0.28-1.21-0.42-2.19-0.42-2.91c0-1.18,0.35-2.12,1.04-2.81c0.42-0.42,0.81-0.64,1.2-0.68
		c0.45-0.07,0.68-0.19,0.68-0.36c0-0.52-0.05-1.37-0.16-2.55c-0.14-1.94-0.21-3.45-0.21-4.53c0-6-0.61-9-1.82-9
		c-0.24,0-0.49,0.1-0.73,0.31c-0.9,0.8-1.37,3.42-1.41,7.86v1.93c0,0.87,0.09,1.48,0.26,1.82c0.52,1.01,0.78,2.79,0.78,5.36v1.25
		c-0.04,2.46-0.17,4.03-0.42,4.68c-0.56,1.77-1.42,2.65-2.6,2.65c-0.03,0-0.1-0.01-0.18-0.03c-0.09-0.02-0.17-0.03-0.23-0.03
		c-0.83-0.14-1.49-0.5-1.98-1.09L175.7,134.47z M169.87,126.67c-0.28-0.35-0.54-0.52-0.78-0.52c-0.24,0-0.56,0.19-0.94,0.57
		c-1.01,1.04-1.51,2.74-1.51,5.1c0,1.74,0.33,2.93,0.99,3.59c0.31,0.31,0.73,0.47,1.25,0.47c0.52,0,0.92-0.14,1.2-0.42
		c0.45-0.45,0.68-0.88,0.68-1.3c0-0.24-0.05-0.55-0.16-0.94c-0.17-0.69-0.28-1.87-0.31-3.54
		C170.26,127.95,170.12,126.95,169.87,126.67z M172.01,137.7c0.1-0.1,0.49-0.23,1.15-0.39c0.66-0.16,1.16-0.23,1.51-0.23
		c0.28,0,0.42,0.05,0.42,0.16c0,0.14-0.33,0.3-0.99,0.47c-1.15,0.24-2.15,0.76-3.02,1.56c-0.66,0.56-0.99,0.64-0.99,0.26
		c0-0.14,0.24-0.44,0.73-0.91C171.3,138.14,171.7,137.84,172.01,137.7z M175.29,125.11c0.07-0.35,0.1-0.57,0.1-0.68
		c0-1.15-0.64-1.72-1.93-1.72c-1.53,0-2.29,1.74-2.29,5.2c0,0.49,0.03,1.39,0.1,2.71c0.1,1.42,0.29,2.44,0.57,3.04
		c0.28,0.61,0.71,0.96,1.3,1.07c0.38,0.04,0.78-0.07,1.2-0.31c0.59-0.35,0.88-0.66,0.88-0.94c0-0.07-0.04-0.28-0.1-0.62
		c-0.21-0.83-0.31-1.89-0.31-3.17C174.82,128.09,174.98,126.56,175.29,125.11z M179.92,122.4c-0.38-0.62-0.85-0.94-1.41-0.94h-0.21
		c-1.11,0.21-1.86,1.93-2.24,5.15c-0.14,1.08-0.21,2.15-0.21,3.23c0,1.94,0.24,3.26,0.73,3.96c0.55,0.76,1.21,1.15,1.98,1.15
		c0.35,0,0.68-0.12,0.99-0.36c0.49-0.45,0.81-1.16,0.99-2.13c0.17-0.97,0.26-2.53,0.26-4.68
		C180.81,125.12,180.51,123.34,179.92,122.4z"/>
	<path class="st0" d="M210.37,121.31c0.49-0.28,1.06-0.42,1.72-0.42c0.69,0,1.2,0.14,1.51,0.42c1.04,0.87,1.56,3.19,1.56,6.97
		c0,1.39-0.07,2.69-0.21,3.9c-0.07,0.52-0.1,1.06-0.1,1.61c0,0.28,0.07,0.47,0.21,0.57c0.31,0.17,0.67,0.48,1.07,0.91
		c0.4,0.43,0.68,0.84,0.86,1.22c0.35,0.73,0.52,1.51,0.52,2.34c0,2.6-1.68,5.2-5.05,7.81c-0.28,0.24-0.45,0.42-0.52,0.55
		c-0.07,0.12-0.1,0.39-0.1,0.81c0,0.55,0.03,1.01,0.1,1.35c0.07,0.35,0.03,0.54-0.1,0.57h-0.05c-0.04,0.03-0.07,0.05-0.1,0.05
		c-0.28,0-0.47-0.43-0.57-1.3c-0.07-0.52-0.14-0.78-0.21-0.78c-0.04,0-0.16,0.07-0.36,0.21c-0.66,0.45-0.99,0.49-0.99,0.1
		c0-0.35,0.92-1.28,2.76-2.81c1.46-1.18,2.47-2.17,3.04-2.97c0.57-0.8,0.93-1.68,1.07-2.65c0.03-0.17,0.05-0.47,0.05-0.88
		c0-0.9-0.14-1.63-0.42-2.19c-0.38-0.76-1.04-1.38-1.98-1.85c-0.94-0.47-1.96-0.7-3.07-0.7h-0.47c-0.45,0.03-1.66,0.3-3.62,0.81
		c-1.96,0.5-3.13,0.84-3.51,1.02c-0.24,0.14-0.36,0.4-0.36,0.78c0,1.18,1.21,1.77,3.64,1.77c1.35,0,2.34,0.43,2.97,1.3
		c0.03,0.07,0.22,0.29,0.55,0.65c0.33,0.36,0.64,0.73,0.94,1.09c0.29,0.36,0.44,0.58,0.44,0.65c0,0.03-0.03,0.05-0.1,0.05
		c-0.28,0-0.7-0.25-1.27-0.75c-0.57-0.5-0.98-1-1.22-1.48c-0.14-0.28-0.41-0.48-0.81-0.6c-0.4-0.12-1.22-0.25-2.47-0.39
		c-1.39-0.14-2.29-0.33-2.71-0.57c-0.76-0.42-1.15-0.97-1.15-1.67c0-0.28,0.07-0.54,0.21-0.78c0.31-0.42,1.37-0.87,3.17-1.35
		c0.35-0.1,0.91-0.26,1.69-0.47c0.78-0.21,1.29-0.35,1.54-0.42c0.94-0.28,1.91-0.42,2.91-0.42c0.69,0,1.27,0.07,1.72,0.21l0.83,0.21
		v-0.42c0-0.21-0.03-0.33-0.1-0.36c-0.07-0.03-0.31-0.02-0.73,0.05c-0.07,0-0.18,0.01-0.34,0.03c-0.16,0.02-0.25,0.03-0.29,0.03
		c-0.52,0-0.99-0.19-1.41-0.57l-0.47-0.36l-0.57,0.47c-0.59,0.52-1.11,0.78-1.56,0.78c-0.31,0-0.66-0.1-1.04-0.31l-0.62-0.31
		l-0.73,0.73c-0.52,0.52-0.99,0.78-1.41,0.78c-0.42,0-0.9-0.21-1.46-0.62l-0.36,0.57c-0.45,0.73-1.15,1.09-2.08,1.09
		c-0.83,0-1.53-0.33-2.08-0.99c-0.66-0.87-1.09-2.2-1.3-4.01c-0.07-0.69-0.04-1.04,0.1-1.04c0.17,0,0.35,0.36,0.52,1.09
		c0.17,0.73,0.42,1.52,0.73,2.37c0.31,0.85,0.73,1.38,1.25,1.59c0.31,0.14,0.62,0.21,0.94,0.21c0.76,0,1.21-0.49,1.35-1.46
		c0.03-0.21,0.05-0.5,0.05-0.88c0-0.9-0.31-1.99-0.94-3.28c-0.8-1.63-1.48-2.62-2.03-2.97c-0.28-0.17-0.59-0.26-0.94-0.26
		c-1.15,0-1.94,0.95-2.39,2.86c-0.24,1.14-0.36,3.04-0.36,5.67c0,0.8,0.03,1.65,0.1,2.55c0.24,2.33,0.73,4.33,1.46,6.01
		c0.73,1.68,1.6,2.82,2.6,3.41c0.9,0.49,0.97,0.73,0.21,0.73c-0.17,0-0.3,0.03-0.36,0.1c-0.07,0.07-0.14,0.24-0.21,0.52
		c-0.45,1.6-0.76,2.39-0.94,2.39c-0.07,0-0.1-0.16-0.1-0.47c0-0.49,0.07-1.06,0.21-1.72l0.21-1.14l-0.57-0.68
		c-0.56-0.62-1.13-1.63-1.72-3.02c-0.59-1.39-1.01-2.71-1.25-3.96c-0.31-1.63-0.47-4.06-0.47-7.29c0-0.97,0.02-1.6,0.05-1.87
		c0.38-3.26,1.61-4.89,3.7-4.89c0.59,0,0.9-0.1,0.94-0.31c0.07-0.24,0.31-0.55,0.73-0.91c0.42-0.36,0.81-0.63,1.2-0.81
		c0.49-0.24,0.97-0.36,1.46-0.36c0.28,0,0.57,0.05,0.88,0.16c0.24,0.07,0.42,0.09,0.52,0.05c0.1-0.03,0.31-0.21,0.62-0.52
		c0.9-0.8,1.8-1.2,2.71-1.2c0.55,0,1.01,0.12,1.35,0.36c0.35,0.24,0.55,0.36,0.62,0.36C209.62,121.78,209.88,121.62,210.37,121.31z
		 M203.71,123.75c-0.42-0.21-0.8-0.31-1.15-0.31c-0.73,0-1.46,0.36-2.19,1.09l-0.68,0.62l0.68,0.73c0.52,0.62,1.12,1.62,1.8,2.99
		c0.68,1.37,1.02,2.32,1.02,2.84c0,1.22,0.47,1.82,1.41,1.82c0.21,0,0.45-0.15,0.73-0.44c0.28-0.29,0.45-0.58,0.52-0.86
		c0.03-0.14,0.05-0.43,0.05-0.88c0-1.63-0.17-3.05-0.52-4.27C204.85,125.21,204.3,124.1,203.71,123.75z M208.7,122.3
		c-0.28-0.24-0.68-0.36-1.2-0.36c-0.9,0-1.67,0.3-2.29,0.88l-0.52,0.47l0.36,0.57c0.76,1.22,1.37,2.88,1.82,5
		c0.1,0.56,0.16,1.13,0.16,1.72v0.52c-0.03,0.59,0.09,1.01,0.36,1.25c0.24,0.17,0.5,0.26,0.78,0.26c0.38,0,0.75-0.14,1.09-0.42
		c0.45-0.42,0.68-1.68,0.68-3.8C209.95,125.02,209.53,122.99,208.7,122.3z M207.77,140.77c0.14-0.07,0.29-0.13,0.44-0.18
		c0.16-0.05,0.29-0.08,0.39-0.08c0.1,0,0.16,0.02,0.16,0.05c0,0.07-0.23,0.3-0.68,0.68c-0.42,0.35-0.87,1.02-1.35,2.03
		c-0.45,0.97-0.76,1.46-0.94,1.46c-0.04,0-0.05-0.03-0.05-0.1c0-0.21,0.16-0.73,0.47-1.56
		C206.69,141.85,207.21,141.08,207.77,140.77z M213.54,122.71c-0.42-0.69-1.01-1.04-1.77-1.04c-0.35,0-0.74,0.07-1.17,0.21
		c-0.43,0.14-0.65,0.26-0.65,0.36c0,0.04,0.1,0.3,0.31,0.78c0.42,0.94,0.62,2.91,0.62,5.93c0,1.74,0.1,2.71,0.31,2.91
		c0.38,0.38,0.81,0.57,1.3,0.57c0.45,0,0.8-0.16,1.04-0.47c0.52-0.52,0.78-1.73,0.78-3.64c0-0.69-0.1-1.73-0.29-3.12
		C213.85,123.82,213.68,122.99,213.54,122.71z"/>
	<path class="st0" d="M227.08,109.7c0-0.28,0.1-0.42,0.31-0.42c0.14,0,0.23,0.07,0.29,0.21c0.05,0.14,0.15,0.64,0.29,1.51
		c0,0.04,0.01,0.08,0.03,0.13c0.02,0.05,0.03,0.1,0.03,0.13l0.21,1.25l0.52-0.05c0.31-0.07,0.47-0.03,0.47,0.1
		c0,0.03-0.28,0.3-0.83,0.78c-1.11,0.97-1.93,1.98-2.45,3.02c-0.52,1.04-0.9,2.41-1.15,4.11c-0.07,0.62-0.1,1.2-0.1,1.72
		c0,1.42,0.12,2.86,0.36,4.32l0.21,1.25l-0.62,1.2c-0.45,0.87-0.68,1.51-0.68,1.93c0,0.31,0.09,0.61,0.26,0.88
		c0.21,0.35,0.49,0.52,0.83,0.52c0.35,0,0.74-0.1,1.17-0.31c0.43-0.21,0.72-0.43,0.86-0.68c0.14-0.35,0.33-0.47,0.57-0.36
		c0.03,0,0.05,0.04,0.05,0.1c0,0.04-0.12,0.36-0.36,0.99c-0.28,0.66-0.42,1.18-0.42,1.56c0,0.73,0.47,1.09,1.41,1.09
		c0.9,0,1.77-0.45,2.6-1.35c0.45-0.45,0.73-0.59,0.83-0.42c0.03,0.04,0.02,0.1-0.05,0.21c-0.07,0.21-0.1,0.42-0.1,0.62v1.77
		c0,1.63-0.05,2.97-0.16,4.01c-0.14,1.53-0.21,3.09-0.21,4.68c0,1.8,0.07,3.05,0.21,3.75c0.31,1.15,0.83,1.72,1.56,1.72
		c0.49,0,0.8-0.05,0.94-0.16c0.87-0.49,1.32-4.04,1.35-10.67c0.03-4.3,0.26-6.52,0.68-6.66c0.24-0.1,0.36,0,0.36,0.31
		c0,0.17-0.04,0.47-0.1,0.88c-0.14,0.66-0.21,2.78-0.21,6.35c0,2.64,0.05,4.18,0.16,4.63c0.21,0.87,0.56,1.64,1.07,2.32
		c0.5,0.68,0.98,1.01,1.43,1.01c0.03,0,0.07-0.01,0.1-0.03c0.03-0.02,0.07-0.03,0.1-0.03c0.52-0.21,0.87-0.87,1.04-1.98
		c0.07-0.55,0.1-1.99,0.1-4.32v-2.97c-0.07-4.23-0.16-6.38-0.26-6.45c-0.38-0.1-0.31-0.38,0.21-0.83c1.42-1.21,2.39-2.27,2.91-3.17
		c0.62-1.21,0.94-2.52,0.94-3.9v-0.73c-0.21-3.57-1.74-7.04-4.58-10.41c-0.69-0.87-1.04-1.37-1.04-1.51c0-0.38,0.38-0.29,1.14,0.26
		l0.73,0.52v-0.57c0-0.35,0.1-0.68,0.29-1.02c0.19-0.33,0.37-0.49,0.55-0.49h0.05c0.17,0.07,0.24,0.21,0.21,0.42
		c-0.1,1.01-0.16,1.67-0.16,1.98c0,0.45,0.19,0.99,0.57,1.61c0.8,1.25,1.49,2.83,2.08,4.74c0.62,2.08,0.94,3.82,0.94,5.2
		c0,1.49-0.33,2.91-0.99,4.27c-0.38,0.83-0.95,1.61-1.72,2.34l-1.2,1.2l0.16,1.46c0.07,0.62,0.1,2.24,0.1,4.84
		c0,2.74-0.04,4.58-0.1,5.52c-0.14,2.15-0.5,3.54-1.09,4.16c-0.28,0.35-0.71,0.52-1.3,0.52c-0.21,0-0.35-0.02-0.42-0.05
		c-0.69-0.17-1.32-0.82-1.87-1.93l-0.36-0.78l-0.26,1.46c-0.42,2.29-1.32,3.44-2.71,3.44c-0.45,0-0.87-0.21-1.25-0.62
		c-0.45-0.45-0.74-0.97-0.86-1.56c-0.12-0.59-0.22-1.68-0.29-3.28v-1.3c0-1.67,0.09-3.45,0.26-5.36c0.17-2.08,0.26-3.4,0.26-3.96
		c-0.04-0.1-0.23-0.02-0.57,0.26c-0.66,0.56-1.37,0.83-2.13,0.83c-1.18,0-1.77-0.69-1.77-2.08v-0.83l-0.47,0.26
		c-0.28,0.14-0.59,0.21-0.94,0.21c-0.38,0-0.73-0.1-1.04-0.31c-0.56-0.35-0.83-0.88-0.83-1.61c0-0.62,0.21-1.42,0.62-2.39l0.52-1.3
		l-0.26-0.94c-0.21-0.83-0.31-1.84-0.31-3.02c0-3.05,0.45-5.48,1.35-7.29c0.35-0.73,0.85-1.44,1.51-2.13
		c0.69-0.73,1.04-1.25,1.04-1.56c0-0.03-0.1-0.47-0.31-1.3C227.18,110.39,227.08,109.91,227.08,109.7z"/>
	<path class="st0" d="M264.19,120.53c0.45-0.45,1.07-0.68,1.87-0.68c1.18,0,2.22,0.4,3.12,1.2c1.15,1.08,1.72,2.46,1.72,4.16
		c0,0.07-0.01,0.17-0.03,0.29c-0.02,0.12-0.03,0.22-0.03,0.29c0,0.07-0.01,0.14-0.03,0.21c-0.02,0.07-0.03,0.12-0.03,0.16
		c0,0.21,0.29,0.61,0.88,1.2c1.08,1.01,1.82,2.32,2.24,3.96c0.38,1.46,0.57,3.47,0.57,6.04v0.83c-0.1,1.94-0.73,3.87-1.87,5.78
		c-0.35,0.62-0.56,1.05-0.62,1.27c-0.07,0.23-0.1,0.63-0.1,1.22c0,1.04,0.07,1.93,0.21,2.65c0.1,0.62,0.16,1.09,0.16,1.41
		c0,0.14-0.02,0.23-0.05,0.26c-0.03,0.03-0.07,0.05-0.1,0.05c-0.17,0-0.36-0.36-0.55-1.09c-0.19-0.73-0.29-1.49-0.29-2.29
		c0-0.56-0.04-0.83-0.1-0.83l-0.1,0.05c-0.35,0.28-0.52,0.16-0.52-0.36c0-0.35,0.59-1.65,1.77-3.9c0.42-0.9,0.62-1.44,0.62-1.61
		c0-0.14,0.07-0.55,0.21-1.25c0.17-0.59,0.26-1.53,0.26-2.81c0-4.34-0.75-7.2-2.24-8.59c-0.66-0.66-1.84-1.18-3.54-1.56
		c-1.08-0.24-2.01-0.5-2.81-0.78c-0.73-0.24-1.3-0.36-1.72-0.36c-0.42,0-0.64,0.12-0.68,0.36c-0.03,0.07-0.05,0.19-0.05,0.36
		c0,0.49,0.16,1.03,0.47,1.64c0.31,0.61,0.69,1.08,1.14,1.43c0.9,0.69,1.58,1.04,2.03,1.04h0.1c0.31-0.03,0.52,0.14,0.62,0.52
		c0.07,0.35,0.1,0.59,0.1,0.73c0,0.56-0.31,1.46-0.94,2.71c-0.66,1.49-0.99,2.57-0.99,3.23c0,0.42,0.09,1.02,0.26,1.82
		c0.24,0.87,0.36,1.37,0.36,1.51c0,0.1-0.05,0.16-0.16,0.16c-0.35,0-0.73-0.57-1.15-1.72c-0.1-0.31-0.16-0.99-0.16-2.03
		c0-0.87,0.05-1.46,0.16-1.77c0.03-0.14-0.02-0.25-0.16-0.34c-0.14-0.09-0.45-0.25-0.94-0.49l-1.14-0.57
		c-0.28,0.45-0.61,0.87-0.99,1.25l-0.52,0.62l0.73-0.1c0.17-0.03,0.42-0.05,0.73-0.05c0.69,0,1.04,0.14,1.04,0.42
		c0,0.14-0.1,0.23-0.29,0.29c-0.19,0.05-0.82,0.13-1.9,0.23c-2.43,0.24-4.18,0.97-5.26,2.19c-0.49,0.52-0.76,0.69-0.83,0.52
		c-0.17-0.38-0.03-0.85,0.42-1.41c0.66-0.8,1.86-1.42,3.59-1.87l0.68-0.16l-0.68-0.36c-0.1-0.07-0.22-0.15-0.34-0.23
		c-0.12-0.09-0.24-0.17-0.36-0.26c-0.12-0.09-0.2-0.13-0.23-0.13c-0.17-0.14-0.27-0.19-0.29-0.16c-0.02,0.03-0.1,0.19-0.23,0.47
		c-0.31,0.59-0.78,0.88-1.41,0.88c-0.9,0-1.98-0.45-3.23-1.35l-1.04-0.73c-0.04,0.07-0.05,0.14-0.05,0.21
		c0,1.28,0.26,2.88,0.78,4.79c0.59,2.29,1.72,4.55,3.38,6.77c0.69,0.94,1.04,1.53,1.04,1.77c0,0.1-0.09,0.16-0.26,0.16
		c-0.21,0-0.33,0.16-0.36,0.47c-0.42,1.7-0.75,2.55-0.99,2.55c-0.21,0-0.31-0.05-0.31-0.16l0.05-0.26c0.03-0.14,0.09-0.36,0.16-0.65
		c0.07-0.3,0.14-0.58,0.21-0.86l0.42-1.72l-0.73-0.73c-2.29-2.46-3.56-6.19-3.8-11.19c-0.04-1.39-0.16-2.32-0.36-2.81
		c-0.28-0.83-0.42-1.61-0.42-2.34c0-0.97,0.19-1.79,0.57-2.45c0.38-0.66,0.88-0.99,1.51-0.99h0.26l0.47,0.1v-0.78
		c0-0.97,0.37-1.83,1.12-2.58c0.75-0.75,1.62-1.14,2.63-1.17c0.52,0,0.94-0.23,1.25-0.68c0.73-1.01,1.8-1.51,3.23-1.51
		c0.69,0,1.27,0.16,1.72,0.47l0.68,0.42L264.19,120.53z M253.25,127.24l-0.68,0.26c-0.45,0.17-0.76,0.43-0.94,0.78
		c-0.17,0.35-0.26,0.9-0.26,1.67c0,1.46,0.42,2.65,1.25,3.59c0.42,0.45,0.94,0.87,1.56,1.25c0.62,0.38,1.09,0.57,1.41,0.57
		c0.21,0,0.47-0.08,0.78-0.23c0.31-0.16,0.5-0.32,0.57-0.49c0.03-0.03,0.05-0.1,0.05-0.21c0-0.17-0.28-0.68-0.83-1.51
		C255.06,131.35,254.09,129.46,253.25,127.24z M257.84,126.67c-0.1-0.42-0.19-1.2-0.26-2.34l-0.1-1.61l-0.62,0.21
		c-0.83,0.24-1.53,0.66-2.08,1.25c-0.49,0.56-0.73,1.13-0.73,1.72c0,0.8,0.43,2.06,1.3,3.8c0.97,1.94,1.73,3.25,2.29,3.93
		c0.55,0.68,1.16,1.02,1.82,1.02c0.45,0,1.13-0.38,2.03-1.15l-0.52-0.52c-0.52-0.59-1.11-1.54-1.77-2.84
		C258.53,128.83,258.08,127.67,257.84,126.67z M262.83,121.15c-0.52-0.17-0.97-0.26-1.35-0.26c-0.45,0-0.99,0.12-1.61,0.36
		c-1.01,0.52-1.51,1.39-1.51,2.6c0,0.21,0.03,0.59,0.1,1.15c0.24,1.6,0.76,3.21,1.56,4.84c0.59,1.11,1.14,1.94,1.64,2.5
		c0.5,0.56,1.31,1.16,2.42,1.82l0.52,0.31l0.47-0.88c0.45-0.83,0.68-1.41,0.68-1.72c0-0.49-0.56-1.01-1.67-1.56
		c-0.62-0.31-1.09-0.62-1.41-0.94c-0.31-0.31-0.61-0.76-0.88-1.35c-0.28-0.59-0.42-1.2-0.42-1.82c0-0.62,0.17-1.09,0.52-1.41
		c0.35-0.31,0.76-0.47,1.25-0.47c0.35,0,0.55-0.01,0.62-0.03c0.07-0.02,0.09-0.1,0.05-0.23c-0.07-0.24-0.14-0.73-0.21-1.46l-0.1-1.2
		L262.83,121.15z M270.07,125.05c0-1.35-0.35-2.41-1.04-3.17c-0.69-0.76-1.7-1.14-3.02-1.14c-1.22,0-1.82,0.52-1.82,1.56
		c0,0.35,0.05,0.78,0.16,1.3c0.1,0.45,0.28,0.75,0.52,0.88c0.24,0.14,1.11,0.43,2.6,0.88c0.31,0.1,0.65,0.21,1.02,0.31
		c0.36,0.1,0.65,0.19,0.86,0.26c0.21,0.07,0.35,0.1,0.42,0.1c0.17,0.07,0.28,0.02,0.31-0.16V125.05z"/>
</g>
<g>
	<path class="st1" d="M90.13,96.7H74.61v-7l-8.54,0.02c-0.52,0-0.78-0.26-0.78-0.78c0-0.52,0.26-0.78,0.78-0.78h8.54V66.43
		c0-0.52,0.26-0.78,0.78-0.78c0.52,0,0.78,0.26,0.78,0.78v14.73h13.97V96.7z"/>
	<path class="st1" d="M116.17,76.77c0,0.48-0.17,0.89-0.5,1.22l-5.34,5.36v13.37H94.81V81.18h13.21l5.41-5.41
		c0.34-0.34,0.74-0.5,1.2-0.5c0.45,0,0.82,0.15,1.11,0.46C116.03,76.02,116.17,76.37,116.17,76.77z"/>
	<path class="st1" d="M135.92,96.7H120.4V81.18h7v-8.54c0-0.52,0.26-0.78,0.78-0.78c0.52,0,0.78,0.26,0.78,0.78l-0.02,8.54h6.98
		V96.7z M134.37,95.15V82.73h-12.42v12.42H134.37z"/>
	<path class="st1" d="M156.12,96.72H140.6V81.18l6.21-6.21v-2.33c0-0.43-0.15-0.79-0.45-1.1c-0.3-0.3-0.66-0.46-1.09-0.46
		c-0.43,0-0.79,0.15-1.1,0.46c-0.3,0.3-0.46,0.67-0.46,1.1v0.74c0,0.44-0.15,0.81-0.46,1.13c-0.3,0.31-0.67,0.47-1.1,0.47
		c-0.44,0-0.81-0.16-1.12-0.47c-0.3-0.31-0.46-0.69-0.46-1.13v-0.74c0-1.28,0.46-2.37,1.38-3.28c0.92-0.91,2.02-1.36,3.3-1.36
		c1.15,0,2.16,0.38,3.03,1.13c0.87,0.75,1.38,1.68,1.55,2.79l3.76-3.76c0.22-0.22,0.43-0.33,0.64-0.33c0.18,0,0.36,0.08,0.54,0.25
		c0.36,0.36,0.34,0.75-0.08,1.16l-4.81,4.81v7.12h6.21V96.72z M146.81,81.18v-4.02l-4.02,4.02H146.81z"/>
	<path class="st1" d="M191.86,96.7H176.3v-9.29h-14.75c-0.53,0-0.79-0.25-0.78-0.76c0.01-0.52,0.27-0.78,0.78-0.78h14.75v-4.7h15.56
		V96.7z M176.34,82.77c0,1.07-0.38,1.99-1.14,2.75c-0.76,0.76-1.67,1.13-2.75,1.13c-1.07,0-1.99-0.38-2.75-1.13
		c-0.76-0.76-1.13-1.67-1.13-2.75c0-1.07,0.38-2,1.14-2.76c0.76-0.77,1.68-1.15,2.76-1.15c1.07,0,1.99,0.39,2.74,1.15
		C175.96,80.77,176.34,81.7,176.34,82.77z M174.77,82.77c0-0.65-0.23-1.2-0.68-1.66c-0.45-0.46-1-0.69-1.65-0.69
		c-0.65,0-1.2,0.23-1.66,0.68c-0.46,0.45-0.69,1-0.69,1.65c0,0.65,0.23,1.2,0.68,1.65c0.45,0.45,1,0.68,1.65,0.68
		c0.65,0,1.2-0.22,1.66-0.67C174.54,83.96,174.77,83.42,174.77,82.77z M190.29,95.15V82.73h-12.42v12.42H190.29z"/>
	<path class="st1" d="M215.88,96.7h-15.52l-5.26-9.51c-0.23-0.41-0.13-0.74,0.31-0.99c0.45-0.26,0.8-0.18,1.03,0.23l3.92,7.06V81.18
		h15.52V96.7z"/>
</g>
<g>
	<path class="st1" d="M284.22,83.01l-9.49,9.51l-0.02-0.02v0.02l-9.51-9.49l0.02-0.02l5.31-5.27v-8.65c0-0.46,0.22-0.69,0.67-0.69
		s0.67,0.23,0.67,0.69v7.27l1.9-1.9c1.07-1.07,1.61-2.19,1.61-3.34c0-0.82-0.3-1.53-0.9-2.12c-0.6-0.6-1.31-0.9-2.12-0.9
		c-1.15,0-2.27,0.54-3.34,1.61c-0.31,0.31-0.63,0.31-0.94,0c-0.33-0.31-0.33-0.63,0-0.96c1.32-1.32,2.75-1.98,4.3-1.98
		c1.19,0,2.21,0.43,3.06,1.28c0.85,0.85,1.28,1.87,1.28,3.06c0,1.12-0.38,2.21-1.13,3.28L284.22,83.01z"/>
</g>
<g>
	<path class="st2" d="M102.37,165.77c0,0.51-0.19,0.95-0.58,1.3l-6.15,5.72v14.27H77.75v-16.59h15.23l6.24-5.78
		c0.39-0.36,0.85-0.54,1.39-0.54c0.52,0,0.95,0.16,1.27,0.49C102.21,164.97,102.37,165.35,102.37,165.77z"/>
	<path class="st2" d="M125.42,185.78c0.42,0.39,0.42,0.77,0,1.16c-0.42,0.4-0.84,0.41-1.25,0.02l-7.11-6.55v14.09
		c0,0.55-0.3,0.82-0.89,0.81c-0.6-0.01-0.89-0.28-0.89-0.81v-14.09h-0.04l-6.98,6.46c-0.27,0.25-0.51,0.37-0.74,0.37
		c-0.24,0-0.45-0.12-0.65-0.37c-0.33-0.4-0.29-0.79,0.11-1.16l7.51-6.96h-7.24v-16.57h17.89v16.57h-7.29L125.42,185.78z
		 M123.34,177.1v-13.26h-14.31v13.26H123.34z"/>
	<path class="st2" d="M166.32,187.05h-17.93v-9.92h-16.99c-0.61,0-0.91-0.27-0.89-0.81c0.01-0.55,0.31-0.83,0.89-0.83h16.99v-5.01
		h17.93V187.05z M148.43,172.17c0,1.15-0.44,2.12-1.31,2.93c-0.87,0.81-1.93,1.21-3.16,1.21c-1.24,0-2.29-0.4-3.16-1.21
		c-0.87-0.81-1.31-1.78-1.31-2.93c0-1.15,0.44-2.13,1.32-2.95c0.88-0.82,1.94-1.23,3.17-1.23c1.24,0,2.29,0.41,3.15,1.23
		C148,170.04,148.43,171.03,148.43,172.17z M146.62,172.17c0-0.69-0.26-1.28-0.78-1.77c-0.52-0.49-1.16-0.74-1.9-0.74
		c-0.75,0-1.38,0.24-1.91,0.73c-0.53,0.48-0.79,1.07-0.79,1.76c0,0.69,0.26,1.28,0.78,1.76c0.52,0.48,1.15,0.72,1.9,0.72
		c0.74,0,1.38-0.24,1.91-0.71C146.35,173.45,146.62,172.86,146.62,172.17z M164.51,185.39v-13.26H150.2v13.26H164.51z"/>
	<path class="st2" d="M189.55,187.05h-17.89v-16.57h17.89V187.05z"/>
	<path class="st2" d="M220.27,175.3l-12.63,11.72l-0.02-0.02v0.02l-12.66-11.7l0.02-0.02l7.07-6.5v-10.67c0-0.57,0.3-0.85,0.89-0.85
		c0.6,0,0.89,0.28,0.89,0.85v8.97l2.53-2.34c1.43-1.33,2.15-2.7,2.15-4.12c0-1.01-0.4-1.88-1.2-2.62c-0.8-0.74-1.74-1.11-2.83-1.11
		c-1.54,0-3.02,0.66-4.45,1.99c-0.42,0.39-0.83,0.39-1.25,0c-0.43-0.39-0.43-0.78,0-1.18c1.76-1.63,3.67-2.44,5.72-2.44
		c1.58,0,2.94,0.52,4.07,1.57c1.13,1.05,1.7,2.31,1.7,3.77c0,1.38-0.5,2.73-1.5,4.04L220.27,175.3z"/>
	<path class="st2" d="M246.76,178.76H231.9l12.36,11.52c0.51,0.47,0.54,0.9,0.09,1.28c-0.42,0.37-0.86,0.34-1.34-0.1l-12.34-11.43
		v14.48c0,0.55-0.3,0.83-0.89,0.83c-0.6,0-0.89-0.28-0.89-0.83v-32.34h17.89V178.76z M244.98,177.1v-13.26h-14.31v13.26H244.98z"/>
	<path class="st2" d="M274.49,187.05H256.6l-6.06-10.15c-0.27-0.44-0.15-0.79,0.36-1.06c0.52-0.28,0.92-0.19,1.19,0.25l4.52,7.54
		v-13.15h17.89V187.05z"/>
</g>
<g>
	<text transform="matrix(0 -1 1 0 51.2916 190.606)" class="st3 st4 st5">LIBRAS e Imagens</text>
</g>
</svg>
