<?xml version="1.0" encoding="utf-8"?>
<!-- Generator: Adobe Illustrator 24.1.3, SVG Export Plug-In . SVG Version: 6.00 Build 0)  -->
<svg version="1.1" id="Layer_1" xmlns="http://www.w3.org/2000/svg" xmlns:xlink="http://www.w3.org/1999/xlink" x="0px" y="0px"
	 viewBox="0 0 336 232" style="enable-background:new 0 0 336 232;" xml:space="preserve">
<style type="text/css">
	.st0{fill:#263B80;stroke:#263B80;stroke-width:0.4065;stroke-miterlimit:10;}
	.st1{fill:#263B80;stroke:#263B80;stroke-width:0.2686;stroke-miterlimit:10;}
	.st2{fill:#263B80;stroke:#263B80;stroke-width:0.3044;stroke-miterlimit:10;}
	.st3{fill:#263B80;}
</style>
<g>
	<g>
		<g>
			<path class="st0" d="M70.1,14.9c0.4-0.2,0.9-0.2,1.4-0.2c1.1,0.1,2,0.7,2.7,1.8c0.6,1.1,1.1,2.8,1.4,5.2c0.2,1.7,0.4,3.6,0.8,5.8
				c0.6,3.8,1,7,1.1,9.6c0.1,3.2,0.5,4.8,1.2,4.8c0.5,0,1.1-0.5,2-1.6c1.7-2.1,3.6-3.2,5.8-3.2c1.3,0,2.4,0.5,3.3,1.5
				c0.6,0.7,1,1.4,1,2.1c0,1.3-1.1,2.8-3.3,4.5c-1.4,1-2.4,1.9-3,2.6c-0.6,0.7-1.3,1.9-2.1,3.4c-1.8,3.6-3.5,6-5.1,7
				c-0.6,0.3-0.8,0.6-0.8,0.9c0,0.2,0.2,0.7,0.5,1.4c0.3,0.5,0.3,0.8,0.1,0.8h-0.1c-0.3,0-0.5-0.2-0.8-0.6c-0.2-0.4-0.4-0.8-0.4-1.3
				c0-0.2-0.1-0.3-0.1-0.4c-0.1,0-0.4,0-0.9,0h-0.5c-0.6,0-0.9-0.1-0.9-0.3c0-0.2,0.4-0.5,1.2-0.7c1.4-0.4,2.6-1,3.4-2
				c0.9-0.9,1.8-2.4,2.8-4.2c1.3-2.5,2.3-4.1,3-4.9c0.7-0.8,1.7-1.7,3.1-2.6c1.9-1.3,2.8-2.4,2.8-3.4c0-0.2,0-0.4-0.1-0.7
				c-0.5-1.5-1.7-2.2-3.7-2.2c-0.8,0-1.5,0.2-2,0.5c-0.5,0.3-1.2,1-2,2c-1.3,1.7-2.4,2.5-3.1,2.5c-0.4,0-0.8-0.2-1.1-0.5
				c-0.5-0.6-0.8-2.1-0.9-4.5c-0.1-1.5-0.7-6-1.7-13.4c-0.6-4.6-1.3-7.4-2.2-8.4c-0.4-0.4-0.8-0.6-1.3-0.6c-0.8,0-1.4,0.3-1.8,0.9
				c-0.5,0.6-0.7,1.3-0.7,2.3c0,0.6,0.1,1.2,0.3,1.9c0.4,1.6,0.8,3.7,1.1,6.4c0.2,1.1,0.3,1.9,0.4,2.4s0.3,1.2,0.5,2
				c0.2,0.8,0.5,1.6,0.7,2.4c0.5,2,0.7,3.6,0.7,4.9v1c0,0.8-0.1,1.5-0.4,2c-0.5,1.1-1.3,1.7-2.4,1.7c-0.4,0-0.7-0.1-1.1-0.3
				c-0.4-0.2-0.7-0.4-0.7-0.4c0,0-0.1,0.1-0.1,0.2c0,0.2-0.2,0.5-0.7,0.9c-0.4,0.4-0.8,0.7-1.2,0.9c-0.5,0.2-1,0.3-1.3,0.3
				c-0.4,0-0.8-0.1-1.2-0.4l-0.6-0.4l-0.5,0.5c-0.3,0.3-0.7,0.5-1.1,0.5c-1.1,0-2.5-1-4-2.9l-0.5-0.6l0.1,2c0.2,2.9,0.5,5.2,0.9,6.9
				c0.5,1.7,1.3,3.4,2.5,5.3c1.1,1.6,1.6,2.5,1.6,2.7c0,0-0.1,0.1-0.2,0.2c-0.2,0.1-0.5,0-0.7-0.2c-0.1-0.2-0.2-0.2-0.3-0.1
				c-0.1,0.1-0.1,0.2-0.2,0.6v0.1c-0.3,1.1-0.6,1.7-0.9,1.7h-0.1c-0.1,0-0.2,0-0.2-0.1c0-0.2,0.1-0.7,0.4-1.5l0.4-1.4l-0.8-1.1
				c-1.1-1.7-2-3.4-2.5-5.2c-0.5-1.8-0.8-4.1-0.9-7l-0.1-3.7l-0.7-1.5c-0.5-1.3-0.8-2.4-0.8-3.4c0-1.3,0.5-2.2,1.5-2.5
				c0.3-0.2,0.6-0.2,0.8-0.2c0.2,0,0.5,0.1,1,0.2c0.7,0.2,1,0.3,1.1,0.3c0,0,0.1-0.1,0.1-0.4c0-0.5,0.2-1.1,0.5-1.7
				c0.4-0.6,0.8-1,1.2-1.3c0.3-0.2,0.7-0.2,1.2-0.2c0.7,0,1.2,0.1,1.7,0.4l0.5,0.4l0.3-0.7c0.6-1.4,1.6-2.1,3.1-2.1
				c0.5,0,0.9,0.1,1.2,0.2c0.4,0.1,0.7,0.1,0.7,0c0-0.4-0.1-1.4-0.4-3c-0.3-1.6-0.5-2.7-0.7-3.2c-0.4-1.5-0.7-2.6-0.7-3.2
				c0-0.4,0.1-0.8,0.2-1.1C68.5,16.1,69.2,15.3,70.1,14.9z M59.1,34c-0.4-0.2-0.9-0.4-1.4-0.4c-0.9,0-1.5,0.3-1.8,0.8
				c-0.2,0.3-0.2,0.6-0.2,0.9c0,1,0.5,2.5,1.6,4.3c1.7,3.2,3.2,4.7,4.3,4.7c0.2,0,0.5-0.1,0.7-0.3c0.2-0.2,0.2-0.4,0.2-0.8
				c0-0.7-0.2-1.9-0.6-3.6C61.2,36.6,60.3,34.7,59.1,34z M63.8,31c-0.4-0.3-0.9-0.5-1.6-0.5c-0.2,0-0.4,0-0.7,0.1
				c-0.4,0.2-0.8,0.6-1.1,1.1c-0.4,0.6-0.5,1-0.5,1.5c0,0.2,0.2,0.6,0.7,1.1c0.5,0.6,1.2,2.2,2,4.9c0.3,1,0.4,1.9,0.5,2.5
				c0,0.8,0.3,1.4,0.7,1.8c0.4,0.4,0.9,0.7,1.2,0.7c1.6,0,2.4-1,2.4-3.1c0-0.7-0.1-1.6-0.4-2.8C66,34.6,64.9,32.2,63.8,31z M71,46.1
				c0.6-0.1,0.9-0.1,0.9,0c0,0.1-0.5,0.3-1.4,0.8c-0.9,0.5-1.7,0.8-2.3,1c-1,0.4-2.2,0.5-3.6,0.5c-1.1,0-1.7-0.1-1.7-0.4
				c0-0.2,0.4-0.2,1.2-0.2c1.7,0,3.4-0.3,5-0.9c0.2-0.1,0.5-0.2,1-0.4C70.6,46.2,70.9,46.1,71,46.1z M68.6,28.5
				c-0.4-0.2-0.9-0.2-1.4-0.1c-0.6,0.2-1.3,0.8-2,1.8l-0.4,0.5l0.5,1c0.3,0.6,0.8,1.8,1.3,3.5c0.6,1.7,1,3,1.2,3.9
				c0.2,1.2,0.3,1.9,0.3,2.1c0,0.4,0,0.6,0.1,0.7c0.1,0.1,0.3,0.2,0.7,0.4c0.4,0.2,0.7,0.2,1,0.2c0.4,0,0.8-0.2,1.1-0.5
				c0.5-0.7,0.8-1.8,0.8-3.4c0-1.1-0.2-2.4-0.5-3.9c-0.5-2.1-1-3.6-1.3-4.5C69.7,29.3,69.2,28.7,68.6,28.5z M73.7,46.5
				c0.8-0.4,1.1-0.4,1.1-0.1c0,0.1-0.2,0.3-0.7,0.5c-0.8,0.5-1.6,1.2-2.3,2.3c-0.8,1-1.3,2.1-1.5,3.1c-0.2,0.8-0.4,1.1-0.6,1.1
				c-0.1,0-0.2-0.3-0.1-0.9c0.1-1,0.5-2.2,1.4-3.4C71.8,47.9,72.8,47,73.7,46.5z"/>
			<path class="st0" d="M98.3,15.4c0.5-0.4,1-0.7,1.4-0.7c0.8,0,1.5,0.6,2.1,1.9c0.6,1.3,1,3,1.2,5.2l0.2,2l0.4-0.8
				c0.7-1.5,1.6-2.3,2.6-2.3c0.2,0,0.4,0,0.7,0.1c1.4,0.3,2.3,0.9,2.8,1.8l0.5,0.8l0.5-0.5c0.6-0.7,1.5-1.1,2.6-1.1
				c1.2,0,2.2,0.5,2.9,1.5c0.3,0.4,0.5,0.6,0.6,0.7c0.1,0.1,0.3,0,0.4-0.2c0.3-0.4,0.9-0.6,1.8-0.6c0.1,0,0.2,0,0.2,0
				c0.1,0,0.2,0,0.2,0c1.1,0.2,2,0.8,2.6,1.8c0.5,1,0.8,2,0.8,3c0,0.1,0,0.2,0,0.3c0,0.1,0,0.2,0,0.2c0,0.4,0.2,0.8,0.7,1.1
				c2.3,1.3,3.4,3.9,3.4,7.8c0,2.7-0.7,4.8-2.1,6.6c-0.5,0.6-1.3,1.4-2.5,2.6c-1.2,1.1-2,1.9-2.6,2.3c-0.6,0.5-1,0.9-1,1.4
				c0,0.1,0.1,0.5,0.2,1.2c0.1,0.5,0.2,0.9,0.2,1.1c0,0.2-0.1,0.4-0.2,0.4c-0.1,0-0.2,0-0.2-0.1c-0.2-0.1-0.3-0.4-0.5-0.8
				c-0.2-0.5-0.3-0.8-0.3-1.1c0-0.4-0.1-0.7-0.2-0.8c-0.1-0.1-0.4,0-0.9,0.2c-0.4,0.2-0.7,0.2-1,0.2c-0.2,0-0.3-0.1-0.3-0.2
				c0-0.3,0.5-0.7,1.4-1.1c1.7-0.9,3.4-2.2,5.1-4c1.6-1.7,2.6-3,3.1-4.1c0.5-1,0.7-2.4,0.7-4.1c0-2.9-0.8-5-2.4-6.2
				c-0.7-0.5-1.6-1-2.7-1.5c-1.5-0.7-2.4-1.2-2.8-1.4c-0.6-0.4-1.1-0.7-1.5-0.7c-0.3,0-0.6,0.2-1,0.5c-0.3,0.3-0.4,0.8-0.4,1.5
				c0.2,1.6,0.8,2.9,1.9,3.8c0.6,0.6,1.2,0.9,1.7,1.1c0.9,0.4,1,0.7,0.2,0.9c-0.1,0-0.4,0.1-0.7,0.3c-0.4,0.2-0.6,0.3-0.8,0.4
				c-0.9,0.4-1.7,1-2.5,2c-0.8,0.9-1.3,1.8-1.5,2.7c-0.1,0.3-0.2,0.5-0.3,0.5c-0.2,0-0.2-0.4-0.1-1.1c0-0.7,0.3-1.4,0.7-2
				c0.4-0.8,0.4-1.1,0.1-1.2c-0.4,0-1-0.3-1.6-0.8c-0.6-0.5-1.1-1.1-1.3-1.6c-0.2-0.5-0.5-0.5-1,0c-0.7,0.7-1.4,1-2.3,1
				c-0.3,0-0.6-0.1-1-0.2c-0.8-0.4-1.6-1.4-2.3-3c-0.7-1.6-1.1-3.3-1.3-5.3c-0.1-0.7-0.2-1.5-0.4-2.4c-0.2-0.9-0.4-1.7-0.5-2.4
				c-0.5-2.9-1-4.7-1.4-5.5c-0.4-0.6-0.9-0.9-1.4-0.9c-0.5,0-0.9,0.3-1.1,1C98,17.1,98,17.6,98,18.4c0,1.1,0.1,2.4,0.4,4
				c0.6,4,1,7.4,1.2,10.1c0.4,4.5,1,8.2,2,11.2c0.9,3,2.3,4.9,4.2,5.8c0.6,0.2,0.9,0.5,0.9,0.7c0,0.2-0.2,0.2-0.7,0.2h-0.7l-0.2,1.5
				c-0.2,1.3-0.4,1.9-0.7,1.9h-0.1c0,0-0.1-0.1-0.1-0.1c-0.2-0.1-0.2-0.2-0.2-0.4c0-0.4,0.1-1.2,0.3-2.4c0-0.1,0-0.2,0-0.3
				c0-0.1,0-0.2,0-0.2c0-0.2-0.4-0.7-1.1-1.4c-2.5-2.5-4.1-8.5-4.9-17.9c-0.3-3.5-0.6-5.9-0.8-7.2c-0.4-2.7-0.6-4.4-0.6-5.3
				C97.1,17.2,97.5,16.1,98.3,15.4z M107.5,36.6c0.2,0,0.5-0.1,1-0.1c1.7,0,2.6,0.2,2.7,0.6c0,0.1,0,0.1-0.2,0.2c-0.2,0-0.6,0-1.1,0
				c-0.1,0-0.3,0-0.5,0c-0.2,0-0.4,0-0.5,0c-1.5,0-2.9,0.2-4.2,0.6c-0.8,0.3-1.1,0.4-1.1,0.2c0-0.2,0.5-0.4,1.5-0.8
				C106,37,106.9,36.7,107.5,36.6z M107.9,22.1c-0.6-0.3-1-0.4-1.5-0.4c-0.6,0-1.2,0.2-1.6,0.7c-0.7,0.8-1,2.1-1,4
				c0,2.3,0.4,4.2,1.2,5.8c0.8,1.5,1.5,2.3,2.4,2.3c0.6,0,1.3-0.4,2.1-1.1l0.6-0.5l-0.3-1.5c-0.2-1.1-0.3-2.5-0.3-4.3
				c0-1,0-1.8,0.1-2.3v-0.7c0-0.4-0.2-0.8-0.5-1.1C108.7,22.6,108.3,22.3,107.9,22.1z M114.7,23c-0.5-0.3-1-0.4-1.6-0.4
				c-0.6,0-1,0.2-1.4,0.5c-0.6,0.5-1,1.6-1.1,3.1v0.5c0,2.2,0.2,4.2,0.6,6.1c0.5,2,1.6,3.1,3.3,3.2l0.7,0.1l0.1-1.5v-0.7
				c0-0.6-0.2-1.2-0.5-1.9c-0.6-1.1-0.8-2.3-0.8-3.5c0-0.3,0-0.5,0.1-0.6c0.1-0.4,0.3-0.9,0.7-1.2c0.4-0.4,0.7-0.6,1.1-0.6h0.5
				l-0.2-0.9C115.9,24.1,115.4,23.4,114.7,23z M117.2,34.4c-0.1-0.2-0.3-0.3-0.6-0.5l-0.6-0.4v0.8c0,0.6,0,0.8,0.1,0.8
				c0.2,0,0.4-0.1,0.7-0.3C117.1,34.7,117.2,34.5,117.2,34.4z M121.5,27.3c-0.1-2-1-3-2.7-3.2h-0.4c-0.4,0-0.6,0.1-0.8,0.2
				c-0.2,0.1-0.4,0.4-0.6,0.8c-0.1,0.2-0.2,0.5-0.2,0.7c0,0.4,0.4,0.8,1.1,1.2c1.6,1,2.8,1.5,3.4,1.5
				C121.5,28.6,121.6,28.2,121.5,27.3z"/>
			<path class="st0" d="M152.4,57.8l-0.9,0.9c-0.6,0.6-1,1-1.2,1c-0.1,0-0.2-0.1-0.2-0.2c0-0.2,0.7-1.2,2.2-3.1
				c0.6-0.7,1.2-1.9,1.9-3.6c1.1-2.7,1.8-4.3,2-5c0.2-0.7,0.4-1.4,0.4-2c0-0.9-0.2-1.6-0.6-2.2c-0.4-0.5-1.3-1.3-2.6-2.2
				c-2-1.3-3.3-2.5-4.1-3.4c-1-1.2-1.9-1.8-2.6-1.8c-0.4,0-0.7,0.1-0.9,0.3c-0.2,0.2-0.3,0.5-0.4,1c0,0.1-0.1,0.3-0.1,0.6
				c0,1.8,1,4,3.1,6.5c0.2,0.2,0.4,0.3,0.7,0.2c0.3-0.1,0.5-0.1,0.6,0c0.1,0.1-0.2,0.5-0.9,1.2c-1.6,1.7-2.4,3.6-2.4,5.8v0.7
				c0,0.7,0,1-0.1,1.1c-0.1,0-0.2-0.1-0.4-0.5c-0.2-0.5-0.3-1.1-0.3-1.8c0-0.6,0.1-1.2,0.2-1.7c0.3-1.3,0.9-2.4,1.7-3.3
				c0.5-0.6,0.7-0.9,0.7-0.9c0,0-0.2-0.3-0.7-0.7c-0.7-0.7-1.4-1.6-2.1-2.8c-0.7-1.2-1.1-2.3-1.1-3.4c0-0.6,0.1-1.1,0.3-1.5
				c0.4-0.9,1.1-1.4,2.3-1.5h0.3c0.8,0,1.6,0.6,2.6,1.8c0.7,0.9,1.6,1.7,2.7,2.5c1.1,0.8,1.7,1.1,1.8,1.1c0,0,0.1-3.3,0.2-9.9
				c0-1.5,0-3.1,0-4.7c0-1.7,0-2.7,0-3c0-1.5-0.1-2.4-0.2-2.7c-0.3-0.6-0.7-0.8-1.1-0.8c-0.4,0-0.9,0.2-1.5,0.7l-0.7,0.5l-0.2,3.9
				c-0.2,2.6-0.3,4.7-0.5,6.5c-0.1,0.6-0.1,1.3-0.1,2.1c0,0.4,0,0.6,0.1,0.6l0.2,0.1c0.1,0.1,0.3,0.2,0.4,0.3
				c0.2,0.1,0.3,0.2,0.5,0.3c0.6,0.4,1,0.8,1,1c0,0.3-0.1,0.4-0.3,0.4c-0.2,0-1-0.3-2.5-0.8c-2.2-0.8-4-1.2-5.5-1.2
				c-1.8,0-3.9,0.6-6.4,1.7c-0.5,0.3-0.9,0.4-1,0.4c-0.1,0-0.1,0-0.1-0.1c0-0.2,0.2-0.4,0.7-0.8c0.4-0.4,0.9-0.7,1.2-0.9
				c0.6-0.3,0.8-0.7,0.8-1.1c-0.3-1.9-0.5-4-0.5-6.4c0-1.6-0.1-2.6-0.3-2.9c-0.1-0.3-0.5-0.5-1-0.5c-0.7,0-1.2,0.5-1.7,1.4
				c-0.6,1.2-1.1,4.5-1.5,9.7c-0.2,2.8-0.3,4.8-0.4,6c-0.1,1.1-0.1,1.9-0.1,2.4c0,4.8,1.7,9.5,5,14.1c0.6,0.8,0.9,1.3,0.8,1.5
				c-0.1,0.1-0.4-0.1-1.1-0.5l-0.1,1.1c-0.1,1.2-0.3,1.8-0.6,1.8c-0.2,0-0.2-0.2-0.2-0.7c0-0.4,0-0.8,0.1-1.2l0.1-1.9l-0.9-1.1
				c-1.6-2.1-2.8-4.9-3.6-8.4c-0.2-0.9-0.4-2.5-0.4-4.6c0-1.9,0.1-4.4,0.4-7.5c0.1-0.8,0.2-1.9,0.3-3.4c0.1-1.5,0.2-2.5,0.3-2.8
				c0.2-1.8,0.3-2.9,0.5-3.4c0.5-1.4,1.1-2.4,1.8-3c0.4-0.3,0.8-0.4,1.3-0.4c0.3,0,0.6,0.1,0.7,0.2c0.2,0.2,0.3,0.2,0.4,0.2
				c0.2,0,0.3-0.5,0.4-1.6c0.1-1.7,0.5-3.1,1.1-4.1c0.6-1,1.4-1.5,2.3-1.5c0.7,0,1.3,0.5,1.8,1.5l0.4,0.8l0.5-0.9
				c0.7-1.4,1.7-2.1,3-2.1c0.1,0,0.4,0,0.8,0.1c1.3,0.3,2,1.5,2.3,3.5c0.1,0.6,0.1,0.8,0.2,0.8l0.1-0.1c0,0,0.1-0.1,0.2-0.2
				c0.1-0.1,0.2-0.1,0.3-0.2c0.2-0.2,0.7-0.3,1.4-0.4c0.7,0,1.1,0.1,1.4,0.4c0.4,0.4,0.6,0.9,0.8,1.5c0.2,0.7,0.4,2.3,0.4,4.9
				c0,0.4,0,3.7-0.1,9.9l-0.1,6.2l0.7,0.7c1,1,1.5,2.1,1.5,3.3c0,1.1-0.5,2.9-1.5,5.4c-1,2.4-1.8,4.1-2.4,5
				c-0.2,0.3-0.4,1.3-0.4,2.9c0,1.6-0.1,2.4-0.2,2.6c0,0-0.1,0-0.1-0.1c-0.1-0.1-0.1-0.2-0.3-0.4c-0.2-0.3-0.3-0.9-0.3-1.8
				C152.5,58.3,152.4,57.8,152.4,57.8z M137.5,44.2c0.1-0.1,0.4-0.1,1.1,0.2c0.5,0.2,1.4,0.3,2.7,0.3c0.5,0,1.1,0,1.9,0
				c0.8,0,1.3,0,1.5,0c0.5,0,0.8,0,0.8,0.1c0,0.4-1.5,0.6-4.6,0.6c-1,0-1.8-0.1-2.2-0.2c-0.4-0.2-0.7-0.3-0.9-0.5
				C137.6,44.5,137.5,44.3,137.5,44.2z M139.9,33.5c2.1-0.4,3.2-0.7,3.3-0.7h0.7v-6.8c0-3.7-0.1-6-0.1-6.9c-0.1-0.9-0.4-1.6-0.8-2
				c-0.3-0.3-0.6-0.5-0.9-0.5c-0.4,0-0.9,0.4-1.4,1.3c-0.7,1.3-1,3.7-1,7.1c0,1.6,0,2.8,0.1,3.8c0,0.7,0.1,1.5,0.1,2.2
				c0,0.8,0.1,1.4,0.1,1.8L139.9,33.5z M149.9,17.9c-0.3-1.2-0.9-1.8-1.8-1.8c-0.9,0-1.7,0.4-2.4,1.3c-0.4,0.6-0.7,1.2-0.8,1.8
				c-0.1,0.6-0.2,2.3-0.2,5.1V27c0,1.9,0,3.3,0.1,4.3l0.2,1.5h0.7c0.4,0,1.5,0.2,3.4,0.7h0.1c0.2,0,0.3-0.6,0.3-1.8
				c0-1,0.1-2.6,0.4-4.9c0.2-2.1,0.3-4.1,0.3-5.9C150.1,19.5,150,18.5,149.9,17.9z"/>
			<path class="st0" d="M174.9,17.1c0.2-0.5,0.5-0.9,0.9-1.2c0.4-0.4,0.9-0.5,1.4-0.5c0.5,0,0.9,0.1,1.2,0.4c0.9,0.7,1.4,1.7,1.4,3
				c0,0.2,0,0.8-0.1,1.5c-0.1,0.9-0.1,1.4-0.1,1.5c0,0.4,0.1,0.9,0.4,1.4c0.3,0.7,1,3.1,2,7.2c1.1,4.2,1.7,6.4,1.8,6.7
				c0.4,1.4,0.8,2.2,1.2,2.4c0.3,0.2,0.9,0.7,1.6,1.4c1.7,1.7,2.6,3.8,2.6,6.1c0,0.3,0,0.7-0.1,1.4c-0.2,1.1-0.6,2.5-1.3,4.2
				c-0.7,1.6-1.4,2.9-2.1,3.9c-0.4,0.6-0.6,1-0.6,1.4v0.5c0,0.8,0.1,1.3,0.4,1.7c0.4,0.7,0.5,1.1,0.1,1.1c-0.3,0-0.6-0.3-0.9-0.8
				c-0.3-0.5-0.4-1-0.4-1.5c0-0.3,0-0.5,0-0.5c0,0-0.1,0-0.3,0.1c-0.4,0.3-0.9,0.6-1.5,0.8c-0.7,0.3-1.1,0.4-1.3,0.4h-0.1
				c-0.6-0.1-0.4-0.5,0.6-1.1c1.6-1,3.2-2.7,4.6-4.9c1.5-2.2,2.2-4.4,2.2-6.6c0-1.2-0.3-2.4-0.8-3.4c-0.3-0.6-0.9-1.3-1.7-2.3
				c-0.9-0.9-1.4-1.4-1.7-1.4c-0.2,0-0.4-0.1-0.5-0.2c-0.2-0.4-1-0.7-2.4-0.9c-1.4-0.3-2.2-0.5-2.4-0.5c-0.5-0.2-0.9-0.2-1.4-0.2
				c-0.4,0-0.8,0.1-0.9,0.3c-0.3,0.4-0.4,0.7-0.4,1.1c0,0.7,0.3,1.4,1,2.1c1.1,1,2.1,1.5,3,1.5h0.1c0.2-0.1,0.4,0,0.5,0.1
				c0.1,0.2,0.2,0.5,0.2,1c0,0.4,0.1,0.7,0.2,1c0.1,0.3,0.2,0.4,0.3,0.5c0.1,0,0.3,0,0.7-0.1c0.1,0,0.2,0,0.2,0c0.1,0,0.1,0,0.2,0
				c0.2,0,0.4,0.1,0.4,0.2c0,0.2-0.5,0.5-1.5,1c-1.5,0.8-2.4,1.6-2.6,2.4c-0.1,0.4-0.2,0.5-0.4,0.5c-0.2,0-0.2-0.2-0.2-0.7
				c0.2-1,0.8-1.8,1.8-2.4c0.5-0.3,0.7-0.6,0.7-0.8c0,0-0.1-0.4-0.4-1.1c-0.1-0.5-0.4-0.8-0.8-1l-2.1-0.9l-0.1,0.1
				c-0.1,0.1-0.1,0.2-0.2,0.3s-0.1,0.2-0.2,0.4c-0.5,1-1.2,1.5-2.2,1.5c-0.2,0-0.6-0.1-1.2-0.3c-0.4-0.1-0.6-0.2-0.7-0.1
				c-0.1,0-0.3,0.1-0.6,0.4c-0.7,0.6-1.4,0.8-2.1,0.8c-1,0-2-0.5-3-1.5c-0.4-0.4-0.6-0.5-0.7-0.5c-0.1,0-0.1,0.8-0.1,2.4
				c0,2.7,0.1,4.3,0.2,4.9c0.6,2,1.2,3.5,1.9,4.5c0.9,1.3,1.4,2,1.4,2.2c0,0.1,0,0.1-0.1,0.1c-0.2,0-0.3-0.1-0.4-0.2h-0.1
				c-0.1,0-0.2,0.3-0.4,0.8c-0.2,0.5-0.4,1.1-0.7,1.8c-0.2,0.6-0.5,1-0.7,1.1c0,0-0.1,0.1-0.1,0.1c-0.1,0-0.1-0.1-0.1-0.2
				c0-0.3,0.1-0.7,0.3-1.4c0.2-0.6,0.4-1.2,0.7-1.7l0.3-0.8c0.2-0.3,0-0.8-0.6-1.4c-1.9-2.5-2.8-5.4-2.8-8.9c0-1.1,0.1-2.1,0.2-2.9
				l0.3-1.5l-0.5-0.8c-0.7-1.3-1.1-3-1.1-5.1c0-1.7,0.4-2.9,1.1-3.4c0.2-0.2,0.6-0.3,1.1-0.3c0.4,0,0.8,0.1,1,0.2
				c0.4,0.3,0.7,0.1,0.7-0.5c0-1,0.4-1.8,1.2-2.3c0.4-0.2,0.8-0.4,1.2-0.4c0.8,0,1.5,0.3,2.3,0.9c0.2,0.2,0.3,0.1,0.4-0.1
				c0-0.1,0.1-0.5,0.1-1c0.1-1,0.3-2,0.5-3.1c0.2-0.9,0.3-1.4,0.3-1.6c0-0.2-0.1-0.4-0.2-0.6c-0.9-1.7-1.4-3.4-1.4-5
				c0-1.4,0.6-2.1,1.7-2.1C174.4,17.5,174.7,17.4,174.9,17.1z M167.2,34.1c-0.6-0.2-0.9-0.2-1-0.2c-0.7,0-1.1,0.9-1.1,2.8v0.8
				c0,1.7,0.3,3.1,0.9,4.3c0.5,1.1,1.2,1.9,1.9,2.6c0.8,0.6,1.5,0.9,2.2,0.9c0.5,0,0.9-0.2,1.4-0.5c0.5-0.4,0.5-0.7,0.1-1.1
				c-0.5-0.5-1.1-1.7-1.7-3.6c-0.3-0.9-0.7-1.9-1.1-3c-0.4-1-0.7-1.7-0.7-2C167.9,34.5,167.6,34.3,167.2,34.1z M171.1,31.3
				c-0.2-0.1-0.6-0.2-1.1-0.2c-0.4,0-0.8,0.2-1.1,0.5c-0.3,0.4-0.5,0.9-0.5,1.5c0,1,0.5,2.5,1.4,4.6c0.1,0.3,0.4,1,0.9,2.3
				c0.5,1.2,0.9,2.2,1.3,2.7c0.4,0.6,0.9,1,1.6,1.3c0.3,0.2,0.7,0.2,1,0.2c0.4,0,0.9-0.2,1.4-0.7c0.6-0.6,0.7-1.1,0.2-1.5
				c-0.1,0-0.3-0.4-0.8-1c-0.3-0.4-0.5-1-0.5-1.7c0-0.5,0.1-0.9,0.3-1.3c0.2-0.5,0.2-1,0-1.5c-0.3-1-0.9-2.1-1.8-3.2
				C172.5,32.2,171.7,31.5,171.1,31.3z M173.2,47.1c1-0.2,1.5-0.1,1.5,0.1c0,0.1-0.5,0.2-1.5,0.5c-1.1,0.2-1.9,0.5-2.4,0.8
				c-0.4,0.2-0.7,0.4-0.8,0.4c-0.1,0-0.1,0-0.1-0.1c0-0.1,0.3-0.4,1-0.8C171.4,47.6,172.3,47.3,173.2,47.1z M176.3,19.2
				c-0.8-0.6-1.5-0.8-2.2-0.8c-0.2,0-0.4,0-0.5,0.1c-0.3,0.2-0.4,0.5-0.5,0.9v0.3c0,1.5,0.9,4,2.7,7.5c1.3,2.5,2,4.5,2.2,5.9
				c0.1,0.6,0.3,1.1,0.8,1.5c0.4,0.4,0.5,0.6,0.4,0.7c-0.2,0.2-0.4,0.1-0.7-0.1c-0.7-0.5-1.5-0.7-2.4-0.7c-0.5,0-0.7,0-0.7,0.1
				l0.1,0.2c0,0.1,0,0.3,0.1,0.6c0.1,0.3,0.2,0.5,0.2,0.7l0.2,0.9l0.7-0.1c0.3,0,0.9,0.1,1.6,0.3c0.5,0.2,1.3,0.5,2.6,0.8
				c1.2,0.3,2,0.5,2.2,0.5c0,0,0.1-0.1,0.1-0.2c0-0.3-0.1-0.9-0.4-1.8c-0.1-0.4-0.6-2.2-1.4-5.4c-1.1-4.9-1.9-7.8-2.4-8.8
				C178.3,21.1,177.4,20,176.3,19.2z M175.7,28.9c-0.9-1.7-1.3-2.6-1.4-2.6c-0.1,0-0.2,1-0.5,2.9c-0.1,1.1-0.2,1.8-0.2,2.2
				c0,0.5,0.2,1.1,0.6,1.7l0.5,0.9l1.3-0.1c0.9-0.1,1.4-0.2,1.4-0.2C177.5,32.9,176.9,31.3,175.7,28.9z M178.9,17.7
				c-0.1-0.4-0.3-0.8-0.7-1.1c-0.4-0.3-0.8-0.5-1.3-0.5c-0.4,0-0.7,0.2-1.1,0.5c-0.4,0.4-0.5,0.6-0.5,0.8c0,0.3,0.2,0.5,0.5,0.6
				c0.3,0.1,0.9,0.6,1.7,1.4c0.7,0.7,1.1,1,1.2,0.9c0.2-0.2,0.3-0.9,0.3-2.1c0-0.1,0-0.2,0-0.3C179,17.8,178.9,17.7,178.9,17.7z"/>
			<path class="st0" d="M221.8,26.6c0.4-0.2,0.8-0.2,1.3-0.2c0.9,0,1.6,0.3,2.1,0.9c0.3,0.4,0.4,0.7,0.4,1c0,0.6-0.4,1.4-1.1,2.5
				c-2.3,3.5-3.5,8.3-3.7,14.4c-0.1,2-0.1,3.2-0.2,3.6c0,0.4-0.2,0.9-0.4,1.3c-0.3,0.7-0.9,1.5-1.7,2.5c-1.2,1.5-2,2.7-2.5,3.6
				c-0.4,0.9-0.7,2-1,3.5c-0.2,1.3-0.4,1.9-0.7,1.9l-0.2-0.1c-0.1-0.1-0.2-0.4-0.2-1c0-1.3,0.1-2.4,0.4-3.1c0.2-0.5,0.3-0.8,0.2-0.9
				c0-0.1-0.3,0-0.7,0.2c-0.5,0.3-0.8,0.3-0.8,0.2c0-0.1,0.1-0.2,0.4-0.5c0.8-0.6,1.9-1.7,3.1-3.2c1.5-1.8,2.3-3.1,2.6-3.8
				c0.3-0.7,0.4-2.1,0.4-4.1c0-5.9,1.3-10.9,3.9-15c0.5-0.7,0.7-1.2,0.6-1.6c-0.2-0.9-0.6-1.4-1.1-1.4c-0.2,0-0.7,0.1-1.3,0.4
				c-1.1,0.6-2.1,1.5-3,2.7c-0.7,1-1,1.9-1,2.7c0,0.2,0,0.6,0.1,1.3c0.1,0.8,0.1,1.4,0.1,1.8c0,2.6-0.5,4.4-1.5,5.3
				c-0.6,0.5-1.2,0.7-2,0.7c-0.6,0-1.1-0.2-1.7-0.5l-0.5-0.4l-0.7,0.4c-0.6,0.4-1.1,0.5-1.7,0.5c-0.3,0-0.7-0.1-1.1-0.3l-0.7-0.4
				l-0.6,0.5c-0.6,0.6-1.4,0.8-2.4,0.8h-0.6c-0.8,0-1.3,0-1.7,0.2c-0.5,0.2-0.9,0.4-1.3,0.4c-0.5,0-1-0.2-1.3-0.5
				c-0.6-0.6-1-2-1.4-4.2c-0.2-1.1-0.3-1.8-0.3-2.1c0-0.1,0-0.2,0.1-0.2c0.2,0,0.5,1,1,3c0.3,1.3,0.6,2.2,0.9,2.6
				c0.3,0.4,0.6,0.6,1.2,0.6c1,0,1.5-1.5,1.5-4.5c0-4-0.7-6-2.2-6c-0.6,0-1.2,0.4-1.9,1.1c-1.1,1.1-1.9,2.7-2.4,4.8
				c-0.2,0.8-0.3,2-0.3,3.6c0,4.1,0.5,7.2,1.4,9.3c0.4,0.9,0.9,1.7,1.5,2.6c0.2,0.2,0.4,0.5,0.6,0.9c0.2,0.4,0.4,0.7,0.6,0.9
				c0.2,0.3,0.3,0.4,0.4,0.6c0.4,0.6,0.7,1,1,1.2c0.6,0.4,0.8,0.7,0.5,0.7l-0.5-0.1c-0.1,0-0.2,0-0.2,0.2c0,0.2-0.1,0.6-0.1,1.4
				c0,1-0.1,1.6-0.2,1.8c-0.1,0.1-0.2,0.1-0.2,0.1c-0.2,0-0.4-0.7-0.5-2c-0.1-0.9-0.2-1.7-0.4-2.2c-0.2-0.5-0.7-1.3-1.5-2.3
				c-1-1.3-1.7-2.5-2-3.4c-0.3-0.9-0.7-2.3-1-4.4c-0.3-2.1-0.4-3.8-0.4-5c0-4,0.9-7,2.8-9.1c1-1.1,2-1.7,3-1.7h0.3h0.4
				c0.4,0,0.8-0.3,1.4-0.9c0.8-0.9,1.5-1.3,2.3-1.3c0.4,0,0.9,0.2,1.5,0.5c0.3,0.2,0.6,0.1,1.1-0.3c0.9-0.8,1.7-1.2,2.4-1.2
				c0.4,0,0.7,0.1,1.1,0.4c0.2,0.2,0.4,0.3,0.5,0.3c0.1,0,0.3-0.1,0.5-0.3c0.3-0.2,0.8-0.4,1.4-0.5h0.2c1,0,1.9,0.8,2.5,2.3l0.6,1.1
				l0.5-1.1C218.8,28.4,220.1,27.2,221.8,26.6z M209.5,44.8c0.9-0.5,1.4-0.6,1.4-0.4c0,0.2-0.5,0.6-1.5,1.1c-1,0.5-1.9,0.8-2.8,1
				c-1.3,0.3-2.5,0.4-3.4,0.4c-0.4,0-0.7,0-0.7-0.1v-0.1c0,0-0.1-0.1-0.1-0.1c0-0.2,0.6-0.3,1.8-0.4
				C206.1,46.1,207.9,45.6,209.5,44.8z M206.7,30.5c-0.4-0.3-0.8-0.5-1.1-0.5c-0.6,0-1.3,0.4-2.1,1.1l-0.7,0.7l0.4,0.7
				c0.5,0.8,0.8,1.5,1,2.1c0.1,0.6,0.2,1.8,0.2,3.4c0,1.9,0,3-0.1,3.3l-0.1,0.6l0.8-0.1c1.1-0.1,1.9-0.5,2.3-1.3
				c0.5-0.8,0.7-2.1,0.7-4.1v-1.2c0-1.5-0.1-2.6-0.3-3.2C207.6,31.4,207.2,30.9,206.7,30.5z M211.3,29.5c-0.3-0.2-0.6-0.4-0.9-0.4
				c-0.3,0-0.9,0.2-1.6,0.5l-1.1,0.5l0.5,1c0.2,0.4,0.5,1.1,0.7,2c0.2,1,0.2,2.5,0.2,4.3c0,1.1,0,1.9-0.1,2.4c0,0,0,0.1,0,0.2
				c0,0.1,0,0.2,0,0.2c0,0.8,0.4,1.1,1.1,1.1c0.7,0,1.3-0.3,1.7-1c0.6-0.8,0.9-2.4,0.9-4.6v-1C212.6,31.9,212.2,30.2,211.3,29.5z
				 M209.5,51.8c0-1.7,0.3-3.3,0.8-4.7c0.5-1.4,1.3-2.4,2.2-2.8c0.4-0.2,0.7-0.3,0.8-0.3c0.1,0,0.1,0,0.1,0.1c0,0.2-0.3,0.5-0.8,1
				c-1.4,1.5-2.2,3.7-2.4,6.6c-0.1,1.1-0.2,1.6-0.4,1.7c-0.2,0-0.2,0-0.3-0.2C209.5,53.1,209.5,52.6,209.5,51.8z M212.6,29.2
				l0.4,0.9c0.3,0.6,0.5,1.3,0.7,2.1c0.1,0.4,0.1,1.2,0.1,2.4c0,2.5-0.1,4.1-0.4,4.9c-0.2,0.6-0.2,1-0.1,1.2
				c0.3,0.3,0.7,0.5,1.1,0.5c0.6,0,1.1-0.2,1.5-0.7c0.6-0.6,1-2.1,1-4.5c0-1.4-0.1-2.6-0.3-3.5c-0.5-2.4-1.4-3.6-2.7-3.6
				C213.4,28.9,212.9,29,212.6,29.2z"/>
			<path class="st0" d="M248,27.6c0.5-0.5,1.2-0.8,2.1-0.8c1.3,0,2.5,0.5,3.6,1.4c1.3,1.2,2,2.8,2,4.7c0,0.1,0,0.2,0,0.3
				c0,0.1,0,0.2,0,0.3c0,0.1,0,0.2,0,0.2c0,0.1,0,0.1,0,0.2c0,0.2,0.3,0.7,1,1.4c1.2,1.1,2.1,2.7,2.6,4.5c0.4,1.7,0.7,4,0.7,6.9v0.9
				c-0.1,2.2-0.8,4.4-2.1,6.6c-0.4,0.7-0.6,1.2-0.7,1.5c-0.1,0.3-0.1,0.7-0.1,1.4c0,1.2,0.1,2.2,0.2,3c0.1,0.7,0.2,1.2,0.2,1.6
				c0,0.2,0,0.3-0.1,0.3c0,0-0.1,0.1-0.1,0.1c-0.2,0-0.4-0.4-0.6-1.2c-0.2-0.8-0.3-1.7-0.3-2.6c0-0.6,0-0.9-0.1-0.9l-0.1,0.1
				c-0.4,0.3-0.6,0.2-0.6-0.4c0-0.4,0.7-1.9,2-4.5c0.5-1,0.7-1.6,0.7-1.8c0-0.2,0.1-0.6,0.2-1.4c0.2-0.7,0.3-1.7,0.3-3.2
				c0-4.9-0.9-8.2-2.6-9.8c-0.8-0.8-2.1-1.3-4-1.8c-1.2-0.3-2.3-0.6-3.2-0.9c-0.8-0.3-1.5-0.4-2-0.4c-0.5,0-0.7,0.1-0.8,0.4
				c0,0.1-0.1,0.2-0.1,0.4c0,0.6,0.2,1.2,0.5,1.9c0.4,0.7,0.8,1.2,1.3,1.6c1,0.8,1.8,1.2,2.3,1.2h0.1c0.4,0,0.6,0.2,0.7,0.6
				c0.1,0.4,0.1,0.7,0.1,0.8c0,0.6-0.4,1.7-1.1,3.1c-0.8,1.7-1.1,2.9-1.1,3.7c0,0.5,0.1,1.2,0.3,2.1c0.3,1,0.4,1.6,0.4,1.7
				c0,0.1-0.1,0.2-0.2,0.2c-0.4,0-0.8-0.7-1.3-2c-0.1-0.4-0.2-1.1-0.2-2.3c0-1,0.1-1.7,0.2-2c0-0.2,0-0.3-0.2-0.4
				c-0.2-0.1-0.5-0.3-1.1-0.6l-1.3-0.7c-0.3,0.5-0.7,1-1.1,1.4l-0.6,0.7l0.8-0.1c0.2,0,0.5-0.1,0.8-0.1c0.8,0,1.2,0.2,1.2,0.5
				c0,0.2-0.1,0.3-0.3,0.3c-0.2,0.1-0.9,0.1-2.2,0.3c-2.8,0.3-4.8,1.1-6,2.5c-0.6,0.6-0.9,0.8-1,0.6c-0.2-0.4,0-1,0.5-1.6
				c0.8-0.9,2.1-1.6,4.1-2.1l0.8-0.2l-0.8-0.4c-0.1-0.1-0.2-0.2-0.4-0.3c-0.1-0.1-0.3-0.2-0.4-0.3c-0.1-0.1-0.2-0.1-0.3-0.1
				c-0.2-0.2-0.3-0.2-0.3-0.2c0,0-0.1,0.2-0.3,0.5c-0.4,0.7-0.9,1-1.6,1c-1,0-2.3-0.5-3.7-1.5l-1.2-0.8c0,0.1-0.1,0.2-0.1,0.2
				c0,1.5,0.3,3.3,0.9,5.5c0.7,2.6,2,5.2,3.9,7.7c0.8,1.1,1.2,1.7,1.2,2c0,0.1-0.1,0.2-0.3,0.2c-0.2,0-0.4,0.2-0.4,0.5
				c-0.5,1.9-0.9,2.9-1.1,2.9c-0.2,0-0.4-0.1-0.4-0.2l0.1-0.3c0-0.2,0.1-0.4,0.2-0.7c0.1-0.3,0.2-0.7,0.2-1l0.5-2l-0.8-0.8
				c-2.6-2.8-4.1-7.1-4.3-12.8c0-1.6-0.2-2.7-0.4-3.2c-0.3-0.9-0.5-1.8-0.5-2.7c0-1.1,0.2-2,0.7-2.8c0.4-0.8,1-1.1,1.7-1.1h0.3
				l0.5,0.1v-0.9c0-1.1,0.4-2.1,1.3-2.9c0.9-0.9,1.8-1.3,3-1.3c0.6,0,1.1-0.3,1.4-0.8c0.8-1.1,2.1-1.7,3.7-1.7c0.8,0,1.4,0.2,2,0.5
				l0.8,0.5L248,27.6z M235.5,35.3l-0.8,0.3c-0.5,0.2-0.9,0.5-1.1,0.9c-0.2,0.4-0.3,1-0.3,1.9c0,1.7,0.5,3,1.4,4.1
				c0.5,0.5,1.1,1,1.8,1.4c0.7,0.4,1.2,0.7,1.6,0.7c0.2,0,0.5-0.1,0.9-0.3s0.6-0.4,0.7-0.6c0,0,0.1-0.1,0.1-0.2
				c0-0.2-0.3-0.8-0.9-1.7C237.6,40,236.5,37.8,235.5,35.3z M240.8,34.6c-0.1-0.5-0.2-1.4-0.3-2.7l-0.1-1.8l-0.7,0.2
				c-1,0.3-1.7,0.8-2.4,1.4c-0.6,0.6-0.8,1.3-0.8,2c0,0.9,0.5,2.4,1.5,4.3c1.1,2.2,2,3.7,2.6,4.5c0.6,0.8,1.3,1.2,2.1,1.2
				c0.5,0,1.3-0.4,2.3-1.3l-0.6-0.6c-0.6-0.7-1.3-1.8-2-3.2C241.5,37.1,241,35.8,240.8,34.6z M246.5,28.3c-0.6-0.2-1.1-0.3-1.5-0.3
				c-0.5,0-1.1,0.1-1.8,0.4c-1.1,0.6-1.7,1.6-1.7,3c0,0.2,0,0.7,0.1,1.3c0.3,1.8,0.9,3.7,1.8,5.5c0.7,1.3,1.3,2.2,1.9,2.8
				c0.6,0.6,1.5,1.3,2.8,2.1l0.6,0.4l0.5-1c0.5-1,0.8-1.6,0.8-2c0-0.6-0.6-1.1-1.9-1.8c-0.7-0.4-1.2-0.7-1.6-1.1
				c-0.4-0.4-0.7-0.9-1-1.5c-0.3-0.7-0.5-1.4-0.5-2.1s0.2-1.2,0.6-1.6c0.4-0.4,0.9-0.5,1.4-0.5c0.4,0,0.6,0,0.7,0
				c0.1,0,0.1-0.1,0.1-0.3c-0.1-0.3-0.2-0.8-0.2-1.7l-0.1-1.4L246.5,28.3z M254.7,32.8c0-1.5-0.4-2.8-1.2-3.6
				c-0.8-0.9-1.9-1.3-3.4-1.3c-1.4,0-2.1,0.6-2.1,1.8c0,0.4,0.1,0.9,0.2,1.5c0.1,0.5,0.3,0.9,0.6,1c0.3,0.2,1.3,0.5,3,1
				c0.4,0.1,0.7,0.2,1.2,0.4c0.4,0.1,0.7,0.2,1,0.3c0.2,0.1,0.4,0.1,0.5,0.1c0.2,0.1,0.3,0,0.4-0.2V32.8z"/>
		</g>
		<path class="st0" d="M304.8,28.5c0.6-0.3,1.2-0.5,2-0.5c0.8,0,1.4,0.2,1.7,0.5c1.2,1,1.8,3.6,1.8,8c0,1.6-0.1,3.1-0.2,4.5
			c-0.1,0.6-0.1,1.2-0.1,1.8c0,0.3,0.1,0.5,0.2,0.7c0.4,0.2,0.8,0.5,1.2,1c0.5,0.5,0.8,1,1,1.4c0.4,0.8,0.6,1.7,0.6,2.7
			c0,3-1.9,5.9-5.8,8.9c-0.3,0.3-0.5,0.5-0.6,0.6c-0.1,0.1-0.1,0.4-0.1,0.9c0,0.6,0,1.1,0.1,1.5c0.1,0.4,0,0.6-0.1,0.7h-0.1
			c0,0-0.1,0.1-0.1,0.1c-0.3,0-0.5-0.5-0.7-1.5c-0.1-0.6-0.2-0.9-0.2-0.9c0,0-0.2,0.1-0.4,0.2c-0.8,0.5-1.1,0.6-1.1,0.1
			c0-0.4,1-1.5,3.1-3.2c1.7-1.3,2.8-2.5,3.5-3.4c0.7-0.9,1.1-1.9,1.2-3c0-0.2,0.1-0.5,0.1-1c0-1-0.2-1.9-0.5-2.5
			c-0.4-0.9-1.2-1.6-2.3-2.1c-1.1-0.5-2.2-0.8-3.5-0.8H305c-0.5,0-1.9,0.3-4.1,0.9c-2.2,0.6-3.6,1-4,1.2c-0.3,0.2-0.4,0.5-0.4,0.9
			c0,1.3,1.4,2,4.2,2c1.5,0,2.7,0.5,3.4,1.5c0,0.1,0.2,0.3,0.6,0.7c0.4,0.4,0.7,0.8,1.1,1.2c0.3,0.4,0.5,0.7,0.5,0.7
			c0,0,0,0.1-0.1,0.1c-0.3,0-0.8-0.3-1.5-0.9c-0.7-0.6-1.1-1.1-1.4-1.7c-0.2-0.3-0.5-0.5-0.9-0.7c-0.5-0.1-1.4-0.3-2.8-0.4
			c-1.6-0.2-2.6-0.4-3.1-0.7c-0.9-0.5-1.3-1.1-1.3-1.9c0-0.3,0.1-0.6,0.2-0.9c0.4-0.5,1.6-1,3.6-1.5c0.4-0.1,1-0.3,1.9-0.5
			c0.9-0.2,1.5-0.4,1.8-0.5c1.1-0.3,2.2-0.5,3.3-0.5c0.8,0,1.4,0.1,2,0.2l0.9,0.2v-0.5c0-0.2,0-0.4-0.1-0.4c-0.1,0-0.4,0-0.8,0.1
			c-0.1,0-0.2,0-0.4,0c-0.2,0-0.3,0-0.3,0c-0.6,0-1.1-0.2-1.6-0.7l-0.5-0.4l-0.7,0.5c-0.7,0.6-1.3,0.9-1.8,0.9
			c-0.4,0-0.8-0.1-1.2-0.4l-0.7-0.4l-0.8,0.8c-0.6,0.6-1.1,0.9-1.6,0.9c-0.5,0-1-0.2-1.7-0.7l-0.4,0.7c-0.5,0.8-1.3,1.2-2.4,1.2
			c-1,0-1.7-0.4-2.4-1.1c-0.8-1-1.2-2.5-1.5-4.6c-0.1-0.8,0-1.2,0.1-1.2c0.2,0,0.4,0.4,0.6,1.2c0.2,0.8,0.5,1.7,0.8,2.7
			c0.4,1,0.8,1.6,1.4,1.8c0.4,0.2,0.7,0.2,1.1,0.2c0.9,0,1.4-0.6,1.5-1.7c0-0.2,0.1-0.6,0.1-1c0-1-0.4-2.3-1.1-3.7
			c-0.9-1.9-1.7-3-2.3-3.4c-0.3-0.2-0.7-0.3-1.1-0.3c-1.3,0-2.2,1.1-2.7,3.3c-0.3,1.3-0.4,3.5-0.4,6.5c0,0.9,0,1.9,0.1,2.9
			c0.3,2.7,0.8,4.9,1.7,6.9c0.8,1.9,1.8,3.2,3,3.9c1,0.6,1.1,0.8,0.2,0.8c-0.2,0-0.3,0-0.4,0.1c-0.1,0.1-0.2,0.3-0.2,0.6
			c-0.5,1.8-0.9,2.7-1.1,2.7c-0.1,0-0.1-0.2-0.1-0.5c0-0.6,0.1-1.2,0.2-2l0.2-1.3l-0.7-0.8c-0.6-0.7-1.3-1.9-2-3.4
			c-0.7-1.6-1.1-3.1-1.4-4.5c-0.4-1.9-0.5-4.6-0.5-8.3c0-1.1,0-1.8,0.1-2.1c0.4-3.7,1.8-5.6,4.2-5.6c0.7,0,1-0.1,1.1-0.4
			c0.1-0.3,0.4-0.6,0.8-1c0.5-0.4,0.9-0.7,1.4-0.9c0.6-0.3,1.1-0.4,1.7-0.4c0.3,0,0.7,0.1,1,0.2c0.3,0.1,0.5,0.1,0.6,0.1
			c0.1,0,0.4-0.2,0.7-0.6c1-0.9,2.1-1.4,3.1-1.4c0.6,0,1.1,0.1,1.5,0.4c0.4,0.3,0.6,0.4,0.7,0.4C303.9,29,304.2,28.9,304.8,28.5z
			 M297.2,31.3c-0.5-0.2-0.9-0.4-1.3-0.4c-0.8,0-1.7,0.4-2.5,1.2l-0.8,0.7l0.8,0.8c0.6,0.7,1.3,1.9,2,3.4c0.8,1.6,1.2,2.6,1.2,3.2
			c0,1.4,0.5,2.1,1.6,2.1c0.2,0,0.5-0.2,0.8-0.5c0.3-0.3,0.5-0.7,0.6-1c0-0.2,0.1-0.5,0.1-1c0-1.9-0.2-3.5-0.6-4.9
			C298.5,33,297.9,31.7,297.2,31.3z M302.9,29.6c-0.3-0.3-0.8-0.4-1.4-0.4c-1,0-1.9,0.3-2.6,1l-0.6,0.5l0.4,0.7
			c0.9,1.4,1.6,3.3,2.1,5.7c0.1,0.6,0.2,1.3,0.2,2v0.6c0,0.7,0.1,1.1,0.4,1.4c0.3,0.2,0.6,0.3,0.9,0.3c0.4,0,0.9-0.2,1.2-0.5
			c0.5-0.5,0.8-1.9,0.8-4.3C304.3,32.7,303.8,30.4,302.9,29.6z M301.8,50.7c0.2-0.1,0.3-0.1,0.5-0.2c0.2-0.1,0.3-0.1,0.4-0.1
			s0.2,0,0.2,0.1c0,0.1-0.3,0.3-0.8,0.8c-0.5,0.4-1,1.2-1.5,2.3c-0.5,1.1-0.9,1.7-1.1,1.7c0,0-0.1,0-0.1-0.1c0-0.2,0.2-0.8,0.5-1.8
			C300.6,51.9,301.2,51.1,301.8,50.7z M308.4,30.1c-0.5-0.8-1.1-1.2-2-1.2c-0.4,0-0.8,0.1-1.3,0.2c-0.5,0.2-0.7,0.3-0.7,0.4
			c0,0,0.1,0.3,0.4,0.9c0.5,1.1,0.7,3.3,0.7,6.8c0,2,0.1,3.1,0.4,3.3c0.4,0.4,0.9,0.7,1.5,0.7c0.5,0,0.9-0.2,1.2-0.5
			c0.6-0.6,0.9-2,0.9-4.2c0-0.8-0.1-2-0.3-3.6C308.8,31.4,308.6,30.4,308.4,30.1z"/>
		<g>
			<path class="st0" d="M72.2,119.8c0.5-0.4,1-0.7,1.4-0.7c0.8,0,1.5,0.6,2.1,1.9c0.6,1.3,1,3,1.2,5.2l0.2,2l0.4-0.8
				c0.7-1.5,1.6-2.3,2.6-2.3c0.2,0,0.4,0,0.7,0.1c1.4,0.3,2.3,0.9,2.8,1.8l0.5,0.8l0.5-0.5c0.6-0.7,1.5-1.1,2.6-1.1
				c1.2,0,2.2,0.5,2.9,1.5c0.3,0.4,0.5,0.6,0.6,0.7c0.1,0.1,0.3,0,0.4-0.2c0.3-0.4,0.9-0.6,1.8-0.6c0.1,0,0.2,0,0.2,0
				c0.1,0,0.2,0,0.2,0c1.1,0.2,2,0.8,2.6,1.8c0.5,1,0.8,2,0.8,3c0,0.1,0,0.2,0,0.3c0,0.1,0,0.2,0,0.2c0,0.4,0.2,0.8,0.7,1.1
				c2.3,1.3,3.4,3.9,3.4,7.8c0,2.7-0.7,4.8-2.1,6.6c-0.5,0.6-1.3,1.4-2.5,2.6c-1.2,1.1-2,1.9-2.6,2.3c-0.6,0.5-0.9,0.9-0.9,1.4
				c0,0.1,0.1,0.5,0.2,1.2c0.1,0.5,0.2,0.9,0.2,1.1c0,0.2-0.1,0.4-0.2,0.4c-0.1,0-0.2,0-0.2-0.1c-0.2-0.1-0.3-0.4-0.5-0.8
				c-0.2-0.5-0.3-0.8-0.3-1.1c0-0.4-0.1-0.7-0.2-0.8c-0.1-0.1-0.4,0-0.9,0.2c-0.4,0.2-0.7,0.2-1,0.2c-0.2,0-0.3-0.1-0.3-0.2
				c0-0.3,0.5-0.7,1.4-1.1c1.7-0.9,3.4-2.2,5.1-4c1.6-1.7,2.6-3,3.1-4.1c0.5-1,0.7-2.4,0.7-4.1c0-2.9-0.8-5-2.4-6.2
				c-0.7-0.5-1.6-1-2.7-1.5c-1.5-0.7-2.4-1.2-2.8-1.4c-0.6-0.4-1.1-0.7-1.5-0.7c-0.3,0-0.6,0.2-0.9,0.5c-0.3,0.3-0.4,0.8-0.4,1.5
				c0.2,1.6,0.8,2.9,1.9,3.8c0.6,0.6,1.2,0.9,1.7,1.1c0.9,0.4,0.9,0.7,0.2,0.9c-0.1,0-0.4,0.1-0.7,0.3c-0.4,0.2-0.6,0.3-0.8,0.4
				c-0.9,0.4-1.7,1-2.5,2c-0.8,0.9-1.3,1.8-1.5,2.7c-0.1,0.3-0.2,0.5-0.3,0.5c-0.2,0-0.2-0.4-0.1-1.1c0-0.7,0.3-1.4,0.7-2
				c0.4-0.8,0.4-1.1,0.1-1.2c-0.4,0-1-0.3-1.6-0.8c-0.6-0.5-1.1-1.1-1.3-1.6c-0.2-0.5-0.5-0.5-0.9,0c-0.7,0.7-1.4,1-2.3,1
				c-0.3,0-0.6-0.1-1-0.2c-0.8-0.4-1.6-1.4-2.3-3c-0.7-1.6-1.1-3.3-1.3-5.3c-0.1-0.7-0.2-1.5-0.4-2.4c-0.2-0.9-0.4-1.7-0.5-2.4
				c-0.5-2.9-1-4.7-1.4-5.5c-0.4-0.6-0.9-0.9-1.4-0.9c-0.5,0-0.9,0.3-1.1,1c-0.1,0.3-0.2,0.9-0.2,1.7c0,1.1,0.1,2.4,0.4,4
				c0.6,4,1,7.4,1.2,10.1c0.4,4.5,1,8.2,2,11.2c0.9,3,2.3,4.9,4.2,5.8c0.6,0.2,0.9,0.5,0.9,0.7c0,0.2-0.2,0.2-0.7,0.2h-0.7l-0.2,1.5
				c-0.2,1.3-0.4,1.9-0.7,1.9h-0.1c0,0-0.1-0.1-0.1-0.1c-0.2-0.1-0.2-0.2-0.2-0.4c0-0.4,0.1-1.2,0.3-2.4c0-0.1,0-0.2,0-0.3
				c0-0.1,0-0.2,0-0.2c0-0.2-0.4-0.7-1.1-1.4c-2.5-2.5-4.1-8.5-4.9-17.9c-0.3-3.5-0.6-5.9-0.8-7.2c-0.4-2.7-0.6-4.4-0.6-5.3
				C71,121.6,71.4,120.5,72.2,119.8z M81.4,141c0.2,0,0.5-0.1,0.9-0.1c1.7,0,2.6,0.2,2.7,0.6c0,0.1,0,0.1-0.2,0.2
				c-0.2,0-0.6,0-1.1,0c-0.1,0-0.3,0-0.5,0c-0.2,0-0.4,0-0.5,0c-1.5,0-2.9,0.2-4.2,0.6c-0.8,0.3-1.1,0.4-1.1,0.2
				c0-0.2,0.5-0.4,1.5-0.8C79.9,141.3,80.7,141.1,81.4,141z M81.8,126.5c-0.6-0.3-1-0.4-1.5-0.4c-0.6,0-1.2,0.2-1.6,0.7
				c-0.7,0.8-1,2.1-1,4c0,2.3,0.4,4.2,1.2,5.8c0.8,1.5,1.5,2.3,2.4,2.3c0.6,0,1.3-0.4,2.1-1.1l0.6-0.5l-0.3-1.5
				c-0.2-1.1-0.3-2.5-0.3-4.3c0-1,0-1.8,0.1-2.3v-0.7c0-0.4-0.2-0.8-0.5-1.1C82.6,127,82.2,126.6,81.8,126.5z M88.5,127.4
				c-0.5-0.3-1-0.4-1.6-0.4c-0.6,0-1,0.2-1.4,0.5c-0.6,0.5-1,1.6-1.1,3.1v0.5c0,2.2,0.2,4.2,0.6,6.1c0.5,2,1.6,3.1,3.3,3.2l0.7,0.1
				l0.1-1.5v-0.7c0-0.6-0.2-1.2-0.5-1.9c-0.6-1.1-0.8-2.3-0.8-3.5c0-0.3,0-0.5,0.1-0.6c0.1-0.4,0.3-0.9,0.7-1.2
				c0.4-0.4,0.7-0.6,1.1-0.6h0.5l-0.2-0.9C89.7,128.5,89.3,127.8,88.5,127.4z M91.1,138.8c-0.1-0.2-0.3-0.3-0.6-0.5l-0.6-0.4v0.8
				c0,0.6,0,0.8,0.1,0.8c0.2,0,0.4-0.1,0.7-0.3C91,139,91.1,138.9,91.1,138.8z M95.4,131.7c-0.1-2-1-3-2.7-3.2h-0.4
				c-0.4,0-0.6,0.1-0.8,0.2c-0.2,0.1-0.4,0.4-0.6,0.8c-0.1,0.2-0.2,0.5-0.2,0.7c0,0.4,0.4,0.8,1.1,1.2c1.6,1,2.8,1.5,3.4,1.5
				C95.4,133,95.5,132.5,95.4,131.7z"/>
			<path class="st0" d="M111.6,121.4c-0.2-0.7-0.3-1.2-0.3-1.5c0-0.4,0.1-0.6,0.2-0.6c0.1,0,0.2,0.1,0.3,0.2
				c0.1,0.1,0.2,0.6,0.4,1.4c0.2,0.8,0.2,1.4,0.2,1.8c0,0.4,0.2,0.6,0.7,0.4c0.1-0.1,0.2-0.1,0.4-0.1c0,0,0.1,0,0.1,0.1
				c0,0.2-0.5,0.7-1.4,1.6c-0.9,0.9-1.5,1.7-2,2.4c-0.4,0.7-0.8,1.7-1.1,2.9c-0.3,1.1-0.5,2.7-0.5,4.6c0,1.9,0.1,3.4,0.3,4.3
				l0.3,1.5l-0.8,1.7c-0.5,1-0.8,1.7-0.8,1.9c0,0,0,0.1,0,0.2c0,0.1,0,0.1,0,0.2c0.2,0.9,0.7,1.3,1.4,1.3c0.6,0,0.9-0.3,0.9-0.9
				c0-1.2,0.2-1.8,0.5-1.8c0.1,0,0.2,0.1,0.3,0.2c0.1,0.2,0.1,2.9,0.1,8.3c0,5.3,0.1,8.2,0.4,8.8c0.4,0.8,0.7,1.1,1.1,1.1
				c0.4,0,0.8-0.2,1.2-0.7c0.9-0.9,1.4-1.9,1.4-3.1c0-0.6,0.1-2.4,0.4-5.6c0.2-3.2,0.4-4.9,0.4-5c0.1-0.2,0.2-0.2,0.3-0.1
				c0.2,0.2,0.2,1.2,0.2,3.1c0,1.6,0,2.7-0.1,3.3c-0.2,1.6-0.3,3.7-0.3,6.5c0,1.7,0,2.7,0.1,3c0.4,1.9,1,2.8,1.9,2.8
				c0.1,0,0.3,0,0.6-0.1c0.8-0.2,1.3-1.1,1.5-2.5c0.2-1.4,0.4-4.5,0.5-9.3c0-3.5,0.1-5.7,0.2-6.6c0.1-0.9,0.4-1.4,0.7-1.5
				c0.2,0,0.2,0,0.2,0.2c0,0.1,0,0.3-0.1,0.5c-0.1,0.6-0.2,2.8-0.2,6.4c0,1.1-0.1,2.5-0.1,4c0,2,0.3,3.6,0.9,4.8
				c0.6,1.1,1.1,1.7,1.7,1.7c0.6,0,1-0.7,1.3-2c0.1-0.8,0.2-2.4,0.2-4.9v-3.9l-0.1-7.5l1.2-1c1.5-1.2,2.5-2.6,3.1-4.2
				c0.3-0.9,0.5-2.2,0.5-3.9c0-0.9,0-1.6-0.1-2c-0.6-3.6-2.4-7-5.3-10.3c-0.7-0.9-1-1.4-1-1.5c0.1-0.1,0.2-0.2,0.3-0.2
				c0.2,0,0.5,0.2,1,0.5c0.5,0.3,0.7,0.5,0.8,0.5h0.1c0.1-0.1,0.2-0.4,0.2-0.9c0.2-0.9,0.4-1.4,0.8-1.4c0,0,0.1,0,0.2,0.1
				c0.2,0.2,0.2,0.6,0,1.2c-0.1,0.3-0.1,0.7-0.1,1.2c0,0.8,0.2,1.5,0.6,2c0.8,1.2,1.6,2.9,2.4,5.2c0.8,2.3,1.1,4.3,1.1,6.2
				c0,0.5,0,0.9-0.1,1.1c-0.2,1.5-0.6,2.8-1.3,4.2s-1.6,2.3-2.6,3l-0.9,0.7l0.1,1.2c0.1,1,0.1,2.8,0.1,5.3c0,4.4-0.1,7.1-0.2,8.1
				c-0.3,2.6-1,3.9-2.3,3.9c-0.9,0-1.6-0.6-2.3-1.9l-0.5-1l-0.1,0.2c0,0.2-0.1,0.4-0.1,0.6c0,0.3-0.1,0.5-0.1,0.7
				c-0.5,2.5-1.5,3.7-3,3.7c-0.5,0-1-0.2-1.4-0.7c-0.7-0.7-1.1-2-1.3-3.7l-0.1-1.2l-0.5,0.5c-0.7,0.6-1.3,0.9-1.8,0.9
				c-0.4,0-0.9-0.2-1.3-0.5c-0.6-0.5-1-1.5-1.2-3c-0.2-1.5-0.3-4.2-0.3-8v-4.1l-0.7,0.1c-0.5,0-0.9,0-1.2-0.2c-0.7-0.4-1-1.1-1-1.9
				c0-0.6,0.2-1.5,0.7-2.6l0.6-1.6l-0.3-1.1c-0.3-0.9-0.4-2.1-0.4-3.4c0-1.1,0.1-2.1,0.2-3c0.3-2,0.7-3.6,1.2-4.7
				c0.5-1.1,1.1-2.1,2-3c0.7-0.7,1.1-1.3,1.1-1.7C111.9,122.6,111.8,122.1,111.6,121.4z"/>
			<path class="st0" d="M164.1,130.9c0.4-0.2,0.8-0.2,1.3-0.2c0.9,0,1.6,0.3,2.1,0.9c0.3,0.4,0.4,0.7,0.4,1c0,0.6-0.4,1.4-1.1,2.5
				c-2.3,3.5-3.5,8.3-3.7,14.4c-0.1,2-0.1,3.2-0.2,3.6c0,0.4-0.2,0.9-0.4,1.3c-0.3,0.7-0.9,1.5-1.7,2.5c-1.2,1.5-2,2.7-2.5,3.6
				c-0.4,0.9-0.7,2-1,3.5c-0.2,1.3-0.4,1.9-0.7,1.9l-0.2-0.1c-0.1-0.1-0.2-0.4-0.2-1c0-1.3,0.1-2.4,0.4-3.1c0.2-0.5,0.3-0.8,0.2-0.9
				c0-0.1-0.3,0-0.7,0.2c-0.5,0.3-0.8,0.3-0.8,0.2c0-0.1,0.1-0.2,0.4-0.5c0.8-0.6,1.9-1.7,3.1-3.2c1.5-1.8,2.3-3.1,2.6-3.8
				c0.3-0.7,0.4-2.1,0.4-4.1c0-5.9,1.3-10.9,3.9-15c0.5-0.7,0.7-1.2,0.6-1.6c-0.2-0.9-0.6-1.4-1.1-1.4c-0.2,0-0.7,0.1-1.3,0.4
				c-1.1,0.6-2.1,1.5-3,2.7c-0.7,1-1,1.9-1,2.7c0,0.2,0,0.6,0.1,1.3c0.1,0.8,0.1,1.4,0.1,1.8c0,2.6-0.5,4.4-1.5,5.3
				c-0.6,0.5-1.2,0.7-2,0.7c-0.6,0-1.1-0.2-1.7-0.5l-0.5-0.4l-0.7,0.4c-0.6,0.4-1.1,0.5-1.7,0.5c-0.3,0-0.7-0.1-1.1-0.3l-0.7-0.4
				l-0.6,0.5c-0.6,0.6-1.4,0.8-2.4,0.8h-0.6c-0.8,0-1.3,0-1.7,0.2c-0.5,0.2-0.9,0.4-1.3,0.4c-0.5,0-0.9-0.2-1.3-0.5
				c-0.6-0.6-1-2-1.4-4.2c-0.2-1.1-0.3-1.8-0.3-2.1c0-0.1,0-0.2,0.1-0.2c0.2,0,0.5,1,0.9,3c0.3,1.3,0.6,2.2,0.9,2.6
				c0.3,0.4,0.6,0.6,1.2,0.6c1,0,1.5-1.5,1.5-4.5c0-4-0.7-6-2.2-6c-0.6,0-1.2,0.4-1.9,1.1c-1.1,1.1-1.9,2.7-2.4,4.8
				c-0.2,0.8-0.3,2-0.3,3.6c0,4.1,0.5,7.2,1.4,9.3c0.4,0.9,0.9,1.7,1.5,2.6c0.2,0.2,0.4,0.5,0.6,0.9c0.2,0.4,0.4,0.7,0.6,0.9
				c0.2,0.3,0.3,0.4,0.4,0.6c0.4,0.6,0.7,1,1,1.2c0.6,0.4,0.8,0.7,0.5,0.7l-0.5-0.1c-0.1,0-0.2,0-0.2,0.2c0,0.2-0.1,0.6-0.1,1.4
				c0,1-0.1,1.6-0.2,1.8c-0.1,0.1-0.2,0.1-0.2,0.1c-0.2,0-0.4-0.7-0.5-2c-0.1-0.9-0.2-1.7-0.4-2.2c-0.2-0.5-0.7-1.3-1.5-2.3
				c-1-1.3-1.7-2.5-2-3.4c-0.3-0.9-0.7-2.3-1-4.4c-0.3-2.1-0.4-3.8-0.4-5c0-4,0.9-7,2.8-9.1c1-1.1,2-1.7,3-1.7h0.3h0.4
				c0.4,0,0.8-0.3,1.4-0.9c0.8-0.9,1.5-1.3,2.3-1.3c0.4,0,0.9,0.2,1.5,0.5c0.3,0.2,0.6,0.1,1.1-0.3c0.9-0.8,1.7-1.2,2.4-1.2
				c0.4,0,0.7,0.1,1.1,0.4c0.2,0.2,0.4,0.3,0.5,0.3c0.1,0,0.3-0.1,0.5-0.3c0.3-0.2,0.8-0.4,1.4-0.5h0.2c1,0,1.9,0.8,2.5,2.3l0.6,1.1
				l0.5-1.1C161,132.8,162.4,131.6,164.1,130.9z M151.7,149.2c0.9-0.5,1.4-0.6,1.4-0.4c0,0.2-0.5,0.6-1.5,1.1c-1,0.5-2,0.8-2.8,1
				c-1.3,0.3-2.5,0.4-3.4,0.4c-0.4,0-0.7,0-0.7-0.1v-0.1c0,0-0.1-0.1-0.1-0.1c0-0.2,0.6-0.3,1.8-0.4
				C148.3,150.5,150.1,150,151.7,149.2z M149,134.9c-0.4-0.3-0.8-0.5-1.1-0.5c-0.6,0-1.3,0.4-2.1,1.1l-0.7,0.7l0.4,0.7
				c0.5,0.8,0.8,1.5,1,2.1c0.1,0.6,0.2,1.8,0.2,3.4c0,1.9,0,3-0.1,3.3l-0.1,0.6l0.8-0.1c1.1-0.1,1.9-0.5,2.3-1.3
				c0.5-0.8,0.7-2.1,0.7-4.1v-1.2c0-1.5-0.1-2.6-0.3-3.2C149.8,135.8,149.5,135.3,149,134.9z M153.6,133.8c-0.3-0.2-0.6-0.4-0.9-0.4
				c-0.3,0-0.9,0.2-1.6,0.5l-1.1,0.5l0.5,1c0.2,0.4,0.5,1.1,0.7,2c0.2,1,0.2,2.5,0.2,4.3c0,1.1,0,1.9-0.1,2.4c0,0,0,0.1,0,0.2
				c0,0.1,0,0.2,0,0.2c0,0.8,0.4,1.1,1.1,1.1s1.3-0.3,1.7-1c0.6-0.8,0.9-2.4,0.9-4.6v-1C154.9,136.3,154.4,134.6,153.6,133.8z
				 M151.7,156.2c0-1.7,0.3-3.3,0.8-4.7c0.5-1.4,1.3-2.4,2.2-2.8c0.4-0.2,0.7-0.3,0.8-0.3c0.1,0,0.1,0,0.1,0.1c0,0.2-0.3,0.5-0.8,1
				c-1.4,1.5-2.2,3.7-2.4,6.6c-0.1,1.1-0.2,1.6-0.4,1.7c-0.2,0-0.2,0-0.3-0.2C151.7,157.5,151.7,157,151.7,156.2z M154.8,133.6
				l0.4,0.9c0.3,0.6,0.5,1.3,0.7,2.1c0.1,0.4,0.1,1.2,0.1,2.4c0,2.5-0.1,4.1-0.4,4.9c-0.2,0.6-0.2,1-0.1,1.2
				c0.3,0.3,0.7,0.5,1.1,0.5c0.6,0,1.1-0.2,1.5-0.7c0.6-0.6,0.9-2.1,0.9-4.5c0-1.4-0.1-2.6-0.3-3.5c-0.5-2.4-1.4-3.6-2.7-3.6
				C155.6,133.3,155.2,133.4,154.8,133.6z"/>
			<path class="st0" d="M185.8,147.9c-0.9,1.1-1.9,1.6-2.9,1.6c-0.6,0-1-0.2-1.4-0.5l-0.5-0.4l-0.4,0.7c-0.7,1.1-1.5,1.6-2.5,1.6
				c-0.4,0-0.9-0.1-1.3-0.4l-0.7-0.4v0.5c0,0.6,0.1,1.6,0.3,3.1c0.2,1.5,0.4,2.6,0.5,3c0.6,2.3,1.8,3.9,3.4,4.7
				c0.6,0.4,0.9,0.6,0.9,0.8c0,0.2-0.2,0.3-0.5,0.2c-0.1,0-0.2,0-0.3-0.1c-0.1,0-0.3-0.1-0.4-0.1c-0.1,0-0.2,0-0.2,0
				c-0.2-0.1-0.3-0.1-0.3,0c0,0.1-0.1,0.5-0.1,1.2c-0.1,1.5-0.3,2.2-0.7,2.2c-0.1,0-0.2,0-0.2-0.1c-0.2-0.2-0.2-0.5-0.1-1
				c0.1-0.4,0.2-1,0.2-1.8c0-0.5,0-0.9-0.1-1.1c-0.1-0.2-0.3-0.5-0.6-0.8c-1.6-1.8-2.4-4.8-2.4-9c0-1.2,0-2.1-0.1-2.6
				c-0.1-0.5-0.2-0.9-0.3-1.3c-0.1-0.4-0.3-1-0.4-1.6c-0.1-0.6-0.1-1.1-0.1-1.5c0-1.8,0.2-3.3,0.7-4.4c0.5-1.2,1.2-2.1,2.1-2.6
				c0.3-0.2,0.6-0.2,1.1-0.2c0.4,0,0.7,0.1,0.9,0.2c0.4,0.3,0.6,0.2,0.6-0.4c0-0.5,0.2-1.1,0.5-1.8c0.3-0.7,0.7-1.3,1-1.7
				c0.4-0.4,0.6-0.6,0.7-0.7c0.1-0.1,0.5-0.1,1-0.1c1,0,1.8,0.3,2.4,0.9l0.5,0.5l0.5-0.8c0.9-1.2,1.9-1.8,3-1.8l1,0.1l-0.1-1.2v-0.9
				c0-2.8,0.2-5.1,0.5-6.6c0.4-1.7,0.9-2.8,1.6-3.4c0.4-0.4,0.9-0.5,1.2-0.5c0.6,0,1.1,0.3,1.6,0.8c0.5,0.6,0.9,1.2,1.1,1.8
				c0.2,0.6,0.3,2.8,0.4,6.7c0.1,4.5,0.2,7.4,0.3,8.5c0.1,1.2,0.3,1.9,0.5,2.3c0.2,0.3,0.6,1.2,1,2.8c0.1,0.6,0.5,1.6,1.2,2.8
				c1,1.8,1.5,3.7,1.5,5.5v0.8c-0.2,3.2-1.3,5.9-3.5,8c-1.4,1.4-2.8,2.2-4.4,2.6l-1.1,0.2l-0.1,1.7c0,1.1-0.1,1.7-0.2,1.7
				c-0.5,0-0.7-0.6-0.7-1.8c0-0.6,0.1-1.2,0.3-1.7c0.2-0.5,0.5-0.7,0.9-0.7c0.7,0,1.6-0.4,2.7-1.2c1.1-0.8,2.1-1.6,2.7-2.5
				c1.7-2.1,2.5-4.4,2.5-6.8c0-1.5-0.5-3.3-1.5-5.4c-0.6-1.1-1-2.3-1.3-3.3c-0.3-1.4-0.7-2.2-1.2-2.3h-0.2c-0.5,0-1,0.3-1.5,1
				c-0.5,0.7-0.8,1.5-0.8,2.3v0.4c0,0.7,0.1,1.6,0.3,2.5c0.2,1,0.4,1.5,0.5,1.6c0.1,0,0.2,0.1,0.2,0.2c0,0.1-0.5,0.5-1.4,1.1
				c-1.5,1-2.9,2.4-4.3,4c-0.8,1-1.3,1.5-1.6,1.5c-0.1,0-0.1-0.1-0.1-0.3c0-0.7,0.6-1.7,1.9-3c1.3-1.3,2.7-2.4,4.2-3.3
				c0.2-0.1,0.2-0.7-0.1-1.7c-0.3-1.4-0.5-2.5-0.5-3.3c0-1.3,0.4-2.4,1.2-3.2c0.5-0.5,0.9-0.7,1.4-0.8c0.5-0.1,0.8-0.2,0.8-0.4
				c0-0.6-0.1-1.6-0.2-2.9c-0.2-2.2-0.2-3.9-0.2-5.2c0-6.8-0.7-10.3-2.1-10.3c-0.3,0-0.6,0.1-0.8,0.4c-1,0.9-1.6,3.9-1.6,9v2.2
				c0,1,0.1,1.7,0.3,2.1c0.6,1.1,0.9,3.2,0.9,6.1v1.4c0,2.8-0.2,4.6-0.5,5.3c-0.6,2-1.6,3-3,3c0,0-0.1,0-0.2,0c-0.1,0-0.2,0-0.3,0
				c-0.9-0.2-1.7-0.6-2.3-1.2L185.8,147.9z M179.1,139c-0.3-0.4-0.6-0.6-0.9-0.6c-0.3,0-0.6,0.2-1.1,0.7c-1.1,1.2-1.7,3.1-1.7,5.8
				c0,2,0.4,3.3,1.1,4.1c0.4,0.4,0.8,0.5,1.4,0.5c0.6,0,1-0.2,1.4-0.5c0.5-0.5,0.8-1,0.8-1.5c0-0.3-0.1-0.6-0.2-1.1
				c-0.2-0.8-0.3-2.1-0.4-4C179.6,140.5,179.4,139.3,179.1,139z M181.6,151.6c0.1-0.1,0.6-0.3,1.3-0.4c0.8-0.2,1.3-0.3,1.7-0.3
				c0.3,0,0.5,0.1,0.5,0.2c0,0.2-0.4,0.3-1.1,0.5c-1.3,0.3-2.5,0.9-3.4,1.8c-0.8,0.6-1.1,0.7-1.1,0.3c0-0.2,0.3-0.5,0.8-1
				C180.8,152.1,181.2,151.8,181.6,151.6z M185.3,137.2c0.1-0.4,0.1-0.7,0.1-0.8c0-1.3-0.7-2-2.2-2c-1.7,0-2.6,2-2.6,5.9
				c0,0.6,0,1.6,0.1,3.1c0.1,1.6,0.3,2.8,0.7,3.5c0.3,0.7,0.8,1.1,1.5,1.2c0.4,0,0.9-0.1,1.4-0.4c0.7-0.4,1-0.8,1-1.1
				c0-0.1,0-0.3-0.1-0.7c-0.2-1-0.4-2.2-0.4-3.6C184.8,140.6,185,138.9,185.3,137.2z M190.6,134.1c-0.4-0.7-1-1.1-1.6-1.1h-0.2
				c-1.3,0.2-2.1,2.2-2.6,5.9c-0.2,1.2-0.2,2.5-0.2,3.7c0,2.2,0.3,3.7,0.8,4.5c0.6,0.9,1.4,1.3,2.3,1.3c0.4,0,0.8-0.1,1.1-0.4
				c0.6-0.5,0.9-1.3,1.1-2.4c0.2-1.1,0.3-2.9,0.3-5.3C191.6,137.2,191.3,135.2,190.6,134.1z"/>
			<path class="st0" d="M225.3,132.9c0.6-0.3,1.2-0.5,2-0.5c0.8,0,1.4,0.2,1.7,0.5c1.2,1,1.8,3.6,1.8,8c0,1.6-0.1,3.1-0.2,4.5
				c-0.1,0.6-0.1,1.2-0.1,1.8c0,0.3,0.1,0.5,0.2,0.7c0.4,0.2,0.8,0.5,1.2,1c0.5,0.5,0.8,1,1,1.4c0.4,0.8,0.6,1.7,0.6,2.7
				c0,3-1.9,5.9-5.8,8.9c-0.3,0.3-0.5,0.5-0.6,0.6c-0.1,0.1-0.1,0.4-0.1,0.9c0,0.6,0,1.1,0.1,1.5c0.1,0.4,0,0.6-0.1,0.7h-0.1
				c0,0-0.1,0.1-0.1,0.1c-0.3,0-0.5-0.5-0.7-1.5c-0.1-0.6-0.2-0.9-0.2-0.9c0,0-0.2,0.1-0.4,0.2c-0.8,0.5-1.1,0.6-1.1,0.1
				c0-0.4,1-1.5,3.1-3.2c1.7-1.3,2.8-2.5,3.5-3.4c0.7-0.9,1.1-1.9,1.2-3c0-0.2,0.1-0.5,0.1-1c0-1-0.2-1.9-0.5-2.5
				c-0.4-0.9-1.2-1.6-2.3-2.1c-1.1-0.5-2.2-0.8-3.5-0.8h-0.5c-0.5,0-1.9,0.3-4.1,0.9c-2.2,0.6-3.6,1-4,1.2c-0.3,0.2-0.4,0.5-0.4,0.9
				c0,1.3,1.4,2,4.2,2c1.5,0,2.7,0.5,3.4,1.5c0,0.1,0.2,0.3,0.6,0.7c0.4,0.4,0.7,0.8,1.1,1.2c0.3,0.4,0.5,0.7,0.5,0.7
				c0,0,0,0.1-0.1,0.1c-0.3,0-0.8-0.3-1.5-0.9c-0.7-0.6-1.1-1.1-1.4-1.7c-0.2-0.3-0.5-0.5-0.9-0.7c-0.5-0.1-1.4-0.3-2.8-0.4
				c-1.6-0.2-2.6-0.4-3.1-0.7c-0.9-0.5-1.3-1.1-1.3-1.9c0-0.3,0.1-0.6,0.2-0.9c0.4-0.5,1.6-1,3.6-1.5c0.4-0.1,1-0.3,1.9-0.5
				c0.9-0.2,1.5-0.4,1.8-0.5c1.1-0.3,2.2-0.5,3.3-0.5c0.8,0,1.4,0.1,2,0.2l0.9,0.2v-0.5c0-0.2,0-0.4-0.1-0.4c-0.1,0-0.4,0-0.8,0.1
				c-0.1,0-0.2,0-0.4,0c-0.2,0-0.3,0-0.3,0c-0.6,0-1.1-0.2-1.6-0.7l-0.5-0.4l-0.7,0.5c-0.7,0.6-1.3,0.9-1.8,0.9
				c-0.4,0-0.8-0.1-1.2-0.4l-0.7-0.4l-0.8,0.8c-0.6,0.6-1.1,0.9-1.6,0.9s-1-0.2-1.7-0.7l-0.4,0.7c-0.5,0.8-1.3,1.2-2.4,1.2
				c-0.9,0-1.7-0.4-2.4-1.1c-0.8-1-1.2-2.5-1.5-4.6c-0.1-0.8,0-1.2,0.1-1.2c0.2,0,0.4,0.4,0.6,1.2c0.2,0.8,0.5,1.7,0.8,2.7
				c0.4,1,0.8,1.6,1.4,1.8c0.4,0.2,0.7,0.2,1.1,0.2c0.9,0,1.4-0.6,1.5-1.7c0-0.2,0.1-0.6,0.1-1c0-1-0.4-2.3-1.1-3.7
				c-0.9-1.9-1.7-3-2.3-3.4c-0.3-0.2-0.7-0.3-1.1-0.3c-1.3,0-2.2,1.1-2.7,3.3c-0.3,1.3-0.4,3.5-0.4,6.5c0,0.9,0,1.9,0.1,2.9
				c0.3,2.7,0.8,4.9,1.7,6.9c0.8,1.9,1.8,3.2,3,3.9c1,0.6,1.1,0.8,0.2,0.8c-0.2,0-0.3,0-0.4,0.1c-0.1,0.1-0.2,0.3-0.2,0.6
				c-0.5,1.8-0.9,2.7-1.1,2.7c-0.1,0-0.1-0.2-0.1-0.5c0-0.6,0.1-1.2,0.2-2l0.2-1.3l-0.7-0.8c-0.6-0.7-1.3-1.9-2-3.4
				c-0.7-1.6-1.1-3.1-1.4-4.5c-0.4-1.9-0.5-4.6-0.5-8.3c0-1.1,0-1.8,0.1-2.1c0.4-3.7,1.8-5.6,4.2-5.6c0.7,0,1-0.1,1.1-0.4
				c0.1-0.3,0.4-0.6,0.8-1c0.5-0.4,0.9-0.7,1.4-0.9c0.6-0.3,1.1-0.4,1.7-0.4c0.3,0,0.7,0.1,1,0.2c0.3,0.1,0.5,0.1,0.6,0.1
				c0.1,0,0.4-0.2,0.7-0.6c1-0.9,2.1-1.4,3.1-1.4c0.6,0,1.1,0.1,1.5,0.4c0.4,0.3,0.6,0.4,0.7,0.4
				C224.5,133.4,224.8,133.2,225.3,132.9z M217.7,135.7c-0.5-0.2-0.9-0.4-1.3-0.4c-0.8,0-1.7,0.4-2.5,1.2l-0.8,0.7l0.8,0.8
				c0.6,0.7,1.3,1.9,2,3.4c0.8,1.6,1.2,2.6,1.2,3.2c0,1.4,0.5,2.1,1.6,2.1c0.2,0,0.5-0.2,0.8-0.5c0.3-0.3,0.5-0.7,0.6-1
				c0-0.2,0.1-0.5,0.1-1c0-1.9-0.2-3.5-0.6-4.9C219,137.3,218.4,136.1,217.7,135.7z M223.4,134c-0.3-0.3-0.8-0.4-1.4-0.4
				c-1,0-1.9,0.3-2.6,1l-0.6,0.5l0.4,0.7c0.9,1.4,1.6,3.3,2.1,5.7c0.1,0.6,0.2,1.3,0.2,2v0.6c0,0.7,0.1,1.1,0.4,1.4
				c0.3,0.2,0.6,0.3,0.9,0.3c0.4,0,0.9-0.2,1.2-0.5c0.5-0.5,0.8-1.9,0.8-4.3C224.9,137.1,224.4,134.8,223.4,134z M222.4,155.1
				c0.2-0.1,0.3-0.1,0.5-0.2c0.2-0.1,0.3-0.1,0.4-0.1c0.1,0,0.2,0,0.2,0.1c0,0.1-0.3,0.3-0.8,0.8c-0.5,0.4-1,1.2-1.5,2.3
				c-0.5,1.1-0.9,1.7-1.1,1.7c0,0-0.1,0-0.1-0.1c0-0.2,0.2-0.8,0.5-1.8C221.1,156.3,221.7,155.5,222.4,155.1z M229,134.5
				c-0.5-0.8-1.1-1.2-2-1.2c-0.4,0-0.8,0.1-1.3,0.2c-0.5,0.2-0.7,0.3-0.7,0.4c0,0,0.1,0.3,0.4,0.9c0.5,1.1,0.7,3.3,0.7,6.8
				c0,2,0.1,3.1,0.4,3.3c0.4,0.4,0.9,0.7,1.5,0.7c0.5,0,0.9-0.2,1.2-0.5c0.6-0.6,0.9-2,0.9-4.2c0-0.8-0.1-2-0.3-3.6
				C229.3,135.8,229.1,134.8,229,134.5z"/>
			<path class="st0" d="M244.4,119.7c0-0.3,0.1-0.5,0.4-0.5c0.2,0,0.3,0.1,0.3,0.2c0.1,0.2,0.2,0.7,0.3,1.7c0,0,0,0.1,0,0.1
				c0,0.1,0,0.1,0,0.1l0.2,1.4l0.6-0.1c0.4-0.1,0.5,0,0.5,0.1c0,0-0.3,0.3-0.9,0.9c-1.3,1.1-2.2,2.3-2.8,3.4c-0.6,1.2-1,2.8-1.3,4.7
				c-0.1,0.7-0.1,1.4-0.1,2c0,1.6,0.1,3.3,0.4,4.9l0.2,1.4l-0.7,1.4c-0.5,1-0.8,1.7-0.8,2.2c0,0.4,0.1,0.7,0.3,1
				c0.2,0.4,0.6,0.6,0.9,0.6c0.4,0,0.8-0.1,1.3-0.4c0.5-0.2,0.8-0.5,1-0.8c0.2-0.4,0.4-0.5,0.7-0.4c0,0,0.1,0,0.1,0.1
				c0,0-0.1,0.4-0.4,1.1c-0.3,0.8-0.5,1.3-0.5,1.8c0,0.8,0.5,1.2,1.6,1.2c1,0,2-0.5,3-1.5c0.5-0.5,0.8-0.7,0.9-0.5
				c0,0,0,0.1-0.1,0.2c-0.1,0.2-0.1,0.5-0.1,0.7v2c0,1.9-0.1,3.4-0.2,4.6c-0.2,1.7-0.2,3.5-0.2,5.3c0,2.1,0.1,3.5,0.2,4.3
				c0.4,1.3,0.9,2,1.8,2c0.6,0,0.9-0.1,1.1-0.2c1-0.6,1.5-4.6,1.5-12.2c0-4.9,0.3-7.4,0.8-7.6c0.3-0.1,0.4,0,0.4,0.4
				c0,0.2,0,0.5-0.1,1c-0.2,0.8-0.2,3.2-0.2,7.2c0,3,0.1,4.8,0.2,5.3c0.2,1,0.6,1.9,1.2,2.6c0.6,0.8,1.1,1.2,1.6,1.2
				c0,0,0.1,0,0.1,0c0,0,0.1,0,0.1,0c0.6-0.2,1-1,1.2-2.3c0.1-0.6,0.1-2.3,0.1-4.9v-3.4c-0.1-4.8-0.2-7.3-0.3-7.4
				c-0.4-0.1-0.4-0.4,0.2-0.9c1.6-1.4,2.7-2.6,3.3-3.6c0.7-1.4,1.1-2.9,1.1-4.5v-0.8c-0.2-4.1-2-8-5.2-11.9c-0.8-1-1.2-1.6-1.2-1.7
				c0-0.4,0.4-0.3,1.3,0.3l0.8,0.6v-0.7c0-0.4,0.1-0.8,0.3-1.2c0.2-0.4,0.4-0.6,0.6-0.6h0.1c0.2,0.1,0.3,0.2,0.2,0.5
				c-0.1,1.1-0.2,1.9-0.2,2.3c0,0.5,0.2,1.1,0.7,1.8c0.9,1.4,1.7,3.2,2.4,5.4c0.7,2.4,1.1,4.4,1.1,5.9c0,1.7-0.4,3.3-1.1,4.9
				c-0.4,0.9-1.1,1.8-2,2.7l-1.4,1.4l0.2,1.7c0.1,0.7,0.1,2.6,0.1,5.5c0,3.1,0,5.2-0.1,6.3c-0.2,2.5-0.6,4-1.2,4.7
				c-0.3,0.4-0.8,0.6-1.5,0.6c-0.2,0-0.4,0-0.5-0.1c-0.8-0.2-1.5-0.9-2.1-2.2l-0.4-0.9l-0.3,1.7c-0.5,2.6-1.5,3.9-3.1,3.9
				c-0.5,0-1-0.2-1.4-0.7c-0.5-0.5-0.8-1.1-1-1.8c-0.1-0.7-0.2-1.9-0.3-3.7v-1.5c0-1.9,0.1-3.9,0.3-6.1c0.2-2.4,0.3-3.9,0.3-4.5
				c0-0.1-0.3,0-0.7,0.3c-0.8,0.6-1.6,0.9-2.4,0.9c-1.3,0-2-0.8-2-2.4v-0.9l-0.5,0.3c-0.3,0.2-0.7,0.2-1.1,0.2
				c-0.4,0-0.8-0.1-1.2-0.4c-0.6-0.4-0.9-1-0.9-1.8c0-0.7,0.2-1.6,0.7-2.7l0.6-1.5l-0.3-1.1c-0.2-0.9-0.4-2.1-0.4-3.4
				c0-3.5,0.5-6.3,1.5-8.3c0.4-0.8,1-1.6,1.7-2.4c0.8-0.8,1.2-1.4,1.2-1.8c0,0-0.1-0.5-0.4-1.5C244.5,120.4,244.4,119.9,244.4,119.7
				z"/>
			<path class="st0" d="M286.7,132c0.5-0.5,1.2-0.8,2.1-0.8c1.3,0,2.5,0.5,3.6,1.4c1.3,1.2,2,2.8,2,4.7c0,0.1,0,0.2,0,0.3
				c0,0.1,0,0.2,0,0.3c0,0.1,0,0.2,0,0.2c0,0.1,0,0.1,0,0.2c0,0.2,0.3,0.7,1,1.4c1.2,1.1,2.1,2.7,2.6,4.5c0.4,1.7,0.7,4,0.7,6.9v0.9
				c-0.1,2.2-0.8,4.4-2.1,6.6c-0.4,0.7-0.6,1.2-0.7,1.5c-0.1,0.3-0.1,0.7-0.1,1.4c0,1.2,0.1,2.2,0.2,3c0.1,0.7,0.2,1.2,0.2,1.6
				c0,0.2,0,0.3-0.1,0.3c0,0-0.1,0.1-0.1,0.1c-0.2,0-0.4-0.4-0.6-1.2c-0.2-0.8-0.3-1.7-0.3-2.6c0-0.6,0-0.9-0.1-0.9l-0.1,0.1
				c-0.4,0.3-0.6,0.2-0.6-0.4c0-0.4,0.7-1.9,2-4.5c0.5-1,0.7-1.6,0.7-1.8c0-0.2,0.1-0.6,0.2-1.4c0.2-0.7,0.3-1.7,0.3-3.2
				c0-4.9-0.9-8.2-2.6-9.8c-0.8-0.8-2.1-1.3-4-1.8c-1.2-0.3-2.3-0.6-3.2-0.9c-0.8-0.3-1.5-0.4-2-0.4c-0.5,0-0.7,0.1-0.8,0.4
				c0,0.1-0.1,0.2-0.1,0.4c0,0.6,0.2,1.2,0.5,1.9c0.4,0.7,0.8,1.2,1.3,1.6c1,0.8,1.8,1.2,2.3,1.2h0.1c0.4,0,0.6,0.2,0.7,0.6
				c0.1,0.4,0.1,0.7,0.1,0.8c0,0.6-0.4,1.7-1.1,3.1c-0.8,1.7-1.1,2.9-1.1,3.7c0,0.5,0.1,1.2,0.3,2.1c0.3,1,0.4,1.6,0.4,1.7
				c0,0.1-0.1,0.2-0.2,0.2c-0.4,0-0.8-0.7-1.3-2c-0.1-0.4-0.2-1.1-0.2-2.3c0-1,0.1-1.7,0.2-2c0-0.2,0-0.3-0.2-0.4
				c-0.2-0.1-0.5-0.3-1.1-0.6l-1.3-0.7c-0.3,0.5-0.7,1-1.1,1.4l-0.6,0.7l0.8-0.1c0.2,0,0.5-0.1,0.8-0.1c0.8,0,1.2,0.2,1.2,0.5
				c0,0.2-0.1,0.3-0.3,0.3c-0.2,0.1-0.9,0.1-2.2,0.3c-2.8,0.3-4.8,1.1-6,2.5c-0.6,0.6-0.9,0.8-0.9,0.6c-0.2-0.4,0-1,0.5-1.6
				c0.8-0.9,2.1-1.6,4.1-2.1l0.8-0.2l-0.8-0.4c-0.1-0.1-0.2-0.2-0.4-0.3c-0.1-0.1-0.3-0.2-0.4-0.3c-0.1-0.1-0.2-0.1-0.3-0.1
				c-0.2-0.2-0.3-0.2-0.3-0.2c0,0-0.1,0.2-0.3,0.5c-0.4,0.7-0.9,1-1.6,1c-1,0-2.3-0.5-3.7-1.5l-1.2-0.8c0,0.1-0.1,0.2-0.1,0.2
				c0,1.5,0.3,3.3,0.9,5.5c0.7,2.6,2,5.2,3.9,7.7c0.8,1.1,1.2,1.7,1.2,2c0,0.1-0.1,0.2-0.3,0.2c-0.2,0-0.4,0.2-0.4,0.5
				c-0.5,1.9-0.9,2.9-1.1,2.9c-0.2,0-0.4-0.1-0.4-0.2l0.1-0.3c0-0.2,0.1-0.4,0.2-0.7c0.1-0.3,0.2-0.7,0.2-1l0.5-2l-0.8-0.8
				c-2.6-2.8-4.1-7.1-4.3-12.8c0-1.6-0.2-2.7-0.4-3.2c-0.3-0.9-0.5-1.8-0.5-2.7c0-1.1,0.2-2,0.7-2.8c0.4-0.8,1-1.1,1.7-1.1h0.3
				l0.5,0.1v-0.9c0-1.1,0.4-2.1,1.3-2.9c0.9-0.9,1.8-1.3,3-1.3c0.6,0,1.1-0.3,1.4-0.8c0.8-1.1,2.1-1.7,3.7-1.7c0.8,0,1.4,0.2,2,0.5
				l0.8,0.5L286.7,132z M274.3,139.7l-0.8,0.3c-0.5,0.2-0.9,0.5-1.1,0.9c-0.2,0.4-0.3,1-0.3,1.9c0,1.7,0.5,3,1.4,4.1
				c0.5,0.5,1.1,1,1.8,1.4c0.7,0.4,1.2,0.7,1.6,0.7c0.2,0,0.5-0.1,0.9-0.3c0.4-0.2,0.6-0.4,0.7-0.6c0,0,0.1-0.1,0.1-0.2
				c0-0.2-0.3-0.8-1-1.7C276.3,144.4,275.2,142.2,274.3,139.7z M279.5,139c-0.1-0.5-0.2-1.4-0.3-2.7l-0.1-1.8l-0.7,0.2
				c-0.9,0.3-1.7,0.8-2.4,1.4c-0.6,0.6-0.8,1.3-0.8,2c0,0.9,0.5,2.4,1.5,4.3c1.1,2.2,2,3.7,2.6,4.5c0.6,0.8,1.3,1.2,2.1,1.2
				c0.5,0,1.3-0.4,2.3-1.3l-0.6-0.6c-0.6-0.7-1.3-1.8-2-3.2C280.3,141.5,279.8,140.2,279.5,139z M285.2,132.7
				c-0.6-0.2-1.1-0.3-1.5-0.3c-0.5,0-1.1,0.1-1.8,0.4c-1.1,0.6-1.7,1.6-1.7,3c0,0.2,0,0.7,0.1,1.3c0.3,1.8,0.9,3.7,1.8,5.5
				c0.7,1.3,1.3,2.2,1.9,2.8c0.6,0.6,1.5,1.3,2.8,2.1l0.6,0.4l0.5-1c0.5-1,0.8-1.6,0.8-2c0-0.6-0.6-1.1-1.9-1.8
				c-0.7-0.4-1.2-0.7-1.6-1.1c-0.4-0.4-0.7-0.9-1-1.5c-0.3-0.7-0.5-1.4-0.5-2.1c0-0.7,0.2-1.2,0.6-1.6c0.4-0.4,0.9-0.5,1.4-0.5
				c0.4,0,0.6,0,0.7,0c0.1,0,0.1-0.1,0.1-0.3c-0.1-0.3-0.2-0.8-0.2-1.7l-0.1-1.4L285.2,132.7z M293.4,137.2c0-1.5-0.4-2.8-1.2-3.6
				c-0.8-0.9-1.9-1.3-3.4-1.3c-1.4,0-2.1,0.6-2.1,1.8c0,0.4,0.1,0.9,0.2,1.5c0.1,0.5,0.3,0.9,0.6,1c0.3,0.2,1.3,0.5,3,1
				c0.4,0.1,0.7,0.2,1.2,0.4c0.4,0.1,0.7,0.2,1,0.3c0.2,0.1,0.4,0.1,0.5,0.1c0.2,0.1,0.3,0,0.4-0.2V137.2z"/>
		</g>
		<g>
			<path class="st1" d="M88.2,101.4H70.5v-8l-9.7,0c-0.6,0-0.9-0.3-0.9-0.9c0-0.6,0.3-0.9,0.9-0.9h9.7V66.9c0-0.6,0.3-0.9,0.9-0.9
				c0.6,0,0.9,0.3,0.9,0.9v16.8h15.9V101.4z"/>
			<path class="st1" d="M117.9,78.7c0,0.5-0.2,1-0.6,1.4l-6.1,6.1v15.2H93.5V83.7h15.1l6.2-6.2c0.4-0.4,0.8-0.6,1.4-0.6
				c0.5,0,0.9,0.2,1.3,0.5C117.7,77.8,117.9,78.2,117.9,78.7z"/>
			<path class="st1" d="M140.4,101.4h-17.7V83.7h8V74c0-0.6,0.3-0.9,0.9-0.9c0.6,0,0.9,0.3,0.9,0.9l0,9.7h8V101.4z M138.6,99.6V85.5
				h-14.2v14.2H138.6z"/>
			<path class="st1" d="M163.5,101.4h-17.7V83.7l7.1-7.1V74c0-0.5-0.2-0.9-0.5-1.3c-0.3-0.3-0.8-0.5-1.2-0.5c-0.5,0-0.9,0.2-1.3,0.5
				c-0.3,0.3-0.5,0.8-0.5,1.3v0.8c0,0.5-0.2,0.9-0.5,1.3c-0.3,0.4-0.8,0.5-1.3,0.5c-0.5,0-0.9-0.2-1.3-0.5c-0.3-0.4-0.5-0.8-0.5-1.3
				V74c0-1.5,0.5-2.7,1.6-3.7c1-1,2.3-1.5,3.8-1.5c1.3,0,2.5,0.4,3.5,1.3c1,0.9,1.6,1.9,1.8,3.2l4.3-4.3c0.3-0.3,0.5-0.4,0.7-0.4
				c0.2,0,0.4,0.1,0.6,0.3c0.4,0.4,0.4,0.9-0.1,1.3l-5.5,5.5v8.1h7.1V101.4z M152.8,83.7v-4.6l-4.6,4.6H152.8z"/>
			<path class="st1" d="M204.2,101.4h-17.7V90.8h-16.8c-0.6,0-0.9-0.3-0.9-0.9c0-0.6,0.3-0.9,0.9-0.9h16.8v-5.4h17.7V101.4z
				 M186.5,85.5c0,1.2-0.4,2.3-1.3,3.1c-0.9,0.9-1.9,1.3-3.1,1.3c-1.2,0-2.3-0.4-3.1-1.3c-0.9-0.9-1.3-1.9-1.3-3.1
				c0-1.2,0.4-2.3,1.3-3.2c0.9-0.9,1.9-1.3,3.1-1.3c1.2,0,2.3,0.4,3.1,1.3C186.1,83.2,186.5,84.3,186.5,85.5z M184.7,85.5
				c0-0.7-0.3-1.4-0.8-1.9c-0.5-0.5-1.1-0.8-1.9-0.8c-0.7,0-1.4,0.3-1.9,0.8c-0.5,0.5-0.8,1.1-0.8,1.9c0,0.7,0.3,1.4,0.8,1.9
				c0.5,0.5,1.1,0.8,1.9,0.8c0.7,0,1.4-0.3,1.9-0.8C184.5,86.9,184.7,86.2,184.7,85.5z M202.4,99.6V85.5h-14.2v14.2H202.4z"/>
			<path class="st1" d="M231.6,101.4h-17.7l-6-10.8c-0.3-0.5-0.1-0.8,0.4-1.1c0.5-0.3,0.9-0.2,1.2,0.3l4.5,8.1V83.7h17.7V101.4z"/>
		</g>
		<g>
			<path class="st1" d="M309.6,85.8l-10.8,10.8l0,0v0l-10.8-10.8l0,0l6.1-6v-9.9c0-0.5,0.3-0.8,0.8-0.8c0.5,0,0.8,0.3,0.8,0.8v8.3
				l2.2-2.2c1.2-1.2,1.8-2.5,1.8-3.8c0-0.9-0.3-1.7-1-2.4c-0.7-0.7-1.5-1-2.4-1c-1.3,0-2.6,0.6-3.8,1.8c-0.4,0.4-0.7,0.4-1.1,0
				c-0.4-0.4-0.4-0.7,0-1.1c1.5-1.5,3.1-2.3,4.9-2.3c1.4,0,2.5,0.5,3.5,1.5c1,1,1.5,2.1,1.5,3.5c0,1.3-0.4,2.5-1.3,3.7L309.6,85.8z"
				/>
		</g>
		<g>
			<path class="st2" d="M102.1,183.6c0,0.6-0.2,1.1-0.7,1.5l-7,6.5v16.3H74.1V189h17.4l7.1-6.6c0.4-0.4,1-0.6,1.6-0.6
				c0.6,0,1.1,0.2,1.5,0.6C101.9,182.7,102.1,183.1,102.1,183.6z"/>
			<path class="st2" d="M128.4,206.4c0.5,0.4,0.5,0.9,0,1.3c-0.5,0.5-1,0.5-1.4,0l-8.1-7.5v16.1c0,0.6-0.3,0.9-1,0.9
				c-0.7,0-1-0.3-1-0.9v-16.1h-0.1l-8,7.4c-0.3,0.3-0.6,0.4-0.8,0.4c-0.3,0-0.5-0.1-0.7-0.4c-0.4-0.5-0.3-0.9,0.1-1.3l8.6-7.9h-8.3
				v-18.9h20.4v18.9h-8.3L128.4,206.4z M126.1,196.5v-15.1h-16.3v15.1H126.1z"/>
			<path class="st2" d="M175.1,207.9h-20.5v-11.3h-19.4c-0.7,0-1-0.3-1-0.9c0-0.6,0.4-0.9,1-0.9h19.4V189h20.5V207.9z M154.7,190.9
				c0,1.3-0.5,2.4-1.5,3.3c-1,0.9-2.2,1.4-3.6,1.4c-1.4,0-2.6-0.5-3.6-1.4c-1-0.9-1.5-2-1.5-3.3c0-1.3,0.5-2.4,1.5-3.4
				c1-0.9,2.2-1.4,3.6-1.4c1.4,0,2.6,0.5,3.6,1.4C154.2,188.5,154.7,189.6,154.7,190.9z M152.6,190.9c0-0.8-0.3-1.5-0.9-2
				c-0.6-0.6-1.3-0.8-2.2-0.8c-0.9,0-1.6,0.3-2.2,0.8s-0.9,1.2-0.9,2c0,0.8,0.3,1.5,0.9,2c0.6,0.6,1.3,0.8,2.2,0.8
				c0.8,0,1.6-0.3,2.2-0.8S152.6,191.7,152.6,190.9z M173,206v-15.1h-16.3V206H173z"/>
			<path class="st2" d="M201.6,207.9h-20.4V189h20.4V207.9z"/>
			<path class="st2" d="M236.6,194.5l-14.4,13.4l0,0v0l-14.4-13.4l0,0l8.1-7.4v-12.2c0-0.6,0.3-1,1-1s1,0.3,1,1v10.2l2.9-2.7
				c1.6-1.5,2.4-3.1,2.4-4.7c0-1.1-0.5-2.1-1.4-3c-0.9-0.8-2-1.3-3.2-1.3c-1.8,0-3.4,0.8-5.1,2.3c-0.5,0.4-1,0.4-1.4,0
				c-0.5-0.4-0.5-0.9,0-1.3c2-1.9,4.2-2.8,6.5-2.8c1.8,0,3.3,0.6,4.6,1.8c1.3,1.2,1.9,2.6,1.9,4.3c0,1.6-0.6,3.1-1.7,4.6
				L236.6,194.5z"/>
			<path class="st2" d="M266.8,198.4h-17l14.1,13.1c0.6,0.5,0.6,1,0.1,1.5c-0.5,0.4-1,0.4-1.5-0.1l-14.1-13v16.5
				c0,0.6-0.3,0.9-1,0.9c-0.7,0-1-0.3-1-0.9v-36.9h20.4V198.4z M264.8,196.5v-15.1h-16.3v15.1H264.8z"/>
			<path class="st2" d="M298.5,207.9h-20.4l-6.9-11.6c-0.3-0.5-0.2-0.9,0.4-1.2c0.6-0.3,1-0.2,1.4,0.3l5.2,8.6v-15h20.4V207.9z"/>
		</g>
	</g>
	<g>
		<g>
			<path class="st3" d="M23.3,210.5v-1.9h18.5v-7.5h1.7v9.3H23.3z"/>
			<path class="st3" d="M23.3,196.2h20.2v1.9H23.3V196.2z"/>
			<path class="st3" d="M23.3,186.8c0-1.3,0.5-2.4,1.4-3.2c1-0.8,2-1.2,3.2-1.3c0.1,0,0.1,0,0.2,0c0.1,0,0.1,0,0.2,0
				c0.9,0,1.7,0.2,2.5,0.7c0.8,0.5,1.3,1.2,1.7,2.1c0.2-1,0.8-1.8,1.8-2.5c1-0.7,2.1-1,3.3-1.1c0.1,0,0.1,0,0.2,0c0.1,0,0.1,0,0.1,0
				c0.1,0,0.1,0,0.2,0c0.1,0,0.1,0,0.2,0c1.3,0.1,2.5,0.6,3.6,1.6c1.1,1,1.7,2.7,1.7,4.9v4.2H23.3V186.8z M31.8,190.5v-2.6
				c0,0,0,0,0,0c0,0,0,0,0,0c0,0,0,0,0-0.1c0-1.2-0.4-2-1.1-2.7c-0.8-0.6-1.6-0.9-2.5-0.9c0,0-0.1,0-0.1,0s-0.1,0-0.1,0
				c-0.8,0.1-1.5,0.4-2.2,1s-1,1.4-1,2.4v2.9H31.8z M41.8,187.7C41.8,187.7,41.8,187.7,41.8,187.7c0-0.1,0-0.1,0-0.2c0,0,0,0,0-0.1
				c0,0,0,0,0-0.1c0,0,0,0,0-0.1c0-1.3-0.4-2.2-1.3-2.9c-0.9-0.6-1.8-0.9-2.8-0.9c0,0-0.1,0-0.1,0c0,0-0.1,0-0.1,0
				c-1,0.1-1.9,0.4-2.7,1c-0.8,0.6-1.2,1.5-1.2,2.7v3.2h8.3V187.7z"/>
			<path class="st3" d="M23.3,174.2c0-1.8,0.5-3.2,1.4-4.1c0.9-0.9,2-1.5,3.1-1.6c0.1,0,0.2,0,0.3,0c0.1,0,0.2,0,0.3,0c0,0,0,0,0,0
				c0,0,0,0,0,0c1.1,0,2.1,0.3,3,1c0.9,0.6,1.4,1.5,1.5,2.6c0-0.1,0-0.1,0.1-0.2c0-0.1,0-0.1,0.1-0.1c0.4-1,1-1.7,1.8-2.1
				c0.8-0.4,2.5-0.6,5.1-0.6c0.2,0,0.3,0,0.5,0s0.4,0,0.6,0c0.4,0,0.8-0.1,1.2-0.2c0.4-0.1,0.6-0.3,0.7-0.6h0.4v1.9
				c-0.3,0.2-0.6,0.3-0.9,0.4c-0.3,0.1-0.6,0.1-1,0.1c-0.2,0-0.4,0-0.6,0c-0.2,0-0.4,0-0.7,0.1c-0.1,0-0.3,0-0.4,0
				c-0.2,0-0.3,0-0.5,0c-0.3,0-0.6,0-1,0c-0.3,0-0.7,0.1-1.1,0.1c-0.8,0.1-1.6,0.4-2.3,0.8s-1.1,1.2-1.1,2.4v3h9.6v1.9H23.3V174.2z
				 M32.2,177.2v-3c0,0,0,0,0-0.1c0,0,0-0.1,0-0.1c0,0,0,0,0-0.1c0,0,0-0.1,0-0.1c0-1-0.4-1.7-1.2-2.3c-0.8-0.5-1.6-0.8-2.5-0.8
				c-0.1,0-0.1,0-0.2,0c-0.1,0-0.1,0-0.2,0c-0.9,0.1-1.7,0.4-2.4,1c-0.7,0.6-1.1,1.5-1.1,2.6v2.8H32.2z"/>
			<path class="st3" d="M23.3,159.7l20.2-5.5v1.9l-6.4,1.5v6l6.4,1.7v1.9l-20.2-5.5V159.7z M35.4,163.2v-5.1l-10.2,2.8L35.4,163.2z"
				/>
			<path class="st3" d="M37.6,151.6c1.6-0.2,2.8-0.7,3.5-1.3c0.8-0.6,1.1-1.6,1.1-2.7c0-0.1,0-0.2,0-0.3c0-0.1,0-0.2,0-0.3
				c-0.1-0.8-0.5-1.5-1.2-2.2c-0.7-0.7-1.6-1-2.8-1h-0.8c-0.8,0.1-1.4,0.4-1.9,1.1c-0.4,0.6-0.8,1.4-1.2,2.3
				c-0.1,0.2-0.1,0.4-0.2,0.6c-0.1,0.2-0.2,0.4-0.2,0.6c-0.5,1.1-1.1,2.2-1.9,3.1c-0.8,0.9-2.1,1.4-3.8,1.4c-0.1,0-0.1,0-0.2,0
				c-0.1,0-0.2,0-0.2,0c0,0,0,0-0.1,0c0,0,0,0-0.1,0c-0.1,0-0.1,0-0.2,0c-0.1,0-0.1,0-0.2,0c-1.3-0.1-2.3-0.7-3-1.6
				c-0.7-1-1-2-1-3.2c0,0,0,0,0,0c0,0,0,0,0,0c0-0.1,0-0.2,0-0.3c0-0.1,0-0.2,0-0.3c0.1-1.2,0.6-2.3,1.4-3.3c0.8-1,2-1.5,3.5-1.6
				v1.9c-0.9,0-1.7,0.3-2.4,1c-0.6,0.7-1,1.4-1.2,2.3c0,0.1,0,0.2,0,0.3c0,0.1,0,0.2,0,0.3c0,0.7,0.3,1.4,0.8,2c0.5,0.6,1.4,1,2.6,1
				c0,0,0.1,0,0.1,0c0.1,0,0.1,0,0.1,0c0.1,0,0.1,0,0.2,0c0.1,0,0.1,0,0.1,0c1.3,0,2.2-0.4,2.8-1.3c0.6-0.9,1.1-1.8,1.5-2.9
				c0-0.1,0.1-0.1,0.1-0.2c0-0.1,0-0.1,0.1-0.2c0.5-1.1,1-2.1,1.7-3.1s1.8-1.5,3.3-1.5H38c1.9,0,3.3,0.6,4.3,1.7
				c1,1.1,1.5,2.4,1.6,3.7c0,0.1,0,0.2,0,0.2c0,0.1,0,0.1,0,0.2c0,0,0,0,0,0c0,0,0,0,0,0c0,1.4-0.5,2.6-1.5,3.8
				c-1,1.2-2.5,1.7-4.6,1.7c0,0,0,0-0.1,0c0,0-0.1,0-0.1,0c0,0,0,0-0.1,0c0,0,0,0-0.1,0V151.6z"/>
			<path class="st3" d="M30.1,124.3c-1.2-0.8-1.7-1.9-1.7-3.3c0-1.5,0.6-2.6,1.9-3.3c1.2-0.7,2.7-1,4.5-1c0.1,0,0.2,0,0.2,0
				c0.1,0,0.2,0,0.2,0c0,0,0.1,0,0.1,0c0,0,0.1,0,0.1,0c0.1,0,0.2,0,0.4,0c0.1,0,0.2,0,0.4,0v7c0,0,0.1,0,0.1,0c0,0,0.1,0,0.1,0
				c0,0,0.1,0,0.1,0c0.3,0,0.7,0,1.2,0c0.5,0,1.1-0.1,1.7-0.2c0.8-0.2,1.5-0.5,2.2-0.8s1-0.9,1-1.7c0-0.8-0.3-1.4-0.8-1.8
				s-1.1-0.6-1.7-0.7c-0.1,0-0.2,0-0.4,0c-0.1,0-0.2,0-0.4,0h-0.6v-1.7h0.5c1.6,0,2.8,0.4,3.5,1.2c0.7,0.8,1.2,1.7,1.2,2.7
				c0,0.1,0,0.1,0,0.2c0,0.1,0,0.1,0,0.2c-0.1,1.3-0.5,2.3-1.4,2.9c-0.8,0.6-1.8,1-2.8,1.2c-0.7,0.1-1.3,0.2-2,0.2
				c-0.6,0-1.1,0-1.5,0C33.4,125.5,31.3,125.1,30.1,124.3z M30.9,119.3c-0.7,0.5-1,1.1-1,1.7c0,0,0,0,0,0.1c0,0,0,0.1,0,0.1
				c0,0.8,0.4,1.5,1.1,1.9c0.7,0.4,2,0.7,3.8,0.8v-5.3C32.8,118.5,31.6,118.7,30.9,119.3z"/>
			<path class="st3" d="M23.3,97.5h20.2v1.9H23.3V97.5z"/>
			<path class="st3" d="M28.6,92h1c-0.4-0.2-0.7-0.6-1-1.1c-0.3-0.6-0.4-1.2-0.4-1.8c0,0,0,0,0-0.1s0,0,0-0.1c0,0,0-0.1,0-0.1
				c0,0,0-0.1,0-0.1c0-0.6,0.2-1.2,0.5-1.7c0.3-0.5,0.8-0.9,1.4-1.2c-0.4-0.2-0.8-0.7-1.2-1.3c-0.3-0.6-0.6-1.2-0.6-1.9
				c0-0.1,0-0.2,0-0.2c0-0.1,0-0.1,0-0.2c0-0.8,0.3-1.6,1-2.3c0.6-0.7,1.8-1.1,3.4-1.1h10.8v1.5H32.2c-0.9,0-1.5,0.2-2,0.7
				c-0.4,0.5-0.7,1-0.7,1.6c0,0,0,0,0,0c0,0,0,0,0,0c0,0,0,0,0,0.1c0,0,0,0.1,0,0.1c0,0.6,0.3,1.2,0.9,1.8c0.5,0.5,1.4,0.8,2.4,0.8
				h10.6v1.7H32.2c-0.9,0-1.5,0.3-2,0.8c-0.4,0.5-0.6,1.1-0.6,1.6c0,0,0,0,0,0.1c0,0,0,0.1,0,0.1c0,0.6,0.3,1.2,0.8,1.8
				c0.5,0.5,1.2,0.8,2.2,0.8h10.8v1.5H28.6V92z"/>
			<path class="st3" d="M32.2,75.9C32.2,75.9,32.2,75.9,32.2,75.9c-1.1,0-2.1-0.3-2.9-0.9c-0.9-0.6-1.3-1.6-1.3-2.9
				c0-1.7,0.4-2.8,1.1-3.4c0.8-0.6,2-0.9,3.6-0.9h8.1c0.7,0,1.2,0,1.3-0.1c0.1-0.1,0.2-0.4,0.2-0.9h1.3c0,0.1,0,0.2,0,0.3
				c0,0.1,0,0.2,0,0.3c0,0.1,0,0.2,0,0.3c0,0.1,0,0.2,0,0.2c0,0.6-0.1,1-0.3,1.2c-0.2,0.2-0.6,0.4-1.3,0.4c0.1,0,0.1,0.1,0.2,0.1
				c0.1,0,0.1,0.1,0.1,0.1c0.4,0.3,0.7,0.7,1,1.1c0.3,0.4,0.4,1.2,0.4,2.3c0,1-0.3,1.8-1,2.3c-0.7,0.6-1.6,0.8-2.7,0.8
				c-0.2,0-0.4,0-0.6,0c-0.2,0-0.4-0.1-0.7-0.1c0,0-0.1,0-0.1,0c0,0-0.1,0-0.2,0c-0.1,0-0.1,0-0.2,0c-0.9-0.2-1.6-0.6-2.1-1.2
				c-0.5-0.6-0.8-1.3-1.1-2c-0.1-0.2-0.2-0.4-0.3-0.7c-0.1-0.2-0.1-0.4-0.2-0.6c-0.2-0.6-0.4-1.1-0.7-1.5c-0.2-0.4-0.6-0.6-1-0.6
				c-1.5,0-2.5,0.2-3,0.6c-0.5,0.4-0.7,1-0.7,1.7c0,0.8,0.3,1.4,0.8,1.7c0.5,0.3,1.3,0.5,2.2,0.6L32.2,75.9
				C32.2,75.9,32.2,75.9,32.2,75.9z M35.5,70c0.1,0.2,0.3,0.5,0.4,0.9c0.1,0.2,0.2,0.4,0.2,0.6c0.1,0.2,0.1,0.4,0.2,0.6
				c0.3,0.7,0.6,1.3,1,1.8c0.4,0.5,1.1,0.8,1.9,0.8c0.8,0,1.5-0.1,2.1-0.4c0.6-0.2,0.8-0.8,0.8-1.8c0-1-0.4-1.7-1.1-2.2
				s-1.7-0.8-2.9-0.8H35C35.2,69.6,35.3,69.7,35.5,70z"/>
			<path class="st3" d="M28.6,57.6v-1.7h15.5c0.2,0,0.5,0,0.8,0.1c0.3,0,0.6,0.1,0.9,0.2c0.7,0.2,1.3,0.6,1.9,1.3
				c0.6,0.6,0.8,1.6,0.8,2.8l0,0.4c0,0.2,0,0.5-0.1,0.8c0,0.3-0.1,0.6-0.2,0.9c-0.2,0.6-0.5,1.1-1,1.5c-0.5,0.5-1.3,0.7-2.3,0.8
				l0-1.7c0,0,0,0,0.1,0c0,0,0,0,0.1,0c0.1,0,0.2,0,0.3,0c0.1,0,0.2-0.1,0.3-0.1c0.4-0.2,0.7-0.5,1-1c0.3-0.5,0.5-0.9,0.5-1.5
				c0,0,0-0.1,0-0.2c0-0.1,0-0.1,0-0.2c0-0.1,0-0.1,0-0.2c0-0.1,0-0.1,0-0.1c-0.1-0.6-0.4-1.1-1-1.6c-0.6-0.5-1.5-0.7-2.9-0.7h-0.7
				c0.3,0.2,0.6,0.6,0.8,1.1c0.2,0.5,0.3,1,0.4,1.6c0,0,0,0.1,0,0.1s0,0.1,0,0.1c0,0.2,0,0.4,0,0.5c0,0.2-0.1,0.4-0.1,0.5
				c-0.2,0.9-0.9,1.8-2,2.5c-1.1,0.8-2.8,1.2-5,1.2c0,0-0.1,0-0.1,0c0,0-0.1,0-0.1,0s-0.1,0-0.1,0c-0.1,0-0.1,0-0.1,0
				c-2.8-0.1-4.8-0.5-6-1.3c-1.2-0.8-1.8-1.6-1.9-2.6c0-0.1,0-0.2,0-0.2s0-0.1,0-0.2c0-0.1,0-0.2,0-0.2c0-0.1,0-0.2,0-0.2
				c0.1-0.6,0.3-1.1,0.6-1.6c0.3-0.5,0.7-0.9,1.1-1.1H28.6z M31.3,58.2c-1.1,0.4-1.6,1.2-1.6,2.4c0,0.8,0.6,1.5,1.7,2
				c1.1,0.5,2.8,0.7,5.1,0.7c2.6-0.1,4.2-0.4,4.9-1c0.7-0.6,1.1-1.2,1.1-2c0-1.2-0.5-2-1.6-2.3c-1.1-0.4-2.6-0.6-4.5-0.7
				C34,57.5,32.4,57.8,31.3,58.2z"/>
			<path class="st3" d="M30.1,51.9c-1.2-0.8-1.7-1.9-1.7-3.3c0-1.5,0.6-2.6,1.9-3.3c1.2-0.7,2.7-1,4.5-1c0.1,0,0.2,0,0.2,0
				c0.1,0,0.2,0,0.2,0c0,0,0.1,0,0.1,0c0,0,0.1,0,0.1,0c0.1,0,0.2,0,0.4,0c0.1,0,0.2,0,0.4,0v7c0,0,0.1,0,0.1,0c0,0,0.1,0,0.1,0
				c0,0,0.1,0,0.1,0c0.3,0,0.7,0,1.2,0c0.5,0,1.1-0.1,1.7-0.2c0.8-0.2,1.5-0.5,2.2-0.8s1-0.9,1-1.7c0-0.8-0.3-1.4-0.8-1.8
				c-0.5-0.4-1.1-0.6-1.7-0.7c-0.1,0-0.2,0-0.4,0c-0.1,0-0.2,0-0.4,0h-0.6v-1.7h0.5c1.6,0,2.8,0.4,3.5,1.2c0.7,0.8,1.2,1.7,1.2,2.7
				c0,0.1,0,0.1,0,0.2c0,0.1,0,0.1,0,0.2c-0.1,1.3-0.5,2.3-1.4,2.9c-0.8,0.6-1.8,1-2.8,1.2c-0.7,0.1-1.3,0.2-2,0.2
				c-0.6,0-1.1,0-1.5,0C33.4,53.1,31.3,52.7,30.1,51.9z M30.9,46.8c-0.7,0.5-1,1.1-1,1.7c0,0,0,0,0,0.1c0,0,0,0.1,0,0.1
				c0,0.8,0.4,1.5,1.1,1.9c0.7,0.4,2,0.7,3.8,0.8V46C32.8,46,31.6,46.3,30.9,46.8z"/>
			<path class="st3" d="M29.9,40c-0.5-0.3-0.9-0.7-1.2-1.2c-0.3-0.5-0.5-1-0.6-1.6c0-0.1,0-0.2,0-0.3c0-0.1,0-0.2,0-0.3
				c0,0,0,0,0-0.1c0,0,0-0.1,0-0.1c0-0.8,0.4-1.5,1-2.2c0.6-0.7,1.6-1,3-1h11.5v1.7H31.8c-0.8,0-1.4,0.2-1.7,0.7
				c-0.4,0.4-0.6,0.9-0.6,1.5c0,0.1,0,0.2,0,0.2c0,0.1,0,0.1,0,0.2c0.1,0.6,0.4,1.2,1,1.7c0.5,0.5,1.3,0.8,2.2,0.8h10.8v1.7H28.6V40
				H29.9z"/>
			<path class="st3" d="M32.2,23.7c-0.8,0-1.5,0.2-1.9,0.7c-0.4,0.4-0.7,0.9-0.8,1.4c0,0,0,0.1,0,0.1c0,0.1,0,0.1,0,0.2c0,0,0,0,0,0
				c0,0,0,0,0,0c0,0.6,0.2,1.1,0.7,1.5c0.4,0.5,1,0.7,1.6,0.7c0.6,0,1.1-0.2,1.5-0.6c0.4-0.4,0.7-1,1.1-1.6c0.1-0.2,0.2-0.4,0.3-0.6
				c0.1-0.2,0.2-0.4,0.4-0.6c0.5-0.8,1.1-1.6,1.8-2.3c0.7-0.7,1.7-1.1,3.1-1.1c0.1,0,0.2,0,0.3,0c0.1,0,0.3,0,0.4,0
				c0.1,0,0.1,0,0.2,0c0.1,0,0.1,0,0.2,0c0.9,0.1,1.6,0.6,2.2,1.4c0.6,0.9,0.9,1.8,0.9,2.8c0,0,0,0,0,0c0,0,0,0,0,0
				c0,0.1,0,0.2,0,0.3c0,0.1,0,0.2,0,0.3c-0.1,0.9-0.6,1.8-1.3,2.6c-0.7,0.8-1.9,1.3-3.5,1.4v-1.7c1.1-0.1,2-0.4,2.5-0.9
				s0.8-1.1,0.8-1.7c0,0,0,0,0-0.1c0,0,0-0.1,0-0.1c0,0,0,0,0-0.1s0-0.1,0-0.1c0-0.6-0.3-1.2-0.7-1.8c-0.4-0.5-1-0.8-1.6-0.9h-0.4
				c-1.1,0-1.9,0.3-2.4,1s-1,1.4-1.4,2.3c0,0,0,0.1-0.1,0.1c0,0,0,0.1,0,0.1c-0.4,0.7-0.8,1.4-1.3,2.1c-0.5,0.7-1.2,1.1-2.1,1.3
				c0,0-0.1,0-0.1,0c0,0-0.1,0-0.1,0c0,0-0.1,0-0.1,0c-0.1,0-0.2,0-0.4,0.1c-0.1,0-0.2,0-0.3,0c-1.1,0-1.9-0.4-2.6-1.2
				c-0.6-0.8-1-1.7-1-2.7c0,0,0-0.1,0-0.1s0-0.1,0-0.1c0-0.1,0-0.1,0-0.2c0-0.1,0-0.1,0-0.2c0.1-0.9,0.5-1.8,1.1-2.5
				s1.7-1.2,3.1-1.3V23.7z"/>
		</g>
	</g>
</g>
</svg>
