<?xml version="1.0" encoding="utf-8"?>
<!-- Generator: Adobe Illustrator 24.1.3, SVG Export Plug-In . SVG Version: 6.00 Build 0)  -->
<svg version="1.1" id="Layer_1" xmlns="http://www.w3.org/2000/svg" xmlns:xlink="http://www.w3.org/1999/xlink" x="0px" y="0px"
	 viewBox="0 0 512 512" style="enable-background:new 0 0 512 512;" xml:space="preserve">
<style type="text/css">
	.st0{fill:none;stroke:#003087;stroke-width:8;stroke-miterlimit:10;}
	.st1{fill:none;stroke:#003087;stroke-width:8;stroke-linecap:round;stroke-linejoin:round;stroke-miterlimit:10;}
	.st2{fill:none;stroke:#231F20;stroke-width:2;stroke-miterlimit:10;}
	.st3{fill:#003087;stroke:#003087;stroke-width:7;stroke-miterlimit:10;}
	.st4{fill:none;stroke:#003087;stroke-width:7;stroke-miterlimit:10;}
	.st5{fill:#003087;stroke:#003087;stroke-width:5.9816;stroke-linecap:round;stroke-linejoin:round;stroke-miterlimit:10;}
	.st6{fill:none;stroke:#003087;stroke-width:1.5924;stroke-miterlimit:10;}
	.st7{fill:none;stroke:#003087;stroke-width:4.7773;stroke-miterlimit:10;}
	.st8{fill:none;stroke:#003087;stroke-width:1.2617;stroke-miterlimit:10;}
	.st9{fill:none;stroke:#000000;stroke-width:2.9998;stroke-miterlimit:10;}
	.st10{fill:none;stroke:#003087;stroke-width:6.2158;stroke-miterlimit:10;}
	.st11{fill:none;stroke:#003087;stroke-width:3.5741;stroke-miterlimit:10;}
	.st12{fill:#003087;}
	.st13{fill:none;stroke:#003087;stroke-width:3.2417;stroke-miterlimit:10;}
	.st14{fill:none;stroke:#003087;stroke-width:5.6729;stroke-miterlimit:10;}
	.st15{fill:#003087;stroke:#003087;stroke-width:6.9881;stroke-linecap:round;stroke-linejoin:round;stroke-miterlimit:10;}
	.st16{fill:#003087;stroke:#003087;stroke-width:6.9881;stroke-miterlimit:10;}
	.st17{fill:none;stroke:#003087;stroke-width:7;stroke-linecap:round;stroke-linejoin:round;stroke-miterlimit:10;}
	.st18{fill:none;stroke:#003087;stroke-width:4.1218;stroke-miterlimit:10;}
	.st19{fill:none;stroke:#000000;stroke-width:5.884;stroke-miterlimit:10;}
	.st20{fill:none;stroke:#000000;stroke-width:4.2322;stroke-miterlimit:10;}
	.st21{fill:none;stroke:#000000;stroke-width:4.5849;stroke-miterlimit:10;}
	.st22{fill:none;stroke:#231F20;stroke-width:8;stroke-miterlimit:10;}
	.st23{fill:#FFFFFF;}
	.st24{fill:none;stroke:#003087;stroke-width:19.9736;stroke-linecap:round;stroke-linejoin:round;}
	.st25{fill:#003087;stroke:#003087;stroke-miterlimit:10;}
	.st26{fill:#FFFFFF;stroke:#003087;stroke-miterlimit:10;}
	.st27{fill:none;stroke:#003087;stroke-width:8.5308;stroke-linecap:round;stroke-linejoin:round;}
	.st28{fill:none;stroke:#003087;stroke-width:6.9514;stroke-miterlimit:10;}
	.st29{fill:none;stroke:#003087;stroke-width:5.1161;stroke-miterlimit:10;}
	.st30{fill:none;stroke:#003087;stroke-width:5.5424;stroke-miterlimit:10;}
</style>
<g>
	<g>
		<path class="st6" d="M113.01,161.41c-0.24-5.2,3.16-7.35,6.86-9.19c0.76-0.38,1.74-0.43,2.62-0.44c4.43-0.04,8.85-0.03,13.28-0.02
			c5.77,0.01,9.53,3.08,10.8,8.77c0.04,0.19,0.15,0.36,0.29,0.71c4.82,0,9.71,0,14.96,0c0.78-2.98,1.62-6.04,2.37-9.13
			c1.98-8.19,4.12-16.34,5.8-24.59c1.71-8.4,7.58-12.62,14.71-15.78c0.87-0.39,1.96-0.39,2.95-0.39
			c45.48-0.02,90.96-0.02,136.44,0.02c1.37,0,2.8,0.32,4.09,0.78c3.68,1.31,6.68,3.74,9.33,6.49c2.73,2.83,3.65,6.67,4.58,10.35
			c2.51,9.92,4.86,19.87,7.28,29.81c0.19,0.77,0.44,1.53,0.76,2.61c1.2,0,2.38,0,3.56,0c19.22,0,38.44,0.08,57.66-0.06
			c4.19-0.03,7.86,1.58,11.63,2.8c2.23,0.72,3.71,2.84,4.58,5.29c1.73,4.9,2.21,9.87,2.21,15.06c-0.09,66.06-0.08,132.11,0,198.17
			c0,3.97-1.21,7.52-2.62,11.03c-0.63,1.56-2.12,3.01-3.58,3.94c-2.79,1.76-5.79,3.04-9.29,3.04
			c-105.55-0.04-211.11-0.04-316.66-0.02c-4.03,0-7.39-1.63-10.54-3.86c-0.79-0.56-1.55-1.4-1.92-2.28
			c-1.31-3.13-2.85-6.21-2.93-9.71c-0.02-0.9-0.01-1.81-0.01-2.71c0-66.06,0-132.11,0-198.17c0-4.3-0.09-8.52,1.59-12.73
			c0.96-2.41,1.78-4.61,3.8-6.26c0.31-0.25,0.61-0.61,0.97-0.7c3.57-0.93,6.85-2.89,10.69-2.83
			C103.69,161.45,108.11,161.41,113.01,161.41z M113.63,162.32c-1.88,0-3.48,0-5.08,0c-5.81,0.02-11.69-0.54-17.15,2.18
			c-0.17,0.09-0.39,0.11-0.59,0.13c-2.48,0.3-4.31,2-4.92,3.98c-1.18,3.78-2.8,7.44-2.8,11.62c0.08,66.36,0.07,132.73,0.02,199.09
			c0,4.27,0.46,8.36,1.93,12.39c0.85,2.32,2.16,4.2,4.21,5.3c2.8,1.5,5.7,2.76,9.1,2.75c38.95-0.07,77.89-0.04,116.84-0.04
			c66.02,0,132.03-0.02,198.05,0.05c3.61,0,6.67-1.32,9.65-2.94c1.34-0.73,2.75-2.06,3.25-3.43c1.39-3.83,2.75-7.65,2.75-11.92
			c-0.08-65.46-0.07-130.92-0.04-196.38c0-4.73,0.14-9.45-2-13.86c-0.17-0.36-0.24-0.76-0.34-1.15c-0.7-2.91-2.5-4.69-5.39-5.44
			c-1.07-0.28-2.13-0.6-3.15-1.01c-2.27-0.91-4.58-1.34-7.04-1.33c-19.32,0.04-38.64,0.02-57.97,0.02c-1.19,0-2.38,0-3.68,0
			c-0.31-1-0.59-1.73-0.78-2.49c-2.59-10.62-5.24-21.22-7.73-31.87c-1.73-7.39-6.34-12.13-13.19-14.87
			c-1.35-0.54-2.91-0.81-4.37-0.81c-44.78-0.04-89.56-0.04-134.35-0.02c-1.09,0-2.24,0.01-3.27,0.31
			c-4.26,1.27-7.67,3.93-10.68,7.07c-1.67,1.75-2.81,3.87-3.38,6.29c-2.69,11.42-5.42,22.83-8.16,34.24
			c-0.16,0.66-0.49,1.28-0.76,1.97c-5.6,0-11.09,0-16.65,0c-0.13-0.53-0.23-0.9-0.32-1.28c-1.26-5.26-4.92-8.18-10.29-8.19
			c-3.92-0.01-7.85-0.01-11.77,0c-4.52,0.01-8.35,2.93-9.49,7.25C113.9,160.58,113.82,161.27,113.63,162.32z"/>
		<path class="st7" d="M113.63,162.32c0.19-1.05,0.28-1.74,0.45-2.4c1.14-4.32,4.96-7.24,9.49-7.25c3.92-0.01,7.85-0.01,11.77,0
			c5.37,0.01,9.03,2.93,10.29,8.19c0.09,0.38,0.19,0.75,0.32,1.28c5.56,0,11.05,0,16.65,0c0.27-0.69,0.6-1.31,0.76-1.97
			c2.74-11.41,5.47-22.82,8.16-34.24c0.57-2.42,1.71-4.54,3.38-6.29c3.01-3.15,6.42-5.8,10.68-7.07c1.03-0.31,2.18-0.31,3.27-0.31
			c44.78-0.01,89.56-0.02,134.35,0.02c1.46,0,3.02,0.27,4.37,0.81c6.85,2.74,11.46,7.49,13.19,14.87
			c2.49,10.64,5.14,21.25,7.73,31.87c0.19,0.76,0.46,1.5,0.78,2.49c1.3,0,2.49,0,3.68,0c19.32,0,38.64,0.02,57.97-0.02
			c2.46-0.01,4.78,0.43,7.04,1.33c1.02,0.41,2.09,0.73,3.15,1.01c2.89,0.75,4.7,2.54,5.39,5.44c0.09,0.39,0.17,0.8,0.34,1.15
			c2.14,4.41,2,9.12,2,13.86c-0.03,65.46-0.04,130.92,0.04,196.38c0.01,4.27-1.35,8.09-2.75,11.92c-0.5,1.38-1.91,2.71-3.25,3.43
			c-2.97,1.62-6.03,2.94-9.65,2.94c-66.02-0.07-132.03-0.05-198.05-0.05c-38.95,0-77.89-0.02-116.84,0.04
			c-3.4,0.01-6.3-1.25-9.1-2.75c-2.04-1.09-3.36-2.98-4.21-5.3c-1.48-4.03-1.94-8.12-1.93-12.39c0.06-66.36,0.06-132.73-0.02-199.09
			c-0.01-4.18,1.61-7.84,2.8-11.62c0.62-1.98,2.45-3.68,4.92-3.98c0.2-0.02,0.41-0.04,0.59-0.13c5.47-2.72,11.35-2.17,17.15-2.18
			C110.14,162.32,111.74,162.32,113.63,162.32z M178.22,288.39c-0.48,5.8,0.36,11.43,1.91,16.98c0.22,0.77,0.41,1.55,0.59,2.33
			c2.92,12.83,8.97,24.05,17.83,33.69c3.1,3.38,6.97,6.04,10.28,9.24c5.11,4.95,11.42,7.87,17.79,10.54
			c10.86,4.54,22.38,5.33,34.02,4.93c2-0.07,3.99-0.4,6-0.5c7.23-0.36,14.13-2.27,20.58-5.33c6.41-3.04,12.43-6.75,18.05-11.31
			c8.72-7.08,15.25-15.66,20.34-25.46c3.07-5.9,4.86-12.3,6.28-18.79c0.62-2.84,1.7-5.67,1.74-8.52c0.11-7.69,0.34-15.33-1.57-23.02
			c-2.67-10.75-6.24-20.83-12.97-29.83c-5.43-7.26-11.54-13.77-19.01-18.74c-6.92-4.6-14.33-8.53-22.5-10.68
			c-2.03-0.53-3.99-1.49-6.05-1.77c-4.27-0.58-8.58-1.01-12.89-1.15c-3.4-0.11-6.82,0.52-10.22,0.43c-8.4-0.21-15.99,2.84-23.48,5.9
			c-10.67,4.36-19.82,11.13-27.23,19.95c-3.93,4.67-7.85,9.57-10.6,14.97C181.35,263.53,178.18,275.63,178.22,288.39z
			 M374.91,234.72c5.63,0,11.26,0.07,16.89-0.03c3.08-0.05,5.84-1.06,7.72-3.7c1.26-1.77,1.83-3.76,1.82-5.93
			c-0.02-5.22,0.02-10.45-0.01-15.67c-0.03-5.77-4.28-9.96-10.09-9.96c-10.36-0.01-20.71,0.04-31.07-0.04
			c-2.16-0.02-4.09,0.39-6.04,1.34c-3.77,1.85-5.39,5.02-5.58,8.9c-0.23,4.61,0.11,9.25-0.1,13.86c-0.17,3.75,1.61,6.51,3.78,9.18
			c0.29,0.36,0.77,0.63,1.21,0.8c2.34,0.89,4.72,1.39,7.29,1.3C365.46,234.6,370.19,234.72,374.91,234.72z M311.36,162.14
			c0.01-0.15,0.02-0.3,0.02-0.44c-0.27-0.09-0.55-0.26-0.82-0.26c-36.19-0.02-72.38-0.03-108.57-0.03c-0.4,0-0.79,0.08-1.19,0.14
			c-0.08,0.01-0.16,0.12-0.21,0.2c-0.03,0.05-0.01,0.13-0.01,0.38C237.51,162.14,274.44,162.14,311.36,162.14z"/>
		<path class="st6" d="M178.22,288.39c-0.03-12.76,3.14-24.86,8.88-36.13c2.75-5.4,6.67-10.29,10.6-14.97
			c7.41-8.82,16.56-15.59,27.23-19.95c7.49-3.06,15.08-6.12,23.48-5.9c3.4,0.09,6.82-0.54,10.22-0.43
			c4.31,0.14,8.62,0.58,12.89,1.15c2.06,0.28,4.02,1.24,6.05,1.77c8.17,2.15,15.58,6.08,22.5,10.68
			c7.47,4.97,13.58,11.48,19.01,18.74c6.73,8.99,10.3,19.08,12.97,29.83c1.91,7.69,1.68,15.33,1.57,23.02
			c-0.04,2.85-1.12,5.68-1.74,8.52c-1.42,6.49-3.21,12.89-6.28,18.79c-5.09,9.8-11.62,18.38-20.34,25.46
			c-5.62,4.57-11.64,8.27-18.05,11.31c-6.45,3.06-13.35,4.97-20.58,5.33c-2,0.1-3.99,0.43-6,0.5c-11.63,0.4-23.16-0.39-34.02-4.93
			c-6.37-2.66-12.68-5.59-17.79-10.54c-3.31-3.2-7.18-5.87-10.28-9.24c-8.85-9.65-14.9-20.86-17.83-33.69
			c-0.18-0.78-0.37-1.56-0.59-2.33C178.58,299.82,177.74,294.2,178.22,288.39z M179.16,288.48c0,2.51-0.23,5.05,0.06,7.53
			c0.32,2.67,1.1,5.29,1.72,7.92c2,8.53,4.71,16.73,9.14,24.41c5.66,9.81,13.7,17.35,22.5,24.05c6.74,5.14,14.57,8.46,22.87,10.49
			c2.04,0.5,4.1,1,6.18,1.23c4.29,0.48,8.59,0.79,12.89,1.13c1,0.08,2.01,0.07,3.01-0.01c3.7-0.32,7.39-0.74,11.09-1.01
			c6.39-0.48,12.5-2.22,18.21-4.92c6.8-3.21,13.04-7.32,18.94-12.16c7.58-6.21,13.14-13.85,17.89-22.13
			c4.23-7.36,6.09-15.67,7.93-23.91c0.44-1.95,1.12-3.92,1.15-5.88c0.12-7.21,0.4-14.4-1.72-21.49c-1.87-6.23-3.11-12.63-5.9-18.6
			c-2.29-4.88-5.59-9.06-8.68-13.37c-4.96-6.93-11.2-12.7-18.41-17.18c-6.82-4.24-13.98-7.93-21.87-9.92
			c-1.26-0.32-2.48-0.83-3.72-1.22c-0.57-0.18-1.16-0.39-1.75-0.41c-6.9-0.22-13.76-1.46-20.71-0.67c-5.37,0.61-10.84,0.5-15.9,2.85
			c-1.09,0.5-2.28,0.79-3.43,1.14c-7.67,2.38-14.57,6.22-20.91,11.1c-10.29,7.93-18.53,17.67-23.68,29.56
			C181.77,266.94,179.07,277.46,179.16,288.48z"/>
		<path class="st6" d="M374.91,234.72c-4.73,0-9.45-0.11-14.17,0.05c-2.57,0.09-4.95-0.41-7.29-1.3c-0.44-0.17-0.92-0.44-1.21-0.8
			c-2.18-2.67-3.96-5.43-3.78-9.18c0.21-4.61-0.12-9.25,0.1-13.86c0.19-3.88,1.81-7.05,5.58-8.9c1.96-0.96,3.88-1.36,6.04-1.34
			c10.35,0.07,20.71,0.02,31.07,0.04c5.82,0.01,10.06,4.19,10.09,9.96c0.03,5.22,0,10.45,0.01,15.67c0.01,2.17-0.56,4.17-1.82,5.93
			c-1.89,2.64-4.65,3.65-7.72,3.7C386.17,234.79,380.54,234.72,374.91,234.72z M375.11,233.81c5.53,0,11.06,0.04,16.59-0.01
			c3.97-0.04,6.86-2.14,8.08-5.88c0.4-1.21,0.61-2.54,0.63-3.82c0.07-4.62-0.16-9.25,0.08-13.86c0.31-5.9-4.66-9.98-10.04-9.93
			c-9.95,0.08-19.91,0.09-29.86-0.02c-2.31-0.03-4.29,0.49-6.25,1.63c-3.13,1.83-4.74,4.59-4.87,8.08
			c-0.16,4.41,0.07,8.84-0.08,13.26c-0.11,3.25,1.38,5.74,3.25,8.12c0.35,0.45,0.83,0.93,1.35,1.11c2.24,0.79,4.47,1.47,6.96,1.37
			C365.65,233.67,370.38,233.81,375.11,233.81z"/>
		<path class="st6" d="M311.36,162.14c-36.93,0-73.85,0-110.78,0c0-0.25-0.03-0.33,0.01-0.38c0.05-0.08,0.13-0.19,0.21-0.2
			c0.39-0.06,0.79-0.14,1.19-0.14c36.19,0,72.38,0.01,108.57,0.03c0.27,0,0.55,0.17,0.82,0.26
			C311.38,161.85,311.37,162,311.36,162.14z"/>
		<path class="st6" d="M179.16,288.48c-0.09-11.02,2.61-21.54,6.91-31.49c5.14-11.89,13.38-21.63,23.68-29.56
			c6.34-4.88,13.24-8.71,20.91-11.1c1.15-0.36,2.34-0.64,3.43-1.14c5.06-2.34,10.53-2.24,15.9-2.85c6.95-0.79,13.81,0.46,20.71,0.67
			c0.59,0.02,1.18,0.23,1.75,0.41c1.25,0.39,2.46,0.9,3.72,1.22c7.89,1.99,15.05,5.68,21.87,9.92c7.22,4.49,13.45,10.25,18.41,17.18
			c3.09,4.31,6.4,8.49,8.68,13.37c2.79,5.97,4.03,12.37,5.9,18.6c2.13,7.1,1.84,14.29,1.72,21.49c-0.03,1.97-0.71,3.93-1.15,5.88
			c-1.84,8.24-3.7,16.54-7.93,23.91c-4.76,8.28-10.32,15.91-17.89,22.13c-5.9,4.84-12.14,8.95-18.94,12.16
			c-5.71,2.69-11.82,4.44-18.21,4.92c-3.7,0.28-7.39,0.7-11.09,1.01c-1,0.09-2.01,0.09-3.01,0.01c-4.3-0.34-8.61-0.65-12.89-1.13
			c-2.08-0.23-4.14-0.73-6.18-1.23c-8.29-2.03-16.12-5.35-22.87-10.49c-8.8-6.7-16.84-14.24-22.5-24.05
			c-4.43-7.68-7.14-15.88-9.14-24.41c-0.62-2.63-1.4-5.25-1.72-7.92C178.93,293.53,179.16,290.99,179.16,288.48z M256.31,236.46
			c-4.16,0.41-7.97,0.12-11.29,1.25c-6.8,2.31-13.68,4.45-19.64,8.92c-5.23,3.93-9.81,8.38-13.36,13.77
			c-7.58,11.51-9.66,24.25-7.53,37.74c2.34,14.84,10.65,25.88,22.83,33.97c8.82,5.86,18.65,9.13,29.54,8.87
			c7.09-0.17,13.63-1.98,20.07-4.68c6.42-2.7,11.84-6.85,16.73-11.64c4.24-4.16,7.64-8.99,10.13-14.47c1.81-4,2.35-8.25,3.3-12.44
			c1.33-5.89,1.57-11.68,0.01-17.55c-0.77-2.89-1.01-5.93-1.87-8.79c-1.98-6.55-5.61-12.19-10.21-17.22
			c-5.01-5.48-10.81-9.88-17.71-12.7c-3.16-1.29-6.31-2.76-9.61-3.51C263.81,237.09,259.78,236.9,256.31,236.46z"/>
		<path class="st6" d="M375.11,233.81c-4.73,0-9.46-0.14-14.17,0.06c-2.49,0.1-4.71-0.58-6.96-1.37c-0.52-0.18-1-0.66-1.35-1.11
			c-1.87-2.38-3.35-4.87-3.25-8.12c0.15-4.42-0.09-8.84,0.08-13.26c0.13-3.49,1.74-6.25,4.87-8.08c1.96-1.14,3.94-1.66,6.25-1.63
			c9.95,0.11,19.91,0.11,29.86,0.02c5.38-0.04,10.35,4.04,10.04,9.93c-0.24,4.61,0,9.24-0.08,13.86c-0.02,1.28-0.23,2.6-0.63,3.82
			c-1.22,3.73-4.11,5.83-8.08,5.88C386.17,233.85,380.64,233.81,375.11,233.81z"/>
		<path class="st6" d="M256.31,236.46c3.47,0.43,7.51,0.63,11.38,1.51c3.3,0.75,6.45,2.22,9.61,3.51c6.9,2.82,12.7,7.22,17.71,12.7
			c4.6,5.03,8.23,10.67,10.21,17.22c0.87,2.86,1.1,5.9,1.87,8.79c1.57,5.87,1.32,11.66-0.01,17.55c-0.95,4.19-1.49,8.44-3.3,12.44
			c-2.48,5.49-5.89,10.31-10.13,14.47c-4.89,4.8-10.3,8.95-16.73,11.64c-6.44,2.7-12.98,4.51-20.07,4.68
			c-10.89,0.26-20.72-3.01-29.54-8.87c-12.18-8.09-20.49-19.13-22.83-33.97c-2.13-13.49-0.05-26.23,7.53-37.74
			c3.55-5.39,8.12-9.83,13.36-13.77c5.95-4.48,12.84-6.61,19.64-8.92C248.34,236.58,252.15,236.87,256.31,236.46z M255.77,237.47
			c-3.39,0.35-6.98,0.09-10.12,1.17c-7.08,2.42-14.3,4.62-20.39,9.39c-6.93,5.43-12.62,11.74-16.09,19.91
			c-1.85,4.36-3,8.86-3.78,13.56c-1.08,6.57-0.5,12.98,0.79,19.36c1.42,6.99,4.58,13.21,9,18.84c3.71,4.73,8.28,8.48,13.17,11.82
			c5.87,4.02,12.56,6.19,19.46,7.82c4.49,1.06,9.1,1.16,13.48,0.45c12.29-1.98,23.2-7.03,31.89-16.25
			c3.88-4.11,7.33-8.51,9.57-13.76c1.34-3.14,2.2-6.4,2.8-9.78c1.1-6.12,2.36-12.17,0.72-18.41c-0.81-3.09-1.05-6.33-1.97-9.38
			c-1.82-6.03-4.97-11.33-9.12-16.13c-5.23-6.04-11.34-10.75-18.75-13.72C269.82,239.71,263.21,236.9,255.77,237.47z"/>
		<path class="st6" d="M255.77,237.47c7.44-0.57,14.04,2.23,20.66,4.88c7.41,2.97,13.53,7.68,18.75,13.72
			c4.15,4.8,7.3,10.1,9.12,16.13c0.92,3.05,1.16,6.29,1.97,9.38c1.64,6.24,0.38,12.29-0.72,18.41c-0.6,3.38-1.46,6.63-2.8,9.78
			c-2.24,5.25-5.7,9.65-9.57,13.76c-8.69,9.21-19.6,14.27-31.89,16.25c-4.39,0.71-8.99,0.61-13.48-0.45
			c-6.89-1.63-13.58-3.8-19.46-7.82c-4.89-3.34-9.46-7.1-13.17-11.82c-4.42-5.63-7.58-11.84-9-18.84
			c-1.3-6.38-1.88-12.79-0.79-19.36c0.77-4.7,1.93-9.21,3.78-13.56c3.47-8.16,9.16-14.48,16.09-19.91
			c6.09-4.77,13.31-6.97,20.39-9.39C248.79,237.57,252.39,237.82,255.77,237.47z"/>
	</g>
	<g>
		<path class="st8" d="M256.1,311.81c-4.12-0.03-7.59-0.85-11.01-2.07c-3.37-1.2-6.43-2.97-9.34-4.98
			c-2.41-1.66-4.63-3.59-6.87-5.49c-2.48-2.09-4.61-4.54-6.76-6.96c-0.55-0.61-1.01-1.31-1.52-1.95c-0.21-0.26-0.06-0.42,0.08-0.62
			c1.32-1.88,2.96-3.48,4.53-5.14c4.77-5.04,10.15-9.29,16.32-12.5c2.74-1.43,5.66-2.38,8.69-3.02c2.78-0.59,5.58-0.73,8.42-0.41
			c2.05,0.23,4.11,0.5,6.05,1.18c2.07,0.73,4.12,1.56,6.11,2.49c2.71,1.26,5.23,2.87,7.58,4.73c1.96,1.55,3.84,3.22,5.72,4.88
			c2.67,2.35,4.9,5.1,7.22,7.77c0.27,0.32,0.22,0.51-0.02,0.8c-3.39,4.24-7.19,8.07-11.39,11.52c-3.02,2.48-6.27,4.61-9.78,6.29
			c-3.43,1.63-7.01,2.88-10.83,3.25C258.07,311.69,256.85,311.75,256.1,311.81z M255.35,311.66c0.53-0.03,1.09-0.07,1.66-0.1
			c3.41-0.18,6.71-0.82,9.91-2.08c2.26-0.9,4.46-1.92,6.55-3.15c2.82-1.66,5.43-3.63,7.91-5.77c3.55-3.05,6.76-6.42,9.7-10.06
			c0.23-0.28,0.27-0.46,0-0.76c-1.52-1.71-2.93-3.52-4.54-5.13c-1.92-1.93-3.95-3.76-6.02-5.55c-3.98-3.43-8.39-6.16-13.3-8.11
			c-3.63-1.45-7.39-2.12-11.26-2.28c-2.02-0.08-4.01,0.23-5.99,0.65c-2.9,0.62-5.69,1.57-8.33,2.92c-4.49,2.3-8.55,5.22-12.3,8.59
			c-3.02,2.72-5.86,5.62-8.39,8.82c-0.26,0.33-0.29,0.55-0.02,0.9c2.22,2.87,4.7,5.5,7.35,7.97c2.53,2.36,5.17,4.6,8.09,6.47
			c2.82,1.81,5.7,3.5,8.88,4.63C248.53,310.78,251.85,311.51,255.35,311.66z"/>
		<path class="st8" d="M255.35,311.66c-3.5-0.15-6.82-0.88-10.07-2.04c-3.18-1.13-6.06-2.82-8.88-4.63
			c-2.92-1.88-5.56-4.11-8.09-6.47c-2.65-2.47-5.13-5.1-7.35-7.97c-0.27-0.35-0.24-0.57,0.02-0.9c2.53-3.2,5.36-6.1,8.39-8.82
			c3.74-3.37,7.81-6.29,12.3-8.59c2.64-1.35,5.43-2.29,8.33-2.92c1.97-0.42,3.97-0.73,5.99-0.65c3.87,0.15,7.63,0.83,11.26,2.28
			c4.91,1.96,9.32,4.68,13.3,8.11c2.07,1.78,4.1,3.61,6.02,5.55c1.61,1.62,3.02,3.43,4.54,5.13c0.26,0.3,0.22,0.48,0,0.76
			c-2.94,3.64-6.16,7-9.7,10.06c-2.48,2.14-5.09,4.11-7.91,5.77c-2.09,1.23-4.29,2.25-6.55,3.15c-3.19,1.26-6.5,1.91-9.91,2.08
			C256.44,311.59,255.87,311.62,255.35,311.66z M255.97,307.31c9.51,0.08,17.23-7.57,17.23-17.15c0-9.52-7.6-17.13-17.12-17.18
			c-9.54-0.05-17.19,7.64-17.25,17.05C238.76,299.63,246.54,307.38,255.97,307.31z"/>
		<path class="st8" d="M255.97,307.31c-9.43,0.07-17.21-7.68-17.14-17.29c0.07-9.41,7.71-17.1,17.25-17.05
			c9.53,0.05,17.12,7.67,17.12,17.18C273.2,299.74,265.48,307.39,255.97,307.31z M256.07,307.16c9.41-0.09,16.95-7.42,16.95-17.03
			c-0.01-9.42-7.41-16.93-16.96-16.96c-9.59-0.03-17.04,7.56-17.04,16.97C239.01,299.75,246.64,307.15,256.07,307.16z"/>
		<path class="st8" d="M256.07,307.16c-9.43-0.01-17.06-7.4-17.06-17.02c0-9.41,7.46-17.01,17.04-16.97
			c9.56,0.03,16.96,7.54,16.96,16.96C273.02,299.73,265.48,307.06,256.07,307.16z M256,296.84c3.62-0.03,6.67-2.93,6.7-6.67
			c0.03-3.57-2.88-6.65-6.61-6.7c-3.62-0.04-6.72,2.88-6.75,6.6C249.3,293.75,252.26,296.76,256,296.84z"/>
		<path class="st8" d="M256,296.84c-3.73-0.08-6.7-3.09-6.66-6.76c0.04-3.72,3.13-6.65,6.75-6.6c3.73,0.04,6.64,3.13,6.61,6.7
			C262.67,293.91,259.62,296.81,256,296.84z M249.49,290.12c0.16,3.67,2.85,6.51,6.55,6.52c3.6,0.01,6.46-2.84,6.47-6.52
			c0.01-3.57-2.86-6.47-6.46-6.47C252.4,283.66,249.64,286.49,249.49,290.12z"/>
		<path class="st8" d="M249.49,290.12c0.16-3.64,2.92-6.46,6.56-6.46c3.6,0,6.47,2.9,6.46,6.47c-0.01,3.67-2.87,6.52-6.47,6.52
			C252.33,296.63,249.64,293.79,249.49,290.12z"/>
	</g>
</g>
<rect x="28.22" y="47.88" class="st0" width="455.56" height="416.24"/>
</svg>
