<?xml version="1.0" encoding="utf-8"?>
<!-- Generator: Adobe Illustrator 24.1.3, SVG Export Plug-In . SVG Version: 6.00 Build 0)  -->
<svg version="1.1" id="Layer_1" xmlns="http://www.w3.org/2000/svg" xmlns:xlink="http://www.w3.org/1999/xlink" x="0px" y="0px"
	 viewBox="0 0 512 512" style="enable-background:new 0 0 512 512;" xml:space="preserve">
<style type="text/css">
	.st0{fill:none;stroke:#003087;stroke-width:8;stroke-miterlimit:10;}
	.st1{fill:none;stroke:#003087;stroke-width:8;stroke-linecap:round;stroke-linejoin:round;stroke-miterlimit:10;}
	.st2{fill:none;stroke:#231F20;stroke-width:2;stroke-miterlimit:10;}
	.st3{fill:#003087;stroke:#003087;stroke-width:7;stroke-miterlimit:10;}
	.st4{fill:none;stroke:#003087;stroke-width:7;stroke-miterlimit:10;}
	.st5{fill:#003087;stroke:#003087;stroke-width:5.9816;stroke-linecap:round;stroke-linejoin:round;stroke-miterlimit:10;}
	.st6{fill:none;stroke:#003087;stroke-width:1.5924;stroke-miterlimit:10;}
	.st7{fill:none;stroke:#003087;stroke-width:4.7773;stroke-miterlimit:10;}
	.st8{fill:none;stroke:#003087;stroke-width:1.2617;stroke-miterlimit:10;}
	.st9{fill:none;stroke:#000000;stroke-width:2.9998;stroke-miterlimit:10;}
	.st10{fill:none;stroke:#003087;stroke-width:6.2158;stroke-miterlimit:10;}
	.st11{fill:none;stroke:#003087;stroke-width:3.5741;stroke-miterlimit:10;}
	.st12{fill:#003087;}
	.st13{fill:none;stroke:#003087;stroke-width:3.2417;stroke-miterlimit:10;}
	.st14{fill:none;stroke:#003087;stroke-width:5.6729;stroke-miterlimit:10;}
	.st15{fill:#003087;stroke:#003087;stroke-width:6.9881;stroke-linecap:round;stroke-linejoin:round;stroke-miterlimit:10;}
	.st16{fill:#003087;stroke:#003087;stroke-width:6.9881;stroke-miterlimit:10;}
	.st17{fill:none;stroke:#003087;stroke-width:7;stroke-linecap:round;stroke-linejoin:round;stroke-miterlimit:10;}
	.st18{fill:none;stroke:#003087;stroke-width:4.1218;stroke-miterlimit:10;}
	.st19{fill:none;stroke:#000000;stroke-width:5.884;stroke-miterlimit:10;}
	.st20{fill:none;stroke:#000000;stroke-width:4.2322;stroke-miterlimit:10;}
	.st21{fill:none;stroke:#000000;stroke-width:4.5849;stroke-miterlimit:10;}
	.st22{fill:none;stroke:#231F20;stroke-width:8;stroke-miterlimit:10;}
	.st23{fill:#FFFFFF;}
	.st24{fill:none;stroke:#003087;stroke-width:19.9736;stroke-linecap:round;stroke-linejoin:round;}
	.st25{fill:#003087;stroke:#003087;stroke-miterlimit:10;}
	.st26{fill:#FFFFFF;stroke:#003087;stroke-miterlimit:10;}
	.st27{fill:none;stroke:#003087;stroke-width:8.5308;stroke-linecap:round;stroke-linejoin:round;}
	.st28{fill:none;stroke:#003087;stroke-width:6.9514;stroke-miterlimit:10;}
	.st29{fill:none;stroke:#003087;stroke-width:5.1161;stroke-miterlimit:10;}
	.st30{fill:none;stroke:#003087;stroke-width:5.5424;stroke-miterlimit:10;}
</style>
<g>
	<g>
		<rect x="28.22" y="47.88" class="st0" width="455.56" height="416.24"/>
	</g>
	<g>
		<path class="st0" d="M99.14,256.3c7.41-6.46,14.4-12.55,21.4-18.64c3.06-2.66,6.03-5.43,9.2-7.94c1.98-1.56,2.07-3.04,1.1-5.22
			c-4.8-10.76-9.47-21.58-14.18-32.38c-0.51-1.18-0.97-2.38-1.61-3.96c2.11-0.64,3.87-1.23,5.68-1.7
			c10.94-2.85,21.87-5.75,32.85-8.44c2.47-0.6,3.19-1.69,3.23-4.13c0.17-10.6,0.53-21.19,0.88-31.78c0.08-2.47,0.38-4.94,0.63-7.96
			c5.46,0.9,10.57,1.73,15.67,2.59c7.62,1.29,15.26,2.51,22.86,3.94c2.71,0.51,4.23-0.06,5.61-2.69
			c5.36-10.23,11.01-20.31,16.57-30.43c0.73-1.33,1.56-2.61,2.51-4.19c1.33,0.91,2.41,1.6,3.43,2.37
			c9.45,7.07,18.93,14.08,28.29,21.26c2.09,1.6,3.55,1.54,5.6-0.02c9.37-7.17,18.85-14.19,28.29-21.26c1.02-0.76,2.1-1.45,3.49-2.4
			c1.3,2.39,2.43,4.45,3.54,6.53c4.86,9.15,9.88,18.22,14.45,27.51c1.58,3.22,3.45,3.81,6.64,3.24c11.83-2.11,23.69-4.05,35.54-6.04
			c0.8-0.13,1.63-0.12,2.89-0.21c0.27,3.52,0.64,6.9,0.77,10.3c0.36,9.76,0.7,19.52,0.87,29.28c0.04,2.45,0.8,3.51,3.25,4.12
			c11.55,2.86,23.05,5.93,34.56,8.94c1.13,0.3,2.24,0.69,3.8,1.17c-0.62,1.62-1.1,3.04-1.69,4.4c-4.47,10.26-8.81,20.57-13.53,30.71
			c-1.56,3.34-0.96,5.23,1.76,7.51c8.59,7.19,16.97,14.63,25.42,21.99c1.24,1.08,2.42,2.24,3.98,3.7
			c-4.64,3.97-9.04,7.75-13.47,11.51c-5.45,4.63-10.85,9.33-16.41,13.81c-2.31,1.86-2.85,3.49-1.54,6.34
			c4.71,10.28,9.13,20.69,13.65,31.05c0.61,1.4,1.17,2.83,1.9,4.61c-1.46,0.49-2.63,0.97-3.85,1.29
			c-11.51,3.01-23.01,6.07-34.56,8.94c-2.43,0.6-3.2,1.66-3.27,4.12c-0.33,12.38-0.85,24.75-1.33,37.13
			c-0.04,0.93-0.2,1.85-0.37,3.3c-4.85-0.82-9.49-1.56-14.11-2.41c-8.31-1.52-16.61-3.07-24.9-4.7c-2.66-0.52-4.33,0.02-5.69,2.7
			c-5.29,10.4-10.84,20.66-16.31,30.97c-0.6,1.13-1.3,2.21-2.12,3.59c-1.63-1.14-3-2.04-4.32-3.03
			c-9.07-6.78-18.19-13.49-27.13-20.43c-2.37-1.84-3.9-1.65-6.15,0.08c-9.26,7.12-18.65,14.05-28.01,21.05
			c-0.94,0.71-1.93,1.36-3.27,2.3c-0.85-1.33-1.66-2.43-2.32-3.63c-5.57-10.12-11.23-20.19-16.57-30.43c-1.57-3-3.29-3.7-6.48-3.06
			c-11.66,2.35-23.37,4.45-35.07,6.62c-0.79,0.15-1.62,0.02-2.83,0.02c-0.23-2.47-0.58-4.92-0.66-7.37
			c-0.36-10.83-0.74-21.66-0.88-32.5c-0.04-2.65-0.86-3.72-3.44-4.35c-10.98-2.69-21.9-5.61-32.84-8.46
			c-1.69-0.44-3.36-0.98-5.46-1.6c0.64-1.64,1.11-2.94,1.66-4.21c4.6-10.59,9.12-21.21,13.9-31.72c1.21-2.66,0.88-4.19-1.36-6.04
			c-8.47-6.96-16.78-14.11-25.14-21.2C102.61,259.44,101.13,258.07,99.14,256.3z M101.13,256.34c1.8,1.58,3.12,2.76,4.47,3.91
			c8.46,7.16,16.89,14.37,25.43,21.43c2.08,1.72,2.51,3.16,1.34,5.72c-4.69,10.29-9.12,20.69-13.64,31.06
			c-0.6,1.38-1.14,2.79-1.87,4.59c1.85,0.53,3.29,0.98,4.74,1.36c11.06,2.87,22.11,5.77,33.19,8.55c2.18,0.55,3.14,1.47,3.17,3.85
			c0.08,7.14,0.38,14.29,0.67,21.43c0.25,6.14,0.6,12.27,0.91,18.55c1.37-0.11,2.45-0.1,3.49-0.29c11.7-2.16,23.42-4.25,35.07-6.61
			c2.56-0.52,3.67,0.28,4.78,2.32c5.37,9.96,10.84,19.87,16.28,29.79c0.84,1.53,1.74,3.04,2.75,4.8c1.35-0.94,2.43-1.64,3.46-2.41
			c9.35-6.99,18.74-13.94,28.01-21.05c1.96-1.5,3.3-1.54,5.26-0.02c6.78,5.26,13.69,10.35,20.56,15.49
			c3.51,2.62,7.03,5.23,10.84,8.06c0.82-1.45,1.48-2.55,2.08-3.67c5.46-10.31,10.95-20.61,16.35-30.96
			c1.08-2.08,2.21-2.89,4.76-2.35c7.91,1.67,15.89,3.03,23.86,4.46c5.1,0.92,10.21,1.76,15.73,2.7c0-1.87-0.04-3.16,0.01-4.45
			c0.42-11.9,0.91-23.8,1.24-35.71c0.07-2.52,1.15-3.42,3.48-3.99c11.09-2.74,22.14-5.65,33.2-8.53c1.43-0.37,2.81-0.91,4.4-1.43
			c-0.77-1.86-1.34-3.29-1.95-4.7c-4.52-10.37-9-20.75-13.64-31.07c-1.01-2.24-0.78-3.65,1.15-5.19c4.01-3.19,7.86-6.58,11.77-9.89
			c6.06-5.15,12.11-10.3,18.43-15.68c-1.76-1.56-3.16-2.83-4.59-4.07c-8.54-7.44-17.04-14.92-25.66-22.26
			c-1.9-1.62-2.09-2.99-1.1-5.2c4.69-10.42,9.22-20.91,13.79-31.39c0.6-1.36,1.12-2.76,1.77-4.39c-1.32-0.42-2.2-0.74-3.09-0.97
			c-11.51-3.01-23.01-6.09-34.56-8.96c-2.39-0.6-3.34-1.6-3.41-4.06c-0.33-11.55-0.82-23.09-1.25-34.63
			c-0.05-1.38-0.12-2.76-0.19-4.27c-1.48,0-2.56-0.15-3.58,0.02c-11.74,1.94-23.49,3.82-35.19,5.97c-2.86,0.52-4.32-0.17-5.63-2.73
			c-5.27-10.28-10.74-20.45-16.15-30.66c-0.59-1.12-1.26-2.19-1.99-3.47c-1.29,0.9-2.28,1.54-3.22,2.25
			c-8.87,6.64-17.85,13.15-26.54,20.03c-3.14,2.48-5.25,2.75-8.51,0.11c-7.79-6.28-15.94-12.11-23.96-18.11
			c-1.88-1.41-3.81-2.77-5.93-4.3c-0.76,1.3-1.37,2.29-1.93,3.31c-5.68,10.34-11.4,20.64-16.97,31.04c-1.28,2.38-2.68,3.07-5.4,2.57
			c-11.46-2.13-22.98-3.97-34.46-5.98c-2.56-0.45-3.89-0.14-3.96,3.07c-0.26,11.9-0.9,23.8-1.24,35.7
			c-0.07,2.43-0.84,3.53-3.28,4.13c-10.98,2.7-21.91,5.61-32.84,8.46c-1.56,0.41-3.09,0.97-4.87,1.53c0.65,1.68,1.11,3.01,1.67,4.29
			c4.56,10.48,9.06,20.99,13.77,31.4c1.08,2.39,0.8,3.86-1.22,5.45c-2.9,2.28-5.61,4.81-8.4,7.23
			C115.71,243.64,108.63,249.81,101.13,256.34z"/>
		<path class="st0" d="M255.91,357.73c-57.68,0.26-101.82-46.3-101.88-101.54c-0.06-55.71,44.41-102.8,103.74-101.93
			c56.65,0.84,100.3,46.72,100.24,102C357.95,310.76,314.24,358.05,255.91,357.73z M255.9,356.57
			c57.58-0.36,100.53-45.54,100.74-100.21c0.21-54.22-41.91-100.36-99.77-100.78c-58.6-0.42-101.67,45.38-101.49,100.68
			C155.57,311.9,198.89,356.05,255.9,356.57z"/>
	</g>
</g>
</svg>
