<?xml version="1.0" encoding="utf-8"?>
<!-- Generator: Adobe Illustrator 24.1.3, SVG Export Plug-In . SVG Version: 6.00 Build 0)  -->
<svg version="1.1" id="Layer_1" xmlns="http://www.w3.org/2000/svg" xmlns:xlink="http://www.w3.org/1999/xlink" x="0px" y="0px"
	 viewBox="0 0 512 512" style="enable-background:new 0 0 512 512;" xml:space="preserve">
<style type="text/css">
	.st0{fill:#003087;stroke:#003087;stroke-width:4.1443;stroke-miterlimit:10;}
	.st1{fill:none;stroke:#003087;stroke-width:4.1443;stroke-miterlimit:10;}
	.st2{fill:none;stroke:#003087;stroke-width:3.5414;stroke-linecap:round;stroke-linejoin:round;stroke-miterlimit:10;}
	.st3{fill:none;stroke:#003087;stroke-width:8;stroke-miterlimit:10;}
	.st4{fill:none;stroke:#003087;stroke-width:9;stroke-miterlimit:10;}
</style>
<g>
	<g>
		<path class="st0" d="M416.3,88.9c10.4,10.5,20.6,20.9,30.9,31.3c1.8-1.7,3.4-3.4,5.1-5c-10.3-10.5-20.6-20.8-30.9-31.3
			C419.7,85.5,418,87.2,416.3,88.9z M406,99.1c10.4,10.5,20.7,20.9,30.9,31.3c1.8-1.7,3.4-3.4,5.1-5c-10.3-10.5-20.6-20.8-30.9-31.3
			C409.3,95.8,407.7,97.4,406,99.1z M434.4,86.6c5.1,5.2,10.2,10.3,15.2,15.4c1.8-1.7,3.4-3.4,5.1-5c-5.1-5.2-10.1-10.3-15.2-15.4
			C437.8,83.3,436.2,84.9,434.4,86.6z"/>
		<path class="st0" d="M321.2,207.8c-1.5-2.1-3-4.2-4.4-6.4c-11.4-18.1-10.4-42,2.5-59.2c8.6-11.4,19.9-18.4,33.9-20.8
			c11-1.9,21.9-4.1,32.3-8.3c5.2-2.1,10.3-4.5,14.2-9.1c10.7,10.8,21.3,21.6,32,32.4c-0.1,0.1-0.1,0.3-0.3,0.5
			c-6.5,5.1-9.7,12.2-11.6,19.9c-2.3,9-4.2,18.2-6.2,27.3c-1.8,8.5-5.3,16.1-10.8,22.8c-0.3,0.3-0.5,0.8-0.7,1.1
			c-2.2,2.1-4.3,4.3-6.5,6.4c-1,0.7-2,1.4-3,2.1c-17.3,12.6-41.3,13.3-59.2,1.7c-2.2-1.4-4.2-2.9-6.3-4.4
			C325.2,211.8,323.2,209.8,321.2,207.8z M400,114.6c-5,2.2-9.6,4.6-14.4,6.4c-10.3,3.9-21.1,6-31.9,7.9c-11.6,2.1-21,7.9-28.1,17.2
			c-15.4,20.3-11.2,49,9.4,64.2c25.3,18.6,62.2,5.9,70.4-24.4c1.7-6.3,2.7-12.8,4.1-19.1c1.8-8.1,3.8-16.2,7.6-23.7
			c1.2-2.4,2.7-4.6,4.1-7C414.1,128.9,407,121.7,400,114.6z"/>
		<path class="st0" d="M416.3,88.9c1.7-1.7,3.4-3.3,5.1-5c10.3,10.4,20.6,20.8,30.9,31.3c-1.7,1.6-3.3,3.3-5.1,5
			C437,109.8,426.7,99.4,416.3,88.9z"/>
		<path class="st0" d="M406,99.1c1.7-1.7,3.4-3.3,5.1-5c10.3,10.4,20.6,20.8,30.9,31.3c-1.6,1.6-3.3,3.3-5.1,5
			C426.6,120,416.3,109.6,406,99.1z"/>
		<path class="st0" d="M434.4,86.6c1.8-1.7,3.4-3.4,5.1-5c5.1,5.1,10.1,10.2,15.2,15.4c-1.7,1.6-3.4,3.3-5.1,5
			C444.6,96.9,439.6,91.8,434.4,86.6z"/>
		<path class="st1" d="M400,114.6c7,7,14.2,14.3,21.3,21.6c-1.4,2.3-2.9,4.6-4.1,7c-3.8,7.5-5.9,15.5-7.6,23.7
			c-1.4,6.4-2.4,12.9-4.1,19.1c-8.3,30.3-45.2,43.1-70.4,24.4c-20.6-15.2-24.9-43.9-9.4-64.2c7.1-9.3,16.5-15.2,28.1-17.2
			c10.8-1.9,21.6-3.9,31.9-7.9C390.4,119.2,395,116.9,400,114.6z M356.9,150.3c-1-0.2-2-0.7-3-0.7c-1.4,0.1-2.8,0.4-4.1,1
			c-8.1,3.7-13.9,9.7-17,18c-1.6,4.3-1.6,8.7,0.1,13c0.8,2,2.7,3,4.6,2.3c1.9-0.7,2.8-2.6,2-4.7c-1.4-3.6-1-7.1,0.8-10.4
			c3.3-6,7.7-10.7,14.7-12.4C357.9,155.8,358.8,152.6,356.9,150.3z"/>
		<path class="st0" d="M356.9,150.3c1.8,2.3,0.9,5.5-1.8,6.1c-7,1.7-11.4,6.4-14.7,12.4c-1.8,3.3-2.2,6.8-0.8,10.4
			c0.8,2.1-0.1,4-2,4.7c-1.9,0.7-3.8-0.3-4.6-2.3c-1.8-4.3-1.7-8.7-0.1-13c3.1-8.4,8.9-14.3,17-18c1.3-0.6,2.7-0.9,4.1-1
			C354.9,149.6,355.9,150.1,356.9,150.3z"/>
	</g>
	<line class="st2" x1="323.2" y1="215.3" x2="302" y2="241.1"/>
	<line class="st2" x1="292.9" y1="187.5" x2="259.5" y2="187.3"/>
	<line class="st2" x1="352" y1="247.4" x2="351.8" y2="280.7"/>
</g>
<rect x="28.2" y="47.9" class="st3" width="455.6" height="416.2"/>
<ellipse transform="matrix(0.5579 -0.8299 0.8299 0.5579 -188.4682 302.3892)" class="st4" cx="189.6" cy="328.1" rx="42.6" ry="158.4"/>
</svg>
