<?xml version="1.0" encoding="utf-8"?>
<!-- Generator: Adobe Illustrator 24.1.3, SVG Export Plug-In . SVG Version: 6.00 Build 0)  -->
<svg version="1.1" id="Layer_1" xmlns="http://www.w3.org/2000/svg" xmlns:xlink="http://www.w3.org/1999/xlink" x="0px" y="0px"
	 viewBox="0 0 512 512" style="enable-background:new 0 0 512 512;" xml:space="preserve">
<style type="text/css">
	.st0{fill:none;stroke:#003087;stroke-width:8;stroke-miterlimit:10;}
	.st1{fill:none;stroke:#003087;stroke-width:8;stroke-linecap:round;stroke-linejoin:round;stroke-miterlimit:10;}
	.st2{fill:none;stroke:#231F20;stroke-width:2;stroke-miterlimit:10;}
	.st3{fill:#003087;stroke:#003087;stroke-width:7;stroke-miterlimit:10;}
	.st4{fill:none;stroke:#003087;stroke-width:7;stroke-miterlimit:10;}
	.st5{fill:#003087;stroke:#003087;stroke-width:5.9816;stroke-linecap:round;stroke-linejoin:round;stroke-miterlimit:10;}
	.st6{fill:none;stroke:#003087;stroke-width:1.5924;stroke-miterlimit:10;}
	.st7{fill:none;stroke:#003087;stroke-width:4.7773;stroke-miterlimit:10;}
	.st8{fill:none;stroke:#003087;stroke-width:1.2617;stroke-miterlimit:10;}
	.st9{fill:none;stroke:#000000;stroke-width:2.9998;stroke-miterlimit:10;}
	.st10{fill:none;stroke:#003087;stroke-width:6.2158;stroke-miterlimit:10;}
	.st11{fill:none;stroke:#003087;stroke-width:3.5741;stroke-miterlimit:10;}
	.st12{fill:#003087;}
	.st13{fill:none;stroke:#003087;stroke-width:3.2417;stroke-miterlimit:10;}
	.st14{fill:none;stroke:#003087;stroke-width:5.6729;stroke-miterlimit:10;}
	.st15{fill:#003087;stroke:#003087;stroke-width:6.9881;stroke-linecap:round;stroke-linejoin:round;stroke-miterlimit:10;}
	.st16{fill:#003087;stroke:#003087;stroke-width:6.9881;stroke-miterlimit:10;}
	.st17{fill:none;stroke:#003087;stroke-width:7;stroke-linecap:round;stroke-linejoin:round;stroke-miterlimit:10;}
	.st18{fill:none;stroke:#003087;stroke-width:4.1218;stroke-miterlimit:10;}
	.st19{fill:none;stroke:#000000;stroke-width:5.884;stroke-miterlimit:10;}
	.st20{fill:none;stroke:#000000;stroke-width:4.2322;stroke-miterlimit:10;}
	.st21{fill:none;stroke:#000000;stroke-width:4.5849;stroke-miterlimit:10;}
	.st22{fill:none;stroke:#231F20;stroke-width:8;stroke-miterlimit:10;}
	.st23{fill:#FFFFFF;}
	.st24{fill:none;stroke:#003087;stroke-width:19.9736;stroke-linecap:round;stroke-linejoin:round;}
	.st25{fill:#003087;stroke:#003087;stroke-miterlimit:10;}
	.st26{fill:#FFFFFF;stroke:#003087;stroke-miterlimit:10;}
	.st27{fill:none;stroke:#003087;stroke-width:8.5308;stroke-linecap:round;stroke-linejoin:round;}
	.st28{fill:none;stroke:#003087;stroke-width:6.9514;stroke-miterlimit:10;}
	.st29{fill:none;stroke:#003087;stroke-width:5.1161;stroke-miterlimit:10;}
	.st30{fill:none;stroke:#003087;stroke-width:5.5424;stroke-miterlimit:10;}
</style>
<g>
	<g>
		<g>
			<rect x="28.22" y="47.88" class="st0" width="455.56" height="416.24"/>
		</g>
	</g>
	<g>
		<path class="st25" d="M284.68,341.2c0.01,0,0.02,0,0.03,0c0-10.31,0-20.62,0-30.93c0-0.33,0-0.67,0.01-1
			c0.27-5.41,3.38-8.68,8.25-8.66c4.64,0.02,7.83,3.15,8.12,8.3c0.21,3.81-0.07,7.66,0.16,11.47c0.77,12.58,11.53,22.49,23.84,22.11
			c12.75-0.39,22.42-10.33,22.59-23.22c0.48-34.93-28.28-64.69-63.24-65.25c-14.96-0.24-29.93-0.29-44.89-0.01
			c-26.56,0.51-45.79,13.14-58.02,36.45c-8.5,16.19-7.85,33.86-6.57,51.26c1.03,13.94,11.78,22.53,24.92,21.75
			c12.49-0.74,21.11-10.88,21.23-24.92c0.03-3.65-0.38-7.34,0.71-10.91c1.14-3.75,3.67-5.91,7.63-6.02
			c3.97-0.11,6.56,1.92,7.95,5.59c0.79,2.08,0.74,4.24,0.74,6.4c0.01,12.3-0.01,24.61,0.02,36.91c0,2.65-0.01,5.3,0.78,7.9
			c3.15,10.46,14.11,18.05,24.31,16.74c12.34-1.57,21.12-10.86,21.39-23.07C284.86,361.83,284.68,351.51,284.68,341.2z
			 M150.77,236.85c2.82,0.34,4.93-1.69,7.09-3.49c19.81-16.49,39.57-33.03,59.42-49.48c3.2-2.65,4.49-5.75,3.33-9.67
			c-0.79-2.69-3.22-4.17-5.24-5.87c-13.9-11.63-27.83-23.23-41.76-34.82c-6.01-5-11.99-10.03-18.11-14.89
			c-3.47-2.75-7.11-2.7-10.29,0.59c-2.78,2.87-2.41,7.6,0.68,10.79c0.81,0.83,1.76,1.52,2.65,2.26
			c16.49,13.72,32.94,27.49,49.49,41.14c2.96,2.44,3.58,4.13,0.17,6.88c-10.37,8.33-20.51,16.94-30.73,25.47
			c-7.15,5.97-14.27,11.96-21.38,17.97c-2.73,2.31-3.44,5.35-2.23,8.58C144.94,235.15,147.2,236.81,150.77,236.85z M361.29,116.66
			c-2.28,0.3-4.15,1.34-5.84,2.75c-20.06,16.71-40.16,33.37-60.16,50.15c-6.09,5.11-5.91,9.77,0.13,14.81
			c13.28,11.08,26.54,22.18,39.82,33.25c7.03,5.85,14.01,11.77,21.18,17.44c3.7,2.93,8.04,2.36,10.67-0.89
			c2.46-3.03,2.07-7.13-1.04-10.31c-1.04-1.07-2.2-2.03-3.35-2.99c-16.22-13.52-32.4-27.1-48.74-40.48c-3.19-2.62-3.3-4.3-0.11-6.87
			c8.67-7,17.17-14.21,25.73-21.33c8.57-7.12,17.12-14.26,25.7-21.36c3.02-2.5,4.14-5.64,2.88-9.34
			C367.1,118.28,364.45,116.98,361.29,116.66z"/>
	</g>
	<path class="st26" d="M268.86,338.99c0,10.8,0.04,21.61-0.02,32.41c-0.02,3.93-1.9,6.62-5.82,7.68c-3.35,0.91-5.84-0.48-7.83-3.02
		c-1.45-1.85-1.2-4.09-1.2-6.24c-0.02-12.8,0.14-25.6-0.06-38.39c-0.24-15.72-11.43-26.52-26.23-25.65
		c-11.92,0.7-21.47,10.63-21.69,22.56c-0.08,3.99,0.16,8.01-0.32,11.95c-0.59,4.87-3.75,7.53-7.94,7.3c-4.61-0.25-7.15-3.1-7.3-7.37
		c-0.44-12.76-1.28-25.58,3.01-38.02c6.45-18.72,25.03-32.27,44.77-32.33c15.62-0.05,31.25-0.1,46.87,0.01
		c24.94,0.17,47.1,22.88,46.72,47.75c-0.08,5.43-2.8,8.8-7.22,8.94c-4.39,0.14-7.39-3.22-7.67-8.6c-0.26-4.96,0.46-9.96-0.72-14.9
		c-2.92-12.17-13.66-19.54-26.6-18.19c-11.39,1.19-20.53,11.34-20.67,23.2c-0.12,10.3-0.03,20.61-0.03,30.92
		C268.9,338.99,268.88,338.99,268.86,338.99z"/>
</g>
</svg>
